<?xml version="1.0" encoding="UTF-8"?>
<svg width="1099px" height="809px" viewBox="0 0 1099 809" version="1.1" xmlns="http://www.w3.org/2000/svg" xmlns:xlink="http://www.w3.org/1999/xlink">
    <!-- Generator: Sketch 52.2 (67145) - http://www.bohemiancoding.com/sketch -->
    <title>android</title>
    <desc>Created with Sketch.</desc>
    <g id="Page-1" stroke="none" stroke-width="1" fill="none" fill-rule="evenodd">
        <g id="android">
            <path d="M12.85,430.95 C30.21,505.15 66.96,569.29 125.04,600.38 C245.74,664.99 517.95,631.67 721.11,593.38 C823.767106,574.097698 916.948151,520.828743 985.65,442.15 L12.85,430.95 Z" id="Path" fill="#6C63FF" opacity="0.1"></path>
            <path d="M1078.2,81.71 L966.73,81.71 C961.408736,81.71 957.095,77.3962636 957.095,72.075 C957.095,66.7537364 961.408736,62.44 966.73,62.44 L986,62.44 C980.678736,62.44 976.365,58.1262636 976.365,52.805 C976.365,47.4837364 980.678736,43.17 986,43.17 L972.24,43.17 C966.918736,43.17 962.605,38.8562636 962.605,33.535 C962.605,28.2137364 966.918736,23.9 972.24,23.9 L1030.42,23.9 C1017.51,17.9 1002.42,13.63 985.04,11.39 C826.4,-8.99 769.76,4.49 749.78,18.39 C725.13,35.49 697.63,48.07 668.24,54.13 C570.36,74.32 387.31,98.62 221.4,46.35 C138.94,20.35 77.65,64.27 40.92,137.63 L1097.55,137.63 C1096.17,116.31 1092.04,96.63 1084.46,79.39 C1082.71901,80.8889114 1080.49734,81.7122759 1078.2,81.71 Z" id="Path" fill="#6C63FF" opacity="0.1"></path>
            <path d="M3.39,276.1 C-0.891902598,319.251471 0.560729994,362.78001 7.71,405.55 L986.39,441.34 C1013.63337,410.001026 1036.50783,375.117464 1054.39,337.64 L3.39,276.1 Z M390.47,368.45 L371.2,368.45 C376.521264,368.45 380.835,372.763736 380.835,378.085 C380.835,383.406264 376.521264,387.72 371.2,387.72 L259.73,387.72 C254.408736,387.72 250.095,383.406264 250.095,378.085 C250.095,372.763736 254.408736,368.45 259.73,368.45 L279,368.45 C273.678736,368.45 269.365,364.136264 269.365,358.815 C269.365,353.493736 273.678736,349.18 279,349.18 L265.24,349.18 C259.918736,349.18 255.605,344.866264 255.605,339.545 C255.605,334.223736 259.918736,329.91 265.24,329.91 L376.71,329.91 C382.031264,329.91 386.345,334.223736 386.345,339.545 C386.345,344.866264 382.031264,349.18 376.71,349.18 L390.47,349.18 C395.791264,349.18 400.105,353.493736 400.105,358.815 C400.105,364.136264 395.791264,368.45 390.47,368.45 Z" id="Shape" fill="#6C63FF" fill-rule="nonzero" opacity="0.1"></path>
            <path d="M1097.6,138.29 L29.11,164.29 C16.12,197.69 7.55,235.46 3.55,274.62 L1078.88,274.62 C1085.90102,251.622308 1091.09385,228.105787 1094.41,204.29 C1097.61,181.27 1098.89,159.02 1097.6,138.29 Z M220.47,223.45 L201.2,223.45 C206.521264,223.45 210.835,227.763736 210.835,233.085 C210.835,238.406264 206.521264,242.72 201.2,242.72 L89.73,242.72 C84.4087364,242.72 80.095,238.406264 80.095,233.085 C80.095,227.763736 84.4087364,223.45 89.73,223.45 L109,223.45 C103.678736,223.45 99.365,219.136264 99.365,213.815 C99.365,208.493736 103.678736,204.18 109,204.18 L95.24,204.18 C89.9187364,204.18 85.605,199.866264 85.605,194.545 C85.605,189.223736 89.9187364,184.91 95.24,184.91 L206.71,184.91 C212.031264,184.91 216.345,189.223736 216.345,194.545 C216.345,199.866264 212.031264,204.18 206.71,204.18 L220.47,204.18 C225.791264,204.18 230.105,208.493736 230.105,213.815 C230.105,219.136264 225.791264,223.45 220.47,223.45 Z" id="Shape" fill="#6C63FF" fill-rule="nonzero" opacity="0.1"></path>
            <g id="Group" opacity="0.1" transform="translate(671.000000, 404.000000)">
                <path d="M7.55,220.28 C7.55,220.28 35.75,150.78 88.41,125 C110.575915,114.340801 128.685696,96.7784184 140.02,74.95 C145.314298,64.5346415 149.642417,53.6557654 152.95,42.45" id="Path" stroke="#535461" stroke-width="2"></path>
                <path d="M186.04,26 C180.55,32.9 152.14,43 152.14,43 C152.14,43 155.56,13 161.05,6.15 C166.707552,-0.138298421 176.282279,-0.936481063 182.902933,4.32826319 C189.523587,9.59300744 190.902455,19.1014883 186.05,26.03 L186.04,26 Z" id="Path" fill="#6C63FF"></path>
                <path d="M176.29,80.66 C167.93,83.47 138.61,76.48 138.61,76.48 C138.61,76.48 157.76,53.2 166.12,50.39 C174.272177,48.2275066 182.703125,52.7644872 185.389237,60.7594339 C188.075349,68.7543806 184.094123,77.4615563 176.29,80.66 Z" id="Path" fill="#6C63FF"></path>
                <path d="M123.43,145.26 C114.8,143.47 93.01,122.63 93.01,122.63 C93.01,122.63 121.29,112.2 129.93,113.99 C138.042796,116.251109 143.013855,124.414214 141.299313,132.659844 C139.58477,140.905474 131.771685,146.410329 123.43,145.25 L123.43,145.26 Z" id="Path" fill="#6C63FF"></path>
                <path d="M72.43,185.14 C63.62,184.83 38.62,167.98 38.62,167.98 C38.62,167.98 64.74,152.95 73.55,153.23 C79.5168383,153.043552 85.0912326,156.194426 88.0087671,161.40268 C90.9263015,166.610934 90.7016933,173.010264 87.4261821,178.001151 C84.1506708,182.992037 78.369083,185.74433 72.43,185.14 Z" id="Path" fill="#6C63FF"></path>
                <path d="M111.31,56.95 C112.44,65.7 131.53,89.02 131.53,89.02 C131.53,89.02 144.1,61.62 142.98,52.87 C141.359117,44.5962418 133.596038,38.9999202 125.234109,40.0771754 C116.87218,41.1544305 110.780969,48.5355801 111.31,56.95 Z" id="Path" fill="#6C63FF"></path>
                <path d="M52.25,104.34 C55.94,112.34 81.14,128.89 81.14,128.89 C81.14,128.89 84.94,98.98 81.25,90.98 C79.1073665,85.4158406 74.0485516,81.5046508 68.1241864,80.8318626 C62.1998211,80.1590744 56.3928056,82.8363088 53.0570599,87.7783275 C49.7213142,92.7203462 49.4102656,99.1072282 52.25,104.35 L52.25,104.34 Z" id="Path" fill="#6C63FF"></path>
                <path d="M1.17,158.28 C3.45,166.8 25.5,187.36 25.5,187.36 C25.5,187.36 34.3,158.53 32.01,150.01 C29.2932062,142.035313 20.8579146,137.533555 12.7206458,139.715631 C4.58337713,141.897707 -0.467754444,150.01596 1.17,158.28 Z" id="Path" fill="#6C63FF"></path>
                <path d="M186.04,26 C180.55,32.9 152.14,43 152.14,43 C152.14,43 155.56,13 161.05,6.15 C166.707552,-0.138298421 176.282279,-0.936481063 182.902933,4.32826319 C189.523587,9.59300744 190.902455,19.1014883 186.05,26.03 L186.04,26 Z" id="Path" fill="#000000" opacity="0.25"></path>
                <path d="M176.29,80.66 C167.93,83.47 138.61,76.48 138.61,76.48 C138.61,76.48 157.76,53.2 166.12,50.39 C174.272177,48.2275066 182.703125,52.7644872 185.389237,60.7594339 C188.075349,68.7543806 184.094123,77.4615563 176.29,80.66 Z" id="Path" fill="#000000" opacity="0.25"></path>
                <path d="M123.43,145.26 C114.8,143.47 93.01,122.63 93.01,122.63 C93.01,122.63 121.29,112.2 129.93,113.99 C138.042796,116.251109 143.013855,124.414214 141.299313,132.659844 C139.58477,140.905474 131.771685,146.410329 123.43,145.25 L123.43,145.26 Z" id="Path" fill="#000000" opacity="0.25"></path>
                <path d="M72.43,185.14 C63.62,184.83 38.62,167.98 38.62,167.98 C38.62,167.98 64.74,152.95 73.55,153.23 C79.5168383,153.043552 85.0912326,156.194426 88.0087671,161.40268 C90.9263015,166.610934 90.7016933,173.010264 87.4261821,178.001151 C84.1506708,182.992037 78.369083,185.74433 72.43,185.14 Z" id="Path" fill="#000000" opacity="0.25"></path>
                <path d="M111.31,56.95 C112.44,65.7 131.53,89.02 131.53,89.02 C131.53,89.02 144.1,61.62 142.98,52.87 C141.359117,44.5962418 133.596038,38.9999202 125.234109,40.0771754 C116.87218,41.1544305 110.780969,48.5355801 111.31,56.95 Z" id="Path" fill="#000000" opacity="0.25"></path>
                <path d="M52.25,104.34 C55.94,112.34 81.14,128.89 81.14,128.89 C81.14,128.89 84.94,98.98 81.25,90.98 C79.1073665,85.4158406 74.0485516,81.5046508 68.1241864,80.8318626 C62.1998211,80.1590744 56.3928056,82.8363088 53.0570599,87.7783275 C49.7213142,92.7203462 49.4102656,99.1072282 52.25,104.35 L52.25,104.34 Z" id="Path" fill="#000000" opacity="0.25"></path>
                <path d="M1.17,158.28 C3.45,166.8 25.5,187.36 25.5,187.36 C25.5,187.36 34.3,158.53 32.01,150.01 C29.2932062,142.035313 20.8579146,137.533555 12.7206458,139.715631 C4.58337713,141.897707 -0.467754444,150.01596 1.17,158.28 Z" id="Path" fill="#000000" opacity="0.25"></path>
            </g>
            <g id="Group" opacity="0.1" transform="translate(629.000000, 257.000000)">
                <path d="M29.55,265.66 C29.55,265.66 33.11,190.74 74.24,148.95 C91.586433,131.526036 102.814708,108.946676 106.24,84.6 C107.782122,73.0280993 108.260789,61.339245 107.67,49.68" id="Path" stroke="#535461" stroke-width="2"></path>
                <path d="M133.55,23.19 C130.66,31.52 107.2,50.45 107.2,50.45 C107.2,50.45 100.5,21.06 103.39,12.73 C104.952068,6.95492617 109.60548,2.53376732 115.452899,1.26916408 C121.300318,0.00456082781 127.364743,2.10780629 131.173523,6.72134347 C134.982304,11.3348807 135.899059,17.6878681 133.55,23.19 Z" id="Path" fill="#6C63FF"></path>
                <path d="M142.43,77.95 C135.43,83.37 105.49,86.51 105.49,86.51 C105.49,86.51 115.84,58.19 122.79,52.77 C127.245677,48.808193 133.534646,47.6525121 139.107731,49.7714017 C144.680817,51.8902913 148.613448,56.9322286 149.31157,62.8535123 C150.009691,68.7747961 147.357486,74.5930885 142.43,77.95 Z" id="Path" fill="#6C63FF"></path>
                <path d="M113.98,156.47 C105.24,157.64 77.78,145.21 77.78,145.21 C77.78,145.21 101.01,125.99 109.78,124.82 C115.627546,123.646702 121.642317,125.82317 125.38501,130.466732 C129.127703,135.110294 129.977017,141.4501 127.58851,146.91503 C125.200004,152.37996 119.970178,156.062813 114.02,156.47 L113.98,156.47 Z" id="Path" fill="#6C63FF"></path>
                <path d="M79.09,211 C70.67,213.63 41.5,206 41.5,206 C41.5,206 61.14,183.13 69.56,180.5 C77.7605266,178.498929 86.1049658,183.212705 88.6239522,191.269232 C91.1429386,199.325759 86.969854,207.953315 79.09,210.98 L79.09,211 Z" id="Path" fill="#6C63FF"></path>
                <path d="M73.26,77.17 C77.26,85.05 102.98,100.72 102.98,100.72 C102.98,100.72 105.75,70.72 101.79,62.82 C97.5257726,55.533366 88.3337214,52.8138842 80.7913779,56.607527 C73.2490345,60.4011698 69.9522081,69.4022987 73.26,77.17 Z" id="Path" fill="#6C63FF"></path>
                <path d="M33.26,141.47 C39.4,147.8 68.66,155.05 68.66,155.05 C68.66,155.05 62.33,125.58 56.19,119.25 C49.9415029,113.567127 40.3519524,113.719959 34.2877216,119.599062 C28.2234908,125.478166 27.7735199,135.058373 33.26,141.48 L33.26,141.47 Z" id="Path" fill="#6C63FF"></path>
                <path d="M2.96,209.29 C7.96,216.57 35.56,228.66 35.56,228.66 C35.56,228.66 34.3,198.54 29.32,191.26 C24.0945172,184.715955 14.7069329,183.308377 7.79195996,188.032077 C0.876987005,192.755778 -1.22569188,202.012492 2.97,209.26 L2.96,209.29 Z" id="Path" fill="#6C63FF"></path>
            </g>
            <path d="M300.74,776.76 C340.06,789.98 388.03,781.94 432.64,782.87 C438.75,783 445.21,783.38 450.11,785.66 C455.01,787.94 457.42,791.66 460.78,794.81 C473.28,806.6 498.89,810.39 521.28,808.39 C543.67,806.39 564.2,799.77 585.28,794.73 C621.8,786.01 663.55,782.05 699.57,791.55 C702.88,792.42 706.36,793.42 709.9,793.08 C717.8,792.3 720.15,785.98 725.67,782.37 C735.67,775.85 757.3,777.62 761.67,769.03 C764.24,764.03 758.33,758.83 751.9,755.39 C727.28,742.23 692.06,740.06 659.84,742.09 C627.62,744.12 595.94,749.72 563.55,749.74 C523.2,749.74 484.21,741.15 444.25,737.63 C416.57,735.19 386.36,735.49 360.41,742.63 C332.36,750.45 326.16,767.89 300.74,776.76 Z" id="Path" fill="#6C63FF" opacity="0.1"></path>
            <rect id="Rectangle" fill="#535461" x="366.51" y="185.9" width="7" height="99"></rect>
            <rect id="Rectangle" fill="#535461" x="366.51" y="318.9" width="7" height="56"></rect>
            <rect id="Rectangle" fill="#535461" x="371.51" y="88.9" width="315" height="684" rx="47.1"></rect>
            <rect id="Rectangle" fill="#6C63FF" x="371.51" y="120.9" width="315" height="623" rx="47.1"></rect>
            <rect id="Rectangle" fill="#EAEAF3" x="503.51" y="103.9" width="52" height="7" rx="3.5"></rect>
            <circle id="Oval" fill="#EAEAF3" cx="573.51" cy="107.9" r="5"></circle>
            <path d="M447.31,397.1 L447.31,470.1 C447.360899,474.72354 445.555621,479.174396 442.298327,482.456125 C439.041032,485.737855 434.603792,487.576344 429.98,487.56 C420.34,487.56 410.98,479.75 410.98,470.1 L410.98,397.1 C410.98,387.58 420.31,379.77 429.98,379.77 C439.535159,379.808364 447.271636,387.544841 447.31,397.1 Z M454.12,496.04 C454.10935,500.989545 456.070835,505.739436 459.5707,509.2393 C463.070564,512.739165 467.820455,514.70065 472.77,514.69 L485.31,514.69 L485.5,553.2 C485.5,576.45 520.29,576.27 520.29,553.2 L520.29,514.7 L543.73,514.7 L543.73,553.21 C543.73,576.34 578.73,576.4 578.73,553.21 L578.73,514.7 L591.46,514.7 C596.390383,514.684113 601.112515,512.710276 604.58757,509.212717 C608.062625,505.715158 610.005939,500.980382 609.99,496.05 L609.990097,382.95 L454.119957,382.95 L454.12,496.04 Z M610.41,376.87 L453.41,376.87 C453.41,349.87 469.54,326.45 493.49,314.23 L481.49,291.98 C479.73,288.89 484.2,286.98 485.71,289.59 L497.94,312.03 C519.694605,302.512598 544.435395,302.512598 566.19,312.03 L578.35,289.66 C579.93,286.95 584.35,288.97 582.57,292.05 L570.57,314.23 C594.28,326.45 610.41,349.9 610.41,376.87 Z M502.83,341.87 C502.83,338.213875 499.866125,335.25 496.21,335.25 C492.656647,335.388183 489.847245,338.308961 489.847245,341.865 C489.847245,345.421039 492.656647,348.341817 496.21,348.48 C499.854441,348.480037 502.813484,345.534404 502.83,341.89 L502.83,341.87 Z M574.3,341.87 C574.244457,338.271014 571.282979,335.397882 567.683961,335.451329 C564.084944,335.504777 561.210088,338.464582 561.26144,342.06363 C561.312792,345.662678 564.270923,348.539257 567.87,348.49 C571.453111,348.408316 574.311825,345.474023 574.3,341.89 L574.3,341.87 Z M634.04,379.75 C629.439725,379.73667 625.024022,381.558223 621.771122,384.811122 C618.518223,388.064022 616.69667,392.479725 616.71,397.08 L616.71,470.08 C616.6914,474.693852 618.50711,479.125975 621.757409,482.400656 C625.007708,485.675337 629.426138,487.524118 634.04,487.54 C643.75,487.54 653.04,479.73 653.04,470.08 L653.04,397.08 C653.01,387.4 643.68,379.77 634.04,379.77 L634.04,379.75 Z" id="Shape" fill="#FFFFFF" fill-rule="nonzero"></path>
            <rect id="Rectangle" fill="#535461" x="455.01" y="570.46" width="65" height="3"></rect>
            <rect id="Rectangle" fill="#535461" x="544.01" y="570.46" width="43" height="3"></rect>
            <rect id="Rectangle" fill="#535461" x="398.01" y="570.46" width="43" height="3"></rect>
            <rect id="Rectangle" fill="#535461" x="612.01" y="570.46" width="43" height="3"></rect>
        </g>
    </g>
</svg>