<?xml version="1.0" encoding="UTF-8"?>
<svg width="1056px" height="774px" viewBox="0 0 1056 774" version="1.1" xmlns="http://www.w3.org/2000/svg" xmlns:xlink="http://www.w3.org/1999/xlink">
    <!-- Generator: Sketch 54.1 (76490) - https://sketchapp.com -->
    <title>backend</title>
    <desc>Created with Sketch.</desc>
    <defs>
        <linearGradient x1="50.0011621%" y1="100.00118%" x2="50.0011621%" y2="-0.0158321861%" id="linearGradient-1">
            <stop stop-color="#808080" stop-opacity="0.25" offset="0%"></stop>
            <stop stop-color="#808080" stop-opacity="0.12" offset="54%"></stop>
            <stop stop-color="#808080" stop-opacity="0.1" offset="100%"></stop>
        </linearGradient>
    </defs>
    <g id="Page-1" stroke="none" stroke-width="1" fill="none" fill-rule="evenodd">
        <g id="backend">
            <path d="M344.29,490.98 C379.2,477.25 434,474.45 483.88,475.55 C640.56,478.98 781.99,512.35 904.32,550.1 C948.61,563.77 992.21,578.5 1020.96,597.32 C1079.48,635.63 1062.12,688.7 980.75,720.26 C953.06,731 919.5,739.26 885.04,746.52 C823.76,759.5 757.68,769.91 688.14,772.91 C638.56,775.02 588.36,773.3 539.07,770.35 C401.34,762.08 266.16,743.91 152.85,712.68 C103.15,699.01 56.31,682.01 35.85,659.88 C15.39,637.75 28.47,609.73 79.22,596.63 C100.22,591.22 125.3,588.77 149.87,586.48 C186.03,583.1 222.77,579.76 255.4,572.89 C289.11,565.79 329.02,552.06 322.35,536.35 C315.16,519.49 309.42,504.69 344.29,490.98 Z" id="Path" fill="#6C63FF" opacity="0.1"></path>
            <path d="M503.38,30.13 L499.57,251.13 C499.57,251.13 637.49,251.13 754.83,289.23 L757.12,65.91 C757.12,65.91 568.91,20.99 503.38,30.13 Z" id="Path" fill="#000000" opacity="0.1"></path>
            <path d="M501.38,27.13 L497.57,248.13 C497.57,248.13 635.49,248.13 752.83,286.23 L755.12,62.91 C755.12,62.91 566.91,17.99 501.38,27.13 Z" id="Path" fill="#F5F5FB"></path>
            <path d="M444.64,29.96 L448.45,250.96 C448.45,250.96 310.53,250.96 193.19,289.06 L190.9,65.8 C190.9,65.8 379.11,20.82 444.64,29.96 Z" id="Path" fill="#000000" opacity="0.1"></path>
            <path d="M446.64,26.96 L450.45,247.96 C450.45,247.96 312.53,247.96 195.19,286.06 L192.9,62.8 C192.9,62.8 381.11,17.82 446.64,26.96 Z" id="Path" fill="#F5F5FB"></path>
            <path d="M790.41,97.42 L790.41,316.11 C790.41,316.11 835.41,310.78 929.85,427.36 L938.24,208.67 C938.24,208.67 839.94,102.76 790.41,97.42 Z" id="Path" fill="#000000" opacity="0.1"></path>
            <path d="M788.41,95.42 L788.41,314.11 C788.41,314.11 833.41,308.78 927.85,425.36 L936.24,206.67 C936.24,206.67 837.94,100.76 788.41,95.42 Z" id="Path" fill="#F5F5FB"></path>
            <path d="M160.06,103.91 L160.06,322.61 C160.06,322.61 115.06,317.28 20.62,433.86 L12.24,215.17 C12.24,215.17 110.53,109.26 160.06,103.91 Z" id="Path" fill="#000000" opacity="0.1"></path>
            <path d="M162.06,100.91 L162.06,319.61 C162.06,319.61 117.06,314.28 22.62,430.86 L14.24,212.17 C14.24,212.17 112.53,106.26 162.06,100.91 Z" id="Path" fill="#F5F5FB"></path>
            <ellipse id="Oval" fill="#6C63FF" opacity="0.1" cx="316.11" cy="365.5" rx="11.46" ry="1.57"></ellipse>
            <ellipse id="Oval" fill="#6C63FF" opacity="0.1" cx="272.22" cy="369.95" rx="11.46" ry="1.57"></ellipse>
            <ellipse id="Oval" fill="#6C63FF" opacity="0.1" cx="220.54" cy="363.93" rx="11.46" ry="1.57"></ellipse>
            <ellipse id="Oval" fill="#6C63FF" opacity="0.1" cx="289.79" cy="382.62" rx="8.14" ry="1.12"></ellipse>
            <ellipse id="Oval" fill="#6C63FF" opacity="0.1" cx="244.24" cy="381.5" rx="8.14" ry="1.12"></ellipse>
            <path d="M271.98,369.6 C271.98,369.6 288.04,316.93 269.46,295.84 C255.56,280.06 239.76,281.91 232.76,283.91 C229.059703,284.894708 225.977958,287.453689 224.33,290.91 C221.86,296.24 222.33,304.91 239.75,314.99 C268.94,331.89 270.75,355.08 270.75,355.08 L271.98,369.6 Z" id="Path" fill="#6C63FF"></path>
            <path d="M235.24,291.37 C235.24,291.37 282.6,306.18 271.98,369.6" id="Path" stroke="#565987"></path>
            <path d="M262.9,296.68 C262.9,296.68 256.38,301.07 258.45,307.68" id="Path" stroke="#565987"></path>
            <path d="M239.99,300.59 C239.99,300.59 243.99,296.53 248.82,298.77" id="Path" stroke="#565987"></path>
            <path d="M258.76,320.98 C258.76,320.98 265.76,317.43 267.57,321.88" id="Path" stroke="#565987"></path>
            <path d="M276.03,328.39 C276.03,328.39 270.77,327.97 270.68,330.48" id="Path" stroke="#565987"></path>
            <path d="M272.63,370.02 C272.63,370.02 253.81,331.74 248.63,332.58 C246.18,332.98 245.05,335.39 244.53,337.82 C243.886802,340.955104 244.236331,344.212714 245.53,347.14 C248.24,353.26 255.41,364.91 272.63,370.02 Z" id="Path" fill="#6C63FF"></path>
            <path d="M248.76,339.84 C248.76,339.84 268.51,368.48 272.33,369.74" id="Path" stroke="#565987"></path>
            <path d="M246.97,344.31 L251.58,344.31" id="Path" stroke="#565987"></path>
            <path d="M252.49,354.79 L259.71,355.1" id="Path" stroke="#565987"></path>
            <path d="M256.89,346.41 L256.1,350.17" id="Path" stroke="#565987"></path>
            <path d="M264.57,357.86 L264.43,361.28" id="Path" stroke="#565987"></path>
            <path d="M272.07,370.02 C272.07,370.02 290.88,331.74 296.07,332.58 C298.53,332.98 299.66,335.39 300.17,337.82 C300.808523,340.955326 300.459147,344.211506 299.17,347.14 C296.46,353.26 289.29,364.91 272.07,370.02 Z" id="Path" fill="#6C63FF"></path>
            <path d="M295.91,339.84 C295.91,339.84 276.16,368.48 272.35,369.74" id="Path" stroke="#565987"></path>
            <path d="M297.73,344.31 L293.12,344.31" id="Path" stroke="#565987"></path>
            <path d="M292.21,354.79 L284.98,355.1" id="Path" stroke="#565987"></path>
            <path d="M287.81,346.41 L288.6,350.17" id="Path" stroke="#565987"></path>
            <path d="M280.13,357.86 L280.27,361.28" id="Path" stroke="#565987"></path>
            <path d="M239.76,378.96 C239.247083,378.541202 238.873861,377.976138 238.69,377.34 C238.516243,376.684371 238.83041,375.997392 239.44,375.7 C240.12,375.43 240.86,375.91 241.44,376.39 C241.920668,376.956302 242.617666,377.29391 243.36,377.32 C242.598214,376.628756 242.253105,375.589638 242.45,374.58 C242.488883,374.37466 242.578232,374.182216 242.71,374.02 C243.09,373.61 243.78,373.79 244.24,374.11 C245.69,375.11 246.09,377.11 246.1,378.88 C246.178149,378.215624 246.178149,377.544376 246.1,376.88 C246.039613,376.212658 246.317428,375.559416 246.84,375.14 C247.183739,374.954756 247.569611,374.861733 247.96,374.87 C248.616115,374.776354 249.281166,374.96533 249.79,375.39 C250.281684,376.068456 250.252907,376.99342 249.72,377.64 C249.18034,378.24703 248.541194,378.757671 247.83,379.15 C247.28611,379.469568 246.823948,379.91119 246.48,380.44 C246.436543,380.511856 246.40291,380.589211 246.38,380.67 L242.28,380.67 C241.37023,380.210281 240.523296,379.635576 239.76,378.96 Z" id="Path" fill="#6C63FF"></path>
            <path d="M311.46,363.54 C310.947813,363.124717 310.574527,362.563044 310.39,361.93 C310.21503,361.271563 310.528868,360.581118 311.14,360.28 C311.884146,360.13523 312.648553,360.402772 313.14,360.98 C313.618544,361.547697 314.317715,361.882717 315.06,361.9 C314.296499,361.209874 313.951062,360.169768 314.15,359.16 C314.184262,358.95619 314.274248,358.765833 314.41,358.61 C314.79,358.2 315.48,358.37 315.94,358.69 C317.39,359.69 317.79,361.69 317.8,363.47 C317.877421,362.805581 317.877421,362.134419 317.8,361.47 C317.739613,360.802658 318.017428,360.149416 318.54,359.73 C318.882807,359.543263 319.269986,359.453382 319.66,359.47 C320.316459,359.371107 320.983632,359.560686 321.49,359.99 C321.983654,360.664202 321.954787,361.587937 321.42,362.23 C320.88034,362.83703 320.241194,363.347671 319.53,363.74 C318.988275,364.062426 318.526704,364.503482 318.18,365.03 C318.136543,365.101856 318.10291,365.179211 318.08,365.26 L313.98,365.26 C313.067577,364.800726 312.220173,364.222339 311.46,363.54 L311.46,363.54 Z" id="Path" fill="#6C63FF"></path>
            <path d="M287.56,378.96 C287.047083,378.541202 286.673861,377.976138 286.49,377.34 C286.320353,376.684726 286.633368,376.000268 287.24,375.7 C287.93,375.43 288.66,375.91 289.24,376.39 C289.721442,376.955302 290.417971,377.292683 291.16,377.32 C290.400149,376.627763 290.058612,375.587972 290.26,374.58 C290.290617,374.374002 290.377079,374.180327 290.51,374.02 C290.89,373.61 291.58,373.79 292.04,374.11 C293.49,375.11 293.9,377.11 293.91,378.88 C293.982918,378.215327 293.982918,377.544673 293.91,376.88 C293.849613,376.212658 294.127428,375.559416 294.65,375.14 C295.608836,374.698534 296.72913,374.793475 297.6,375.39 C298.098911,376.066219 298.069981,376.996102 297.53,377.64 C296.992407,378.249205 296.352858,378.760167 295.64,379.15 C295.100139,379.474873 294.639064,379.915456 294.29,380.44 C294.2507,380.513932 294.217264,380.590835 294.19,380.67 L290.1,380.67 C289.182139,380.213629 288.328173,379.638715 287.56,378.96 L287.56,378.96 Z" id="Path" fill="#6C63FF"></path>
            <path d="M219.76,347.8 C219.76,347.8 218.23,349.8 220.47,352.8 C222.71,355.8 224.57,358.39 223.82,360.28 C223.82,360.28 220.43,354.65 217.68,354.57 C214.93,354.49 216.76,351.18 219.76,347.8 Z" id="Path" fill="#6C63FF"></path>
            <path d="M219.76,347.8 C219.625831,347.993367 219.521341,348.205717 219.45,348.43 C216.76,351.58 215.33,354.53 217.91,354.6 C220.32,354.67 223.21,358.98 223.91,360.06 C223.889352,360.145141 223.862616,360.228689 223.83,360.31 C223.83,360.31 220.44,354.68 217.69,354.6 C214.94,354.52 216.76,351.18 219.76,347.8 Z" id="Path" fill="#000000" opacity="0.1"></path>
            <path d="M216.94,350.35 C216.94,351.06 217.02,351.63 217.12,351.63 C217.22,351.63 217.29,351.06 217.29,350.35 C217.29,349.64 217.2,349.98 217.1,349.98 C217,349.98 216.94,349.65 216.94,350.35 Z" id="Path" fill="#FFD037"></path>
            <path d="M215.96,351.2 C216.58,351.54 217.12,351.74 217.17,351.65 C217.22,351.56 216.75,351.22 216.17,350.89 C215.59,350.56 215.79,350.79 215.75,350.89 C215.71,350.99 215.34,350.91 215.96,351.2 Z" id="Path" fill="#FFD037"></path>
            <path d="M227.9,347.8 C227.9,347.8 229.44,349.8 227.19,352.8 C224.94,355.8 223.1,358.39 223.85,360.28 C223.85,360.28 227.23,354.65 229.99,354.57 C232.75,354.49 230.93,351.18 227.9,347.8 Z" id="Path" fill="#6C63FF"></path>
            <path d="M227.9,347.8 C228.034169,347.993367 228.138659,348.205717 228.21,348.43 C230.9,351.58 232.33,354.53 229.75,354.6 C227.34,354.67 224.46,358.98 223.75,360.06 C223.770648,360.145141 223.797384,360.228689 223.83,360.31 C223.83,360.31 227.21,354.68 229.97,354.6 C232.73,354.52 230.93,351.18 227.9,347.8 Z" id="Path" fill="#000000" opacity="0.1"></path>
            <path d="M230.76,350.35 C230.76,351.06 230.69,351.63 230.59,351.63 C230.49,351.63 230.41,351.06 230.41,350.35 C230.41,349.64 230.51,349.98 230.61,349.98 C230.71,349.98 230.76,349.65 230.76,350.35 Z" id="Path" fill="#FFD037"></path>
            <path d="M231.76,351.2 C231.14,351.54 230.6,351.74 230.56,351.65 C230.52,351.56 230.97,351.22 231.56,350.89 C232.15,350.56 231.94,350.79 231.99,350.89 C232.04,350.99 232.35,350.91 231.76,351.2 Z" id="Path" fill="#FFD037"></path>
            <path d="M230.27,360.05 C230.27,360.05 225.97,359.92 224.68,359 C223.39,358.08 218.08,357 217.76,358.45 C217.44,359.9 211.31,365.8 216.15,365.84 C220.99,365.88 227.41,365.08 228.7,364.3 C229.99,363.52 230.27,360.05 230.27,360.05 Z" id="Path" fill="#A8A8A8"></path>
            <path d="M216.07,365.32 C220.91,365.32 227.33,364.57 228.62,363.78 C229.62,363.18 229.99,361.03 230.12,360.04 L230.27,360.04 C230.27,360.04 229.99,363.5 228.7,364.29 C227.41,365.08 221,365.87 216.15,365.83 C214.76,365.83 214.27,365.32 214.3,364.58 C214.49,365.04 215.03,365.31 216.07,365.32 Z" id="Path" fill="#000000" opacity="0.2"></path>
            <ellipse id="Oval" fill="#6C63FF" opacity="0.1" cx="195.17" cy="496.39" rx="34.72" ry="5.13"></ellipse>
            <ellipse id="Oval" fill="#6C63FF" opacity="0.1" cx="292.15" cy="538.87" rx="34.72" ry="5.13"></ellipse>
            <ellipse id="Oval" fill="#6C63FF" opacity="0.1" cx="149.49" cy="587.2" rx="34.72" ry="5.13"></ellipse>
            <ellipse id="Oval" fill="#6C63FF" opacity="0.1" cx="885.14" cy="693.36" rx="34.72" ry="5.13"></ellipse>
            <ellipse id="Oval" fill="#6C63FF" opacity="0.1" cx="491.09" cy="575.32" rx="22.99" ry="2.57"></ellipse>
            <ellipse id="Oval" fill="#6C63FF" opacity="0.1" cx="820.09" cy="443.32" rx="22.99" ry="2.57"></ellipse>
            <ellipse id="Oval" fill="#6C63FF" opacity="0.1" cx="641.08" cy="638.32" rx="22.99" ry="2.57"></ellipse>
            <ellipse id="Oval" fill="#6C63FF" opacity="0.1" cx="442.64" cy="621.36" rx="22.99" ry="2.57"></ellipse>
            <ellipse id="Oval" fill="#6C63FF" opacity="0.1" cx="256.67" cy="614.69" rx="22.99" ry="2.57"></ellipse>
            <ellipse id="Oval" fill="#6C63FF" opacity="0.1" cx="208.21" cy="660.73" rx="22.99" ry="2.57"></ellipse>
            <ellipse id="Oval" fill="#6C63FF" opacity="0.1" cx="733.03" cy="571.25" rx="57" ry="10.26"></ellipse>
            <path d="M701.03,440.52 C703.91,442.22 708.43,443.33 714.12,439.67 L714.07,447.78 C714.47,453.34 721.35,473.61 721.35,473.61 L726.2,490.28 C729.680986,502.06096 731.475482,514.275648 731.53,526.56 C731.53,530.62 731.91,534.82 733.08,537.98 C735.67,544.98 732.08,553.98 730.51,557.3 C727.884062,558.187921 725.213803,558.938932 722.51,559.55 C722.268895,559.608156 722.031746,559.681639 721.8,559.77 L721.8,559.72 C721.8,559.72 714.52,562.61 711.28,562.21 C708.87,561.92 707.36,564.93 709.28,567.14 C707.712906,567.618351 706.077566,567.834594 704.44,567.78 C701.2,567.38 699.58,572.94 705.65,574.53 C711.72,576.12 746.11,574.53 746.11,574.53 C748.096511,573.535114 749.15787,571.321894 748.69,569.15 L752.99,568.97 C752.99,568.97 759.06,566.19 752.99,558.64 L752.66,558.88 L751.37,555.06 L751.37,549.91 C751.37,549.91 759.06,512.91 756.63,508.58 C754.2,504.25 752.91,481.91 752.91,481.91 L753.76,457.71 C755.95,453.19 757.07,446.09 757.64,440.54 C758.468255,437.895371 758.988366,435.163949 759.19,432.4 C759.29,431.09 759.37,429.73 759.42,428.31 C759.453561,425.19454 758.952983,422.096368 757.94,419.15 C760.685058,415.078229 763.751509,411.232625 767.11,407.65 C769.945359,405.012462 771.308939,401.153345 770.76,397.32 L768.76,383.81 L763.9,360.81 C764.51,354.42 763.18,350.74 761.7,348.66 C762.05,346.59 762.38,344.53 762.63,342.45 C763.699805,333.434874 763.219545,324.303175 761.21,315.45 C760.51,312.37 759.55,309.2 757.38,306.86 C754.93,304.2 750.95,302.59 750.03,299.12 C749.900216,298.23547 749.713156,297.360297 749.47,296.5 C748.58,294.23 745.78,293.4 743.32,293.1 C738.94,292.57 732.61,292.17 728.4,293.89 C724.7053,295.523627 721.663724,298.346942 719.76,301.91 C718.812207,303.373975 718.454847,305.142905 718.76,306.86 C718.909732,307.456027 719.141975,308.028221 719.45,308.56 C716.533501,316.466809 720.518797,325.248727 728.39,328.26 C728.49,328.57 728.58,328.87 728.65,329.16 C728.835016,329.872846 728.968692,330.598038 729.05,331.33 C728.97,332.73 728.88,334.14 728.82,335.55 L728.67,336.12 C725.188706,337.661243 721.793704,339.390457 718.5,341.3 C720.92,344.88 718.09,359.98 718.09,359.98 C712.02,363.55 705.96,372.69 712.43,382.23 C718.9,391.77 715.26,402.09 715.26,402.09 L714.26,417.63 L714.26,417.63 L714.26,417.63 L714.06,420.74 L714.13,420.74 L714.06,421.92 L714.23,421.92 L714.23,423.19 C711.39,424.24 707.23,426.34 704.76,430.24 C703.589685,432.152262 702.166866,433.89799 700.53,435.43 C699.755968,436.092544 699.354199,437.091288 699.453805,438.105275 C699.55341,439.119261 700.141842,440.020736 701.03,440.52 L701.03,440.52 Z M749.88,399.24 C749.636129,396.550709 750.134179,393.846023 751.32,391.42 L754.18,391.42 C754.264301,392.052262 754.381123,392.67976 754.53,393.3 C755.35,396.85 752.07,398.52 749.88,399.24 L749.88,399.24 Z" id="Shape" fill="url(#linearGradient-1)" fill-rule="nonzero"></path>
            <path d="M750.68,553.24 L752.24,557.91 L747.18,562.97 L730.44,566.91 L718.37,565.74 L719.15,561.46 L719.15,561.46 C719.618652,559.582524 721.096528,558.123942 722.98,557.68 C727.98,556.52 737.4,553.86 739.39,550.17 L750.68,553.24 Z" id="Path" fill="#DB8B8B"></path>
            <path d="M750.68,553.24 L752.24,557.91 L747.18,562.97 L730.44,566.91 L718.37,565.74 L719.15,561.46 L719.15,561.46 C719.618652,559.582524 721.096528,558.123942 722.98,557.68 C727.98,556.52 737.4,553.86 739.39,550.17 L750.68,553.24 Z" id="Path" fill="#000000" opacity="0.1"></path>
            <path d="M722.26,564.53 L724.6,561.42 L722.26,557.81 C722.26,557.81 715.26,560.64 712.14,560.25 C709.02,559.86 707.47,565.31 713.31,566.87 C719.15,568.43 752.24,566.87 752.24,566.87 C752.24,566.87 758.08,564.14 752.24,556.74 L747.18,560.64 C747.18,560.64 738.61,565.31 734.33,564.53 L722.26,564.53 Z" id="Path" fill="#C17174"></path>
            <path d="M711.76,571.15 L723.83,572.32 L740.57,568.42 L745.63,563.36 L745.22,562.13 L744.64,560.39 L744.07,558.69 L732.76,555.58 C732.186167,556.511845 731.401845,557.296167 730.47,557.87 C726.8,560.38 720.22,562.19 716.35,563.09 C716.186879,563.129403 716.026532,563.179511 715.87,563.24 C715.117093,563.479643 714.431697,563.894307 713.87,564.45 C713.194328,565.112965 712.7165,565.950896 712.49,566.87 L711.76,571.15 Z" id="Path" fill="#DB8B8B"></path>
            <path d="M711.76,571.15 L723.83,572.32 L740.57,568.42 L745.63,563.36 L745.22,562.13 L740.57,565.7 C740.57,565.7 732,570.37 727.72,569.59 L715.64,569.59 L717.98,566.48 L715.88,563.24 C715.127093,563.479643 714.441697,563.894307 713.88,564.45 C713.204328,565.112965 712.7265,565.950896 712.5,566.87 L711.76,571.15 Z" id="Path" fill="#000000" opacity="0.1"></path>
            <path d="M715.64,569.98 L717.98,566.87 L715.64,563.26 C715.64,563.26 708.64,566.09 705.52,565.7 C702.4,565.31 700.85,570.76 706.69,572.32 C712.53,573.88 745.62,572.32 745.62,572.32 C745.62,572.32 751.46,569.59 745.62,562.2 L740.56,566.09 C740.56,566.09 731.99,570.76 727.71,569.98 L715.64,569.98 Z" id="Path" fill="#C17174"></path>
            <path d="M725.37,344.18 C725.37,344.18 744.06,346.18 741.37,338.34 C740.601532,336.131856 740.402053,333.765632 740.79,331.46 C741.271137,328.605814 742.400038,325.899872 744.09,323.55 L726.57,326.27 C727.623085,328.025944 728.424249,329.921133 728.95,331.9 C731,340.16 725.37,344.18 725.37,344.18 Z" id="Path" fill="#DB8B8B"></path>
            <path d="M757.3,432.91 C757.3,432.91 756.91,449.65 753.02,457.83 L752.24,481.58 C752.24,481.58 753.4,503.38 755.74,507.66 C758.08,511.94 750.68,548.15 750.68,548.15 L750.68,554.38 C750.68,554.38 738.22,559.05 734.68,553.6 L738.18,507.27 L736.62,443.04 L757.3,432.91 Z" id="Path" fill="#474463"></path>
            <path d="M757.3,432.91 C757.3,432.91 756.91,449.65 753.02,457.83 L752.24,481.58 C752.24,481.58 753.4,503.38 755.74,507.66 C758.08,511.94 750.68,548.15 750.68,548.15 L750.68,554.38 C750.68,554.38 738.22,559.05 734.68,553.6 L738.18,507.27 L736.62,443.04 L757.3,432.91 Z" id="Path" fill="#000000" opacity="0.1"></path>
            <path d="M765.08,379.22 L767.42,385.45 L769.42,398.68 C769.948403,402.424768 768.642047,406.194964 765.91,408.81 C761.24,413.48 755.01,423.21 755.01,423.21 L747.62,401.02 C747.62,401.02 755.01,399.85 753.84,394.79 C752.67,389.73 753.07,380.39 753.07,380.39 L765.08,379.22 Z" id="Path" fill="#FF748E"></path>
            <path d="M765.17,379.13 L767.5,385.36 L769.5,398.6 C770.036048,402.340607 768.73247,406.10981 766,408.72 C761.32,413.39 755.1,423.13 755.1,423.13 L747.65,400.91 C747.65,400.91 755.05,399.74 753.88,394.68 C752.71,389.62 753.1,380.27 753.1,380.27 L765.17,379.13 Z" id="Path" fill="#000000" opacity="0.05"></path>
            <path d="M730.48,557.91 C735.48,565.77 743.25,561.31 744.63,560.43 L744.06,558.73 L732.76,555.58 C732.193961,556.525278 731.412779,557.323592 730.48,557.91 Z" id="Path" fill="#000000" opacity="0.1"></path>
            <path d="M714.86,448.13 C715.25,453.58 721.86,473.43 721.86,473.43 L726.53,489.77 C729.87086,501.323387 731.597227,513.283439 731.66,525.31 C731.54272,529.096316 732.046041,532.876297 733.15,536.5 C736.27,545.07 730.04,556.74 730.04,556.74 C735.49,566.48 744.83,559.86 744.83,559.86 L744.83,553.63 C744.83,553.63 752.23,519.76 750.28,513.14 C748.33,506.52 747.56,488.62 747.56,488.62 L747.56,456.3 C753.793749,450.086129 757.58449,441.837364 758.24,433.06 C758.33,431.78 758.41,430.44 758.46,429.06 C758.77,420.28 752.76,409.98 750.46,406.31 C749.9,405.42 749.54,404.92 749.54,404.92 L715.17,418.56 L715.09,418.56 L715.09,419.91 L715.09,422.85 L714.86,448.13 Z" id="Path" fill="#474463"></path>
            <path d="M726.54,326.27 C727.593085,328.025944 728.394249,329.921133 728.92,331.9 C732.764093,333.358573 737.034768,333.199866 740.76,331.46 C741.241137,328.605814 742.370038,325.899872 744.06,323.55 L726.54,326.27 Z" id="Path" fill="#000000" opacity="0.1"></path>
            <circle id="Oval" fill="#DB8B8B" cx="734.33" cy="316.93" r="15.18"></circle>
            <path d="M714.86,422.82 L715.03,422.82 C731.35,426.18 751.85,409.17 751.85,409.17 C751.300452,408.242551 750.825618,407.272821 750.43,406.27 C749.87,405.38 749.51,404.88 749.51,404.88 L715.14,418.52 L715.05,419.88 L714.86,422.82 Z" id="Path" fill="#000000" opacity="0.1"></path>
            <path d="M719.15,343.79 C719.15,343.79 740.95,330.55 747.95,336 L757.69,348.46 C757.69,348.46 763.92,350.41 762.76,362.91 L767.43,385.49 L753.43,388.99 C753.43,388.99 745.26,396.78 751.88,408.07 C751.88,408.07 731.24,425.2 714.88,421.69 L716.05,403.4 C716.05,403.4 719.55,393.27 713.33,383.93 C707.11,374.59 712.94,365.63 718.78,362.13 C718.76,362.09 721.48,347.29 719.15,343.79 Z" id="Path" fill="#FF748E"></path>
            <path d="M717.98,423.21 C717.98,423.21 709.8,424.77 705.91,431 C704.784953,432.872332 703.41259,434.584422 701.83,436.09 C701.109446,436.745731 700.741623,437.703716 700.838175,438.67318 C700.934727,439.642643 701.484269,440.509264 702.32,441.01 C705.41,442.87 710.44,444.01 716.81,438.78 C727.76,429.83 717.98,423.21 717.98,423.21 Z" id="Path" fill="#DB8B8B"></path>
            <path d="M730.05,351.19 C730.05,351.19 737.83,350.41 739.78,370.65 C741.73,390.89 744.84,395.57 744.84,395.57 C744.84,395.57 746.79,406.08 742.11,412.31 C737.43,418.54 728.49,431.78 728.49,431.78 C728.49,431.78 718.76,434.5 716.81,424.78 L728.88,402.2 C728.88,402.2 730.82,394.41 726.15,388.96 C721.48,383.51 717.98,347.29 730.05,351.19 Z" id="Path" fill="#000000" opacity="0.1"></path>
            <path d="M729.27,350.02 C729.27,350.02 737.05,349.24 739,369.49 C740.95,389.74 744.06,394.4 744.06,394.4 C744.06,394.4 746.06,404.91 741.34,411.14 C736.62,417.37 727.76,430.61 727.76,430.61 C727.76,430.61 718.03,433.33 716.08,423.61 L728.15,401.03 C728.15,401.03 730.1,393.24 725.42,387.79 C720.74,382.34 717.2,346.13 729.27,350.02 Z" id="Path" fill="#FF748E"></path>
            <path d="M722.84,364.62 C722.84,364.62 722.07,376.69 725.57,383.31 C729.07,389.93 729.07,398.49 725.57,403.16" id="Path" fill="#000000" opacity="0.1"></path>
            <path d="M720.9,349.82 C720.9,349.82 724.01,346.71 732.97,346.32 C741.93,345.93 745.81,343.21 745.81,343.21" id="Path" fill="#000000" opacity="0.1"></path>
            <path d="M742.55,297.31 C744.92,297.6 747.62,298.41 748.47,300.63 C748.704063,301.47502 748.88772,302.333198 749.02,303.2 C749.9,306.6 753.73,308.2 756.09,310.78 C758.17,313.08 759.09,316.18 759.77,319.21 C761.708649,327.88719 762.171795,336.828954 761.14,345.66 C760.38,352.11 758.82,358.47 758.39,364.95 C757.96,371.43 758.75,378.26 762.29,383.71 C763.82,386.05 765.83,388.11 766.91,390.71 C764.68,392.52 761.6,392.78 758.72,392.88 C755.386667,392.993333 752.036667,392.993333 748.67,392.88 C746.907694,392.95032 745.155439,392.58269 743.57,391.81 C742.448237,391.095483 741.526129,390.108001 740.89,388.94 C738.97,385.69 738.49,381.78 738.57,378.01 C738.65,374.24 739.25,370.49 739.32,366.71 C739.518718,364.647887 739.060188,362.575751 738.01,360.79 C737.043577,359.666741 735.94953,358.659949 734.75,357.79 C730.58,354.09 729.15,348.17 729.01,342.6 C728.87,337.03 729.79,331.46 729.32,325.91 C729.14,323.74 728.32,321.13 726.19,320.71 C725.516952,320.682696 724.847658,320.595688 724.19,320.45 C722.48,319.79 722.65,317.38 722.19,315.61 C721.64,313.61 719.94,312.08 719.46,310.08 C718.34,305.37 724.34,299.74 728.27,298.08 C732.2,296.42 738.34,296.79 742.55,297.31 Z" id="Path" fill="#000000" opacity="0.1"></path>
            <path d="M742.94,296.53 C745.31,296.82 748.01,297.63 748.86,299.86 C749.095078,300.70139 749.27875,301.556303 749.41,302.42 C750.29,305.82 754.12,307.42 756.48,310 C758.56,312.3 759.48,315.4 760.16,318.43 C762.098693,327.117453 762.558473,336.069641 761.52,344.91 C760.77,351.36 759.21,357.72 758.78,364.21 C758.35,370.7 759.14,377.51 762.68,382.96 C764.21,385.31 766.22,387.36 767.3,389.96 C765.07,391.78 761.99,392.03 759.11,392.13 C755.776667,392.236667 752.426667,392.236667 749.06,392.13 C747.298501,392.203845 745.546187,391.839639 743.96,391.07 C742.837823,390.351686 741.91583,389.360887 741.28,388.19 C739.36,384.94 738.88,381.03 738.96,377.26 C739.04,373.49 739.64,369.74 739.71,365.97 C739.71,363.91 739.59,361.73 738.4,360.05 C737.435844,358.924551 736.341524,357.917508 735.14,357.05 C730.97,353.35 729.54,347.43 729.4,341.86 C729.26,336.29 730.18,330.72 729.71,325.17 C729.53,323 728.71,320.39 726.58,319.97 C725.906952,319.942696 725.237658,319.855688 724.58,319.71 C722.87,319.05 723.04,316.64 722.58,314.87 C722.03,312.87 720.33,311.35 719.85,309.34 C718.73,304.63 724.73,299 728.66,297.34 C732.59,295.68 738.76,296.01 742.94,296.53 Z" id="Path" fill="#464353"></path>
            <path d="M128.04,572.77 C128.04,572.77 138.76,572.44 141.98,570.14 C145.2,567.84 158.46,565.09 159.26,568.78 C160.06,572.47 175.36,587.12 163.26,587.22 C151.16,587.32 135.16,585.33 131.93,583.37 C128.7,581.41 128.04,572.77 128.04,572.77 Z" id="Path" fill="#A8A8A8"></path>
            <path d="M163.48,585.91 C151.39,586.01 135.38,584.03 132.16,582.07 C129.71,580.57 128.73,575.21 128.4,572.73 L128.04,572.73 C128.04,572.73 128.72,581.37 131.94,583.33 C135.16,585.29 151.17,587.27 163.27,587.18 C166.76,587.18 167.96,585.91 167.9,584.07 C167.41,585.22 166.08,585.91 163.48,585.91 Z" id="Path" fill="#000000" opacity="0.2"></path>
            <path d="M808.93,432.12 C808.93,432.12 816.28,431.89 818.5,430.31 C820.72,428.73 829.81,426.85 830.36,429.38 C830.91,431.91 841.42,441.97 833.11,442.04 C824.8,442.11 813.82,440.74 811.61,439.4 C809.4,438.06 808.93,432.12 808.93,432.12 Z" id="Path" fill="#A8A8A8"></path>
            <path d="M833.26,441.16 C824.96,441.22 813.97,439.86 811.76,438.52 C810.07,437.52 809.4,433.81 809.18,432.11 L808.93,432.11 C808.93,432.11 809.4,438.04 811.61,439.39 C813.82,440.74 824.81,442.09 833.11,442.03 C835.51,442.03 836.34,441.16 836.29,439.89 C835.96,440.67 835.05,441.14 833.26,441.16 Z" id="Path" fill="#000000" opacity="0.2"></path>
            <circle id="Oval" fill="#6C63FF" opacity="0.1" cx="31.29" cy="21.63" r="21.63"></circle>
            <circle id="Oval" fill="#6C63FF" opacity="0.1" cx="961.29" cy="83.63" r="21.63"></circle>
            <circle id="Oval" fill="#6C63FF" opacity="0.1" cx="16" cy="106.18" r="16"></circle>
            <circle id="Oval" fill="#6C63FF" opacity="0.1" cx="178" cy="16.18" r="16"></circle>
            <circle id="Oval" fill="#6C63FF" opacity="0.1" cx="834" cy="18.18" r="16"></circle>
            <path d="M889.62,646.4 C889.62,646.4 893.62,651.64 887.77,659.55 C881.92,667.46 877.09,674.13 879.04,679.06 C879.04,679.06 887.87,664.38 895.04,664.17 C902.21,663.96 897.52,655.24 889.62,646.4 Z" id="Path" fill="#FC6681"></path>
            <path d="M889.62,646.4 C889.967745,646.908301 890.24054,647.463995 890.43,648.05 C897.43,656.29 901.19,663.98 894.43,664.17 C888.15,664.35 880.62,675.58 878.81,678.42 C878.869855,678.637731 878.943333,678.851486 879.03,679.06 C879.03,679.06 887.86,664.38 895.03,664.17 C902.2,663.96 897.52,655.24 889.62,646.4 Z" id="Path" fill="#000000" opacity="0.1"></path>
            <path d="M897.06,653.08 C897.06,654.92 896.85,656.42 896.6,656.42 C896.35,656.42 896.14,654.92 896.14,653.08 C896.14,651.24 896.4,652.08 896.65,652.08 C896.9,652.08 897.06,651.23 897.06,653.08 Z" id="Path" fill="#FFD037"></path>
            <path d="M899.62,655.28 C898,656.16 896.62,656.69 896.46,656.47 C896.3,656.25 897.56,655.35 899.17,654.47 C900.78,653.59 900.17,654.23 900.28,654.47 C900.39,654.71 901.24,654.4 899.62,655.28 Z" id="Path" fill="#FFD037"></path>
            <path d="M868.46,646.4 C868.46,646.4 864.46,651.64 870.31,659.55 C876.16,667.46 880.99,674.13 879.04,679.06 C879.04,679.06 870.2,664.38 863.04,664.17 C855.88,663.96 860.55,655.24 868.46,646.4 Z" id="Path" fill="#FC6681"></path>
            <path d="M868.46,646.4 C868.110975,646.90902 867.834961,647.464415 867.64,648.05 C860.64,656.29 856.89,663.98 863.64,664.17 C869.92,664.35 877.46,675.58 879.26,678.42 C879.2,678.63 879.13,678.85 879.05,679.06 C879.05,679.06 870.21,664.38 863.05,664.17 C855.89,663.96 860.55,655.24 868.46,646.4 Z" id="Path" fill="#000000" opacity="0.1"></path>
            <path d="M861.01,653.08 C861.01,654.92 861.22,656.42 861.48,656.42 C861.74,656.42 861.94,654.92 861.94,653.08 C861.94,651.24 861.68,652.08 861.42,652.08 C861.16,652.08 861.01,651.23 861.01,653.08 Z" id="Path" fill="#FFD037"></path>
            <path d="M858.46,655.28 C860.08,656.16 861.46,656.69 861.61,656.47 C861.76,656.25 860.52,655.35 858.9,654.47 C857.28,653.59 857.9,654.23 857.8,654.47 C857.7,654.71 856.84,654.4 858.46,655.28 Z" id="Path" fill="#FFD037"></path>
            <path d="M862.29,678.38 C862.29,678.38 873.49,678.03 876.86,675.63 C880.23,673.23 894.09,670.36 894.93,674.21 C895.77,678.06 911.75,693.38 899.11,693.48 C886.47,693.58 869.73,691.48 866.37,689.48 C863.01,687.48 862.29,678.38 862.29,678.38 Z" id="Path" fill="#A8A8A8"></path>
            <path d="M899.34,692.14 C886.69,692.24 869.96,690.14 866.59,688.14 C864.03,686.58 863,680.97 862.66,678.38 L862.29,678.38 C862.29,678.38 863,687.38 866.37,689.46 C869.74,691.54 886.47,693.58 899.11,693.46 C902.76,693.46 904.02,692.13 903.95,690.21 C903.45,691.39 902.05,692.12 899.34,692.14 Z" id="Path" fill="#000000" opacity="0.2"></path>
            <path d="M316.45,125.97 C304.85202,125.97 295.45,135.37202 295.45,146.97 C295.45,158.56798 304.85202,167.97 316.45,167.97 C328.04798,167.97 337.45,158.56798 337.45,146.97 C337.45,135.37202 328.04798,125.97 316.45,125.97 L316.45,125.97 Z M316.45,130.04 C325.838841,130.04 333.45,137.651159 333.45,147.04 C333.45,156.428841 325.838841,164.04 316.45,164.04 C307.061159,164.04 299.45,156.428841 299.45,147.04 C299.45,137.651159 307.061159,130.04 316.45,130.04 L316.45,130.04 Z M328.34,141.09 L326.43,139.16 C326.241517,138.964448 325.9816,138.853974 325.71,138.853974 C325.4384,138.853974 325.178483,138.964448 324.99,139.16 L312.99,151.05 L307.93,145.91 C307.741517,145.714448 307.4816,145.603974 307.21,145.603974 C306.9384,145.603974 306.678483,145.714448 306.49,145.91 L304.57,147.82 C304.374448,148.008483 304.263974,148.2684 304.263974,148.54 C304.263974,148.8116 304.374448,149.071517 304.57,149.26 L312.27,157.02 C312.458483,157.215552 312.7184,157.326026 312.99,157.326026 C313.2616,157.326026 313.521517,157.215552 313.71,157.02 L328.34,142.5 C328.535552,142.311517 328.646026,142.0516 328.646026,141.78 C328.646026,141.5084 328.535552,141.248483 328.34,141.06 L328.34,141.09 Z" id="Shape" fill="#3ACC6C" fill-rule="nonzero" opacity="0.7"></path>
            <path d="M83.97,232.29 C72.6801385,234.91256 65.6497264,246.18599 68.2619338,257.478251 C70.8741413,268.770512 82.1411206,275.811258 93.4357722,273.209405 C104.730424,270.607552 111.781496,259.347032 109.19,248.05 C107.942475,242.611699 104.582017,237.893426 99.850353,234.936605 C95.1186891,231.979784 89.4048486,231.027521 83.97,232.29 L83.97,232.29 Z M84.89,236.29 C91.5930969,234.725762 98.5779406,237.357935 102.581639,242.956931 C106.585338,248.555926 106.817668,256.01665 103.170098,261.853909 C99.5225291,267.691167 92.714994,270.752841 85.9275572,269.608703 C79.1401204,268.464565 73.7124414,263.340438 72.18,256.63 C70.0967172,247.507472 75.7774517,238.416509 84.89,236.29 L84.89,236.29 Z M98.96,244.39 L96.66,242.91 C96.4330816,242.762531 96.1560821,242.713329 95.8922587,242.773632 C95.6284353,242.833934 95.4003177,242.998591 95.26,243.23 L86.26,257.51 L80.17,253.66 C79.9430816,253.512531 79.6660821,253.463329 79.4022587,253.523632 C79.1384353,253.583934 78.9103177,253.748591 78.77,253.98 L77.32,256.28 C77.1725307,256.506918 77.1233293,256.783918 77.1836318,257.047741 C77.2439343,257.311565 77.408591,257.539682 77.64,257.68 L86.88,263.51 C87.1076812,263.660756 87.3871093,263.711848 87.6534055,263.651412 C87.9197018,263.590976 88.1497006,263.42427 88.29,263.19 L99.29,245.76 C99.4383521,245.534312 99.4891073,245.258213 99.4307181,244.99452 C99.3723288,244.730826 99.2097606,244.501963 98.98,244.36 L98.96,244.39 Z" id="Shape" fill="#3ACC6C" fill-rule="nonzero" opacity="0.7"></path>
            <path d="M622.52,129.01 C610.92202,129.01 601.52,138.41202 601.52,150.01 C601.52,161.60798 610.92202,171.01 622.52,171.01 C634.11798,171.01 643.52,161.60798 643.52,150.01 C643.52,138.41202 634.11798,129.01 622.52,129.01 Z M622.52,133.08 C631.908841,133.08 639.52,140.691159 639.52,150.08 C639.52,159.468841 631.908841,167.08 622.52,167.08 C613.131159,167.08 605.52,159.468841 605.52,150.08 C605.52,140.691159 613.131159,133.08 622.52,133.08 L622.52,133.08 Z M634.41,144.13 L632.5,142.2 C632.311517,142.004448 632.0516,141.893974 631.78,141.893974 C631.5084,141.893974 631.248483,142.004448 631.06,142.2 L619.06,154.09 L613.99,148.98 C613.801517,148.784448 613.5416,148.673974 613.27,148.673974 C612.9984,148.673974 612.738483,148.784448 612.55,148.98 L610.64,150.91 C610.444448,151.098483 610.333974,151.3584 610.333974,151.63 C610.333974,151.9016 610.444448,152.161517 610.64,152.35 L618.34,160.11 C618.528483,160.305552 618.7884,160.416026 619.06,160.416026 C619.3316,160.416026 619.591517,160.305552 619.78,160.11 L634.41,145.59 C634.605552,145.401517 634.716026,145.1416 634.716026,144.87 C634.716026,144.5984 634.605552,144.338483 634.41,144.15 L634.41,144.13 Z" id="Shape" fill="#3ACC6C" fill-rule="nonzero" opacity="0.7"></path>
            <path d="M863.45,232.72 C851.890448,231.822907 841.791105,240.463681 840.888839,252.02283 C839.986572,263.58198 848.622826,273.685189 860.18157,274.592628 C871.740314,275.500068 881.847387,266.868337 882.76,255.31 C883.198775,249.752864 881.410058,244.24929 877.787985,240.011971 C874.165911,235.774652 869.00772,233.151314 863.45,232.72 L863.45,232.72 Z M863.13,236.77 C869.993658,237.285766 875.868998,241.88939 878.011544,248.430438 C880.15409,254.971487 878.140984,262.159003 872.912584,266.635569 C867.684184,271.112136 860.272379,271.994248 854.139354,268.869855 C848.00633,265.745461 844.362515,259.231201 844.91,252.37 C845.254677,247.884105 847.368685,243.719287 850.786258,240.793155 C854.20383,237.867022 858.644543,236.419676 863.13,236.77 L863.13,236.77 Z M874.13,248.71 L872.37,246.64 C872.198564,246.430946 871.949787,246.300216 871.680376,246.277608 C871.410964,246.255 871.143879,246.342441 870.94,246.52 L858.07,257.45 L853.41,251.96 C853.23838,251.747881 852.987538,251.615101 852.71563,251.592442 C852.443721,251.569782 852.174362,251.659213 851.97,251.84 L849.9,253.6 C849.692395,253.772876 849.563571,254.022395 849.54285,254.291758 C849.52213,254.561121 849.611278,254.827407 849.79,255.03 L856.86,263.36 C857.031436,263.569054 857.280213,263.699784 857.549624,263.722392 C857.819036,263.745 858.086121,263.657559 858.29,263.48 L874.01,250.14 C874.219054,249.968564 874.349784,249.719787 874.372392,249.450376 C874.395,249.180964 874.307559,248.913879 874.13,248.71 L874.13,248.71 Z" id="Shape" fill="#3ACC6C" fill-rule="nonzero" opacity="0.7"></path>
            <g id="pyicon" transform="translate(342.000000, 205.000000)" fill="#6C63FF" fill-rule="nonzero">
                <path d="M230.116703,154.246439 C256.492689,142.253267 260.423627,50.9662255 244.862814,24.0786367 C224.535993,-11.0223341 127.912306,-3.97353611 97.4017062,21.1160984 C93.8984865,33.5791905 94.2651025,56.1966379 94.428043,74.1761806 L190.196293,74.1761806 L190.196293,82.5938756 L94.4484105,82.5938756 C94.4484105,82.7164634 51.8191151,82.8594825 51.8191151,82.8594825 C-21.6873958,82.8594825 -20.1598291,243 76.8304743,243 C76.8304743,243 80.3947966,207.531266 86.6272689,189.756036 C105.87461,134.898 186.733808,173.983074 230.116703,154.246439 Z M129.847223,61.1818748 C118.808008,61.1818748 109.866651,52.2125347 109.866651,41.1183397 C109.866651,30.0445759 118.808008,21.0548045 129.847223,21.0548045 C140.906807,21.0548045 149.848164,30.0445759 149.848164,41.1183397 C149.868531,52.1921034 140.906807,61.1818748 129.847223,61.1818748 Z" id="Shape"></path>
                <path d="M267.62393,87 C267.62393,87 265.071199,122.48693 258.822115,140.24061 C239.523472,195.074762 158.469173,156.012579 114.950223,175.747971 C88.5243562,187.740387 84.5420966,279.021679 100.164807,305.907575 C120.525386,341.026765 217.406615,333.978411 248.018959,308.869926 C251.531517,296.428049 251.163923,273.812026 251.000549,255.833616 L154.956615,255.833616 L154.956615,247.416451 L250.959705,247.416451 C250.959705,247.293871 298.277118,247.150861 298.277118,247.150861 C366.200172,247.150861 372.285881,87 267.62393,87 Z M212.03567,265.333572 C223.104309,265.333572 232.089921,274.302347 232.089921,285.395843 C232.089921,296.468909 223.104309,305.437684 212.03567,305.437684 C200.96703,305.437684 192.001841,296.468909 192.001841,285.395843 C192.001841,274.302347 200.96703,265.333572 212.03567,265.333572 Z" id="Shape"></path>
            </g>
        </g>
    </g>
</svg>