<?xml version="1.0" encoding="UTF-8"?>
<svg width="1088px" height="827px" viewBox="0 0 1088 827" version="1.1" xmlns="http://www.w3.org/2000/svg" xmlns:xlink="http://www.w3.org/1999/xlink">
    <!-- Generator: Sketch 54.1 (76490) - https://sketchapp.com -->
    <title>csharp</title>
    <desc>Created with Sketch.</desc>
    <g id="Page-1" stroke="none" stroke-width="1" fill="none" fill-rule="evenodd">
        <g id="csharp" fill-rule="nonzero">
            <path d="M934.987,329.38759 C887.16694,141.34819 721.93353,5.61004 527.98525,0.1657 C425.45062,-2.71256 317.55556,31.29362 239,150.29362 C98.57345,363.01898 247.62954,510.01873 351.5475,579.87009 C401.752476,613.684811 446.989955,654.344105 485.94966,700.6703 C556.14286,783.96581 691.17857,887.47219 852,725.29362 C968.56358,607.74638 966.83991,454.64041 934.987,329.38759 Z" id="Path" fill="#F2F2F2"></path>
            <path d="M1088,752.29362 C1088,768.86216 844.4429,826.29362 544,826.29362 C243.5571,826.29362 0,768.86216 0,752.29362 C0,735.72508 243.5571,766.29362 544,766.29362 C844.4429,766.29362 1088,735.72507 1088,752.29362 Z" id="Path" fill="#3F3D56"></path>
            <path d="M1088,752.29362 C1088,768.86216 844.4429,826.29362 544,826.29362 C243.5571,826.29362 0,768.86216 0,752.29362 C0,735.72508 243.5571,766.29362 544,766.29362 C844.4429,766.29362 1088,735.72507 1088,752.29362 Z" id="Path" fill="#000000" opacity="0.1"></path>
            <ellipse id="Oval" fill="#3F3D56" cx="544" cy="752.29361" rx="544" ry="30"></ellipse>
            <path d="M632.696,607.9531 C632.696,671.96923 672.85635,723.77027 722.48684,723.77027" id="Path" fill="#3F3D56"></path>
            <path d="M722.48684,723.77027 C722.48684,659.03486 767.30346,606.65178 822.6882,606.65178" id="Path" fill="#6C63FF"></path>
            <path d="M665.22891,613.75627 C665.22891,674.56479 690.83841,723.77027 722.48684,723.77027" id="Path" fill="#6C63FF"></path>
            <path d="M722.48684,723.77027 C722.48684,641.0528 774.28784,574.11887 838.304,574.11887" id="Path" fill="#3F3D56"></path>
            <path d="M703.59716,724.58681 C703.59716,724.58681 716.33098,724.19462 720.16863,721.46188 C724.00628,718.72914 739.75645,715.4661 740.70848,719.84882 C741.66051,724.23154 759.84504,741.64646 745.46862,741.76242 C731.0922,741.87838 712.06422,739.52307 708.23395,737.1899 C704.40368,734.85673 703.59716,724.58681 703.59716,724.58681 Z" id="Path" fill="#A8A8A8"></path>
            <path d="M745.72518,740.23681 C731.34876,740.35281 712.32079,737.99748 708.49052,735.6643 C705.57357,733.88747 704.41119,727.51177 704.02227,724.5703 C703.75292,724.58188 703.59716,724.58687 703.59716,724.58687 C703.59716,724.58687 704.40369,734.85679 708.23397,737.18996 C712.06425,739.52313 731.09221,741.87846 745.46863,741.76247 C749.61853,741.729 751.05198,740.25253 750.97327,738.06574 C750.39675,739.38681 748.814,740.21181 745.72518,740.23681 Z" id="Path" fill="#000000" opacity="0.2"></path>
            <path d="M865.53291,382.85256 C865.53291,382.85256 834.74443,359.47644 832.40746,368.04533 C830.07049,376.61422 854.99815,396.08894 854.99815,396.08894 L865.53291,382.85256 Z" id="Path" fill="#FFB9B9"></path>
            <path d="M865.53291,382.85256 C865.53291,382.85256 834.74443,359.47644 832.40746,368.04533 C830.07049,376.61422 854.99815,396.08894 854.99815,396.08894 L865.53291,382.85256 Z" id="Path" fill="#000000" opacity="0.1"></path>
            <path d="M967.17262,308.84214 C967.17262,308.84214 930.56012,374.27724 929.78113,383.62514 C929.00214,392.97304 929.00213,393.752 925.88618,392.97301 C922.77023,392.19402 879.92581,387.52009 876.03086,389.07807 C872.13591,390.63605 864.34602,379.7302 864.34602,379.7302 C864.34602,379.7302 849.54523,394.53099 852.66118,397.64695 C855.77713,400.76291 865.125,402.32086 866.683,406.21581 C868.241,410.11076 870.57795,414.00571 877.58885,413.22672 C884.59975,412.44773 932.1181,425.69054 938.35,423.35357 C944.5819,421.0166 946.13989,417.12165 949.25585,417.12165 C952.37181,417.12165 958.60372,414.0057 958.60372,413.22671 C958.60372,412.44772 980.41542,371.16128 980.41542,371.16128 C980.41542,371.16128 1006.12208,315.07405 967.17262,308.84214 Z" id="Path" fill="#D0CDE1"></path>
            <path d="M967.17262,308.84214 C967.17262,308.84214 930.56012,374.27724 929.78113,383.62514 C929.00214,392.97304 929.00213,393.752 925.88618,392.97301 C922.77023,392.19402 879.92581,387.52009 876.03086,389.07807 C872.13591,390.63605 864.34602,379.7302 864.34602,379.7302 C864.34602,379.7302 849.54523,394.53099 852.66118,397.64695 C855.77713,400.76291 865.125,402.32086 866.683,406.21581 C868.241,410.11076 870.57795,414.00571 877.58885,413.22672 C884.59975,412.44773 932.1181,425.69054 938.35,423.35357 C944.5819,421.0166 946.13989,417.12165 949.25585,417.12165 C952.37181,417.12165 958.60372,414.0057 958.60372,413.22671 C958.60372,412.44772 980.41542,371.16128 980.41542,371.16128 C980.41542,371.16128 1006.12208,315.07405 967.17262,308.84214 Z" id="Path" fill="#000000" opacity="0.1"></path>
            <path d="M914.05372,265.70397 C913.722332,269.840789 913.789183,273.999878 914.25335,278.12391 C915.43653,287.0737 919.55646,296.40291 915.66473,304.75707 C914.25214,307.7894 911.85888,310.43159 910.55548,313.50037 C907.79628,319.99673 910.29771,327.20213 909.92267,334.11632 C909.43819,343.04793 903.75751,351.65432 895.1161,356.54876 C909.87954,357.00741 923.91976,349.70799 933.20925,339.76116 C942.49874,329.81433 947.67202,317.47693 951.55032,305.13316 C953.543604,299.336294 954.821398,293.317668 955.35532,287.21097 C955.664582,283.702837 955.253327,280.168514 954.14682,276.82512 C952.782171,273.558799 950.985442,270.490341 948.80472,267.70187 C946.47867,264.43143 944.08872,261.09672 940.65686,258.66339 C936.42986,255.66632 928.27898,252.6571 922.6715,253.09325 C915.79334,253.62823 914.34315,260.93017 914.05372,265.70397 Z" id="Path" fill="#2F2E41"></path>
            <path d="M936.792,290.14639 C936.792,290.14639 945.36088,320.52698 938.35,329.09586 C931.33912,337.66474 980.41542,325.20091 980.41542,325.20091 C980.41542,325.20091 956.26675,301.05224 967.95159,285.47246 L936.792,290.14639 Z" id="Path" fill="#FFB9B9"></path>
            <path d="M936.792,290.14639 C936.792,290.14639 945.36088,320.52698 938.35,329.09586 C931.33912,337.66474 980.41542,325.20091 980.41542,325.20091 C980.41542,325.20091 956.26675,301.05224 967.95159,285.47246 L936.792,290.14639 Z" id="Path" fill="#000000" opacity="0.1"></path>
            <polygon id="Path" fill="#FFB9B9" points="908.748 695.221 908.748 717.812 920.433 731.833 930.56 727.159 927.444 694.442"></polygon>
            <path d="M913.42235,716.25356 C913.42235,716.25356 910.30635,705.34771 904.85347,713.13756 C899.40059,720.92741 893.94762,738.06522 890.83166,738.84421 C887.7157,739.6232 865.904,763.77187 887.71566,763.77187 C909.52732,763.77187 916.53827,753.64501 916.53827,753.64501 C916.53827,753.64501 938.34997,745.07612 938.34997,743.51814 C938.34997,741.96016 935.23397,713.13756 933.67603,713.13756 C932.11809,713.13756 931.33903,718.59049 927.44412,718.59049 C923.54921,718.59049 913.42235,716.25356 913.42235,716.25356 Z" id="Path" fill="#2F2E41"></path>
            <polygon id="Path" fill="#FFB9B9" points="960.941 699.116 960.162 720.149 978.857 727.938 978.857 697.558"></polygon>
            <path d="M981.19442,720.1485 C981.19442,720.1485 971.06756,709.24265 965.61464,711.57962 C962.917034,712.665328 960.31187,713.967909 957.82474,715.47457 C957.82474,715.47457 954.70879,725.60143 953.15081,734.17031 C951.59283,742.73919 950.81381,746.63414 949.25586,749.7501 C947.69791,752.86606 946.13986,764.5509 961.71969,766.10888 C977.29952,767.66686 981.97341,759.09797 981.97341,759.09797 L985.86836,738.84425 C985.86836,738.84425 984.31038,720.1485 981.19442,720.1485 Z" id="Path" fill="#2F2E41"></path>
            <path d="M918.87528,474.76686 C918.87528,474.76686 896.28459,525.40117 899.40054,571.36154 C899.40054,571.36154 891.61065,589.2783 896.28459,617.32191 C900.95853,645.36552 907.19044,701.45281 907.19044,701.45281 C907.19044,701.45281 928.22315,703.78981 929.78113,699.89481 C929.78113,699.89481 931.33913,660.94535 932.89708,659.38737 C934.45503,657.82939 932.11808,621.99588 929.78113,614.98497 C927.44418,607.97406 951.59283,538.64397 951.59283,538.64397 L945.36091,452.17615 L918.87528,474.76686 Z" id="Path" fill="#2F2E41"></path>
            <path d="M918.87528,474.76686 C918.87528,474.76686 896.28459,525.40117 899.40054,571.36154 C899.40054,571.36154 891.61065,589.2783 896.28459,617.32191 C900.95853,645.36552 907.19044,701.45281 907.19044,701.45281 C907.19044,701.45281 928.22315,703.78981 929.78113,699.89481 C929.78113,699.89481 931.33913,660.94535 932.89708,659.38737 C934.45503,657.82939 932.11808,621.99588 929.78113,614.98497 C927.44418,607.97406 951.59283,538.64397 951.59283,538.64397 L945.36091,452.17615 L918.87528,474.76686 Z" id="Path" fill="#000000" opacity="0.1"></path>
            <path d="M912.64336,471.65091 L927.44416,503.58947 C927.44416,503.58947 934.45506,576.03547 938.35001,585.38335 C938.35001,585.38335 939.90801,611.86899 946.91889,620.43787 C953.92977,629.00675 959.38272,704.56872 959.38272,704.56872 C959.38272,704.56872 978.85746,710.02164 980.41543,704.56872 C981.9734,699.1158 986.64735,661.7243 986.64735,661.7243 C986.64735,661.7243 988.20535,629.78574 979.63644,608.75303 C971.06753,587.72032 989.76331,512.15835 989.76331,512.15835 C989.76331,512.15835 1009.23804,475.54585 981.19442,445.94426 L912.64336,471.65091 Z" id="Path" fill="#2F2E41"></path>
            <circle id="Oval" fill="#FFB9B9" cx="953.9298" cy="267.5557" r="31.93856"></circle>
            <path d="M983.53139,315.85304 C983.53139,315.85304 950.03485,315.85304 945.36091,319.74799 C942.961144,322.031826 939.191796,322.031826 936.79203,319.74799 C936.79203,319.74799 925.10719,320.52699 921.99123,329.87485 C918.87527,339.22271 909.5274,351.68655 909.5274,351.68655 C909.5274,351.68655 895.5056,361.81341 903.29549,388.29905 C911.08538,414.78469 904.85349,457.62905 904.85349,457.62905 C904.85349,457.62905 898.62157,466.97692 904.85349,470.87187 C911.08541,474.76682 913.42237,476.32479 912.64338,479.44075 C911.86439,482.55671 983.53138,453.7341 983.53138,448.28118 C983.53138,442.82826 981.97338,438.15432 983.53138,435.81735 C985.08938,433.48038 986.64738,429.58543 985.08938,425.69049 C983.53138,421.79555 986.64738,421.01655 985.86838,417.1216 C985.08938,413.22665 989.76338,384.40405 992.87928,371.94022 C995.99518,359.47639 995.21623,316.63203 983.53139,315.85304 Z" id="Path" fill="#D0CDE1"></path>
            <path d="M865.53291,392.20043 C865.53291,392.20043 834.74443,368.82432 832.40746,377.3932 C830.07049,385.96208 854.99815,405.43681 854.99815,405.43681 L865.53291,392.20043 Z" id="Path" fill="#FFB9B9"></path>
            <path d="M967.17262,319.74799 C967.17262,319.74799 930.56012,385.18309 929.78113,394.53099 C929.00214,403.87889 929.00213,404.65785 925.88618,403.87887 C922.77023,403.09989 879.92581,398.42594 876.03086,399.98392 C872.13591,401.5419 864.34602,390.63605 864.34602,390.63605 C864.34602,390.63605 849.54523,405.43681 852.66118,408.55281 C855.77713,411.66881 865.12501,413.22675 866.68299,417.12169 C868.24097,421.01663 870.57794,424.91159 877.58884,424.1326 C884.59974,423.35361 932.1181,436.59639 938.35,434.25942 C944.5819,431.92245 946.13989,428.0275 949.25585,428.0275 C952.37181,428.0275 958.60372,424.91155 958.60372,424.13256 C958.60372,423.35357 980.41542,382.06713 980.41542,382.06713 C980.41542,382.06713 1006.12208,325.9799 967.17262,319.74799 Z" id="Path" fill="#D0CDE1"></path>
            <path d="M938.11433,287.96093 C937.67157,284.79778 936.0516,281.92812 935.22058,278.84413 C933.906308,273.856666 934.684533,268.548853 937.37522,264.14859 C941.95636,256.74938 950.95065,253.47226 957.22332,247.43996 C957.35332,250.51267 959.48541,253.13853 961.84199,255.11463 C964.19857,257.09073 966.90149,258.69377 968.89693,261.034 C970.8137,263.50314 972.211376,266.334385 973.00593,269.35752 C974.234946,272.860522 974.785793,276.565486 974.62905,280.27452 C974.447535,284.019957 972.737514,287.526961 969.89834,289.97652 C967.56206,291.82299 964.29734,292.87752 963.16855,295.63321 C962.724786,297.010339 962.596576,298.46967 962.79342,299.90308 C963.32828,308.4735 963.82805,317.19656 961.80989,325.54313 C959.79173,333.8897 954.84731,341.95358 947.09827,345.65366 C953.46627,346.10543 959.96868,346.54588 966.14704,344.93841 C972.3254,343.33094 978.2341,339.28315 980.36421,333.26495 C981.41503,330.29607 981.51442,326.99407 983.00749,324.22113 C986.78649,317.20276 997.22149,316.88276 1002.34749,310.77844 C1004.39882,308.3356 1005.39119,305.1877 1006.12675,302.08376 C1010.45501,283.81915 1007.41397,264.425 1000.82501,246.84902 C998.55396,240.79102 995.7265,234.69138 990.85531,230.43359 C986.71017,226.81042 981.41676,224.81415 976.18197,223.10928 C968.54234,220.6212 960.67238,218.58271 952.6421,218.31992 C949.153574,218.115056 945.656143,218.523377 942.30863,219.52634 C939.004115,220.720174 935.928877,222.472018 933.2167,224.70566 C920.63737,234.49366 912.0728,250.13725 913.20932,266.03545 C913.89701,275.65518 917.97295,284.75902 923.20911,292.85812 C925.04044,295.69075 929.36744,301.73074 933.38918,299.94966 C937.03667,298.3343 938.59253,291.37729 938.11433,287.96093 Z" id="Path" fill="#2F2E41"></path>
            <ellipse id="Oval" fill="#2F2E41" cx="206.20587" cy="211.8387" rx="33.6569" ry="26.25238"></ellipse>
            <path d="M211.92755,392.57626 C211.92755,392.57626 242.21876,394.59567 247.60386,390.55684 C252.98896,386.51801 275.87566,395.94195 277.89507,401.32705 C279.91448,406.71215 245.58445,407.38529 240.19934,407.38529 C234.81423,407.38529 209.23499,415.46295 209.23499,415.46295 L211.92755,392.57626 Z" id="Path" fill="#A0616A"></path>
            <path d="M149.55224,706.13832 C149.55224,706.13832 135.43524,741.73759 142.80066,746.03405 C150.16608,750.33051 227.50237,747.26161 227.50237,747.26161 C227.50237,747.26161 240.39176,739.28247 225.66103,733.75844 C225.66103,733.75844 213.38542,733.14466 205.40627,728.23444 C197.42712,723.32422 188.22042,714.11744 188.22042,714.11744 C188.22042,714.11744 187.60664,700.61427 182.69642,703.68318 C179.725755,705.64038 177.719657,708.760988 177.17242,712.2761 L149.55224,706.13832 Z" id="Path" fill="#2F2E41"></path>
            <path d="M149.55224,706.13832 C149.55224,706.13832 135.43524,741.73759 142.80066,746.03405 C150.16608,750.33051 227.50237,747.26161 227.50237,747.26161 C227.50237,747.26161 240.39176,739.28247 225.66103,733.75844 C225.66103,733.75844 213.38542,733.14466 205.40627,728.23444 C197.42712,723.32422 188.22042,714.11744 188.22042,714.11744 C188.22042,714.11744 187.60664,700.61427 182.69642,703.68318 C179.725755,705.64038 177.719657,708.760988 177.17242,712.2761 L149.55224,706.13832 Z" id="Path" fill="#000000" opacity="0.1"></path>
            <path d="M127.7853,717.02881 C127.7853,717.02881 112.30312,756.07081 120.38078,760.78281 C128.45844,765.49481 213.27378,762.12909 213.27378,762.12909 C213.27378,762.12909 227.40968,753.37829 211.25437,747.32009 C211.25437,747.32009 197.79161,746.64695 189.04081,741.26185 C180.29001,735.87675 170.193,725.77957 170.193,725.77957 C170.193,725.77957 169.51986,710.97057 164.13476,714.33622 C160.876795,716.482691 158.676681,719.905091 158.07652,723.76015 L127.7853,717.02881 Z" id="Path" fill="#2F2E41"></path>
            <path d="M207.21558,469.31399 L197.79165,554.12938 C197.79165,554.12938 194.42596,594.51766 184.32889,603.26845 C184.32889,603.26845 184.32889,616.05807 180.9632,620.0969 L176.2512,673.2748 C176.2512,673.2748 182.98258,692.7958 182.30944,696.16149 C181.6363,699.52718 185.002,710.29739 184.32886,711.64367 C183.65572,712.98995 152.01823,711.64367 152.01823,711.64367 L158.74961,603.26845 L179.61689,452.48554 L207.21558,469.31399 Z" id="Path" fill="#2F2E41"></path>
            <path d="M207.21558,469.31399 L197.79165,554.12938 C197.79165,554.12938 194.42596,594.51766 184.32889,603.26845 C184.32889,603.26845 184.32889,616.05807 180.9632,620.0969 L176.2512,673.2748 C176.2512,673.2748 182.98258,692.7958 182.30944,696.16149 C181.6363,699.52718 185.002,710.29739 184.32886,711.64367 C183.65572,712.98995 152.01823,711.64367 152.01823,711.64367 L158.74961,603.26845 L179.61689,452.48554 L207.21558,469.31399 Z" id="Path" fill="#000000" opacity="0.1"></path>
            <path d="M190.38713,466.62144 C190.38713,466.62144 182.98261,535.95465 179.61692,550.76369 C177.500788,560.516031 176.150397,570.418897 175.57809,580.38176 C175.57809,580.38176 174.90496,601.92217 168.84671,607.98042 C165.263765,611.52796 163.31364,616.403275 163.46161,621.44318 C163.46161,621.44318 157.40337,689.43011 160.76906,697.50777 C164.13475,705.58543 167.50044,712.31677 164.13475,717.70191 C160.76906,723.08705 123.74647,723.08701 123.74647,719.04819 C123.74647,715.00937 123.74647,711.64367 121.72705,709.62425 C119.70763,707.60483 121.72705,694.81525 121.72705,694.81525 C121.72705,694.81525 113.6494,634.90597 121.05392,617.40438 C128.45844,599.90279 131.82412,552.10999 131.82412,552.10999 C131.82412,552.10999 126.43902,497.58581 119.70764,488.83499 C112.97626,480.08417 121.05392,449.11985 121.05392,449.11985 L190.38713,466.62144 Z" id="Path" fill="#2F2E41"></path>
            <path d="M171.43564,251.31201 C172.21818,253.09469 174.09127,254.08724 175.79649,255.02668 C185.67942,260.47138 193.95213,268.36535 202.1026,276.16835 C200.068844,269.276353 200.502166,261.890869 203.32793,255.28399 C204.30104,253.0305 205.57647,250.60824 204.88093,248.25423 C204.36941,246.52314 202.89534,245.27454 201.46749,244.17023 C198.141737,241.598217 194.66568,239.226661 191.0578,237.06817 C188.53738,235.56026 183.3555,231.5461 180.46322,231.98286 C180.31138,235.89074 180.23209,239.38462 178.52077,243.037 C178.11479,243.90334 171.73479,251.9935 171.43564,251.31201 Z" id="Path" fill="#A0616A"></path>
            <circle id="Oval" fill="#A0616A" cx="205.8693" cy="232.36941" r="27.59866"></circle>
            <path d="M207.21558,297.66381 C207.21558,297.66381 211.92758,274.10398 198.46479,266.02632 C185.002,257.94866 169.51985,248.52473 169.51985,248.52473 C169.51985,248.52473 164.80785,247.8516 162.78847,257.94867 C162.78847,257.94867 124.41961,265.35318 120.38078,301.70267 C116.34195,338.05216 123.07333,391.23002 123.07333,391.23002 C123.07333,391.23002 117.01509,437.67654 109.61057,462.58265 C109.61057,462.58265 103.55233,467.96775 130.47785,459.8901 C157.40337,451.81245 204.523,482.77675 204.523,482.77675 C204.523,482.77675 209.235,478.06475 209.235,474.69909 C209.235,471.33343 214.62011,451.8124 214.62011,451.8124 C214.62011,451.8124 219.33211,369.0164 221.35149,359.59249 C223.37087,350.16858 213.27382,299.01007 207.21558,297.66381 Z" id="Path" fill="#575A89"></path>
            <path d="M199.365,235.21261 C201.023003,234.29367 202.882316,233.798485 204.77775,233.77105 C206.675426,233.742665 208.528369,233.190548 210.13209,232.17563 C212.73909,230.17421 212.93032,226.30631 214.83748,223.62957 C217.59865,219.75423 223.10698,219.28778 227.86141,219.48168 C230.76941,219.60027 233.90105,219.77393 236.34984,218.2011 C238.86374,216.58645 240.00322,213.54417 240.85084,210.67916 C241.85325,207.2911 242.50159,203.14777 240.01766,200.63503 C238.29277,198.89013 235.57009,198.54503 233.65395,197.01261 C231.66718,195.42371 230.84963,192.83785 229.7697,190.53446 C228.540812,187.728006 226.596953,185.293182 224.13235,183.47327 C220.51767,180.96178 215.90089,180.3986 211.4996,180.44567 C207.09831,180.49274 202.67855,181.07145 198.31027,180.53134 C194.73127,180.08882 191.16283,178.89834 187.59543,179.426 C183.04963,180.09839 179.28889,183.52789 177.04899,187.54027 C174.80909,191.55265 173.84799,196.13253 172.91599,200.63227 L170.38135,212.87046 C169.59521,216.66622 168.80584,220.56286 169.41269,224.39137 C170.67069,232.32792 177.68956,238.63644 178.17318,246.6575 C179.109627,242.158374 182.244284,238.43096 186.51618,236.73686 C187.043497,236.478999 187.642324,236.406357 188.216,236.53066 C188.91333,236.75355 189.3209,237.45023 189.761,238.03528 C190.91407,239.56822 194.53633,241.89399 196.5896,240.80651 C198.42675,239.83351 197.0552,236.77911 199.365,235.21261 Z" id="Path" fill="#2F2E41"></path>
            <path d="M129.80471,360.93881 C129.80471,360.93881 125.09271,390.55688 144.61371,387.86433 C144.61371,387.86433 154.71078,386.51805 156.05705,387.86433 C157.40332,389.21061 207.21554,380.45981 213.94692,373.05533 C213.94692,373.05533 222.02458,370.36278 226.0634,374.40161 C230.10222,378.44044 270.49051,382.47927 258.37403,370.36278 C246.25755,358.24629 227.40968,355.55378 227.40968,355.55378 L201.83044,356.90005 C201.83044,356.90005 188.36768,360.93888 180.29002,356.90005 C172.21236,352.86122 149.32567,354.2075 149.32567,354.2075 L129.80471,360.93881 Z" id="Path" fill="#A0616A"></path>
            <path d="M157.40337,267.37259 C157.40337,267.37259 127.11216,270.73828 127.11216,314.49225 L127.11216,370.3627 C127.11216,370.3627 143.94061,362.95818 147.3063,363.63132 C150.67199,364.30446 164.13475,354.88053 164.13475,354.88053 C164.13475,354.88053 179.61692,318.53108 178.27065,308.43401 C176.92438,298.33694 177.59751,268.71886 157.40337,267.37259 Z" id="Path" fill="#575A89"></path>
            <ellipse id="Oval" fill="#2F2E41" cx="205.8693" cy="215.20439" rx="25.91581" ry="13.46276"></ellipse>
            <ellipse id="Oval" fill="#2F2E41" cx="181.63634" cy="217.56037" rx="9.08736" ry="22.55012"></ellipse>
            <g id="c-logo" transform="translate(411.000000, 214.000000)" fill="#6C63FF">
                <path d="M302.553,0 L10,0 C4.477,0 0,4.478 0,10 L0,302.553 C0,308.075 4.477,312.553 10,312.553 L302.553,312.553 C308.076,312.553 312.553,308.075 312.553,302.553 L312.553,10 C312.553,4.478 308.076,0 302.553,0 Z M148.087,193.287 C138.606,201.583 126.495,206.153 113.985,206.153 C85.876,206.153 63.008,183.753 63.008,156.219 C63.008,128.748 85.876,106.4 113.985,106.4 C126.512,106.4 138.582,110.93 147.972,119.156 C151.845,122.549 152.234,128.439 148.84,132.312 C145.448,136.186 139.557,136.577 135.684,133.181 C129.697,127.936 121.99,125.046 113.985,125.046 C96.158,125.046 81.655,139.03 81.655,156.219 C81.655,173.47 96.158,187.505 113.985,187.505 C121.976,187.505 129.726,184.574 135.807,179.253 C139.682,175.862 145.572,176.255 148.964,180.13 C152.355,184.006 151.962,189.896 148.087,193.287 Z M240.22,162.286 C245.37,162.286 249.544,166.46 249.544,171.609 C249.544,176.758 245.37,180.932 240.22,180.932 L229.351,180.932 L225.973,195.836 C224.992,200.164 221.147,203.101 216.888,203.101 C216.205,203.101 215.512,203.026 214.819,202.869 C209.797,201.73 206.649,196.737 207.787,191.716 L210.231,180.933 L190.03,180.933 L186.652,195.837 C185.671,200.165 181.826,203.102 177.568,203.102 C176.885,203.102 176.192,203.027 175.499,202.87 C170.477,201.731 167.329,196.738 168.467,191.717 L170.915,180.918 C165.908,180.756 161.896,176.656 161.896,171.61 C161.896,166.461 166.07,162.287 171.22,162.287 L175.137,162.287 L177.862,150.267 L171.22,150.267 C166.071,150.267 161.896,146.093 161.896,140.945 C161.896,135.795 166.07,131.621 171.22,131.621 L182.089,131.621 L185.467,116.717 C186.605,111.696 191.601,108.547 196.621,109.685 C201.643,110.824 204.791,115.817 203.653,120.838 L201.209,131.621 L221.41,131.621 L224.788,116.717 C225.926,111.696 230.921,108.547 235.942,109.685 C240.964,110.824 244.112,115.817 242.974,120.838 L240.526,131.637 C245.533,131.799 249.545,135.899 249.545,140.946 C249.545,146.094 245.371,150.268 240.221,150.268 L236.304,150.268 L233.579,162.288 L240.22,162.288 L240.22,162.286 Z" id="Shape"></path>
                <polygon id="Path" points="194.258 162.286 214.458 162.286 217.183 150.267 196.982 150.267"></polygon>
            </g>
        </g>
    </g>
</svg>