<?xml version="1.0" encoding="UTF-8"?>
<svg width="1039px" height="694px" viewBox="0 0 1039 694" version="1.1" xmlns="http://www.w3.org/2000/svg" xmlns:xlink="http://www.w3.org/1999/xlink">
    <!-- Generator: Sketch 52.2 (67145) - http://www.bohemiancoding.com/sketch -->
    <title>git</title>
    <desc>Created with Sketch.</desc>
    <defs>
        <linearGradient x1="50.0228196%" y1="100.006339%" x2="50.0228196%" y2="-0.00916024026%" id="linearGradient-1">
            <stop stop-color="#808080" stop-opacity="0.25" offset="0%"></stop>
            <stop stop-color="#808080" stop-opacity="0.12" offset="54%"></stop>
            <stop stop-color="#808080" stop-opacity="0.1" offset="100%"></stop>
        </linearGradient>
    </defs>
    <g id="Page-1" stroke="none" stroke-width="1" fill="none" fill-rule="evenodd">
        <g id="git" transform="translate(0.000000, -1.000000)">
            <path d="M615.24,112.4 C550.52,110.15 488.88,89.26 430.01,66.4 C371.14,43.54 312.85,18.21 249.68,6.1 C209.05,-1.69 162.59,-2.79 129.85,18.99 C98.35,39.99 88.17,76.14 82.69,109.71 C78.58,134.98 76.15,161.56 87.44,185.21 C95.27,201.63 109.18,215.43 118.8,231.16 C152.26,285.88 128.61,353.36 92.34,406.79 C75.34,431.85 55.6,455.79 42.47,482.45 C29.34,509.11 23.27,539.7 34.75,566.92 C46.14,593.92 73.27,614.16 102.65,628.41 C162.34,657.35 232.65,665.64 301.27,670.33 C453.09,680.72 605.73,676.22 757.95,671.72 C814.29,670.05 870.87,668.36 926.29,659.65 C957.07,654.81 988.85,647.13 1011.19,628.65 C1039.55,605.12 1046.58,565.27 1027.58,535.77 C995.7,486.28 907.58,473.98 885.27,420.87 C873,391.64 885.6,359.07 903.42,331.96 C941.66,273.79 1005.75,222.77 1009.13,156.28 C1011.45,110.62 980.64,64.89 933,43.28 C883.06,20.63 813.82,23.48 777,60.97 C739.04,99.53 672.38,114.38 615.24,112.4 Z" id="Path" fill="#6C63FF" opacity="0.1"></path>
            <path d="M448.73,652.49 C447.73,648.87 446.73,645.21 444.73,642.06 C442.8755,639.389141 440.672706,636.977838 438.18,634.89 C430.93,628.31 422.03,621.63 412.42,623.29 C409.447795,623.947455 406.576037,624.996622 403.88,626.41 C402.48,627.06 401.07,627.71 399.63,628.26 C395.576419,629.954594 391.096021,630.346017 386.81,629.38 C384.61,628.79 382.56,627.73 380.39,627.07 C379.359626,626.760422 378.306324,626.533042 377.24,626.39 C379.336639,625.451504 381.370827,624.379296 383.33,623.18 C394.11,616.58 402.71,604.65 401.51,591.89 C401.1,587.6 399.63,583.49 398.17,579.44 L394.33,568.82 C392.67,564.22 390.95,559.53 387.92,555.71 C384.55,551.45 379.75,548.56 374.79,546.41 C364.14,541.78 352.5,540.15 341.01,538.57 L340.21,538.46 L340.21,414.33 C340.21,409.911722 336.628278,406.33 332.21,406.33 L317.11,406.33 C316.443333,402.25 315.776667,398.176667 315.11,394.11 C313.21,382.5 311.24,370.68 305.89,360.23 C302.39,353.39 296.82,346.86 289.31,345.52 C287.834118,345.386856 286.383725,345.050338 285,344.52 C282.8,343.44 281.6,341.04 279.91,339.27 C275.55,334.7 268.46,334.63 262.62,332.27 C257.46,330.22 253.24,326.36 248.54,323.39 C243.84,320.42 238,318.31 232.8,320.24 C232.8,320.62 232.73,321 232.69,321.37 L229.35,319.83 C225.75,318.16 222.08,316.45 219.19,313.71 C215.48,310.21 213.5,305.57 211.96,300.64 C211.8,300.13 211.65,299.64 211.49,299.09 C217.881896,292.568858 222.208999,284.307708 223.93,275.34 L224.74,277.97 C224.92235,278.560931 225.135985,279.141751 225.38,279.71 C225.793488,280.808949 226.482127,281.783373 227.38,282.54 C227.636197,282.741093 227.918848,282.905973 228.22,283.03 C228.496167,283.139537 228.785158,283.213464 229.08,283.25 C229.495242,283.301355 229.916525,283.270778 230.32,283.16 C231.689666,282.735928 232.793041,281.713467 233.32,280.38 C233.479472,279.986851 233.596795,279.577897 233.67,279.16 C233.708647,278.908311 233.732023,278.654514 233.74,278.4 C233.74,278.32 233.74,278.24 233.74,278.16 C233.74,278.08 233.74,277.81 233.74,277.64 C233.74,277.47 233.74,277.46 233.74,277.36 C233.74,277.26 233.74,277.03 233.69,276.86 L233.69,276.6 C233.69,276.4 233.63,276.2 233.59,276.01 C233.55,275.82 233.59,275.9 233.59,275.85 C233.54,275.6 233.48,275.34 233.43,275.09 C233.43,275.03 233.43,274.96 233.43,274.9 C233.43,274.84 233.34,274.49 233.29,274.28 C233.24,274.07 233.22,274.01 233.19,273.87 L233.19,273.81 C233.09,273.41 233,273.02 232.91,272.62 C232.183199,269.149425 231.997671,265.587301 232.36,262.06 C232.958516,256.883548 233.914127,251.754658 235.22,246.71 L235.43,245.8 C235.51,245.45 235.59,245.1 235.66,244.74 C235.82,244.02 235.98,243.3 236.13,242.57 L236.49,240.73 L236.76,239.09 L236.76,238.88 C237.321379,235.163772 237.43887,231.393974 237.11,227.65 C236.65,222.42 235.03,217.47 231.48,213.53 C228.97,210.74 225.66,208.68 223.33,205.75 C221.15,203.01 219.92,199.63 217.66,196.94 C211.42,189.49 195.4,183.75 185.57,182.75 C174.31,181.61 156.12,184.49 147.04,191.14 C143.68,193.59 141.38,197.14 139.04,200.5 C134.74,206.75 129.86,212.99 122.97,216.5 C120.37,217.82 117.39,218.82 115.66,221.12 C114.630784,222.679103 113.964424,224.449228 113.71,226.3 C112.385138,232.811178 111.695238,239.435555 111.65,246.08 C111.65,246.91 111.65,247.74 111.65,248.58 C111.670501,251.071278 112.201427,253.531916 113.21,255.81 C113.37,256.15 113.55,256.48 113.74,256.81 L113.86,257.02 C115.069518,258.748925 116.13956,260.571341 117.06,262.47 C117.289306,263.001683 117.453821,263.55902 117.55,264.13 C117.721326,265.594945 117.626468,267.078795 117.27,268.51 C117.27,268.73 117.18,268.95 117.14,269.17 L117.05,269.6 C117.05,269.75 117.05,269.9 116.97,270.04 C116.89,270.47 116.82,270.9 116.76,271.32 C116.608397,272.476692 116.683116,273.651825 116.98,274.78 C117.256968,276.051443 118.065059,277.143458 119.2,277.78 C119.7696,278.053142 120.375976,278.241792 121,278.34 C121.63,278.45 122.27,278.52 122.89,278.66 C123.687285,278.841754 124.457215,279.127536 125.18,279.51 C125.872446,279.841376 126.520796,280.257933 127.11,280.75 C127.401507,281.014937 127.678573,281.295341 127.94,281.59 C128.468085,282.194753 128.94317,282.843813 129.36,283.53 C129.573333,283.883333 129.773333,284.243333 129.96,284.61 C130.676554,286.057072 131.249301,287.571001 131.67,289.13 C131.93,290.06 132.15,291 132.34,291.94 C132.43,292.36 132.51,292.78 132.58,293.19 C132.65,293.6 132.72,294.02 132.78,294.43 C133.052857,294.414498 133.32217,294.360635 133.58,294.27 C135.05,293.74 135.87,292.03 136.33,290.37 C136.41,290.09 136.48,289.82 136.54,289.55 C136.77,288.55 137.01,287.45 137.24,286.4 C141.181786,294.770695 147.537593,301.770789 155.49,306.5 C155.77,307.33 156.04,308.15 156.28,308.99 C157.59,313.52 158.22,318.26 155.95,322.22 C154.33,325.03 151.61,326.76 148.57,327.96 C148.1317,327.375736 147.567839,326.897308 146.92,326.56 C144.29,325.24 141.13,326.84 138.92,328.81 C134.92,332.43 131.66,337.62 126.4,338.81 C124.5,339.25 122.4,339.16 120.82,340.32 C119.774996,341.302677 118.899837,342.451534 118.23,343.72 C115.910661,347.050787 112.055886,348.972522 108,348.82 C106.17,348.73 104,348.31 102.75,349.65 C101.82,350.65 101.75,352.23 100.75,353.18 C99.41,354.5 97.21,353.86 95.34,353.78 C91.78,353.63 88.47,355.93 86.44,358.88 C84.41,361.83 83.44,365.36 82.44,368.88 L82.44,368.94 C82.1833946,369.126902 81.9395217,369.330686 81.71,369.55 C80.7404489,370.582854 79.9888396,371.800393 79.5,373.13 C71.4129295,391.542493 66.6396888,411.238035 65.4,431.31 C65.419762,432.288119 65.200048,433.256235 64.76,434.13 C64.312592,434.700952 63.8210843,435.235926 63.29,435.73 C62.3299717,436.905291 61.8870411,438.419379 62.0622764,439.926779 C62.2375117,441.434179 63.0159619,442.806282 64.22,443.73 C64.5077446,443.208464 64.8679981,442.73037 65.29,442.31 C65.18,442.77 65.08,443.22 65.01,443.63 C64.6083678,446.547408 64.5714171,449.503464 64.9,452.43 C65.8466667,466.323333 66.8033333,480.206667 67.77,494.08 C68.04,498.01 68.31,501.93 68.67,505.85 C69.37,513.436667 70.37,520.993333 71.67,528.52 C71.73,528.86 71.8,529.21 71.89,529.52 C63.74,532.11 56.49,536.79 53.44,544.6 C52.38,547.3 51.9,550.24 50.6,552.83 C49.17,555.67 46.82,557.94 45.26,560.72 C42.57,565.5 42.45,571.36 43.43,576.72 C45.32,587.17 50.97,596.51 58.43,604.11 C58.1,604.11 57.76,604.11 57.43,604.11 C54.9927495,604.379945 52.6531215,605.219197 50.6,606.56 C34.82,615.78 25.8,635.56 29.09,653.62 C29.74,657.15 30.87,660.73 33.23,663.42 C35.1916551,665.55843 37.7138873,667.103644 40.51,667.88 C42.2586469,668.406231 44.0591462,668.74152 45.88,668.88 C58.18,669.88 70.09,664.18 82.42,663.7 C86.5045622,663.634914 90.5891979,663.825285 94.65,664.27 C100.59,664.763333 106.54,665.076667 112.5,665.21 C122.19,665.44 127.64,662.86 133.82,655.62 C135.338989,653.819221 136.607175,651.821072 137.59,649.68 C142.85,649.38 148.66,648.92 152.86,648.58 L152.92,649.16 C153.15,651.16 153.5,653.46 155.1,654.72 C156.000032,655.340746 157.023253,655.760267 158.1,655.95 C168.2,658.43 178.42,660.95 188.82,660.95 C193.700534,660.851505 198.571616,660.477577 203.41,659.83 L221.68,657.72 C227.003939,658.394832 232.257748,659.539293 237.38,661.14 C242.66,662.93 247.59,665.59 252.75,667.7 C264.75,672.56 277.65,674.3 290.43,676 C292.61,676.29 295.11,676.49 296.72,675 C298.8,673 298.11,669.66 297.52,666.86 C297.28,665.71 297.1,664.56 296.96,663.4 C305.583979,665.673504 314.021825,668.602011 322.2,672.16 L323.63,672.79 C324.05,674.97 326.06,676.71 327.99,679.06 C328.623647,680.051838 329.364798,680.970731 330.2,681.8 C331.154484,682.419638 332.239492,682.809831 333.37,682.94 C346.861311,685.453629 360.636937,686.076275 374.3,684.79 C377.096364,684.409069 379.924084,684.311908 382.74,684.5 C384.808704,684.781751 386.849489,685.240091 388.84,685.87 L400.41,689.19 C408.94,691.63 417.67,694.1 426.52,693.55 C428.314496,693.437218 430.096955,693.179714 431.85,692.78 C438.85,691.16 445.37,687.25 448.73,680.96 C453.48,672.41 451.29,661.89 448.73,652.49 Z" id="Path" fill="url(#linearGradient-1)"></path>
            <path d="M125.02,650.54 C122.91,645.74 120.91,640.22 123.02,635.42 C124.397292,632.593189 126.763289,630.369509 129.67,629.17 C132.546349,627.997099 135.578152,627.249255 138.67,626.95 C148.374439,625.677149 158.194393,625.542905 167.93,626.55 C168.64,632.17 167.14,637.87 165.85,643.3 C164.68,648.3 164.01,649.04 158.85,649.3 C155.51,649.48 125.81,652.31 125.02,650.54 Z" id="Path" fill="#FBBEBE"></path>
            <ellipse id="Oval" fill="#464353" cx="214.07" cy="578.16" rx="143" ry="40"></ellipse>
            <ellipse id="Oval" fill="#000000" opacity="0.1" cx="214.07" cy="578.16" rx="143" ry="40"></ellipse>
            <path d="M239.71,367 C234.808302,376.471641 226.667316,383.867375 216.77,387.84 C210.926687,389.969185 204.777023,391.137654 198.56,391.3 C191.77,391.61 184.84,391.17 178.46,388.85 C169.9,385.75 162.79,379.41 157.46,372.02 C152.13,364.63 148.46,356.19 145.27,347.68 C143.59,343.25 141.99,338.53 142.78,333.85 C147.93,332.68 153.57,330.96 156.23,326.39 C158.5,322.47 157.87,317.77 156.56,313.29 C156.19,312.02 155.76,310.76 155.33,309.55 C154.33,306.65 150.88,301.14 153.33,298.66 C154.86,297.09 161.27,296.29 163.48,295.27 C170.29,292.13 176.57,287.59 184.05,286.1 C190.52,284.81 197.2,286.02 203.66,287.36 C204.516887,287.48462 205.339909,287.7805 206.08,288.23 C206.923842,288.941148 207.54811,289.87755 207.88,290.93 C209.72,295.41 210.8,300.36 212.28,305.03 C213.82,309.92 215.8,314.51 219.51,317.98 C222.4,320.69 226.08,322.39 229.68,324.04 L238.54,328.1 C240.116005,328.690105 241.545458,329.614643 242.73,330.81 C243.888636,332.402567 244.581144,334.28619 244.73,336.25 C246.31751,346.772781 244.56163,357.528422 239.71,367 Z" id="Path" fill="#FBBEBE"></path>
            <path d="M212.24,305.03 C197.72884,320.138104 174.842734,323.533815 156.57,313.29 C156.2,312.02 155.77,310.76 155.34,309.55 C154.34,306.65 150.89,301.14 153.34,298.66 C154.87,297.09 161.28,296.29 163.49,295.27 C170.3,292.13 176.58,287.59 184.06,286.1 C190.53,284.81 197.21,286.02 203.67,287.36 C204.526887,287.48462 205.349909,287.7805 206.09,288.23 C206.933842,288.941148 207.55811,289.87755 207.89,290.93 C209.68,295.41 210.76,300.36 212.24,305.03 Z" id="Path" fill="#000000" opacity="0.1"></path>
            <circle id="Oval" fill="#FBBEBE" cx="179.07" cy="271.16" r="46"></circle>
            <path d="M319.22,420.45 L315.44,397.55 C313.53,386.06 311.56,374.35 306.22,364 C302.71,357.22 297.14,350.76 289.63,349.42 C288.150668,349.288149 286.696796,348.951605 285.31,348.42 C283.11,347.36 281.91,344.98 280.22,343.22 C275.86,338.7 268.76,338.63 262.92,336.33 C257.76,334.33 253.54,330.48 248.84,327.54 C244.14,324.6 238.29,322.54 233.09,324.42 C232.25,333.37 231.36,342.52 227.56,350.67 C222.550798,361.415667 212.956104,369.323955 201.451721,372.189374 C189.947337,375.054792 177.764205,372.570748 168.3,365.43 C159.39,358.72 153.68,348.37 151.02,337.54 C150.37,334.9 149.63,331.87 147.2,330.66 C144.57,329.34 141.41,330.94 139.2,332.88 C135.2,336.47 131.93,341.61 126.67,342.82 C124.77,343.26 122.67,343.17 121.09,344.32 C120.039922,345.289069 119.160913,346.4284 118.49,347.69 C116.151667,350.994099 112.305164,352.89667 108.26,352.75 C106.43,352.66 104.26,352.24 103.01,353.57 C102.08,354.57 102.01,356.13 101.01,357.06 C99.66,358.37 97.47,357.73 95.59,357.66 C92.03,357.51 88.72,359.79 86.68,362.66 C84.64,365.53 83.68,369.08 82.68,372.52 C93.61,396.86 103.61,421.23 114.54,445.57 C115.052082,446.487389 115.323841,447.519384 115.33,448.57 C115.110803,449.660443 114.645663,450.686488 113.97,451.57 C108.61,460.18 108.78,471.01 109.37,481.13 C109.96,491.25 110.68,501.94 106.16,511.01 C104.93,513.5 103.33,515.78 102.16,518.27 C99.42,523.91 98.43,541.95 100.03,548.01 L326.11,548.01 C321.8,536.16 323.44,512.38 324.34,499.8 C324.97,491 323.34,482.21 322.64,473.41 C321.11,455.44 322.19,438.39 319.22,420.45 Z" id="Path" fill="#6C63FF"></path>
            <path d="M65.36,446.65 C64.9599268,449.5439 64.9196203,452.476196 65.24,455.38 L68.11,496.65 C68.38,500.54 68.65,504.42 69.01,508.3 C69.7,515.83 70.73,523.3 72.01,530.76 C72.0699635,532.965498 73.904397,534.705973 76.11,534.65 C88.76,537.33 101.83,537.22 114.74,536.49 C134.44,535.39 154.11,532.88 173.84,533.31 C178.92,533.42 184.84,533.31 187.92,529.31 C191,525.31 189.21,518.84 185.19,515.61 C181.17,512.38 175.71,511.61 170.55,511.61 C163.72,511.54 156.89,512.51 150.08,512.11 C143.83,511.74 137.72,510.23 131.66,508.72 L114.66,504.49 C115.31,499.34 117.27,494.49 119.13,489.6 C122.47,480.93 125.59,471.97 125.65,462.68 C125.71,453.39 122.21,443.62 114.6,438.3 C108.34,433.93 100.28,433.12 92.65,433.3 C87.1,433.46 77.51,432.13 72.44,434.3 C68.43,436.06 66.11,442.72 65.36,446.65 Z" id="Path" fill="#FBBEBE"></path>
            <path d="M330.79,541.01 C334.12,539.74 337.79,540.2 341.36,540.68 C352.85,542.25 364.51,543.86 375.16,548.45 C380.16,550.59 384.92,553.45 388.3,557.66 C391.3,561.45 393.05,566.09 394.71,570.66 L398.55,581.18 C400.01,585.18 401.49,589.26 401.9,593.51 C403.1,606.1 394.49,617.97 383.66,624.51 C372.83,631.05 360.08,633.38 347.66,635.82 C335.24,638.26 322.77,640.96 310.4,643.82 C304.630405,645.317283 298.776691,646.469326 292.87,647.27 C279.63,648.77 265.79,646.56 253.21,650.94 C248.21,652.69 243.3,655.29 238.11,656.5 C234.662571,657.225361 231.177063,657.756199 227.67,658.09 L203.86,660.81 C199.018265,661.457572 194.143855,661.831499 189.26,661.93 C178.86,661.93 168.63,659.47 158.53,657.01 C157.456186,656.8216 156.434038,656.409333 155.53,655.8 C153.93,654.54 153.58,652.31 153.35,650.29 C152.33,641.35 151.436667,632.4 150.67,623.44 C150.43,620.53 150.25,617.38 151.84,614.93 C153.84,611.93 157.74,610.99 161.3,610.41 C176.395583,607.940489 191.688009,606.879259 206.98,607.24 C212.79,601.43 222.37,601.4 229.98,598.24 C232.779573,596.954338 235.489078,595.480982 238.09,593.83 C251.702788,585.887929 266.915266,581.081292 282.62,579.76 C285.695505,579.666139 288.750997,579.230119 291.73,578.46 C297.62,576.63 302.99,571.65 309.04,572.87 C309.79,570.8 310.31,568.03 312.04,566.61 C312.9,565.88 313.96,565.39 314.75,564.61 C316.42,562.92 316.57,560.26 316.32,557.9 C316.07,555.54 315.51,553.12 316.12,550.82 C316.373795,549.949223 316.747368,549.117939 317.23,548.35 C320.23,543.17 324.76,540.51 330.79,541.01 Z" id="Path" fill="#464353"></path>
            <path d="M330.79,541.01 C334.12,539.74 337.79,540.2 341.36,540.68 C352.85,542.25 364.51,543.86 375.16,548.45 C380.16,550.59 384.92,553.45 388.3,557.66 C391.3,561.45 393.05,566.09 394.71,570.66 L398.55,581.18 C400.01,585.18 401.49,589.26 401.9,593.51 C403.1,606.1 394.49,617.97 383.66,624.51 C372.83,631.05 360.08,633.38 347.66,635.82 C335.24,638.26 322.77,640.96 310.4,643.82 C304.630405,645.317283 298.776691,646.469326 292.87,647.27 C279.63,648.77 265.79,646.56 253.21,650.94 C248.21,652.69 243.3,655.29 238.11,656.5 C234.662571,657.225361 231.177063,657.756199 227.67,658.09 L203.86,660.81 C199.018265,661.457572 194.143855,661.831499 189.26,661.93 C178.86,661.93 168.63,659.47 158.53,657.01 C157.456186,656.8216 156.434038,656.409333 155.53,655.8 C153.93,654.54 153.58,652.31 153.35,650.29 C152.33,641.35 151.436667,632.4 150.67,623.44 C150.43,620.53 150.25,617.38 151.84,614.93 C153.84,611.93 157.74,610.99 161.3,610.41 C176.395583,607.940489 191.688009,606.879259 206.98,607.24 C212.79,601.43 222.37,601.4 229.98,598.24 C232.779573,596.954338 235.489078,595.480982 238.09,593.83 C251.702788,585.887929 266.915266,581.081292 282.62,579.76 C285.695505,579.666139 288.750997,579.230119 291.73,578.46 C297.62,576.63 302.99,571.65 309.04,572.87 C309.79,570.8 310.31,568.03 312.04,566.61 C312.9,565.88 313.96,565.39 314.75,564.61 C316.42,562.92 316.57,560.26 316.32,557.9 C316.07,555.54 315.51,553.12 316.12,550.82 C316.373795,549.949223 316.747368,549.117939 317.23,548.35 C320.23,543.17 324.76,540.51 330.79,541.01 Z" id="Path" fill="#000000" opacity="0.05"></path>
            <path d="M134.22,656.72 C128.03,663.89 122.58,666.45 112.89,666.22 C106.93,666.08 100.976667,665.77 95.03,665.29 C90.9654488,664.850477 86.8778077,664.660121 82.79,664.72 C70.45,665.2 58.54,670.85 46.23,669.86 C44.4097752,669.716734 42.6097829,669.381539 40.86,668.86 C38.0673738,668.090649 35.54348,666.560387 33.57,664.44 C31.21,661.77 30.08,658.23 29.43,654.73 C26.14,636.79 35.16,617.25 50.95,608.12 C53.0101901,606.789479 55.3521463,605.957468 57.79,605.69 C60.180528,605.680209 62.543632,606.199273 64.71,607.21 L64.86,607.27 C71.2751106,609.909589 77.1013913,613.798309 82,618.71 C82.7432046,619.561155 83.6299813,620.275315 84.62,620.82 C85.6079921,621.193134 86.6539479,621.389462 87.71,621.4 L100.85,622.23 C103.076212,622.296437 105.288873,622.601516 107.45,623.14 C109.832477,623.97178 112.151833,624.974383 114.39,626.14 C121.46,629.3 129.3,630.14 136.94,631.36 C137.676234,631.400685 138.378806,631.681714 138.94,632.16 C139.244912,632.539246 139.457198,632.984363 139.56,633.46 C141.740034,641.619266 139.740551,650.328624 134.22,656.72 Z" id="Path" fill="#3F3D56"></path>
            <path d="M64.86,607.28 C59.7619728,612.147987 55.3392802,617.677194 51.71,623.72 C45.8860245,633.692737 42.2266797,644.779803 40.97,656.26 C40.49344,660.447981 40.4565724,664.674343 40.86,668.87 C38.0673738,668.100649 35.54348,666.570387 33.57,664.45 C31.21,661.78 30.08,658.24 29.43,654.74 C26.14,636.8 35.16,617.26 50.95,608.13 C53.0101901,606.799479 55.3521463,605.967468 57.79,605.7 C60.180528,605.690209 62.543632,606.209273 64.71,607.22 L64.86,607.28 Z" id="Path" fill="#000000" opacity="0.1"></path>
            <path d="M319.35,632.16 C326.7,631.96 334.95,631.59 340.35,636.54 C345.5,641.22 346.18,648.94 346.52,655.89 L346.91,663.96 C347.03,666.42 347.13,668.96 346.14,671.24 C344.38,675.24 339.55,677.17 335.14,676.94 C330.73,676.71 326.68,674.78 322.65,673.04 C311.709061,668.326576 300.317112,664.738112 288.65,662.33 C289.03,656.75 289.663333,651.196667 290.55,645.67 C291.16,641.84 291.26,635.43 293.82,632.25 C296.53,628.89 300.06,630.71 303.74,631.33 C308.903518,632.117963 314.132038,632.395968 319.35,632.16 Z" id="Path" fill="#FBBEBE"></path>
            <path d="M125.11,551.07 C125.11,552.07 123.54,551.07 123.4,550 C122.3,541.91 115.88,535.24 108.4,532 C100.92,528.76 92.4,528.59 84.3,529.36 C72.05,530.52 58.3,535.21 53.82,546.66 C52.76,549.34 52.28,552.24 50.98,554.81 C49.54,557.63 47.19,559.88 45.63,562.62 C42.94,567.36 42.83,573.17 43.8,578.53 C46.41,592.83 56.19,605.06 68.04,613.53 C79.89,622 93.74,627.06 107.55,631.62 C144.066624,643.663471 181.532224,652.611728 219.55,658.37 C225.71,659.3 231.93,660.16 237.83,662.14 C243.11,663.91 248.05,666.56 253.21,668.64 C265.21,673.46 278.12,675.18 290.91,676.87 C293.09,677.15 295.59,677.35 297.2,675.87 C299.28,673.94 298.59,670.58 298,667.81 C295.82913,657.277771 297.650383,646.314616 303.11,637.05 C305.25,633.45 308.03,629.76 307.63,625.59 C307.15,620.73 302.31,617.29 297.49,616.51 C292.67,615.73 287.77,616.88 282.93,617.51 C281.26,617.73 279.44,617.87 277.98,617.02 C277.260659,616.53428 276.608389,615.955979 276.04,615.3 C269.199743,608.701296 258.887471,607.259839 250.5,611.73 C248.71,612.73 246,610.5 244.14,609.66 L223.11,600.14 C198.95,589.21 174.67,578.23 149.11,571.31 C147.07063,570.909122 145.132395,570.103224 143.41,568.94 C142.14,567.94 141.23,566.58 140.06,565.47 C137.51,563.06 133.96,562.1 130.9,560.39 C127.84,558.68 124.41,554.5 125.11,551.07 Z" id="Path" fill="#464353"></path>
            <path d="M449.32,681.76 C445.96,687.99 439.44,691.87 432.44,693.47 C430.683321,693.866453 428.897534,694.12061 427.1,694.23 C418.25,694.78 409.51,692.33 400.98,689.91 L389.4,686.65 C387.409225,686.023337 385.368433,685.568341 383.3,685.29 C380.484084,685.101908 377.656364,685.199069 374.86,685.58 C361.173705,686.853266 347.377223,686.234106 333.86,683.74 C332.729159,683.617926 331.643072,683.230772 330.69,682.61 C329.855025,681.7915 329.113791,680.882565 328.48,679.9 C325.33,676.11 321.94,673.9 325.67,668.9 C327.82,666 331.81,664.55 333.48,661.22 C335.15,657.89 334.08,653.16 333.09,649.72 C331.74,644.97 327.3,642.92 325.71,638.56 C324.52,635.27 326.52,631.45 329.53,629.66 C332.54,627.87 336.26,627.73 339.73,628.19 C343.2,628.65 346.6,629.63 350.09,629.9 C360.35,630.72 370.84,625.43 380.69,628.41 C382.86,629.07 384.91,630.12 387.11,630.7 C391.398976,631.659367 395.879521,631.271728 399.94,629.59 C401.38,629.05 402.79,628.4 404.19,627.76 C406.889934,626.354428 409.765288,625.315266 412.74,624.67 C422.35,623.02 431.26,629.67 438.51,636.16 C440.998737,638.225509 443.20142,640.613149 445.06,643.26 C447.06,646.38 448.12,650.01 449.06,653.59 C451.71,662.84 453.9,673.26 449.32,681.76 Z" id="Path" fill="#3F3D56"></path>
            <path d="M449.32,681.76 C445.96,687.99 439.44,691.87 432.44,693.47 C435.162944,688.179661 436.390379,682.246481 435.99,676.31 C435.39,666.8 431.21,657.84 425.88,649.94 C422.600984,645.076919 418.871177,640.533518 414.74,636.37 C411.56,633.17 407.65,630.63 404.23,627.7 C406.929934,626.294428 409.805288,625.255266 412.78,624.61 C422.39,622.96 431.3,629.61 438.55,636.1 C441.038737,638.165509 443.24142,640.553149 445.1,643.2 C447.1,646.32 448.16,649.95 449.1,653.53 C451.71,662.84 453.9,673.26 449.32,681.76 Z" id="Path" fill="#000000" opacity="0.1"></path>
            <path d="M82.11,373.26 C81.1358753,374.279733 80.3804196,375.487781 79.89,376.81 C71.806633,395.027313 67.0320951,414.538581 65.79,434.43 C65.8117471,435.399899 65.5881658,436.359579 65.14,437.22 C64.6980568,437.79249 64.2061227,438.324582 63.67,438.81 C62.6859715,439.976369 62.2286927,441.498063 62.4067746,443.013654 C62.5848566,444.529245 63.3824089,445.903496 64.61,446.81 C66.26,443.7 70.21,442.69 73.72,442.42 C90.53,441.09 106.95,448.91 123.81,448.32 C122.62,444.21 120.91,440.26 119.94,436.1 C115.65,417.63 126.35,397.52 119.79,379.73 C118.48,376.17 116.29,372.67 112.84,371.11 C111.411552,370.533014 109.916659,370.136615 108.39,369.93 C104.13,369.16 95.65,365.87 91.53,367.19 C90.01,367.68 89.41,369.11 88.15,369.97 C86.24,371.2 83.7,371.65 82.11,373.26 Z" id="Path" fill="#6C63FF"></path>
            <rect id="Rectangle" fill="#3F3D56" x="117.57" y="409.66" width="223" height="142" rx="7.97"></rect>
            <circle id="Oval" fill="#FFFFFF" cx="228.57" cy="480.66" r="6"></circle>
            <path d="M147.29,196.5 C143.93,198.93 141.63,202.42 139.29,205.77 C134.98,211.96 130.1,218.14 123.21,221.59 C120.6,222.9 117.62,223.89 115.89,226.17 C114.863165,227.711948 114.196685,229.465305 113.94,231.3 C112.620116,237.751189 111.930208,244.315366 111.88,250.9 C111.88,254.18 112.02,257.56 113.47,260.54 C114.84,263.34 117.31,265.71 117.82,268.76 C118.21,271.14 117.33,273.51 117.02,275.9 C116.71,278.29 117.25,281.12 119.46,282.26 C120.650781,282.707931 121.894381,283.000345 123.16,283.13 C129.81,284.61 132.04,292.41 133.05,298.86 C135.31,298.73 136.33,296.14 136.8,294.03 L143.73,263.22 C144.48,259.88 145.73,256.01 149.06,254.84 C151.29,254.07 153.73,254.79 156.06,254.99 C165.21,255.74 172.95,248.67 181.9,246.72 C184.76484,246.141825 187.693793,245.946786 190.61,246.14 C197.67,246.49 205.88,249.39 207.38,255.98 C207.63,257.05 207.78,258.33 208.78,258.86 C209.78,259.39 210.83,258.94 211.88,258.86 C216.36,258.41 219,263.45 220.29,267.57 L224.99,282.57 C225.69,284.84 226.87,287.51 229.33,287.8 C231.6,288.08 233.53,285.93 233.87,283.8 C234.21,281.67 233.47,279.46 232.98,277.32 C230.77,267.47 234.15,257.39 236.21,247.52 C238.27,237.65 238.64,226.31 231.73,218.71 C229.22,215.96 225.92,213.91 223.58,211.01 C221.4,208.29 220.17,204.95 217.91,202.28 C211.66,194.91 195.63,189.22 185.8,188.28 C174.57,187.06 156.37,189.91 147.29,196.5 Z" id="Path" fill="#3F3D56"></path>
            <g id="Group" opacity="0.1" transform="translate(111.000000, 232.000000)" fill="#000000">
                <path d="M118.37,48.8 C115.91,48.5 114.73,45.8 114.03,43.57 C112.463333,38.5633333 110.896667,33.5633333 109.33,28.57 C108.04,24.44 105.4,19.4 100.92,19.86 C99.87,19.97 98.74,20.38 97.82,19.86 C96.9,19.34 96.67,18.05 96.42,16.98 C94.92,10.38 86.71,7.49 79.65,7.14 C76.7342327,6.94852185 73.8059447,7.14015493 70.94,7.71 C61.99,9.71 54.25,16.71 45.1,15.98 C42.74,15.79 40.3,15.07 38.1,15.84 C34.73,17 33.52,20.84 32.77,24.22 L25.84,55.02 C25.37,57.14 24.35,59.73 22.09,59.85 C21.09,53.41 18.85,45.61 12.2,44.13 C10.936018,43.9907189 9.69360538,43.698584 8.5,43.26 C7.62999976,42.7847875 6.94890554,42.0260556 6.57,41.11 C6.39,42.04 6.18,42.97 6.06,43.9 C5.76,46.28 6.29,49.12 8.5,50.26 C9.69078101,50.7079308 10.9343812,51.0003449 12.2,51.13 C18.85,52.61 21.08,60.41 22.09,66.86 C24.35,66.73 25.37,64.14 25.84,62.03 L32.77,31.22 C33.52,27.88 34.77,24.01 38.1,22.84 C40.33,22.07 42.77,22.79 45.1,22.99 C54.25,23.74 61.99,16.67 70.94,14.72 C73.8048404,14.1418249 76.7337927,13.9467856 79.65,14.14 C86.71,14.49 94.92,17.39 96.42,23.98 C96.67,25.05 96.82,26.33 97.82,26.86 C98.82,27.39 99.87,26.94 100.92,26.86 C105.4,26.41 108.04,31.45 109.33,35.57 C110.89,40.5766667 112.456667,45.5766667 114.03,50.57 C114.73,52.84 115.91,55.51 118.37,55.8 C120.64,56.08 122.57,53.93 122.91,51.8 C123.063663,50.0077308 122.859715,48.2027916 122.31,46.49 C121.580639,47.982202 120.028347,48.8923018 118.37,48.8 Z" id="Path"></path>
                <path d="M6.83,29.76 C6.32,26.71 3.83,24.34 2.48,21.54 C1.61204917,19.651458 1.10985575,17.6155388 1,15.54 C1,16.66 0.9,17.78 0.89,18.91 C0.89,22.19 1.03,25.57 2.48,28.55 C3.59,30.82 5.42,32.82 6.34,35.13 C6.82507222,33.3840566 6.99106584,31.564902 6.83,29.76 Z" id="Path"></path>
                <path d="M125.25,8.48 C123.43,17.2 120.59,26.08 121.47,34.82 C122.04,28.37 123.92,21.88 125.25,15.48 C126.35938,10.619927 126.750203,5.62345917 126.41,0.65 C126.192868,3.28231619 125.805389,5.89779597 125.25,8.48 Z" id="Path"></path>
            </g>
            <g id="Group" opacity="0.8" transform="translate(299.000000, 123.000000)">
                <path d="M31.04,168.49 L656.1,168.49" id="Path" stroke="#3F3D56" stroke-width="3"></path>
                <path d="M86.57,168.48 C86.57,168.48 116.46,172.63 100.98,140.56 C85.5,108.49 142.98,114.56 142.98,114.56" id="Path" stroke="#3F3D56" stroke-width="3"></path>
                <path d="M285.64,168.48 C285.64,168.48 315.53,164.34 300.05,196.41 C284.57,228.48 342.05,222.41 342.05,222.41" id="Path" stroke="#3F3D56" stroke-width="3"></path>
                <path d="M572.27,168.48 C572.27,168.48 542.37,164.34 557.86,196.41 C573.35,228.48 515.86,222.41 515.86,222.41" id="Path" stroke="#3F3D56" stroke-width="3"></path>
                <path d="M515.86,222.4 L350.93,222.4" id="Path" stroke="#3F3D56" stroke-width="3"></path>
                <circle id="Oval" fill="#6C63FF" cx="31.04" cy="168.49" r="18.25"></circle>
                <circle id="Oval" fill="#3ACC6C" cx="143.29" cy="114.3" r="18.25"></circle>
                <circle id="Oval" fill="#6C63FF" cx="143.29" cy="168.49" r="18.25"></circle>
                <circle id="Oval" fill="#6C63FF" cx="215.73" cy="168.49" r="18.25"></circle>
                <circle id="Oval" fill="#FF6584" cx="342.35" cy="222.13" r="18.25"></circle>
                <circle id="Oval" fill="#FF6584" cx="438.03" cy="222.13" r="18.25"></circle>
                <circle id="Oval" fill="#6C63FF" cx="433.04" cy="168.49" r="18.25"></circle>
                <circle id="Oval" fill="#6C63FF" cx="651.48" cy="168.49" r="18.25"></circle>
                <circle id="Oval" fill="#6C63FF" cx="562.12" cy="168.49" r="18.25"></circle>
                <rect id="Rectangle" fill="#6C63FF" x="0.38" y="0.66" width="61.23" height="42.2"></rect>
                <rect id="Rectangle" fill="#3ACC6C" x="112.9" y="0.66" width="61.23" height="42.2"></rect>
                <rect id="Rectangle" fill="#FF6584" x="311.48" y="0.66" width="61.23" height="42.2"></rect>
            </g>
            <g id="Group" opacity="0.1" transform="translate(0.000000, 291.000000)" fill="#6C63FF">
                <path d="M86.35,9.36 C86.35,9.36 11.58,-22.08 1.78,34.65 C1.78,34.65 -3.33,43.49 3.78,50.79 C3.78,50.79 5.31,46.87 12.53,50.92 C15.1087757,52.3462227 17.8480095,53.4607149 20.69,54.24 C24.5281007,55.2987239 28.606349,55.0811238 32.31,53.62 C32.31,53.62 56.9,52.29 77.58,20.12 C77.58,20.12 86.45,14.64 86.89,12.58 L72.07,13.58 C72.07,13.58 73.21,24.43 67.07,30.94 C67.07,30.94 72.51,14.1 69.9,13.63 C69.37,13.53 62.07,14.49 62.07,14.49 C62.07,14.49 63.96,33.36 54.07,43.12 C54.07,43.12 63.25,23.93 59.26,14.83 L48.32,16.94 C48.32,16.94 51.32,36.79 40.5,48.33 C40.5,48.33 49.4,27.93 45.96,17.57 L35.49,21.09 C35.49,21.09 38.01,40.5 28.96,50.09 C28.96,50.09 36.86,25.48 33.14,22.09 C33.14,22.09 23.72,25.91 21.71,28.09 C21.71,28.09 23.2,42.09 17.45,47.14 C17.45,47.14 20.98,30.14 19.23,29.44 C19.23,29.44 8.29,37.68 4.95,44.79 C4.95,44.79 9.11,33.93 17.86,27.79 C17.86,27.79 10.51,26.55 4.86,29.62 C4.86,29.62 8.64,22.41 20.51,25.83 C20.51,25.83 29.3,19.74 31.06,19.83 C31.06,19.83 19.83,14.83 11.72,15.45 C11.72,15.45 20.42,10.45 33.8,18.8 L44.25,15.03 C44.25,15.03 29.75,7.6 22.49,7.63 C22.49,7.63 32.15,3.89 46.96,14.29 L57.66,12.11 C57.66,12.11 45.66,4.76 37.57,3.05 C37.57,3.05 47.27,1.51 60.75,11.6 L68.06,10.99 C68.06,10.99 59.21,5.77 56.53,4.5 C53.85,3.23 53.97,2.41 53.97,2.41 C60.3298074,3.49930773 66.2629701,6.3308871 71.11,10.59 C71.11,10.59 86.29,10.29 86.35,9.36 Z" id="Path"></path>
            </g>
            <g id="Group" opacity="0.1" transform="translate(10.000000, 203.000000)" fill="#6C63FF">
                <path d="M73.59,41 C73.59,41 47.11,-20.27 8.96,7.83 C8.96,7.83 0.9,10.17 0.96,18.53 C0.96,18.53 4.1,17.07 6.09,23.6 C6.8196871,25.9162875 7.82701023,28.1357561 9.09,30.21 C10.7592464,33.0292036 13.3056191,35.2243525 16.34,36.46 C16.34,36.46 31.71,49.68 62.34,42.35 C62.34,42.35 70.74,44.14 72.17,43.18 L62.81,35.31 C62.81,35.31 57.3,42.41 49.92,42.75 C49.92,42.75 62.75,35.85 61.47,34.08 C61.21,33.72 56.32,30.14 56.32,30.14 C56.32,30.14 46.7,42.42 35.32,42.61 C35.32,42.61 51.71,36.43 54.52,28.76 L46.82,23.76 C46.82,23.76 37.11,37.27 24.11,37.97 C24.11,37.97 41.02,30.92 44.88,22.8 L36.65,18.93 C36.65,18.93 27.09,31.93 16.28,32.42 C16.28,32.42 35,22.3 34.71,18.17 C34.71,18.17 26.94,15.07 24.47,15.25 C24.47,15.25 17.4,24.4 11.09,24.14 C11.09,24.14 22.88,16.05 22.24,14.64 C22.24,14.64 11.04,13.3 5.01,15.64 C5.01,15.64 13.67,11.56 22.36,12.9 C22.36,12.9 18.7,7.97 13.61,6.6 C13.61,6.6 19.97,4.47 25.07,13.25 C25.07,13.25 33.75,14.65 34.77,15.69 C34.77,15.69 30.96,6.3 25.77,2.07 C25.77,2.07 33.77,4.07 36.97,16.64 L45.33,20.35 C45.33,20.35 40.95,7.67 36.61,3.56 C36.61,3.56 44.48,6.84 47.36,21.46 L54.96,26.25 C54.96,26.25 52.02,15.05 48.19,9.42 C48.19,9.42 54.83,14.04 57.08,27.71 L61.78,31.51 C61.78,31.51 59.49,23.37 58.62,21.09 C57.75,18.81 58.29,18.39 58.29,18.39 C61.4488945,22.6779351 63.3500383,27.7615036 63.78,33.07 C63.78,33.07 73.02,41.51 73.59,41 Z" id="Path"></path>
            </g>
        </g>
    </g>
</svg>