<?xml version="1.0" encoding="UTF-8"?>
<svg width="1010px" height="840px" viewBox="0 0 1010 840" version="1.1" xmlns="http://www.w3.org/2000/svg" xmlns:xlink="http://www.w3.org/1999/xlink">
    <!-- Generator: Sketch 52.2 (67145) - http://www.bohemiancoding.com/sketch -->
    <title>ios</title>
    <desc>Created with Sketch.</desc>
    <defs>
        <linearGradient x1="50.4587156%" y1="63.0927314%" x2="50.4587156%" y2="37.0927314%" id="linearGradient-1">
            <stop stop-color="#808080" stop-opacity="0.25" offset="0%"></stop>
            <stop stop-color="#808080" stop-opacity="0.12" offset="54%"></stop>
            <stop stop-color="#808080" stop-opacity="0.1" offset="100%"></stop>
        </linearGradient>
        <linearGradient x1="50.0034295%" y1="99.9870012%" x2="50.0034295%" y2="-0.000177370511%" id="linearGradient-2">
            <stop stop-color="#808080" stop-opacity="0.25" offset="0%"></stop>
            <stop stop-color="#808080" stop-opacity="0.12" offset="54%"></stop>
            <stop stop-color="#808080" stop-opacity="0.1" offset="100%"></stop>
        </linearGradient>
    </defs>
    <g id="Page-1" stroke="none" stroke-width="1" fill="none" fill-rule="evenodd">
        <g id="ios" transform="translate(-1.000000, -1.000000)">
            <path d="M587.55,112.4 C522.83,110.15 461.19,89.26 402.33,66.4 C343.47,43.54 285.17,18.21 222,6.1 C181.37,-1.69 134.9,-2.79 102.17,18.99 C70.66,39.99 60.48,76.14 55.01,109.72 C50.89,134.98 48.47,161.57 59.75,185.21 C67.59,201.63 81.49,215.43 91.11,231.16 C124.58,285.88 100.92,353.36 64.66,406.79 C47.66,431.86 27.91,455.79 14.78,482.45 C1.65,509.11 -4.42,539.7 7.07,566.92 C18.45,593.92 45.58,614.16 74.97,628.41 C134.66,657.36 204.97,665.64 273.58,670.33 C425.41,680.72 578.04,676.22 730.27,671.72 C786.61,670.05 843.19,668.36 898.61,659.65 C929.39,654.81 961.16,647.14 983.51,628.6 C1011.87,605.07 1018.9,565.23 999.89,535.72 C968.01,486.23 879.89,473.94 857.58,420.83 C845.32,391.59 857.91,359.03 875.74,331.91 C913.98,273.75 978.07,222.72 981.44,156.24 C983.76,110.58 952.95,64.85 905.31,43.24 C855.38,20.6 786.13,23.44 749.31,60.93 C711.36,99.53 644.7,114.38 587.55,112.4 Z" id="Path" fill="#6C63FF" opacity="0.1"></path>
            <ellipse id="Oval" fill="#6C63FF" opacity="0.1" cx="484.49" cy="781.99" rx="303.97" ry="41.12"></ellipse>
            <rect id="Rectangle" fill="#3A3768" x="643.8" y="290.82" width="8.86" height="73.02" rx="2.29"></rect>
            <rect id="Rectangle" fill="#3A3768" x="349.37" y="233.61" width="4.97" height="24.04" rx="2.29"></rect>
            <rect id="Rectangle" fill="#3A3768" x="349.19" y="277.63" width="5.6" height="41.84" rx="2.29"></rect>
            <rect id="Rectangle" fill="#3A3768" x="349.28" y="334.11" width="5.33" height="42.2" rx="2.29"></rect>
            <rect id="Rectangle" fill="#3A3768" x="352.18" y="154.17" width="296.4" height="602.39" rx="38.99"></rect>
            <path d="M606.77,169.82 L572.77,169.82 L572.77,173.91 C572.770001,179.051629 570.726812,183.982524 567.090194,187.617266 C563.453576,191.252009 558.521628,193.292653 553.38,193.29 L445.25,193.29 C440.108372,193.292653 435.176424,191.252009 431.539806,187.617266 C427.903188,183.982524 425.859999,179.051629 425.86,173.91 L425.86,169.82 L394.03,169.82 C381.029217,169.82 370.49,180.359217 370.49,193.36 L370.49,717.33 C370.49,723.573196 372.9701,729.560687 377.384706,733.975294 C381.799313,738.3899 387.786804,740.87 394.03,740.87 L606.77,740.87 C619.770783,740.87 630.31,730.330783 630.31,717.33 L630.31,193.4 C630.32062,187.149876 627.84521,181.152104 623.429452,176.728842 C619.013694,172.305581 613.020133,169.819991 606.77,169.82 Z" id="Path" fill="#6C63FF"></path>
            <rect id="Rectangle" fill="#E6E8EC" x="471.79" y="172.16" width="41.39" height="8.4" rx="3.87"></rect>
            <circle id="Oval" fill="#E6E8EC" cx="524.21" cy="176.36" r="4.77"></circle>
            <path d="M751.2,127.75 C751.2,127.75 667,122.67 676.92,181.67 C676.92,181.67 674.92,192.1 684.4,196.83 C684.4,196.83 684.55,192.46 693.04,193.95 C696.062613,194.451035 699.133258,194.598694 702.19,194.39 C706.313543,194.118927 710.237289,192.515035 713.37,189.82 C713.37,189.82 737.04,180.04 746.24,141.36 C746.24,141.36 753.05,132.92 752.78,130.75 L738.57,136.82 C738.57,136.82 743.43,147.07 739.57,155.59 C739.57,155.59 739.11,137.19 736.38,137.59 C735.83,137.67 729,141.14 729,141.14 C729,141.14 737.35,158.99 731.05,171.97 C731.05,171.97 733.44,149.97 726.39,142.43 L716.39,148.27 C716.39,148.27 726.15,166.71 719.53,181.76 C719.53,181.76 721.23,158.68 714.28,149.69 L705.22,156.76 C705.22,156.76 714.39,174.93 708.8,187.41 C708.8,187.41 708.07,160.55 703.26,158.52 C703.26,158.52 695.33,165.52 694.12,168.38 C694.12,168.38 700.4,181.58 696.5,188.54 C696.5,188.54 694.11,170.64 692.15,170.54 C692.15,170.54 684.25,182.4 683.43,190.54 C683.43,190.54 683.77,178.45 690.24,169.42 C690.24,169.42 682.6,170.73 678.14,175.68 C678.14,175.68 679.37,167.3 692.19,166.56 C692.19,166.56 698.72,157.56 700.46,157.02 C700.46,157.02 687.72,155.95 679.99,159.38 C679.99,159.38 686.79,151.47 702.8,155.07 L711.75,147.76 C711.75,147.76 694.97,145.47 687.85,148 C687.85,148 696.04,141 714.16,146.1 L723.9,140.28 C723.9,140.28 709.59,137.2 701.07,138.28 C701.07,138.28 710.07,133.43 726.76,138.69 L733.76,135.56 C733.76,135.56 723.28,133.5 720.21,133.17 C717.14,132.84 716.98,132 716.98,132 C723.619506,130.892852 730.436032,131.651013 736.67,134.19 C736.67,134.19 751.45,128.68 751.2,127.75 Z" id="Path" fill="#6C63FF"></path>
            <path d="M664.83,101.51 C664.83,101.51 626.83,99.22 631.27,125.88 C631.27,125.88 630.38,130.59 634.65,132.73 C634.65,132.73 634.72,130.73 638.56,131.42 C639.923936,131.649547 641.310266,131.716682 642.69,131.62 C644.555295,131.496686 646.328944,130.766153 647.74,129.54 C647.74,129.54 658.44,125.12 662.6,107.64 C662.6,107.64 665.67,103.83 665.55,102.85 L659.13,105.59 C659.13,105.59 661.32,110.22 659.6,114.07 C659.6,114.07 659.39,105.76 658.16,105.95 C657.91,105.95 654.82,107.56 654.82,107.56 C654.82,107.56 658.6,115.63 655.75,121.49 C655.75,121.49 656.83,111.55 653.64,108.14 L649.12,110.82 C649.12,110.82 653.53,119.15 650.54,125.95 C650.54,125.95 651.31,115.52 648.17,111.46 L644.08,114.66 C644.08,114.66 648.22,122.87 645.7,128.51 C645.7,128.51 645.36,116.37 643.19,115.45 C643.19,115.45 639.61,118.61 639.06,119.91 C639.06,119.91 641.9,125.91 640.14,129.02 C640.14,129.02 639.06,120.93 638.14,120.89 C638.14,120.89 634.57,126.25 634.2,129.89 C634.378662,126.496096 635.440341,123.207649 637.28,120.35 C635.219877,120.740226 633.318653,121.723858 631.81,123.18 C631.81,123.18 632.37,119.39 638.16,119.06 C638.16,119.06 641.16,114.99 641.9,114.74 C641.9,114.74 636.14,114.26 632.65,115.81 C632.65,115.81 635.72,112.24 642.95,113.86 L646.95,110.56 C646.95,110.56 639.36,109.56 636.15,110.67 C636.15,110.67 639.85,107.51 648.04,109.81 L652.44,107.18 C652.44,107.18 645.97,105.79 642.12,106.29 C642.12,106.29 646.19,104.1 653.73,106.47 L656.88,105.06 C656.88,105.06 652.14,104.13 650.75,103.98 C649.36,103.83 649.29,103.45 649.29,103.45 C652.291974,102.950612 655.373702,103.296873 658.19,104.45 C658.19,104.45 664.95,101.93 664.83,101.51 Z" id="Path" fill="#6C63FF"></path>
            <ellipse id="Oval" fill="#6C63FF" opacity="0.1" cx="865.17" cy="774.34" rx="26.93" ry="4.55"></ellipse>
            <ellipse id="Oval" fill="#6C63FF" opacity="0.1" cx="92.09" cy="811.68" rx="26.93" ry="4.55"></ellipse>
            <ellipse id="Oval" fill="#6C63FF" opacity="0.1" cx="196.26" cy="836.09" rx="26.93" ry="4.55"></ellipse>
            <ellipse id="Oval" fill="#6C63FF" cx="806.22" cy="823.1" rx="40.21" ry="6.8"></ellipse>
            <path d="M822.85,811.98 C824.682558,810.481492 826.017919,808.462761 826.68,806.19 C827.18,803.9 826.2,801.19 824,800.3 C821.54,799.36 818.91,801.07 816.92,802.79 C814.93,804.51 812.64,806.48 810.03,806.11 C812.76238,803.638596 813.996336,799.913946 813.28,796.3 C813.162829,795.563392 812.848366,794.872264 812.37,794.3 C811.01,792.84 808.53,793.46 806.9,794.62 C801.7,798.27 800.25,805.34 800.22,811.69 C799.69,809.4 800.14,807.01 800.12,804.69 C800.1,802.37 799.47,799.69 797.48,798.46 C796.252244,797.801117 794.872716,797.476928 793.48,797.52 C791.14,797.43 788.54,797.67 786.94,799.38 C784.94,801.5 785.48,805.06 787.2,807.38 C788.92,809.7 791.55,811.19 793.97,812.8 C795.905902,813.954273 797.556796,815.529971 798.8,817.41 C798.949817,817.672756 799.070531,817.951069 799.16,818.24 L813.77,818.24 C817.064411,816.571162 820.118622,814.465505 822.85,811.98 Z" id="Path" fill="#6C63FF"></path>
            <path d="M197.65,724.27 C197.65,724.27 203.15,731.46 195.12,742.27 C187.09,753.08 180.47,762.27 183.12,769.04 C183.12,769.04 195.24,748.89 205.12,748.61 C215,748.33 208.5,736.39 197.65,724.27 Z" id="Path" fill="#6C63FF"></path>
            <path d="M197.65,724.27 C198.129559,724.965855 198.50674,725.726952 198.77,726.53 C208.39,737.83 213.52,748.38 204.27,748.64 C195.66,748.89 185.33,764.29 182.85,768.18 C182.93,768.48 183.03,768.77 183.14,769.07 C183.14,769.07 195.26,748.92 205.14,748.64 C215.02,748.36 208.5,736.39 197.65,724.27 Z" id="Path" fill="#000000" opacity="0.1"></path>
            <path d="M207.86,733.43 C207.86,735.96 207.58,738.01 207.23,738.01 C206.88,738.01 206.6,735.96 206.6,733.43 C206.6,730.9 206.95,732.09 207.3,732.09 C207.65,732.09 207.86,730.9 207.86,733.43 Z" id="Path" fill="#FFD037"></path>
            <path d="M211.37,736.45 C209.15,737.66 207.21,738.39 207.05,738.08 C206.89,737.77 208.54,736.54 210.76,735.33 C212.98,734.12 212.11,735 212.27,735.33 C212.43,735.66 213.59,735.24 211.37,736.45 Z" id="Path" fill="#FFD037"></path>
            <path d="M168.64,724.27 C168.64,724.27 163.14,731.46 171.17,742.27 C179.2,753.08 185.82,762.27 183.17,769.04 C183.17,769.04 171.06,748.89 161.17,748.61 C151.28,748.33 157.77,736.39 168.64,724.27 Z" id="Path" fill="#6C63FF"></path>
            <path d="M168.64,724.27 C168.158932,724.966447 167.778517,725.727277 167.51,726.53 C157.89,737.83 152.77,748.38 162.01,748.64 C170.63,748.89 180.96,764.29 183.44,768.18 C183.358061,768.482452 183.257878,768.779663 183.14,769.07 C183.14,769.07 171.03,748.92 161.14,748.64 C151.25,748.36 157.77,736.39 168.64,724.27 Z" id="Path" fill="#000000" opacity="0.1"></path>
            <path d="M158.42,733.43 C158.42,735.96 158.71,738.01 159.06,738.01 C159.41,738.01 159.69,735.96 159.69,733.43 C159.69,730.9 159.34,732.09 158.99,732.09 C158.64,732.09 158.42,730.9 158.42,733.43 Z" id="Path" fill="#FFD037"></path>
            <path d="M154.92,736.45 C157.14,737.66 159.07,738.39 159.24,738.08 C159.41,737.77 157.74,736.54 155.52,735.33 C153.3,734.12 154.18,735 154.01,735.33 C153.84,735.66 152.7,735.24 154.92,736.45 Z" id="Path" fill="#FFD037"></path>
            <path d="M160.17,768.13 C160.17,768.13 175.53,767.65 180.17,764.36 C184.81,761.07 203.8,757.12 204.94,762.41 C206.08,767.7 228.03,788.7 210.69,788.84 C193.35,788.98 170.39,786.14 165.77,783.33 C161.15,780.52 160.17,768.13 160.17,768.13 Z" id="Path" fill="#A8A8A8"></path>
            <path d="M210.99,787 C193.65,787.14 170.69,784.3 166.07,781.49 C162.56,779.34 161.15,771.65 160.68,768.11 L160.17,768.11 C160.17,768.11 161.17,780.49 165.76,783.31 C170.35,786.13 193.34,788.96 210.68,788.82 C215.68,788.82 217.41,787 217.32,784.36 C216.62,785.98 214.71,786.97 210.99,787 Z" id="Path" fill="#000000" opacity="0.2"></path>
            <path d="M283.23,445.7 C283.522488,445.982381 283.965644,446.0393 284.32,445.84 C283.951849,445.845558 283.584797,445.798414 283.23,445.7 Z" id="Path" fill="url(#linearGradient-1)"></path>
            <path d="M403.06,246.7 C400.95,246.08 397.95,245.07 394.32,243.8 C398.087008,238.880146 400.840188,233.26162 402.42,227.27 L402.11,227.39 C402.21,227.02 402.32,226.66 402.42,226.29 C395.48,229.15 387.79,224.29 382.9,218.08 C378.01,211.87 374.68,204.14 369.33,198.41 C367.09604,196.140441 364.692417,194.044375 362.14,192.14 C360.56,190.9 358.85,189.61 356.92,189.55 C353.8,189.46 351.35,192.55 348.34,193.48 C346.355262,193.933553 344.286193,193.857687 342.34,193.26 C334.57,191.45 327.08,188.12 319.19,187.26 C314.949213,186.726376 310.642295,187.216734 306.63,188.69 C302.63,190.23 300.83,193.28 297.63,195.69 C294.16,198.31 287.25,198.25 283.16,198.69 C278.201671,199.259524 273.208673,199.470072 268.22,199.32 C265.351385,199.060668 262.46141,199.168202 259.62,199.64 C253.68,200.96 248.91,205.74 244.46,210.34 C243.239904,211.390396 242.365117,212.784479 241.95,214.34 C241.895098,214.778287 241.895098,215.221713 241.95,215.66 C241.904038,216.855723 242.108404,218.047859 242.55,219.16 C243.894481,223.294462 245.813239,227.2195 248.25,230.82 C250.07,233.46 252.18,235.94 253.25,239.06 C253.741265,240.596277 254.000783,242.197202 254.02,243.81 C253.963806,245.523683 253.786699,247.231262 253.49,248.92 C252.704134,253.576402 251.41318,258.1333 249.64,262.51 C248.7,264.83 247.64,267.14 247.39,269.68 C247.360216,270.186229 247.360216,270.693771 247.39,271.2 C247.09,279.03 254.9,284.68 256.39,292.47 C256.508244,293.114144 256.581753,293.765702 256.61,294.42 C256.44,299.28 253.71,304.03 249.69,305.91 C250.04,306.05 250.4,306.17 250.76,306.3 C250.414521,306.519329 250.057323,306.719627 249.69,306.9 C250.42,307.18 251.17,307.42 251.93,307.64 C247.331888,311.66803 243.47081,316.46646 240.52,321.82 C227.06,347.35 135.32,397.43 135.32,397.43 C135.32,397.43 135.84,397.72 136.68,398.22 C136.34,398.43 135.98,398.67 135.58,398.94 C127.64,404.3 109,419.94 125.85,439.66 C125.85,439.66 139,418.61 148.21,409.66 C148.63,409.26 149.03,408.89 149.42,408.54 C149.836158,409.178218 149.966673,409.96131 149.78,410.7 L210.11,376.33 C210.11,376.33 231.55,361.11 237.53,357.67 C239.59,356.49 244.84,353.21 251.12,351.76 L250.42,352.07 C252.673925,351.439803 254.999874,351.103683 257.34,351.07 C268.02,351.24 279.58,359.17 283.4,390.58 C288.51,432.64 286.14,440.22 284.5,441.26 C284.29667,441.244677 284.095542,441.207804 283.9,441.15 C283.948709,441.19582 284.002374,441.236069 284.06,441.27 C283.836099,441.255665 283.614617,441.215396 283.4,441.15 C283.634284,441.372894 283.968388,441.45642 284.28,441.37 C284.504906,441.435719 284.74689,441.406826 284.95,441.29 C285.18,441.29 285.45,441.29 285.76,441.29 C285.76,441.67 285.7,442.07 285.67,442.46 C285.59,442.46 285.19,442.69 285.67,442.72 C285.55,445.09 285.56,447.72 285.67,450.37 C280.36,450.67 275.06,450.99 270.41,451.28 L270.83,449.05 L271.02,448.05 C275.09,447.72 278.96,446.51 279.41,443.15 C280.41,435.79 270.41,431.86 261.96,431.37 C253.51,430.88 202.63,434.32 202.63,434.32 C202.63,434.32 195,444.32 219.19,447.43 C219.91,447.81 220.66,448.23 221.42,448.67 C230.89,454.15 243.75,464.23 249.9,469.2 L250.76,469.89 L248,472.12 C263,475.56 277.42,533.5 285.39,560.01 C293.36,586.52 310.82,585.54 325.28,581.62 C338.83,577.93 340.56,538.04 340.72,533.03 C340.72,532.69 340.72,532.52 340.72,532.52 L364.81,562.63 L366.64,564.92 C367.35,565.29 368.04,565.64 368.72,565.97 C386.97,574.78 407.13,557.9 401.39,538.7 C395.6,519.3 386.6,490.63 380.6,478.51 C375.6,468.36 369.09,451.51 365.15,440.93 C365.660574,440.719913 366.158128,440.479484 366.64,440.21 C366.64,440.21 366.55,439.74 366.39,438.87 L366.64,438.74 C366.64,438.74 360.84,408.19 360.52,386.5 C360.52,386.12 360.52,385.74 360.52,385.36 C360.52,384.98 360.52,384.89 360.52,384.65 C364.88,383.65 367.64,383.25 367.64,383.25 L367.72,382.31 L367.21,382.42 L369.63,354.28 C369.63,354.28 378.53,335.09 371.72,327.09 C369.646415,324.741498 368.262138,321.865661 367.72,318.78 C366.58,311.42 367.72,299.17 383.59,288.98 C408.02,273.27 417.5,260.5 417.5,260.5 C417.5,260.5 418.02,251.12 403.06,246.7 Z M354.54,266.22 L354.54,253.22 C359.07,253 363.7,253.53 368.25,253.22 C370.487779,253.062344 372.7049,252.687242 374.87,252.1 L375.97,252.87 C369.312932,258.056821 362.130326,262.531286 354.54,266.22 Z M285.28,470.03 C287.07,471.29 288.87,472.6 290.64,473.91 C291.74,480.32 292.71,484.85 292.78,485.16 C290.75842,479.893323 288.247429,474.827816 285.28,470.03 Z" id="Shape" fill="url(#linearGradient-2)" fill-rule="nonzero"></path>
            <path d="M324.44,461.82 L323.36,467.68 L322.53,472.16 L321.02,480.36 L306.38,490.61 C306.38,490.61 305.06,489.48 302.88,487.7 C296.88,482.76 284.27,472.7 275.01,467.3 C272.628272,465.781938 270.051384,464.594417 267.35,463.77 L324.44,461.82 Z" id="Path" fill="#FFBDC6"></path>
            <path d="M324.44,461.82 L323.36,467.68 C320.131379,467.855311 316.893269,467.687707 313.7,467.18 L279.54,467.67 C277.93,467.57 276.42,467.45 275.01,467.3 C272.628272,465.781938 270.051384,464.594417 267.35,463.77 L324.44,461.82 Z" id="Path" fill="#000000" opacity="0.1"></path>
            <path d="M313.7,466.18 C313.7,466.18 330.77,469.11 331.77,461.82 C332.77,454.53 322.98,450.59 314.69,450.1 C306.4,449.61 256.62,453.03 256.62,453.03 C256.62,453.03 247.84,464.74 279.55,466.7 L313.7,466.18 Z" id="Path" fill="#474463"></path>
            <path d="M324.44,461.82 L323.36,467.68 L322.53,472.16 L321.02,480.36 L306.38,490.61 C306.38,490.61 305.06,489.48 302.88,487.7 C296.88,482.76 284.27,472.7 275.01,467.3 C272.628272,465.781938 270.051384,464.594417 267.35,463.77 L324.44,461.82 Z" id="Path" fill="#000000" opacity="0.1"></path>
            <path d="M324.44,461.82 L323.36,467.68 C320.131379,467.855311 316.893269,467.687707 313.7,467.18 L279.54,467.67 C277.93,467.57 276.42,467.45 275.01,467.3 C272.628272,465.781938 270.051384,464.594417 267.35,463.77 L324.44,461.82 Z" id="Path" fill="#000000" opacity="0.1"></path>
            <path d="M313.7,466.16 C313.7,466.16 330.78,469.08 331.76,461.76 C332.74,454.44 322.97,450.54 314.68,450.05 C306.39,449.56 256.61,452.98 256.61,452.98 C256.61,452.98 247.83,464.69 279.54,466.64 L313.7,466.16 Z" id="Path" fill="#000000" opacity="0.1"></path>
            <rect id="Rectangle" fill="#474463" x="261.73" y="225.62" width="89.3" height="105.89"></rect>
            <rect id="Rectangle" fill="#000000" opacity="0.1" x="261.73" y="226.1" width="89.3" height="105.89"></rect>
            <path d="M157.07,406.89 C155.6,407.26 153.72,408.68 151.63,410.74 C142.63,419.65 129.74,440.56 129.74,440.56 C113.26,420.93 131.5,405.42 139.27,400.09 C141.16,398.8 142.43,398.09 142.43,398.09 L157.07,406.89 Z" id="Path" fill="#FFBDC6"></path>
            <path d="M323.46,259.04 C323.46,259.04 327.85,289.78 342.98,297.1 C358.11,304.42 323.46,318.1 323.46,318.1 L276.13,300.52 C276.13,300.52 302.97,291.73 297.6,265.87 L323.46,259.04 Z" id="Path" fill="#FFBDC6"></path>
            <path d="M272.71,443.98 L271.64,449.82 L270.77,454.32 L269.26,462.52 L254.62,472.76 C254.62,472.76 253.3,471.64 251.12,469.86 C245.12,464.92 232.51,454.86 223.24,449.46 C220.859407,447.93986 218.282227,446.752204 215.58,445.93 L272.71,443.98 Z" id="Path" fill="#FFBDC6"></path>
            <path d="M272.71,443.98 L271.64,449.82 C268.411379,449.995311 265.173269,449.827707 261.98,449.32 L227.82,449.81 C226.21,449.71 224.69,449.59 223.28,449.44 C220.899407,447.91986 218.322227,446.732204 215.62,445.91 L272.71,443.98 Z" id="Path" fill="#000000" opacity="0.1"></path>
            <path d="M261.98,448.37 C261.98,448.37 279.06,451.29 280.03,443.98 C281,436.67 271.25,432.75 262.95,432.26 C254.65,431.77 204.89,435.19 204.89,435.19 C204.89,435.19 196.1,446.9 227.82,448.86 L261.98,448.37 Z" id="Path" fill="#474463"></path>
            <path d="M270.77,454.32 L269.26,462.52 L254.62,472.76 C254.62,472.76 253.3,471.64 251.12,469.86 L270.48,453.98 L270.77,454.32 Z" id="Path" fill="#000000" opacity="0.1"></path>
            <path d="M367.46,566.03 C366.79,565.7 366.12,565.36 365.46,565.03 L363.66,562.76 L340.05,532.82 C340.05,532.82 340.05,533 340.05,533.34 C339.89,538.34 338.19,577.96 324.93,581.62 C310.78,585.52 293.71,586.5 285.93,560.15 C278.15,533.8 263.93,476.22 249.33,472.8 L271.05,454.99 C271.05,454.99 285.43,471.81 291.29,487.91 C291.07,486.91 281.14,440.51 289.29,432.3 L360.54,432.3 C360.54,432.3 371.54,463.63 379.08,479.15 C384.95,491.2 393.76,519.69 399.43,538.97 C405.05,558.01 385.32,574.82 367.46,566.03 Z" id="Path" fill="#474463"></path>
            <path d="M365.43,441.05 C354.43,447.56 306.14,444.91 290.43,443.85 L286.15,443.54 C285.69,443.54 286.22,443.28 286.22,443.28 L286.66,438.85 L298.37,409.09 L361.07,372.73 C359.8,376.56 359.38,382.42 359.48,389.13 C359.77,410.69 365.43,441.05 365.43,441.05 Z" id="Path" fill="#000000" opacity="0.1"></path>
            <path d="M365.43,439.58 C354.43,446.09 306.14,443.44 290.43,442.38 L286.15,442.08 L285.44,442.02 L286.22,441.82 L290.08,440.82 L298.37,407.64 L361.07,371.29 C359.8,375.12 359.38,380.98 359.48,387.69 C359.77,409.23 365.43,439.58 365.43,439.58 Z" id="Path" fill="#F2F1F2"></path>
            <path d="M359.44,387.67 C346.69,390.61 318.63,399.24 307.85,420.07 C300.66,433.94 294.61,439.89 290.39,442.38 L286.11,442.08 C286.137987,441.994654 286.161354,441.907861 286.18,441.82 L290.04,440.82 L298.33,407.64 L361.03,371.29 C359.77,375.1 359.34,380.96 359.44,387.67 Z" id="Path" fill="#000000" opacity="0.1"></path>
            <path d="M142.43,398.11 L157.07,406.89 C155.6,407.26 153.72,408.68 151.63,410.74 C150.41,407.18 142.75,402.21 139.27,400.09 C141.16,398.82 142.43,398.11 142.43,398.11 Z" id="Path" fill="#000000" opacity="0.1"></path>
            <path d="M283.5,442.65 C283.170914,442.821335 282.769382,442.76512 282.5,442.51 C282.824724,442.605176 283.161624,442.652342 283.5,442.65 Z" id="Path" fill="#000000" opacity="0.1"></path>
            <path d="M316.63,295.15 C316.63,295.15 303.45,296.61 294.18,286.85 C294.18,286.85 255.18,298.08 241.97,323.45 C228.76,348.82 138.97,398.6 138.97,398.6 C138.97,398.6 154.59,407.38 153.12,411.77 L212.17,377.61 C212.17,377.61 233.17,362.49 239,359.07 C244.83,355.65 277.07,334.67 283.9,391.76 C290.73,448.85 283.9,442.02 283.9,442.02 C283.9,442.02 293.66,445.44 307.81,418.11 C321.96,390.78 365.87,384.44 365.87,384.44 L368.31,355.66 C368.31,355.66 377.02,336.58 370.31,328.66 C368.27717,326.315161 366.924976,323.458606 366.4,320.4 C365.29,313.09 366.4,300.91 381.94,290.79 C405.85,275.17 415.12,262.49 415.12,262.49 C415.12,262.49 415.61,253.21 400.97,248.82 C386.33,244.43 326.8,220.52 326.8,220.52 L324.8,228.82 L371.77,261.97 C371.77,261.97 348.35,280.97 329.77,280.51 C329.77,280.51 333.22,294.66 316.63,295.15 Z" id="Path" fill="#FF748E"></path>
            <path d="M325.67,272.42 C324.51588,268.50853 323.614026,264.527011 322.97,260.5 L297.11,267.33 C298.2501,272.266703 298.046366,277.41874 296.52,282.25 C307.329382,285.135046 318.815159,281.261798 325.67,272.42 Z" id="Path" fill="#000000" opacity="0.1"></path>
            <circle id="Oval" fill="#FFBDC6" cx="304.19" cy="253.92" r="27.81"></circle>
            <path d="M318.98,190.67 C326.7,191.54 334.03,194.86 341.63,196.67 C343.528565,197.263874 345.55073,197.343242 347.49,196.9 C350.44,195.98 352.84,192.9 355.9,192.99 C357.78,192.99 359.45,194.33 361,195.56 C363.488126,197.459564 365.828205,199.545578 368,201.8 C373.24,207.49 376.49,215.15 381.27,221.34 C386.05,227.53 393.59,232.34 400.38,229.5 C395.76,247.5 380.63,261.21 364.26,262.33 C357.73,262.77 351.04,261.41 344.72,263.33 C343.144755,263.970681 341.483475,264.375049 339.79,264.53 C336.15,264.53 333.22,261.19 330.95,257.94 C325.63,250.3 321.42,241.62 315.43,234.65 C313.43,232.35 311.12,230.16 308.32,229.74 C305.52,229.32 302.95,230.65 300.46,231.94 C296.35,234.07 292.15,236.28 288.96,239.94 C285.77,243.6 283.76,249.04 285.08,253.94 C285.79,256.6 287.41,259 287.44,261.78 C287.5,266.21 283.58,269.46 282.81,273.78 C282.636339,275.594485 282.57289,277.417833 282.62,279.24 C282.28,285.16 278.41,290.01 274.37,293.73 C272.79,295.18 271.05,296.73 270.59,298.97 C270.28,300.49 270.59,302.11 270.39,303.65 C269.8,307.49 265.97,309.44 262.58,309.95 C258.619091,310.526673 254.576136,310.047176 250.86,308.56 C255.6,306.31 258.52,299.94 257.42,294.22 C255.91,286.3 247.95,280.62 248.63,272.55 C249.005602,270.077363 249.747055,267.674382 250.83,265.42 C252.565738,261.068502 253.826383,256.542252 254.59,251.92 C255.19,248.34 255.48,244.55 254.36,241.15 C253.36,238.04 251.27,235.58 249.5,232.96 C247.098379,229.392385 245.203629,225.508654 243.87,221.42 C243.38269,220.212852 243.197328,218.905019 243.33,217.61 C243.719315,216.05788 244.574256,214.662057 245.78,213.61 C250.13,209.04 254.78,204.28 260.61,202.98 C263.390953,202.509873 266.220783,202.398965 269.03,202.65 C273.915304,202.808467 278.805619,202.601222 283.66,202.03 C287.66,201.56 294.42,201.63 297.81,199.03 C300.97,196.6 302.75,193.57 306.64,192.03 C310.58151,190.579814 314.817276,190.112988 318.98,190.67 Z" id="Path" fill="#000000" opacity="0.1"></path>
            <path d="M334.44,477.89 C334.44,477.89 350.54,509.61 345.66,519.36" id="Path" fill="#000000" opacity="0.1"></path>
            <path d="M363.63,562.72 L340.05,532.82 C340.05,532.82 340.05,533 340.05,533.34 C340.05,533.34 338.69,523.66 343.18,526.91 C353.02,534.03 368.76,545.7 369.1,547.71 C369.44,549.72 365.91,557.75 363.63,562.72 Z" id="Path" fill="#000000" opacity="0.1"></path>
            <g id="Group" opacity="0.1" transform="translate(139.000000, 220.000000)" fill="#000000">
                <path d="M191.29,60.51 C191.29,60.51 193.29,68.75 186.85,72.87 C196.75,71.18 197.19,63.47 196.85,60.12 C195.011885,60.4145038 193.151228,60.5450175 191.29,60.51 Z" id="Path"></path>
                <path d="M5.87,176.64 C5.87,176.64 95.65,126.87 108.87,101.5 C118.32,83.29 141.1,72.37 153.2,67.65 C144.38,70.65 114.66,81.96 103.5,103.45 C90.33,128.82 0.5,178.6 0.5,178.6 L5.87,176.64 Z" id="Path"></path>
                <path d="M208.77,56.63 C224.05,51.88 238.65,40.02 238.65,40.02 L191.77,6.82 L192.84,2.28 L188.35,0.48 L186.4,8.78 L233.25,41.96 C225.741558,47.8631546 217.516206,52.7923177 208.77,56.63 Z" id="Path"></path>
                <path d="M209.04,169.08 C215.024008,167.037877 221.164271,165.486089 227.4,164.44 L227.48,163.5 C221.198431,164.880911 215.033311,166.746495 209.04,169.08 Z" id="Path"></path>
                <path d="M152.26,220.2 L151.83,220.2 C151.500388,220.36824 151.100738,220.312289 150.83,220.06 C151.154844,220.15462 151.491661,220.201774 151.83,220.2 C153.43,219.27 155.83,211.98 150.83,169.8 C145.45,124.8 124.28,128.31 112.7,133.49 C124.54,130.23 140.83,133.05 145.46,171.75 C150.51,213.93 148.1,221.22 146.46,222.15 C148.54079,222.07217 150.554823,221.395038 152.26,220.2 Z" id="Path"></path>
                <path d="M146.46,222.16 C146.121661,222.161774 145.784844,222.11462 145.46,222.02 C145.730738,222.272289 146.130388,222.32824 146.46,222.16 Z" id="Path"></path>
            </g>
            <path d="M318.98,189.69 C326.7,190.57 334.03,193.88 341.63,195.69 C343.529455,196.280564 345.551611,196.356481 347.49,195.91 C350.44,195 352.84,191.91 355.9,192 C357.78,192.06 359.45,193.34 361,194.57 C363.485753,196.472437 365.825622,198.558264 368,200.81 C373.24,206.5 376.49,214.16 381.27,220.35 C386.05,226.54 393.59,231.35 400.38,228.51 C395.76,246.51 380.63,260.22 364.26,261.34 C357.73,261.79 351.04,260.43 344.72,262.34 C343.146278,262.985382 341.484284,263.389924 339.79,263.54 C336.15,263.54 333.22,260.2 330.95,256.95 C325.63,249.31 321.42,240.64 315.43,233.67 C313.43,231.36 311.12,229.17 308.32,228.75 C305.52,228.33 302.95,229.67 300.46,230.96 C296.35,233.09 292.15,235.29 288.96,238.96 C285.77,242.63 283.76,248.05 285.08,252.96 C285.79,255.62 287.41,258.02 287.44,260.8 C287.5,265.24 283.58,268.48 282.81,272.8 C282.636143,274.614472 282.572693,276.437832 282.62,278.26 C282.28,284.18 278.41,289.02 274.37,292.75 C272.79,294.19 271.05,295.75 270.59,297.98 C270.28,299.51 270.59,301.12 270.39,302.67 C269.8,306.51 265.97,308.46 262.58,308.96 C258.619224,309.546312 254.573751,309.066516 250.86,307.57 C255.6,305.33 258.52,298.95 257.42,293.24 C255.91,285.32 247.95,279.63 248.63,271.57 C249.004145,269.09703 249.745663,266.693836 250.83,264.44 C252.56451,260.084643 253.825106,255.555213 254.59,250.93 C255.19,247.36 255.48,243.57 254.36,240.16 C253.36,237.06 251.27,234.59 249.5,231.97 C247.100322,228.404848 245.205677,224.524694 243.87,220.44 C243.385345,219.228641 243.200104,217.918233 243.33,216.62 C243.730931,215.086944 244.58475,213.710377 245.78,212.67 C250.13,208.1 254.78,203.35 260.61,202.04 C263.391882,201.578097 266.221084,201.470574 269.03,201.72 C273.915278,201.873379 278.805215,201.66615 283.66,201.1 C287.66,200.63 294.42,200.69 297.81,198.1 C300.97,195.68 302.75,192.64 306.64,191.1 C310.579022,189.639997 314.81316,189.156194 318.98,189.69 Z" id="Path" fill="#474463"></path>
            <path d="M550.175206,432.549907 C550.433869,460.405751 574.612138,469.675474 574.88,469.79379 C574.675561,470.447542 571.016716,483.004053 562.14174,495.974031 C554.469713,507.187235 546.507162,518.359363 533.96379,518.590747 C521.638673,518.817849 517.67546,511.281921 503.584361,511.281921 C489.49752,511.281921 485.09421,518.359344 473.427114,518.817849 C461.319578,519.276018 452.099816,506.692254 444.364032,495.520127 C428.556894,472.667163 416.47697,430.943021 432.697255,402.778544 C440.755146,388.791951 455.155207,379.935056 470.785186,379.707937 C482.674477,379.481148 493.896554,387.706656 501.164628,387.706656 C508.428094,387.706656 522.065306,377.814762 536.401604,379.267511 C542.403269,379.517306 559.250039,381.691844 570.067813,397.526257 C569.196167,398.066612 549.966168,409.261402 550.175206,432.549934 M527.011573,364.148282 C533.439545,356.367477 537.76594,345.535878 536.585653,334.75851 C527.320214,335.130897 516.116217,340.932741 509.470324,348.709264 C503.514328,355.595738 498.298214,366.617979 499.705612,377.18204 C510.033031,377.981058 520.583284,371.934034 527.011573,364.148295" id="Shape" fill="#FFFFFF" fill-rule="nonzero"></path>
        </g>
    </g>
</svg>