<?xml version="1.0" encoding="UTF-8"?>
<svg width="1028px" height="599px" viewBox="0 0 1028 599" version="1.1" xmlns="http://www.w3.org/2000/svg" xmlns:xlink="http://www.w3.org/1999/xlink">
    <!-- Generator: Sketch 54.1 (76490) - https://sketchapp.com -->
    <title>kickstart</title>
    <desc>Created with Sketch.</desc>
    <g id="Page-1" stroke="none" stroke-width="1" fill="none" fill-rule="evenodd">
        <g id="kickstart">
            <circle id="Oval" fill="#F2F2F2" fill-rule="nonzero" cx="332.00497" cy="292.00357" r="292.00357"></circle>
            <path d="M1028,517.9974 C1027.99842,518.707404 1027.94161,519.416209 1027.83008,520.1174 C1020.68994,563.8774 793.37,598.9974 514,598.9974 C234.63,598.9974 7.31,563.8774 0.17,520.1174 C0.0583841094,519.416218 0.00154559308,518.707408 0,517.9974 C0,517.7974 0,517.5874 0.02,517.3874 C0.02,517.27735 0.03,517.1774 0.03,517.0674 C0.0382599439,517.027964 0.0416186906,516.987659 0.04,516.9474 C0.08,516.4974 0.14,516.0674 0.22,515.6274 C3.48,497.7374 43.57,481.2974 108.96,468.1274 C162.44,457.3574 232.85,448.7674 313.89,443.3674 C375.39,439.2674 443.01,436.9974 514,436.9974 C571.12,436.9974 626.06,438.4674 677.38,441.1674 L677.4,441.1674 C688.14,441.7374 698.72,442.360733 709.14,443.0374 C780.47,447.6574 843.77,454.7274 894.77,463.5774 C926.14,469.0274 952.87,475.1574 973.95994,481.7974 L973.96994,481.7974 C1006.42994,492.0274 1025.57004,503.4974 1027.78,515.6274 C1027.86,516.0674 1027.91989,516.4974 1027.95993,516.9474 C1027.95828,516.98766 1027.96164,517.027968 1027.96993,517.0674 C1027.96993,517.1774 1027.97993,517.2774 1027.97993,517.3874 C1028,517.58737 1028,517.79739 1028,517.9974 Z" id="Path" fill="#3F3D56" fill-rule="nonzero"></path>
            <ellipse id="Oval" fill="#000000" fill-rule="nonzero" opacity="0.1" cx="501" cy="571.99741" rx="165" ry="24"></ellipse>
            <path d="M973.96,481.79739 C968.19,483.44739 961.69,484.97739 954.5601,486.37739 C925.19999,492.15739 885.14005,495.70739 841.0301,495.70739 C791.7501,495.70739 747.5801,491.27739 717.6501,484.26739 C692.8101,478.44745 677.7701,470.87744 677.7701,462.56744 C677.7701,455.26739 689.41005,448.50744 709.1401,443.03744 C780.4701,447.65744 843.7701,454.72744 894.7701,463.57744 C926.14,469.02737 952.87,475.15738 973.96,481.79739 Z" id="Path" fill="#000000" fill-rule="nonzero" opacity="0.1"></path>
            <path d="M532,470.7474 C532,485.8774 437.08,498.1474 320,498.1474 C202.92,498.1474 108,485.8774 108,470.7474 C108.025235,469.792652 108.362415,468.872432 108.96,468.1274 C162.44,457.3574 232.85,448.7674 313.89,443.3674 C315.92,443.3574 317.956667,443.354067 320,443.3574 C437.08,443.35739 532,455.6174 532,470.7474 Z" id="Path" fill="#000000" fill-rule="nonzero" opacity="0.1"></path>
            <path d="M753.41688,510.33555 C753.41688,559.07303 685.48263,543.99808 602.304,543.99808 C519.12537,543.99808 452.20041,559.07308 452.20041,510.33555 C452.20041,461.59802 520.12541,450.99808 603.304,450.99808 C686.48259,450.99808 753.41688,461.59807 753.41688,510.33555 Z" id="Path" fill="#000000" fill-rule="nonzero" opacity="0.1"></path>
            <path d="M753.41688,498.33555 C753.41688,547.07303 685.48263,531.99808 602.304,531.99808 C519.12537,531.99808 452.20041,547.07308 452.20041,498.33555 C452.20041,449.59802 520.12541,438.99808 603.304,438.99808 C686.48259,438.99808 753.41688,449.59807 753.41688,498.33555 Z" id="Path" fill="#3F3D56" fill-rule="nonzero"></path>
            <path d="M739.54156,410.84199 L742.97515,425.00554 C743.013421,425.163429 743.007474,425.328808 742.95796,425.48354 L727.38249,474.15689 C727.255391,474.554091 726.86815,474.808582 726.453122,474.767662 C726.038094,474.726741 725.70801,474.401524 725.66093,473.98715 L723.50624,455.02593 C723.491926,454.89999 723.504841,454.772445 723.54411,454.65193 L737.84068,410.77626 C737.963251,410.400122 738.320649,410.151085 738.715959,410.166362 C739.11127,410.181638 739.448383,410.457514 739.54156,410.84199 L739.54156,410.84199 Z" id="Path" fill="#2F2E41" fill-rule="nonzero"></path>
            <polygon id="Path" fill="#F2F2F2" fill-rule="nonzero" points="738.278 412.038 741.449 424.19 727.711 468.572 724.541 454.835"></polygon>
            <path d="M669.06392,478.08251 C669.59228,479.66758 724.01292,477.55416 724.54124,477.0258 C725.001897,476.36414 725.391501,475.65575 725.70359,474.91238 C726.20028,473.85567 726.65466,472.79896 726.65466,472.79896 L724.54124,455.69081 L670.649,453.77816 C670.649,453.77816 669.30166,468.27624 669.02691,474.91238 C668.933289,475.967672 668.945688,477.029691 669.06392,478.08251 L669.06392,478.08251 Z" id="Path" fill="#2F2E41" fill-rule="nonzero"></path>
            <polygon id="Path" fill="#000000" fill-rule="nonzero" opacity="0.1" points="717.673 458.005 718.729 472.799 694.953 472.799 694.953 458.005"></polygon>
            <polygon id="Path" fill="#000000" fill-rule="nonzero" opacity="0.1" points="687.028 462.76 687.17 462.732 686.5 469.1 673.291 469.1 673.291 462.76"></polygon>
            <path d="M669.06392,478.08251 C669.59228,479.66758 724.01292,477.55416 724.54124,477.0258 C725.001897,476.36414 725.391501,475.65575 725.70359,474.91238 L669.0269,474.91238 C668.933282,475.967672 668.945684,477.029692 669.06392,478.08251 Z" id="Path" fill="#000000" fill-rule="nonzero" opacity="0.1"></path>
            <path d="M585.05541,422.60519 L599.84936,422.60519 L636.30588,408.3396 C636.30588,408.3396 662.1953,397.77249 660.08188,417.85 C657.96846,437.92751 654.27,464.87363 654.27,464.87363 C654.27,464.87363 642.64618,459.59007 636.30591,461.17514 C629.96564,462.76021 634.19249,428.94546 634.19249,428.94546 C634.19249,428.94546 582.41366,453.77816 577.65849,450.60803 C572.90332,447.4379 571.84658,425.24697 571.84658,425.24697 L585.05541,422.60519 Z" id="Path" fill="#2F2E41" fill-rule="nonzero"></path>
            <path d="M585.05541,422.60519 L599.84936,422.60519 L636.30588,408.3396 C636.30588,408.3396 662.1953,397.77249 660.08188,417.85 C657.96846,437.92751 654.27,464.87363 654.27,464.87363 C654.27,464.87363 642.64618,459.59007 636.30591,461.17514 C629.96564,462.76021 634.19249,428.94546 634.19249,428.94546 C634.19249,428.94546 582.41366,453.77816 577.65849,450.60803 C572.90332,447.4379 571.84658,425.24697 571.84658,425.24697 L585.05541,422.60519 Z" id="Path" fill="#000000" fill-rule="nonzero" opacity="0.1"></path>
            <path d="M608.36337,376.27586 L626.26713,401.99933 L668.00721,436.87079 C668.00721,436.87079 706.57715,445.85279 701.2936,452.1931 C696.01005,458.53341 663.78037,445.85283 663.78037,445.85283 C663.78037,445.85283 615.7,410.98138 614.115,408.3396 C612.53,405.69782 595.0942,380.86512 595.0942,380.86512 L608.36337,376.27586 Z" id="Path" fill="#A0616A" fill-rule="nonzero"></path>
            <path d="M608.36337,376.27586 L626.26713,401.99933 L668.00721,436.87079 C668.00721,436.87079 706.57715,445.85279 701.2936,452.1931 C696.01005,458.53341 663.78037,445.85283 663.78037,445.85283 C663.78037,445.85283 615.7,410.98138 614.115,408.3396 C612.53,405.69782 595.0942,380.86512 595.0942,380.86512 L608.36337,376.27586 Z" id="Path" fill="#000000" fill-rule="nonzero" opacity="0.1"></path>
            <circle id="Oval" fill="#A0616A" fill-rule="nonzero" cx="605.66127" cy="324.33109" r="23.77599"></circle>
            <path d="M604.0762,345.4653 C604.0762,345.4653 596.15087,359.20254 594.56581,366.59952 C592.98075,373.9965 570.78981,351.80557 570.78981,351.80557 L567.88386,344.14442 C567.88386,344.14442 588.75386,334.36984 587.16886,326.44451 C585.58386,318.51918 604.0762,345.4653 604.0762,345.4653 Z" id="Path" fill="#A0616A" fill-rule="nonzero"></path>
            <path d="M597.73594,355.50406 L609.35976,378.22334 C609.35976,378.22334 606.71798,389.3188 602.49114,390.37551 C598.2643,391.43222 580.30021,376.63827 580.30021,376.63827 L597.73594,355.50406 Z" id="Path" fill="#D0CDE1" fill-rule="nonzero"></path>
            <path d="M608.30305,386.67703 L629.96562,415.20822 L681.74445,453.77816 C681.74445,453.77816 719.25768,461.7035 710.804,467.5154 C702.35032,473.3273 678.046,462.23185 678.046,462.23185 C678.046,462.23185 625.73882,434.22901 614.64335,422.60519 C603.54788,410.98137 582.94203,391.43219 582.94203,391.43219 L608.30305,386.67703 Z" id="Path" fill="#A0616A" fill-rule="nonzero"></path>
            <path d="M579.2435,431.05888 L585.58376,441.09763 L623.42308,429.19313 C631.719044,426.511669 640.773691,427.604081 648.19388,432.18164 C654.79832,436.34244 659.02517,442.94688 649.51477,452.72145 C630.49397,472.2706 617.81344,461.70345 617.81344,461.70345 C617.81344,461.70345 553.88244,491.8197 543.31533,477.02575 C532.74822,462.2318 532.21987,454.83482 532.21987,454.83482 C532.21987,454.83482 572.90323,429.47381 579.2435,431.05888 Z" id="Path" fill="#2F2E41" fill-rule="nonzero"></path>
            <path d="M658.49681,465.93034 C658.49681,465.93034 675.40418,477.0258 655.32668,482.30934 C635.24918,487.59288 620.45522,480.19591 620.45522,480.19591 C620.45522,480.19591 603.01949,480.19591 603.01949,471.21391 C603.01949,462.23191 608.8314,461.17516 608.8314,461.17516 L626.79549,463.81694 C626.79549,463.81694 648.45806,458.00501 658.49681,465.93034 Z" id="Path" fill="#D0CDE1" fill-rule="nonzero"></path>
            <path d="M625.16583,318.3501 C626.727961,319.190939 628.407454,319.792538 630.14818,320.13479 C631.935653,320.454744 633.742145,319.680756 634.74351,318.16593 C635.132386,317.287429 635.311116,316.33037 635.26551,315.37073 C635.32916,312.46941 635.11932,309.33295 633.28076,307.08764 C632.11066,305.65864 630.4026,304.75787 629.1914,303.36358 C628.377458,302.31905 627.684012,301.185988 627.12423,299.98591 C624.76871,295.56185 621.28105,291.31002 616.43398,290.03461 C614.385103,289.594287 612.285982,289.433802 610.19398,289.55754 L597.98773,289.72975 C596.010521,289.666078 594.034106,289.878799 592.11573,290.36175 C588.18688,291.54965 585.32628,294.85354 582.70637,298.01314 C580.672615,300.316656 578.865473,302.810716 577.30998,305.46077 C575.200912,309.39433 574.134457,313.802516 574.21227,318.26514 C574.195929,319.409664 574.343701,320.550623 574.65108,321.65322 C575.010674,322.664442 575.456195,323.643016 575.98276,324.57822 C578.27183,329.07435 579.631,334.69032 577.05308,339.0273 C581.5312,337.19804 585.962,334.79956 588.91608,330.96896 C590.23758,329.25532 591.27395,327.24926 593.03508,325.99176 C594.79621,324.73426 597.66584,324.62518 598.7958,326.47076 C599.184187,327.217349 599.384185,328.047561 599.37838,328.88911 C599.342903,330.27939 599.569384,331.663928 600.046,332.97044 C600.572908,334.302299 601.953571,335.090076 603.36824,334.86604 C605.66863,334.21804 605.44834,330.68743 607.22018,329.08361 C608.56578,327.86561 610.64175,328.09845 612.37046,327.54554 C614.373684,326.784015 615.965181,325.216468 616.75699,323.22502 C617.41152,321.75695 617.40207,317.91522 618.64064,317.12021 C620.19386,316.12323 623.72609,317.70828 625.16583,318.3501 Z" id="Path" fill="#2F2E41" fill-rule="nonzero"></path>
            <path d="M565.99646,341.63817 C567.066083,341.352779 568.192195,341.355646 569.26035,341.64648 C572.65197,342.55702 580.25508,344.96748 581.88528,348.63548 C583.9987,353.39068 591.39567,360.78765 591.39567,360.78765 C591.39567,360.78765 601.43443,370.8264 599.32101,377.69502 C597.20759,384.56364 589.28225,392.48902 589.28225,392.48902 C589.28225,392.48902 591.39567,425.24702 580.82857,433.70074 C570.26147,442.15446 566.03457,436.34252 566.03457,444.26785 C566.03457,452.19318 533.27657,477.02585 526.93627,461.70358 C526.93627,461.70358 530.10641,433.17238 529.0497,423.13363 C528.00826,413.23957 529.53292,351.50978 565.99646,341.63817 Z" id="Path" fill="#D0CDE1" fill-rule="nonzero"></path>
            <path d="M582.942,354.9757 C582.942,354.9757 615.17168,378.7517 609.35977,388.79045 C609.35977,388.79045 589.81062,398.30085 585.58377,397.77245 C581.35692,397.24405 564.97791,378.75166 560.75107,377.16659 C556.52423,375.58152 554.4108,347.05037 582.942,354.9757 Z" id="Path" fill="#D0CDE1" fill-rule="nonzero"></path>
            <path d="M493.81065,376.28144 C488.79799,377.97428 484.25675,381.93372 483.23026,387.12397 C482.75444,389.52989 483.04617,392.03097 482.64575,394.45058 C481.7171,400.06219 477.31217,404.3478 473.24937,408.32858 C469.18657,412.30936 464.99097,416.93475 464.69445,422.61494 C464.36975,428.83494 468.88065,434.66194 468.10008,440.84127 C467.19321,448.02036 459.61061,452.67227 457.73619,459.66143 C456.48455,464.32843 458.0183,469.35563 460.54169,473.47627 C465.35027,481.32858 473.56959,486.6595 482.32254,489.51727 C491.07549,492.37504 500.3976,492.97632 509.60476,493.07279 C520.81555,493.19025 532.98753,492.22779 541.41076,484.82879 C546.222182,480.564568 549.243795,474.639147 549.86976,468.24059 C550.66996,459.66995 547.09281,450.81418 549.56025,442.56748 C551.11312,437.37748 555.00734,432.63748 554.42617,427.25148 C553.85794,421.98523 549.25844,418.25241 546.10305,413.99802 C543.15695,410.0258 541.36925,405.33483 539.61718,400.71008 L533.62237,384.88625 C532.44389,381.77555 531.1498,378.50393 528.52352,376.46225 C523.60687,372.64015 515.7011,373.3911 509.952,374.1794 C504.61855,374.9107 498.93966,374.5493 493.81065,376.28144 Z" id="Path" fill="#2F2E41" fill-rule="nonzero"></path>
            <path d="M495.68806,422.37617 C495.68806,422.37617 498.34554,431.01298 478.41444,440.97853 C458.48334,450.94408 480.40755,461.57401 480.40755,461.57401 L503.6605,466.88901 C503.6605,466.88901 527.57782,463.56716 530.2353,459.58093 C532.89278,455.5947 537.54338,442.30731 536.21464,440.3142 C535.220471,438.895136 534.109308,437.561745 532.89278,436.32798 C532.89278,436.32798 516.9479,433.6705 517.61227,426.36243 C518.27664,419.05436 495.68806,422.37617 495.68806,422.37617 Z" id="Path" fill="#FFB9B9" fill-rule="nonzero"></path>
            <path d="M495.68806,422.37617 C495.68806,422.37617 498.34554,431.01298 478.41444,440.97853 C458.48334,450.94408 480.40755,461.57401 480.40755,461.57401 L503.6605,466.88901 C503.6605,466.88901 527.57782,463.56716 530.2353,459.58093 C532.89278,455.5947 537.54338,442.30731 536.21464,440.3142 C535.220471,438.895136 534.109308,437.561745 532.89278,436.32798 C532.89278,436.32798 516.9479,433.6705 517.61227,426.36243 C518.27664,419.05436 495.68806,422.37617 495.68806,422.37617 Z" id="Path" fill="#000000" fill-rule="nonzero" opacity="0.1"></path>
            <circle id="Oval" fill="#FFB9B9" fill-rule="nonzero" cx="508.64328" cy="414.73592" r="21.25984"></circle>
            <path d="M506.318,459.58089 C506.318,459.58089 480.71433,457.70844 480.22877,440.04231 C480.22877,440.04231 471.10639,438.98542 468.44891,441.6429 C465.79143,444.30038 457.15461,446.29349 457.15461,452.93719 C457.15461,459.58089 471.77076,479.512 471.77076,479.512 C471.77076,479.512 479.7432,506.0868 476.42135,510.73739 C473.0995,515.38798 472.43513,527.34664 472.43513,527.34664 C472.43513,527.34664 505.65363,524.68916 510.96859,527.34664 C516.28355,530.00412 537.5434,530.00412 538.87214,527.34664 C540.20088,524.68916 537.5434,491.47064 537.5434,491.47064 C537.5434,491.47064 543.52273,483.4982 542.19399,474.19702 L558.13885,455.5947 C558.13885,455.5947 552.15952,437.6567 542.85834,437.6567 C542.85834,437.6567 530.23534,434.33485 529.90312,435.99578 C529.5709,437.65671 536.21464,456.25904 506.318,459.58089 Z" id="Path" fill="#FF6584" fill-rule="nonzero"></path>
            <path d="M446.52467,518.04546 C446.52467,518.04546 452.504,527.34664 467.78452,529.33975 C483.06504,531.33286 485.72252,526.0179 484.39377,524.68916 C483.06502,523.36042 467.12015,517.38109 467.12015,517.38109 L457.81896,510.07302 L446.52467,518.04546 Z" id="Path" fill="#FFB9B9" fill-rule="nonzero"></path>
            <path d="M555.48137,510.07302 L538.20775,520.03857 C538.20775,520.03857 515.61916,518.70983 524.25597,525.35357 C532.89278,531.99731 548.83767,529.33979 548.83767,529.33979 L564.11818,522.03172 L555.48137,510.07302 Z" id="Path" fill="#FFB9B9" fill-rule="nonzero"></path>
            <path d="M469.11326,527.34664 C469.11326,527.34664 453.16837,566.54448 472.43511,572.52381 C491.70185,578.50314 544.85145,577.1744 556.81011,569.20196 C568.76877,561.22952 572.09062,550.5996 570.09751,547.27775 C568.1044,543.9559 554.817,534.65475 545.51582,533.99035 C536.21464,533.32595 469.11326,527.34664 469.11326,527.34664 Z" id="Path" fill="#2F2E41" fill-rule="nonzero"></path>
            <path d="M469.11326,527.34664 C469.11326,527.34664 453.16837,566.54448 472.43511,572.52381 C491.70185,578.50314 544.85145,577.1744 556.81011,569.20196 C568.76877,561.22952 572.09062,550.5996 570.09751,547.27775 C568.1044,543.9559 554.817,534.65475 545.51582,533.99035 C536.21464,533.32595 469.11326,527.34664 469.11326,527.34664 Z" id="Path" fill="#000000" fill-rule="nonzero" opacity="0.05"></path>
            <path d="M544.37766,529.78188 C544.37766,529.78188 600.65853,509.40865 599.99416,533.99035 C599.32979,558.57205 564.11816,565.21574 564.11816,565.21574 L553.48824,566.54448 L495.02367,568.53759 C495.02367,568.53759 497.01678,557.90767 492.36619,556.57893 C492.36619,556.57893 507.6467,552.59271 508.31107,551.92834 C508.97544,551.26397 546.84454,537.97657 549.50202,537.3122 C552.1595,536.64783 560.13194,531.33286 566.11127,531.9972 C566.11127,531.9972 572.75497,526.6822 580.06304,528.01098 L559.46757,529.33972 L544.37766,529.78188 Z" id="Path" fill="#2F2E41" fill-rule="nonzero"></path>
            <path d="M544.37766,529.78188 C544.37766,529.78188 600.65853,509.40865 599.99416,533.99035 C599.32979,558.57205 564.11816,565.21574 564.11816,565.21574 L553.48824,566.54448 L495.02367,568.53759 C495.02367,568.53759 497.01678,557.90767 492.36619,556.57893 C492.36619,556.57893 507.6467,552.59271 508.31107,551.92834 C508.97544,551.26397 546.84454,537.97657 549.50202,537.3122 C552.1595,536.64783 560.13194,531.33286 566.11127,531.9972 C566.11127,531.9972 572.75497,526.6822 580.06304,528.01098 L559.46757,529.33972 L544.37766,529.78188 Z" id="Path" fill="#000000" fill-rule="nonzero" opacity="0.1"></path>
            <polygon id="Path" fill="#2F2E41" fill-rule="nonzero" points="534.434 533.081 541.53 549.271 584.714 533.99 588.036 525.354 576.741 523.36 554.035 527.347 544.187 530.004"></polygon>
            <polygon id="Path" fill="#000000" fill-rule="nonzero" opacity="0.1" points="534.434 533.081 541.53 549.271 584.714 533.99 588.036 525.354 576.741 523.36 554.035 527.347 544.187 530.004"></polygon>
            <path d="M442.53845,552.5927 C442.53845,552.5927 455.16145,568.53758 469.77763,572.5238 C484.39381,576.51002 492.36621,571.19506 492.36621,571.19506 L487.71562,552.5927 L485.72251,540.63404 L477.0857,534.6547 L459.81207,526.68225 L439.2166,520.03855 C439.2166,520.03855 430.57979,518.70981 430.57979,520.03855 C430.57979,521.36729 438.55223,541.2984 438.55223,541.2984 L442.53845,552.5927 Z" id="Path" fill="#2F2E41" fill-rule="nonzero"></path>
            <path d="M457.819,561.22952 C457.819,561.22952 460.47648,580.49625 463.79834,581.82499 C467.1202,583.15373 477.08574,580.49625 479.74322,579.16751 C482.4007,577.83877 491.43376,571.70832 491.43376,571.70832 C491.43376,571.70832 459.81207,559.90078 457.819,561.22952 Z" id="Path" fill="#F2F2F2" fill-rule="nonzero"></path>
            <polygon id="Path" fill="#FFB9B9" fill-rule="nonzero" points="518.277 563.223 530.9 565.216 529.571 580.496 511.964 576.22"></polygon>
            <path d="M526.18567,567.47525 C526.18567,567.47525 520.26975,574.51692 526.24908,578.50314 L530.2353,581.82499 C530.2353,581.82499 543.52271,584.48247 544.85145,585.81121 C546.18019,587.13995 551.49515,583.8181 551.49515,583.8181 C551.49515,583.8181 552.15952,563.887 551.49515,562.55826 C550.83078,561.22952 542.85834,559.90078 542.19397,561.22952 C541.5296,562.55826 533.55715,564.55137 528.90656,563.22263 L526.18567,567.47525 Z" id="Path" fill="#F2F2F2" fill-rule="nonzero"></path>
            <path d="M473.09948,531.99723 C473.09948,531.99723 426.59357,504.75806 419.28548,514.72361 C411.97739,524.68916 404.00497,538.64094 425.26481,549.27086 C446.52465,559.90078 512.96166,581.82499 512.96166,581.82499 C512.96166,581.82499 522.92721,566.54448 522.92721,562.55826 C522.92721,562.55826 487.7156,546.61338 481.73627,545.28464 C475.75694,543.9559 451.83961,528.67538 448.51776,527.34664 C445.19591,526.0179 440.54532,522.03164 440.54532,522.03164 L473.09948,531.99723 Z" id="Path" fill="#2F2E41" fill-rule="nonzero"></path>
            <path d="M459.81207,449.61534 L457.15459,451.60845 C457.15459,451.60845 451.17526,466.88897 450.51089,475.52578 C449.84652,484.16259 441.87408,510.73739 442.53845,514.05924 C443.20282,517.38109 443.86719,520.03857 447.85345,523.36042 C447.85345,523.36042 453.16845,511.40176 462.4696,513.39487 L473.76389,472.20393 L459.81207,449.61534 Z" id="Path" fill="#FF6584" fill-rule="nonzero"></path>
            <path d="M552.82389,449.61534 L558.13889,455.59467 C558.13889,455.59467 561.46074,463.56712 561.46074,465.56023 C561.46074,467.55334 568.10444,496.78562 568.76881,498.11436 C569.43318,499.4431 572.09066,516.05236 568.76881,520.03857 C565.44696,524.02478 559.46763,526.68227 559.46763,526.68227 C559.46763,526.68227 563.45385,512.7305 550.83082,512.06613 L552.15956,506.75113 L540.2009,466.88893 L552.82389,449.61534 Z" id="Path" fill="#FF6584" fill-rule="nonzero"></path>
            <path d="M461.14082,495.35632 L461.14082,530.35122 C461.140813,534.949234 464.83211,538.695624 469.42962,538.76373 L542.61473,539.84796 C547.183393,539.915642 550.970972,536.324589 551.14658,531.7588 L552.49269,496.7598 C552.579791,494.495159 551.749582,492.29115 550.190027,490.646774 C548.630472,489.002398 546.473477,488.056735 544.2074,488.02389 L469.67617,486.94373 C467.423885,486.911086 465.252569,487.782951 463.648301,489.364145 C462.044033,490.94534 461.140806,493.103799 461.14082,495.35632 Z" id="Path" fill="#3F3D56" fill-rule="nonzero"></path>
            <ellipse id="Oval" fill="#2F2E41" fill-rule="nonzero" cx="509.89011" cy="401.732" rx="22.88412" ry="12.32222"></ellipse>
            <circle id="Oval" fill="#F2F2F2" fill-rule="nonzero" cx="505.9858" cy="513.72706" r="5.31496"></circle>
            <path d="M830.73,472.810558 C835.47,464.030558 830.09,453.270558 823.91,445.440558 C817.73,437.610558 810.18,429.440558 810.34,419.440558 C810.57,405.090558 825.79,396.630558 837.96,389.020558 C846.981081,383.379078 855.302356,376.689162 862.75,369.090558 C865.75,366.040558 868.62,362.780558 870.37,358.880558 C872.89,353.280558 872.82,346.880558 872.66,340.760558 C872.133333,320.287224 871.133333,299.840558 869.66,279.420558" id="Path" stroke="#3F3D56" stroke-width="4"></path>
            <path d="M892.74,278.340558 C892.39256,270.7288 888.184391,263.820766 881.58,260.020558 L876.58,269.920558 L876.73,257.920558 C867.397257,255.159699 857.350355,258.749857 851.880865,266.800144 C846.411375,274.850431 846.774522,285.513339 852.779042,293.172854 C858.783562,300.83237 869.051442,303.730666 878.174725,300.341249 C887.298007,296.951832 893.182938,288.052558 892.73,278.330558 L892.74,278.340558 Z" id="Path" fill="#6C63FF"></path>
            <path d="M852.86,429.730558 C848.02459,439.133684 837.263626,443.86442 827.065984,441.070125 C816.868343,438.27583 810.021975,428.720442 810.655249,418.165873 C811.288523,407.611303 819.228308,398.943084 829.686902,397.388164 C840.145496,395.833243 850.263607,401.816724 853.94,411.730558 L839.94,423.100558 L855.31,419.530558 C855.317953,423.07723 854.477942,426.574419 852.86,429.730558 L852.86,429.730558 Z" id="Path" fill="#6C63FF"></path>
            <path d="M841.81,386.300558 C830.483486,386.780574 820.588579,378.711808 818.779481,367.520406 C816.970382,356.329003 823.819119,345.553615 834.72,342.440558 L834.6,351.660558 L839.66,341.660558 L839.72,341.660558 C847.738667,341.227772 855.374089,345.126256 859.725938,351.875162 C864.077787,358.624068 864.478284,367.187797 860.775298,374.3134 C857.072313,381.439004 849.83406,386.033079 841.81,386.350558 L841.81,386.300558 Z" id="Path" fill="#6C63FF"></path>
            <path d="M896.11,350.170558 C886.6231,350.614756 877.889826,345.020166 874.327238,336.216385 C870.764651,327.412604 873.149421,317.318924 880.275396,311.040463 C887.40137,304.762001 897.715031,303.667512 906,308.310558 L902,319.140558 L910.13,311.340558 C916.785626,317.445921 919.116904,326.954667 916.040019,335.446169 C912.963135,343.93767 905.081777,349.745881 896.06,350.170558 L896.11,350.170558 Z" id="Path" fill="#6C63FF"></path>
            <path d="M797,462.700558 C797,462.700558 814.65,462.160558 820,458.370558 C825.35,454.580558 847.16,450.060558 848.48,456.130558 C849.8,462.200558 875.01,486.350558 855.08,486.510558 C835.15,486.670558 808.77,483.410558 803.46,480.170558 C798.15,476.930558 797,462.700558 797,462.700558 Z" id="Path" fill="#656380"></path>
            <g id="pyicon" transform="translate(181.000000, 109.000000)" fill="#6C63FF" fill-rule="nonzero">
                <path d="M209.279364,139.646982 C233.266973,128.788966 236.84196,46.1422618 222.690197,21.7995888 C204.203994,-9.97906789 116.329695,-3.5974401 88.5818667,19.1174554 C85.3958676,30.4009132 85.7292861,50.8776146 85.8774721,67.1553898 L172.973794,67.1553898 L172.973794,74.7763483 L85.8959954,74.7763483 C85.8959954,74.8873331 47.126833,75.0168154 47.126833,75.0168154 C-19.7235765,75.0168154 -18.3343328,220 69.8733841,220 C69.8733841,220 73.1149528,187.888389 78.7830674,171.795588 C96.2875387,122.129876 169.824841,157.51554 209.279364,139.646982 Z M118.089404,55.3909977 C108.049802,55.3909977 99.9180957,47.2706076 99.9180957,37.2264803 C99.9180957,27.2008506 108.049802,19.061963 118.089404,19.061963 C128.147529,19.061963 136.279236,27.2008506 136.279236,37.2264803 C136.297759,47.2521101 128.147529,55.3909977 118.089404,55.3909977 Z" id="Shape"></path>
                <path d="M243.129866,79 C243.129866,79 240.815523,111.128085 235.150011,127.201376 C217.653576,176.845463 144.168549,141.480524 104.713626,159.347957 C80.7555448,170.205289 77.1451693,252.846788 91.3089499,277.187928 C109.768152,308.983079 197.602106,302.601853 225.35571,279.869892 C228.540247,268.605641 228.206981,248.13023 228.058863,231.85348 L140.984013,231.85348 L140.984013,224.233001 L228.021834,224.233001 C228.021834,224.122023 270.9205,223.992549 270.9205,223.992549 C332.500545,223.992549 338.017939,79 243.129866,79 Z M192.732728,240.454262 C202.76772,240.454262 210.914208,248.574141 210.914208,258.617636 C210.914208,268.642634 202.76772,276.762513 192.732728,276.762513 C182.697736,276.762513 174.569762,268.642634 174.569762,258.617636 C174.569762,248.574141 182.697736,240.454262 192.732728,240.454262 Z" id="Shape"></path>
            </g>
        </g>
    </g>
</svg>