<?xml version="1.0" encoding="UTF-8"?>
<svg width="115px" height="33px" viewBox="0 0 115 33" version="1.1" xmlns="http://www.w3.org/2000/svg" xmlns:xlink="http://www.w3.org/1999/xlink">
    <!-- Generator: Sketch 52.2 (67145) - http://www.bohemiancoding.com/sketch -->
    <title>logo2</title>
    <desc>Created with Sketch.</desc>
    <g id="Page-1" stroke="none" stroke-width="1" fill="none" fill-rule="evenodd">
        <g id="logo2" fill="#000000">
            <path d="M96.8709677,0 L114.258065,0 L114.258065,33 L96.8709677,33 L96.8709677,0 Z M0.141935484,11.1064516 L2.98064516,11.1064516 L2.98064516,13.8032258 L3.0516129,13.8032258 C4.42366277,11.721495 6.39891184,10.6806452 8.97741935,10.6806452 C10.1129089,10.6806452 11.1419309,10.9172019 12.0645161,11.3903226 C12.9871014,11.8634432 13.6376325,12.6677363 14.016129,13.8032258 C14.6311859,12.8096725 15.4413928,12.0408629 16.4467742,11.4967742 C17.4521556,10.9526855 18.5580585,10.6806452 19.7645161,10.6806452 C20.6871014,10.6806452 21.520964,10.7811818 22.266129,10.9822581 C23.011294,11.1833343 23.6499973,11.4967721 24.1822581,11.9225806 C24.7145188,12.3483892 25.1284931,12.8983837 25.4241935,13.5725806 C25.719894,14.2467776 25.8677419,15.0569845 25.8677419,16.0032258 L25.8677419,29.4516129 L22.8516129,29.4516129 L22.8516129,17.4225806 C22.8516129,16.8548359 22.8043015,16.3225831 22.7096774,15.8258065 C22.6150533,15.3290298 22.4376357,14.8973137 22.1774194,14.5306452 C21.917203,14.1639767 21.5564539,13.8741946 21.0951613,13.6612903 C20.6338687,13.448386 20.0365628,13.3419355 19.3032258,13.3419355 C17.8128958,13.3419355 16.6419397,13.7677377 15.7903226,14.6193548 C14.9387054,15.470972 14.5129032,16.6064445 14.5129032,18.0258065 L14.5129032,29.4516129 L11.4967742,29.4516129 L11.4967742,17.4225806 C11.4967742,16.8311798 11.4435489,16.2870993 11.3370968,15.7903226 C11.2306446,15.2935459 11.0473131,14.8618298 10.7870968,14.4951613 C10.5268804,14.1284928 10.1779592,13.8446247 9.74032258,13.6435484 C9.30268598,13.4424721 8.74086365,13.3419355 8.05483871,13.3419355 C7.17956552,13.3419355 6.42849776,13.5193531 5.8016129,13.8741935 C5.17472805,14.229034 4.66613098,14.6548362 4.27580645,15.1516129 C3.88548192,15.6483896 3.60161379,16.1629006 3.42419355,16.6951613 C3.24677331,17.227422 3.15806452,17.670966 3.15806452,18.0258065 L3.15806452,29.4516129 L0.141935484,29.4516129 L0.141935484,11.1064516 Z M46.6612903,29.3806452 C46.1408576,29.6881736 45.4193595,29.8419355 44.4967742,29.8419355 C43.7161251,29.8419355 43.0951636,29.6231205 42.633871,29.1854839 C42.1725783,28.7478473 41.9419355,28.032263 41.9419355,27.0387097 C41.1139744,28.032263 40.1500055,28.7478473 39.05,29.1854839 C37.9499945,29.6231205 36.7612967,29.8419355 35.483871,29.8419355 C34.6559098,29.8419355 33.8693586,29.7473128 33.1241935,29.5580645 C32.3790285,29.3688163 31.7344113,29.0731203 31.1903226,28.6709677 C30.6462338,28.2688152 30.2145177,27.7424764 29.8951613,27.0919355 C29.5758049,26.4413946 29.416129,25.6548433 29.416129,24.7322581 C29.416129,23.6913926 29.5935466,22.8397883 29.9483871,22.1774194 C30.3032276,21.5150505 30.7704272,20.9768838 31.35,20.5629032 C31.9295728,20.1489227 32.5919318,19.8354849 33.3370968,19.6225806 C34.0822618,19.4096764 34.8451574,19.2322588 35.6258065,19.0903226 C36.4537676,18.9247304 37.2403189,18.800538 37.9854839,18.7177419 C38.7306489,18.6349458 39.3870939,18.5166674 39.9548387,18.3629032 C40.5225835,18.209139 40.9720414,17.9844101 41.3032258,17.6887097 C41.6344103,17.3930093 41.8,16.9612932 41.8,16.3935484 C41.8,15.7311795 41.6758077,15.1989267 41.4274194,14.7967742 C41.179031,14.3946216 40.8596794,14.0870978 40.4693548,13.8741935 C40.0790303,13.6612893 39.6414003,13.5193552 39.1564516,13.4483871 C38.671503,13.377419 38.1924755,13.3419355 37.7193548,13.3419355 C36.4419291,13.3419355 35.3774236,13.5844062 34.5258065,14.0693548 C33.6741893,14.5543035 33.2129036,15.470961 33.1419355,16.8193548 L30.1258065,16.8193548 C30.1731185,15.6838653 30.4096753,14.7258104 30.8354839,13.9451613 C31.2612925,13.1645122 31.8290287,12.5317229 32.5387097,12.0467742 C33.2483906,11.5618255 34.0585976,11.2129043 34.9693548,11 C35.8801121,10.7870957 36.8559088,10.6806452 37.8967742,10.6806452 C38.7247353,10.6806452 39.5467701,10.7397844 40.3629032,10.8580645 C41.1790363,10.9763447 41.9182763,11.2188154 42.5806452,11.5854839 C43.2430141,11.9521524 43.7752668,12.4666634 44.1774194,13.1290323 C44.5795719,13.7914012 44.7806452,14.6548334 44.7806452,15.7193548 L44.7806452,25.1580645 C44.7806452,25.8677455 44.8220426,26.3881704 44.9048387,26.7193548 C44.9876348,27.0505393 45.265589,27.216129 45.7387097,27.216129 C45.998926,27.216129 46.3064498,27.1569898 46.6612903,27.0387097 L46.6612903,29.3806452 Z M41.7645161,19.9774194 C41.3860196,20.2612917 40.8892504,20.4682789 40.2741935,20.5983871 C39.6591367,20.7284953 39.0145195,20.8349458 38.3403226,20.9177419 C37.6661257,21.000538 36.9860249,21.0951608 36.3,21.2016129 C35.6139751,21.308065 34.9989275,21.4795687 34.4548387,21.716129 C33.91075,21.9526894 33.467206,22.2897828 33.1241935,22.7274194 C32.7811811,23.165056 32.6096774,23.7623618 32.6096774,24.5193548 C32.6096774,25.0161315 32.710214,25.4360198 32.9112903,25.7790323 C33.1123666,26.1220447 33.372579,26.3999989 33.6919355,26.6129032 C34.0112919,26.8258075 34.3838688,26.9795694 34.8096774,27.0741935 C35.235486,27.1688177 35.6849439,27.216129 36.1580645,27.216129 C37.1516179,27.216129 38.0032223,27.0801089 38.7129032,26.8080645 C39.4225842,26.5360201 40.0021483,26.1930128 40.4516129,25.7790323 C40.9010775,25.3650517 41.232257,24.9155938 41.4451613,24.4306452 C41.6580656,23.9456965 41.7645161,23.4903247 41.7645161,23.0645161 L41.7645161,19.9774194 Z M49.6419355,4.11612903 L52.6580645,4.11612903 L52.6580645,19.1258065 L61.0322581,11.1064516 L65.0774194,11.1064516 L57.8032258,17.7774194 L65.6096774,29.4516129 L61.7774194,29.4516129 L55.4967742,19.8709677 L52.6580645,22.4967742 L52.6580645,29.4516129 L49.6419355,29.4516129 L49.6419355,4.11612903 Z M80.6193548,18.5225806 C80.5720428,17.8128997 80.412367,17.1387129 80.1403226,16.5 C79.8682782,15.8612871 79.5016152,15.3112926 79.0403226,14.85 C78.57903,14.3887074 78.0349494,14.0220444 77.4080645,13.75 C76.7811797,13.4779556 76.0892511,13.3419355 75.3322581,13.3419355 C74.551609,13.3419355 73.8478526,13.4779556 73.2209677,13.75 C72.5940829,14.0220444 72.0559162,14.3946213 71.6064516,14.8677419 C71.156987,15.3408626 70.8021518,15.8908571 70.5419355,16.5177419 C70.2817191,17.1446268 70.1279572,17.8128997 70.0806452,18.5225806 L80.6193548,18.5225806 Z M83.5290323,23.6322581 C83.1268797,25.6903329 82.2397918,27.2397797 80.8677419,28.2806452 C79.4956921,29.3215106 77.7688276,29.8419355 75.6870968,29.8419355 C74.2204228,29.8419355 72.9489301,29.6053787 71.8725806,29.1322581 C70.7962312,28.6591374 69.8914015,27.9967785 69.1580645,27.1451613 C68.4247275,26.2935441 67.874733,25.27635 67.5080645,24.0935484 C67.141396,22.9107468 66.9344088,21.6215124 66.8870968,20.2258065 C66.8870968,18.8301005 67.0999979,17.552694 67.5258065,16.3935484 C67.951615,15.2344028 68.5489209,14.2290365 69.3177419,13.3774194 C70.086563,12.5258022 70.9973066,11.8634432 72.05,11.3903226 C73.1026934,10.9172019 74.2559077,10.6806452 75.5096774,10.6806452 C77.1419436,10.6806452 78.4962312,11.0177386 79.5725806,11.6919355 C80.6489301,12.3661324 81.5123623,13.2236507 82.1629032,14.2645161 C82.8134441,15.3053815 83.262902,16.4408541 83.5112903,17.6709677 C83.7596787,18.9010814 83.8602153,20.0720375 83.8129032,21.183871 L70.0806452,21.183871 C70.0569891,21.9881761 70.1516118,22.7510717 70.3645161,23.4725806 C70.5774204,24.1940896 70.9204277,24.8327929 71.3935484,25.3887097 C71.866669,25.9446264 72.4698888,26.3881704 73.2032258,26.7193548 C73.9365628,27.0505393 74.799995,27.216129 75.7935484,27.216129 C77.0709741,27.216129 78.1177379,26.9204331 78.933871,26.3290323 C79.7500041,25.7376315 80.2881707,24.8387157 80.5483871,23.6322581 L83.5290323,23.6322581 Z M86.8290323,11.1064516 L89.6677419,11.1064516 L89.6677419,14.9741935 L89.7387097,14.9741935 C90.4720467,13.4838635 91.3709624,12.3838745 92.4354839,11.6741935 C93.5000053,10.9645126 94.8483789,10.6333331 96.4806452,10.6806452 L96.4806452,13.8741935 C95.2741875,13.8741935 94.2451655,14.0397833 93.3935484,14.3709677 C92.5419312,14.7021522 91.8559166,15.1870936 91.3354839,15.8258065 C90.8150512,16.4645193 90.4365603,17.2392428 90.2,18.15 C89.9634397,19.0607572 89.8451613,20.107521 89.8451613,21.2903226 L89.8451613,29.4516129 L86.8290323,29.4516129 L86.8290323,11.1064516 Z M100.596774,23.6677419 L97.5806452,23.6677419 C97.6279572,24.8032315 97.864514,25.7672003 98.2903226,26.5596774 C98.7161312,27.3521545 99.2838674,27.9908578 99.9935484,28.4758065 C100.703229,28.9607551 101.51935,29.3096764 102.441935,29.5225806 C103.364521,29.7354849 104.334404,29.8419355 105.351613,29.8419355 C106.274198,29.8419355 107.202683,29.7532267 108.137097,29.5758065 C109.07151,29.3983862 109.911287,29.0849485 110.656452,28.6354839 C111.401617,28.1860193 112.004836,27.5946273 112.466129,26.8612903 C112.927422,26.1279533 113.158065,25.2053819 113.158065,24.0935484 C113.158065,23.2182752 112.986561,22.4849492 112.643548,21.8935484 C112.300536,21.3021476 111.851078,20.8112923 111.295161,20.4209677 C110.739245,20.0306432 110.100541,19.7172055 109.379032,19.4806452 C108.657523,19.2440848 107.918283,19.0430116 107.16129,18.8774194 C106.451609,18.7118271 105.741939,18.5521513 105.032258,18.3983871 C104.322577,18.2446229 103.683874,18.0553775 103.116129,17.8306452 C102.548384,17.6059129 102.081185,17.3220447 101.714516,16.9790323 C101.347848,16.6360198 101.164516,16.2043037 101.164516,15.683871 C101.164516,15.2107503 101.282795,14.8263456 101.519355,14.5306452 C101.755915,14.2349448 102.063439,13.998388 102.441935,13.8209677 C102.820432,13.6435475 103.24032,13.5193552 103.701613,13.4483871 C104.162906,13.377419 104.618277,13.3419355 105.067742,13.3419355 C105.564519,13.3419355 106.055374,13.3951608 106.540323,13.5016129 C107.025271,13.608065 107.468815,13.7795687 107.870968,14.016129 C108.27312,14.2526894 108.6043,14.5661271 108.864516,14.9564516 C109.124732,15.3467761 109.278494,15.8376315 109.325806,16.4290323 L112.341935,16.4290323 C112.270967,15.3171987 112.034411,14.3887134 111.632258,13.6435484 C111.230106,12.8983834 110.691939,12.3069914 110.017742,11.8693548 C109.343545,11.4317182 108.568822,11.1241944 107.693548,10.9467742 C106.818275,10.769354 105.86022,10.6806452 104.819355,10.6806452 C104.01505,10.6806452 103.204843,10.7811818 102.38871,10.9822581 C101.572577,11.1833343 100.839251,11.4908581 100.18871,11.9048387 C99.5381688,12.3188193 99.005916,12.8569859 98.5919355,13.5193548 C98.1779549,14.1817237 97.9709677,14.9741889 97.9709677,15.8967742 C97.9709677,17.0795758 98.2666637,18.0021472 98.8580645,18.6645161 C99.4494653,19.326885 100.188705,19.841396 101.075806,20.2080645 C101.962908,20.574733 102.926877,20.8586011 103.967742,21.0596774 C105.008607,21.2607537 105.972576,21.4854826 106.859677,21.733871 C107.746779,21.9822593 108.486019,22.3075249 109.077419,22.7096774 C109.66882,23.11183 109.964516,23.7032219 109.964516,24.483871 C109.964516,25.0516157 109.822582,25.5188154 109.53871,25.8854839 C109.254837,26.2521524 108.894088,26.5301066 108.456452,26.7193548 C108.018815,26.9086031 107.539788,27.0387093 107.019355,27.1096774 C106.498922,27.1806455 106.002153,27.216129 105.529032,27.216129 C104.913975,27.216129 104.31667,27.1569898 103.737097,27.0387097 C103.157524,26.9204295 102.637099,26.7252702 102.175806,26.4532258 C101.714514,26.1811814 101.341937,25.8145184 101.058065,25.3532258 C100.774192,24.8919332 100.62043,24.3301108 100.596774,23.6677419 Z" id="Combined-Shape"></path>
        </g>
    </g>
</svg>