<?xml version="1.0" encoding="UTF-8"?>
<svg width="1280px" height="625px" viewBox="0 0 1280 625" version="1.1" xmlns="http://www.w3.org/2000/svg" xmlns:xlink="http://www.w3.org/1999/xlink">
    <!-- Generator: Sketch 52.2 (67145) - http://www.bohemiancoding.com/sketch -->
    <title>overlay</title>
    <desc>Created with Sketch.</desc>
    <g id="Page-1" stroke="none" stroke-width="1" fill="none" fill-rule="evenodd">
        <g id="overlay">
            <rect id="Rectangle" fill="#FFFFFF" x="0" y="0" width="1280" height="625"></rect>
            <g id="undraw_teaching_f1cm" transform="translate(640.000000, 112.000000)">
                <rect id="Rectangle" fill="#6C63FF" opacity="0.1" x="103" y="69" width="45" height="14" rx="7"></rect>
                <rect id="Rectangle" fill="#6C63FF" opacity="0.1" x="151" y="82" width="45" height="14" rx="7"></rect>
                <rect id="Rectangle" fill="#6C63FF" opacity="0.1" x="198" y="96" width="45" height="14" rx="7"></rect>
                <rect id="Rectangle" fill="#6C63FF" opacity="0.1" x="103" y="48" width="45" height="14" rx="7"></rect>
                <rect id="Rectangle" fill="#6C63FF" opacity="0.1" x="151" y="62" width="45" height="14" rx="7"></rect>
                <rect id="Rectangle" fill="#6C63FF" opacity="0.1" x="198" y="76" width="45" height="14" rx="7"></rect>
                <rect id="Rectangle" fill="#6C63FF" opacity="0.1" x="251" y="69" width="45" height="14" rx="7"></rect>
                <rect id="Rectangle" fill="#6C63FF" opacity="0.1" x="299" y="82" width="45" height="14" rx="7"></rect>
                <rect id="Rectangle" fill="#6C63FF" opacity="0.1" x="346" y="96" width="45" height="14" rx="7"></rect>
                <rect id="Rectangle" fill="#6C63FF" opacity="0.1" x="251" y="48" width="45" height="14" rx="7"></rect>
                <rect id="Rectangle" fill="#6C63FF" opacity="0.1" x="299" y="62" width="45" height="14" rx="7"></rect>
                <rect id="Rectangle" fill="#6C63FF" opacity="0.1" x="346" y="76" width="45" height="14" rx="7"></rect>
                <rect id="Rectangle" fill="#6C63FF" opacity="0.1" x="103" y="21" width="45" height="14" rx="7"></rect>
                <rect id="Rectangle" fill="#6C63FF" opacity="0.1" x="151" y="34" width="45" height="14" rx="7"></rect>
                <rect id="Rectangle" fill="#6C63FF" opacity="0.1" x="198" y="48" width="45" height="14" rx="7"></rect>
                <rect id="Rectangle" fill="#6C63FF" opacity="0.1" x="103" y="0" width="45" height="14" rx="7"></rect>
                <rect id="Rectangle" fill="#6C63FF" opacity="0.1" x="151" y="13" width="45" height="14" rx="7"></rect>
                <rect id="Rectangle" fill="#6C63FF" opacity="0.1" x="198" y="27" width="45" height="14" rx="7"></rect>
                <rect id="Rectangle" fill="#6C63FF" opacity="0.1" x="251" y="21" width="45" height="14" rx="7"></rect>
                <rect id="Rectangle" fill="#6C63FF" opacity="0.1" x="299" y="34" width="45" height="14" rx="7"></rect>
                <rect id="Rectangle" fill="#6C63FF" opacity="0.1" x="346" y="48" width="45" height="14" rx="7"></rect>
                <rect id="Rectangle" fill="#6C63FF" opacity="0.1" x="251" y="0" width="45" height="14" rx="7"></rect>
                <rect id="Rectangle" fill="#6C63FF" opacity="0.1" x="299" y="13" width="45" height="14" rx="7"></rect>
                <rect id="Rectangle" fill="#6C63FF" opacity="0.1" x="346" y="27" width="45" height="14" rx="7"></rect>
                <rect id="Rectangle" fill="#6C63FF" opacity="0.1" x="103" y="314" width="45" height="14" rx="7"></rect>
                <rect id="Rectangle" fill="#6C63FF" opacity="0.1" x="151" y="328" width="45" height="14" rx="7"></rect>
                <rect id="Rectangle" fill="#6C63FF" opacity="0.1" x="198" y="342" width="45" height="14" rx="7"></rect>
                <rect id="Rectangle" fill="#6C63FF" opacity="0.1" x="103" y="294" width="45" height="14" rx="7"></rect>
                <rect id="Rectangle" fill="#6C63FF" opacity="0.1" x="151" y="308" width="45" height="14" rx="7"></rect>
                <rect id="Rectangle" fill="#6C63FF" opacity="0.1" x="198" y="321" width="45" height="14" rx="7"></rect>
                <rect id="Rectangle" fill="#6C63FF" opacity="0.1" x="251" y="314" width="45" height="14" rx="7"></rect>
                <rect id="Rectangle" fill="#6C63FF" opacity="0.1" x="299" y="328" width="45" height="14" rx="7"></rect>
                <rect id="Rectangle" fill="#6C63FF" opacity="0.1" x="346" y="342" width="45" height="14" rx="7"></rect>
                <rect id="Rectangle" fill="#6C63FF" opacity="0.1" x="251" y="294" width="45" height="14" rx="7"></rect>
                <rect id="Rectangle" fill="#6C63FF" opacity="0.1" x="299" y="308" width="45" height="14" rx="7"></rect>
                <rect id="Rectangle" fill="#6C63FF" opacity="0.1" x="346" y="321" width="45" height="14" rx="7"></rect>
                <rect id="Rectangle" fill="#6C63FF" opacity="0.1" x="103" y="266" width="45" height="14" rx="7"></rect>
                <rect id="Rectangle" fill="#6C63FF" opacity="0.1" x="151" y="280" width="45" height="14" rx="7"></rect>
                <rect id="Rectangle" fill="#6C63FF" opacity="0.1" x="198" y="294" width="45" height="14" rx="7"></rect>
                <rect id="Rectangle" fill="#6C63FF" opacity="0.1" x="103" y="245" width="45" height="14" rx="7"></rect>
                <rect id="Rectangle" fill="#6C63FF" opacity="0.1" x="151" y="260" width="45" height="14" rx="7"></rect>
                <rect id="Rectangle" fill="#6C63FF" opacity="0.1" x="198" y="273" width="45" height="14" rx="7"></rect>
                <rect id="Rectangle" fill="#6C63FF" opacity="0.1" x="251" y="266" width="45" height="14" rx="7"></rect>
                <rect id="Rectangle" fill="#6C63FF" opacity="0.1" x="299" y="280" width="45" height="14" rx="7"></rect>
                <rect id="Rectangle" fill="#6C63FF" opacity="0.1" x="346" y="294" width="45" height="14" rx="7"></rect>
                <rect id="Rectangle" fill="#6C63FF" opacity="0.1" x="251" y="245" width="45" height="14" rx="7"></rect>
                <rect id="Rectangle" fill="#6C63FF" opacity="0.1" x="299" y="260" width="45" height="14" rx="7"></rect>
                <rect id="Rectangle" fill="#6C63FF" opacity="0.1" x="346" y="273" width="45" height="14" rx="7"></rect>
                <ellipse id="Oval" fill="#6C63FF" opacity="0.1" cx="255.5" cy="383" rx="232.5" ry="19"></ellipse>
                <path d="M44.6537794,99.1482408 C66.4663462,108.569405 79,128.063644 79,128.063644 C79,128.063644 56.1640625,132.269521 34.3462206,122.853614 C12.5283787,113.437707 0,93.9382108 0,93.9382108 C0,93.9382108 22.8359375,89.7270766 44.6537794,99.1482408 Z" id="Path" fill="#6C63FF"></path>
                <path d="M111.351439,62.7655982 C118.247254,51.4082575 129.990087,46 129.990087,46 C129.990087,46 130.529244,58.9473684 123.654996,70.2722596 C116.780748,81.5971508 105.010956,87 105.010956,87 C105.010956,87 104.450233,74.0580398 111.351439,62.7655982 Z" id="Path" fill="#6C63FF"></path>
                <path d="M62.0120056,74.6152156 C66.8888029,91.7320372 80.3306421,103 80.3306421,103 C80.3306421,103 85.8683387,86.506847 80.9915414,69.3847844 C76.1147441,52.2627219 62.6675751,41 62.6675751,41 C62.6675751,41 57.1298785,57.493153 62.0120056,74.6152156 Z" id="Path" fill="#46455B"></path>
                <rect id="Rectangle" fill="#3F3D56" x="63" y="74" width="386" height="193" rx="7.21"></rect>
                <path d="M63,256 L449,256 L449,263.395 C449,265.385987 447.290784,267 445.182359,267 L66.8176406,267 C64.7092159,267 63,265.385987 63,263.395 L63,256 Z" id="Path" fill="#000000" opacity="0.1"></path>
                <rect id="Rectangle" fill="#6C63FF" x="101" y="242" width="28" height="14" rx="2.5"></rect>
                <rect id="Rectangle" fill="#6C63FF" x="137" y="254" width="20" height="2" rx="1"></rect>
                <path d="M120.393628,112.085966 C134.369391,114.663396 148.625834,112.085966 162.543342,110.339452 L204.841339,105.046987 C206.5519,104.829996 209.040952,103.80855 210.047165,105.899074 C210.613821,107.068708 210.23252,109.603799 210.274886,110.948085 C210.386099,114.652811 210.375508,118.357537 210.274886,122.062262 C210.084236,129.143581 209.565242,136.209022 208.90326,143.258586 C207.616367,157.056043 205.794593,170.779405 204.883706,184.629786 C204.41767,191.67935 204.184653,198.750084 204.391191,205.799647 C204.438854,207.482651 204.5077,209.165655 204.608321,210.843367 C204.719534,212.722192 205.561575,215.511321 203.512079,216.765635 C202.341695,217.485411 200.037998,217.448363 198.698146,217.660062 C196.579804,217.993487 194.461462,218.25811 192.300753,218.475102 C178.060198,219.898775 163.634288,219.306019 149.340774,219.221339 L106.179553,218.999056 L95.651392,218.940838 C94.698138,218.940838 91.2611279,219.512425 90.6732879,218.379837 C90.4243827,217.898223 91.0863646,215.643633 91.2028734,215.040292 C91.3652797,214.045308 91.5418082,213.052089 91.732459,212.060634 C92.9610974,205.101042 94.4121618,198.18379 95.8738179,191.27183 C99.0142602,176.452928 102.228844,161.55993 103.521033,146.42348 C104.161832,138.828792 103.738163,131.165303 104.52195,123.586492 C104.887364,120.067003 105.321624,112.212985 110.008456,111.900729 C113.980348,111.636106 118.068748,111.900729 122.051231,111.900729 C122.489954,111.900729 122.845609,111.545302 122.845609,111.106859 C122.845609,110.668417 122.489954,110.31299 122.051231,110.31299 C118.291174,110.31299 114.525821,110.212433 110.765763,110.286527 C108.26612,110.33416 106.529079,110.926916 105.337512,113.223846 C102.292395,119.119652 102.60485,126.984255 102.509525,133.419893 C102.281803,148.826259 99.9145556,163.904493 96.8323677,178.972141 C95.2806821,186.556244 93.6071918,194.113884 92.0660979,201.703279 C91.3405657,205.328618 90.6468086,208.964542 90.011306,212.61105 C89.7147381,214.346979 88.216011,218.173431 89.534679,219.766463 C90.853347,221.359495 94.9099722,220.502116 96.7264506,220.512701 L109.362362,220.586795 L133.575013,220.724399 C149.218969,220.814371 164.915885,221.253646 180.554546,220.793201 C188.021702,220.570918 195.912527,220.263955 203.183736,218.480394 C205.349741,217.951147 206.393024,216.956164 206.477758,214.648649 C206.604859,211.070943 206.022315,207.382094 205.948173,203.788511 C205.418587,173.039288 212.64743,142.718754 211.90601,111.958946 C211.858347,109.868423 212.64743,104.597127 210.35962,103.332228 C209.332224,102.760642 207.997669,103.072897 206.917314,103.199916 C204.85193,103.438077 202.791843,103.729163 200.726459,103.972616 L173.902951,107.317454 C165.328962,108.375947 156.760268,109.51912 148.17039,110.492933 C139.077406,111.551427 129.894393,112.18123 120.833184,110.492933 C119.832268,110.307697 119.403303,111.83722 120.409516,112.022456 L120.393628,112.085966 Z" id="Path" fill="#6C63FF"></path>
                <path d="M102.769185,129.998915 L209.22682,124.641394 C210.255061,124.586726 210.260389,122.946668 209.22682,123.001337 L102.769185,128.358857 C101.746271,128.408059 101.740943,130.048117 102.769185,129.998915 Z" id="Path" fill="#6C63FF"></path>
                <path d="M135.729848,117.751391 C135.122524,118.342393 134.872598,119.170841 135.062184,119.964548 C135.251769,120.758255 135.856355,121.414607 136.677304,121.717957 C138.117224,122.322527 139.808728,121.816261 141.237942,121.486943 C143.379087,120.995423 145.520232,120.55797 147.720258,120.199161 C152.508565,119.420769 157.358652,119.006487 162.22116,118.96053 C164.437244,118.935954 166.63727,119.029343 168.853355,119.117816 C170.459214,119.176799 172.188188,119.294764 173.547815,118.380536 C175.100145,117.338514 175.603314,115.303621 174.083101,114.035499 C171.941956,112.241451 167.32779,113.283473 164.854768,113.470251 C155.881145,114.154767 146.965742,115.376332 138.1654,117.12716 C137.159062,117.323768 137.581938,118.749176 138.593629,118.547653 C144.399699,117.397496 150.250377,116.473439 156.145662,115.77548 C159.043344,115.4478 161.946379,115.17091 164.854768,114.944811 C166.2251,114.841592 167.595433,114.748203 168.965765,114.674475 C169.501051,114.644984 170.068455,114.590917 170.614447,114.605662 C172.311304,114.640069 172.50936,114.359902 171.492316,116.242424 C170.587682,117.908677 170.876737,117.716984 169.308348,117.662917 C168.644594,117.662917 167.980839,117.594104 167.317084,117.564613 C165.957457,117.512184 164.59783,117.484331 163.238203,117.481055 C160.34409,117.481055 157.457113,117.60885 154.577273,117.86444 C152.136369,118.080709 149.700817,118.385452 147.286676,118.778668 C145.777169,119.024428 144.278368,119.309509 142.784919,119.624082 C142.126517,119.766623 141.462763,119.914079 140.804361,120.06645 C140.488542,120.145093 140.16737,120.213906 139.851551,120.287634 C138.681059,120.661189 137.683642,120.169669 136.859302,118.813074 C137.576585,118.129861 136.447131,117.082923 135.724495,117.771051 L135.729848,117.751391 Z" id="Path" fill="#6C63FF"></path>
                <path d="M154.216299,140.223544 C146.562548,139.926928 138.295227,141.997948 133.254436,148.168637 C129.308549,152.993957 127.060557,161.272744 131.239177,166.707188 C135.729871,172.53359 145.578721,171.506024 151.518709,169.021858 C157.802508,166.373494 164.678718,160.912567 166.567031,154.079787 C168.920811,145.546757 161.277639,139.095341 153.317102,139 C152.29625,139 152.29625,140.589019 153.317102,140.589019 C157.855401,140.641986 162.30907,142.591182 164.424827,146.823268 C166.641083,151.283114 164.731612,155.965422 161.780131,159.535417 C157.051414,165.218807 149.656843,169.503861 142.124747,169.382036 C137.602316,169.313179 132.60384,167.761237 131.202151,162.983588 C130.049063,159.111679 130.927103,154.879593 132.937072,151.447313 C137.284953,144.031892 146.134107,141.521243 154.248036,141.839047 C155.268888,141.876124 155.268888,140.287105 154.248036,140.250028 L154.216299,140.223544 Z" id="Path" fill="#6C63FF"></path>
                <path d="M146.809572,151.324009 C146.139163,151.077077 145.38822,151.188795 144.81992,151.62001 C144.25162,152.051226 143.945219,152.741801 144.008098,153.449715 C144.168487,155.522278 146.467407,156.106847 148.194271,155.984619 C149.685896,155.857077 151.428798,155.309707 150.904858,153.455029 C150.709783,152.790788 150.233625,152.243774 149.600354,151.956407 C149.121948,151.767747 148.60298,151.703723 148.092691,151.770408 C147.894877,151.770408 146.082472,152.429376 146.852343,151.637551 L145.59061,151.472809 C145.874237,151.750862 146.015792,152.141713 145.975545,152.535662 C145.980463,152.818219 146.134541,153.077375 146.381184,153.217935 C146.627827,153.358496 146.930669,153.359736 147.178469,153.221202 C147.552614,153.065528 147.983161,153.133678 148.290155,153.397168 C148.597149,153.660658 148.727731,154.074119 148.627323,154.464739 C148.538417,154.84479 148.737425,155.233324 149.098909,155.385443 C149.460393,155.537562 149.879565,155.40917 150.092216,155.081194 C150.626849,154.124627 151.273755,152.22212 150.471806,151.223038 C149.937173,150.548127 148.905332,150.750069 148.263773,151.143324 C147.867802,151.42185 147.499064,151.736779 147.16243,152.083949 C146.515524,152.652575 146.093165,152.918289 146.333749,151.828864 C146.734724,149.846644 148.638016,148.268307 150.375572,147.476482 L149.19938,146.578371 C148.582737,148.881777 147.480156,151.028427 145.964853,152.875774 L147.333512,153.439086 C147.25396,151.944059 148.126546,150.560121 149.514813,149.9795 L148.728903,149.9795 L149.145917,150.659726 C148.990873,151.664122 150.535962,152.094578 150.691005,151.079553 C150.894165,149.76693 150.060139,148.061051 148.51505,148.704077 C146.670568,149.469331 145.713576,151.568465 145.751,153.439086 C145.751,154.076798 146.659875,154.571025 147.125006,154.007713 C148.825273,151.954488 150.066388,149.565039 150.765854,146.998198 C150.841795,146.687017 150.725648,146.360624 150.469755,146.166115 C150.213863,145.971606 149.86654,145.945706 149.584316,146.100088 C147.982752,146.819689 146.629289,147.991323 145.69219,149.469331 C145.039938,150.532184 144.221951,152.190234 144.884895,153.412515 C145.104381,153.807518 145.47368,154.098861 145.910524,154.221641 C146.347367,154.344422 146.815468,154.288441 147.210547,154.06617 C147.704849,153.774839 148.156405,153.41719 148.552475,153.003317 C148.750289,152.827946 148.969488,152.525033 149.231458,152.47189 C149.466696,152.312462 149.456004,152.402805 149.194034,152.753546 C149.190561,153.304237 149.029211,153.842531 148.728903,154.305312 L150.193797,154.916452 C150.463437,153.902776 150.108161,152.826268 149.286843,152.168332 C148.465526,151.510396 147.331762,151.394072 146.392559,151.871379 L147.600829,152.562233 C147.626119,151.885968 147.412372,151.22225 146.996694,150.686298 C146.868896,150.476957 146.652465,150.33654 146.408235,150.304516 C146.164006,150.272491 145.918346,150.352317 145.740307,150.521555 C144.927666,151.366523 144.772622,152.827946 145.79377,153.609143 C146.558295,154.188398 146.932538,153.609143 147.771911,153.476286 C150.621503,153.109602 148.958795,154.385026 147.953686,154.42754 C147.504217,154.475446 147.049751,154.44305 146.611758,154.331883 C145.496158,153.956342 145.426656,153.472743 146.403252,152.881089 C147.360244,153.26903 147.771911,151.727893 146.830958,151.345266 L146.809572,151.324009 Z" id="Path" fill="#6C63FF"></path>
                <path d="M145.411497,154.99617 C146.02273,157.154552 143.498288,157.866819 142.300669,158.611461 C141.460242,159.123235 140.727384,159.819762 140.14893,160.656528 C138.896648,162.480361 138.429527,164.800622 138.017069,166.985985 C137.828233,168.005821 139.264382,168.437497 139.458187,167.417661 C139.68553,165.811824 140.108311,164.245892 140.715439,162.760951 C141.609926,160.829199 142.892024,160.181684 144.561734,159.188828 C146.231444,158.195972 147.439001,156.658124 146.847646,154.564493 C146.569361,153.571637 145.128243,153.997918 145.411497,154.99617 Z" id="Path" fill="#6C63FF"></path>
                <path d="M148.31274,154 C147.542089,154.107985 146.979134,154.792577 147.013293,155.580217 C147.013293,156.207036 147.423918,156.607358 147.704599,157.10776 C148.370862,158.131571 148.879158,159.252363 149.211957,160.431483 C149.461451,161.563972 149.705747,163.591917 149.123595,164.645395 C148.047653,166.599597 146.10368,166.225612 144.445586,166.225612 C142.886249,166.225612 141.680362,166.752351 141.73234,164.550582 C141.763527,163.312746 142.615964,162.059107 143.291677,161.08464 L141.867483,160.895014 C142.167918,162.503399 142.326211,164.135733 142.340482,165.772617 C142.340482,166.504784 143.44761,166.910373 143.790664,166.167671 C144.626297,164.386273 145.289519,162.526965 145.771022,160.615842 L144.237674,160.405146 L144.507959,164.408363 C144.517179,164.759153 144.752161,165.062369 145.086265,165.154598 C145.420368,165.246827 145.774636,165.106273 145.958142,164.808685 C146.140191,164.605093 146.273576,164.361784 146.347976,164.097587 C146.399954,163.85002 145.921757,162.180257 145.729439,162.775472 L147.257589,162.986168 L147.366742,159.183112 L145.807406,159.393807 C146.137018,160.466232 146.236267,161.597736 146.098482,162.712263 C145.999724,163.591917 147.460303,163.792078 147.657819,162.922959 L148.635003,157.81359 L147.210809,157.997949 C147.549187,158.704656 147.642578,159.506331 147.475896,160.273462 C147.361545,161.284801 148.920881,161.274266 149.035232,160.273462 C149.167674,159.22457 149.00177,158.159164 148.557036,157.202573 C148.395582,156.93313 148.092341,156.78574 147.783928,156.826804 C147.475514,156.867868 147.220135,157.089637 147.132842,157.392199 L146.15046,162.501568 L147.683808,162.712263 C147.839742,161.456591 147.720842,160.181526 147.335556,158.977684 C147.227937,158.60283 146.866293,158.363821 146.484401,158.415159 C146.102508,158.466496 145.814863,158.792789 145.807406,159.183112 L145.698253,162.986168 C145.698253,163.907961 146.961315,164.039646 147.2316,163.196863 L147.314765,162.938761 C147.387965,162.665057 147.312834,162.372532 147.117249,162.169722 C145.500737,160.389344 145.173276,163.2232 144.611915,164.008041 L146.067295,164.408363 L145.79701,160.405146 C145.739835,159.551829 144.492366,159.28846 144.263663,160.194451 C143.824365,161.976095 143.215087,163.710209 142.444437,165.372295 L143.899818,165.772617 C143.883045,163.9941 143.709091,162.220682 143.380039,160.473622 C143.244897,159.746723 142.304097,159.778327 141.955845,160.283996 C140.916288,161.801005 139.117853,165.114193 140.505662,166.931443 C141.716747,168.51166 145.526726,167.900643 147.153633,167.800562 C149.72134,167.653075 150.651744,166.004382 150.932425,163.549778 C151.066138,162.374354 151.0011,161.184431 150.740107,160.031162 C150.599767,159.40961 149.18077,155.469602 148.754552,155.548613 C149.742132,155.364254 149.321111,153.836711 148.338729,154.02107 L148.31274,154 Z" id="Path" fill="#6C63FF"></path>
                <path d="M145.325261,157.172724 L141.305789,162.858925 L142.576904,163.653205 L145.521572,159.087411 L144.17684,158.477236 L142.709414,164.479045 C142.627801,164.855225 142.810485,165.239801 143.142317,165.39037 C143.474149,165.54094 143.858938,165.413856 144.054146,165.08922 C144.72189,163.903337 145.471608,162.77275 146.297001,161.706957 L145.070056,160.938977 C144.740543,162.297878 144.105261,163.54949 143.219823,164.584248 L144.451676,165.352227 C144.527071,164.625379 144.707546,163.915534 144.986624,163.248175 C145.364523,162.338172 144.167025,161.533372 143.715509,162.448635 C143.300263,163.282285 142.826095,164.08065 142.297161,164.836734 L143.641892,165.026099 L143.941267,163.526962 L142.596535,163.337597 L142.812477,164.65263 C142.884588,164.921795 143.083618,165.130371 143.336312,165.201586 C143.589005,165.272802 143.858016,165.196133 144.04433,164.999798 C145.289086,163.619215 146.28714,162.005737 146.988998,160.23938 L145.722791,160.23938 C146.055675,160.897165 146.289235,161.607316 146.414788,162.343432 C146.591468,163.290256 147.764427,162.937827 147.857675,162.133027 C148.06848,160.371044 148.176661,158.596697 148.181588,156.820295 L146.709255,156.820295 L146.709255,160.128917 C146.709255,160.986319 148.019632,161.238805 148.15705,160.339323 C148.254249,159.541314 148.499553,158.772244 148.878493,158.077466 L147.587747,158.077466 C147.898819,158.615273 148.068398,159.233236 148.078525,159.865911 C148.078525,160.301674 148.408118,160.65493 148.814692,160.65493 C149.221266,160.65493 149.550859,160.301674 149.550859,159.865911 L149.737355,158.813885 L148.319006,158.813885 C148.461332,159.744928 149.001188,164.989278 147.082246,164.373843 C146.758332,164.289681 146.665085,164.310721 146.802502,164.431704 L147.239295,163.432279 L148.265021,161.102041 L146.890842,160.702272 C146.979182,161.785858 147.07243,163.332337 146.463866,164.25812 C145.973088,165.010319 144.461491,165.310146 143.69097,164.868295 C143.182301,164.479624 142.747541,163.990442 142.41004,163.427019 L141.403945,164.479045 C142.218636,165.115521 143.538829,166.67778 144.589094,166.767202 C145.389062,166.835584 146.061428,166.125466 146.58656,165.557372 C148.214344,163.754468 149.0817,161.315385 148.986464,158.808625 C148.986464,158.372861 148.656871,158.019605 148.250297,158.019605 C147.843724,158.019605 147.51413,158.372861 147.51413,158.808625 L147.51413,160.607589 C147.51413,161.043353 147.843724,161.396609 148.250297,161.396609 C148.656871,161.396609 148.986464,161.043353 148.986464,160.607589 L148.986464,156.19434 C148.986464,155.758576 148.656871,155.40532 148.250297,155.40532 C147.843724,155.40532 147.51413,155.758576 147.51413,156.19434 C147.511459,157.252159 147.426092,158.307878 147.258926,159.350418 L148.706721,159.560823 C148.591445,158.304019 148.537386,157.041627 148.544764,155.778789 C148.54001,155.388074 148.26915,155.05994 147.907904,155.007263 C147.546658,154.954585 147.203851,155.193232 147.101877,155.568384 C146.881027,156.573069 146.611099,157.561974 146.350987,158.545618 L147.695718,158.356253 L147.592655,157.935443 C147.523946,156.930758 146.051612,156.925498 146.120321,157.935443 C146.136481,158.361309 146.240394,158.778061 146.424603,159.155793 C146.709255,159.797529 147.597563,159.571343 147.769335,158.966428 C148.049078,157.977524 148.299375,156.988619 148.520225,155.989195 L147.07243,155.778789 C147.065052,157.041627 147.119111,158.304019 147.234387,159.560823 C147.308004,160.370883 148.525133,160.718052 148.677274,159.771228 C148.873306,158.583192 148.976726,157.379727 148.986464,156.173299 L147.51413,156.173299 L147.51413,160.586549 L148.986464,160.586549 L148.986464,158.787584 L147.51413,158.787584 C147.600714,160.771927 146.957526,162.713483 145.722791,164.194998 C145.53154,164.428045 145.324879,164.646027 145.104411,164.847254 C144.755958,165.204943 144.436953,165.152342 144.157209,164.68419 C143.460304,164.373843 142.738861,163.574303 142.130296,163.106151 C141.521731,162.638 140.687409,163.563783 141.119293,164.184478 C142.248083,165.794078 143.931451,167.587782 146.027073,166.814543 C148.230666,165.978183 148.530041,162.780023 148.363176,160.675971 C148.309191,159.976374 147.332543,159.502962 146.993906,160.281461 C146.503128,161.391349 146.01235,162.495976 145.521572,163.611124 C145.3498,164.000373 145.030794,164.536907 145.079872,164.999798 C145.241828,166.183328 146.581652,165.988703 147.406159,165.920321 C150.601124,165.662575 150.095623,160.807474 149.727539,158.366774 C149.604845,157.556713 148.505502,157.682957 148.309191,158.366774 C148.15324,158.847257 148.071998,159.351937 148.06871,159.860651 L149.541043,159.860651 C149.487693,158.956174 149.251579,158.07493 148.849047,157.277927 C148.715138,157.038593 148.473864,156.892138 148.213489,156.892138 C147.953114,156.892138 147.71184,157.038593 147.577932,157.277927 C147.139058,158.089948 146.842959,158.981403 146.704347,159.907992 L148.176681,160.118397 L148.176681,156.809775 C148.176681,156.374011 147.847088,156.020755 147.440514,156.020755 C147.03394,156.020755 146.704347,156.374011 146.704347,156.809775 C146.699419,158.586177 146.591239,160.360524 146.380433,162.122507 L147.828228,161.912102 C147.661652,161.052151 147.378932,160.22284 146.988998,159.45036 C146.855089,159.211027 146.613816,159.064571 146.353441,159.064571 C146.093065,159.064571 145.851792,159.211027 145.717883,159.45036 C145.077845,161.097755 144.15753,162.603202 143.003881,163.889911 L144.235734,164.237079 L144.019791,162.922047 C143.906912,162.222449 142.98425,162.201409 142.67506,162.732682 C142.182025,163.532143 142.020317,164.514914 142.228452,165.446909 C142.351146,166.193848 143.234547,166.114946 143.573183,165.636274 C144.102079,164.882005 144.576251,164.085391 144.991532,163.253435 L143.720417,162.453895 C143.381042,163.239873 143.149612,164.074367 143.033328,164.931417 C142.944988,165.625754 143.715509,166.351652 144.26518,165.699396 C145.320241,164.462041 146.084164,162.972388 146.493312,161.354528 C146.6749,160.63915 145.752238,159.960593 145.26146,160.586549 C144.358556,161.746266 143.538281,162.977099 142.80757,164.26864 L144.152301,164.878815 L145.649174,158.898047 C145.730787,158.521867 145.548104,158.137291 145.216271,157.986722 C144.884439,157.836152 144.499651,157.963236 144.304443,158.287872 L141.359775,162.858925 C140.810103,163.705806 142.071403,164.436964 142.63089,163.653205 L146.635638,157.972264 C147.20494,157.162204 145.928918,156.394225 145.364523,157.172724 L145.325261,157.172724 Z" id="Path" fill="#6C63FF"></path>
                <path d="M213.194436,176.878789 C219.526593,172.992504 224.560658,167.194845 230.154063,162.34493 C236.222381,157.087326 242.591475,152.18976 249.150535,147.551632 C261.888724,138.5507 275.265406,130.497512 288.631534,122.465503 C288.991537,122.236991 289.106726,121.763578 288.89217,121.394318 C288.677614,121.025059 288.210279,120.892414 287.834738,121.094185 C274.46861,129.126193 261.086651,137.163497 248.348461,146.180314 C242.338189,150.416047 236.47039,154.905924 230.845324,159.671124 C224.724239,164.859897 219.273307,171.31939 212.376532,175.507471 C211.505861,176.036937 212.302657,177.413551 213.173329,176.878789 L213.194436,176.878789 Z" id="Path" fill="#6C63FF"></path>
                <path d="M309.129871,97.004526 C302.290039,97.6949612 294.924067,99.4262799 290.71494,105.373438 C287.079306,110.488935 287.158228,119.412288 290.572882,124.66378 C294.45054,130.63186 302.374222,130.846314 308.53007,128.916233 C314.685918,126.986153 321.057484,123.601974 320.999609,116.289637 C320.96804,112.36671 319.542198,108.281635 317.969037,104.724847 C316.611594,101.654503 314.20713,98.9712203 310.566235,99.3112074 C309.561306,99.4053576 309.550783,100.974529 310.566235,100.880378 C315.443561,100.430549 317.011461,106.189407 318.168971,109.824653 C319.221253,113.219293 320.194613,117.236371 318.542531,120.610088 C316.890448,123.983806 312.907562,125.704663 309.503431,126.939078 C305.820444,128.267643 301.774421,129.078381 297.928331,127.985192 C290.309811,125.866811 288.205248,116.268715 290.399255,109.458513 C292.924732,101.612658 301.869126,99.3059768 309.156178,98.573697 C310.155845,98.4743162 310.166368,96.9051452 309.156178,97.004526 L309.129871,97.004526 Z" id="Path" fill="#6C63FF"></path>
                <path d="M320.129871,159.004526 C313.290039,159.694961 305.924067,161.42628 301.71494,167.373438 C298.079306,172.488935 298.158228,181.412288 301.572882,186.66378 C305.45054,192.63186 313.374222,192.846314 319.53007,190.916233 C325.685918,188.986153 332.057484,185.601974 331.999609,178.289637 C331.96804,174.36671 330.542198,170.281635 328.969037,166.724847 C327.611594,163.654503 325.20713,160.97122 321.566235,161.311207 C320.561306,161.405358 320.550783,162.974529 321.566235,162.880378 C326.443561,162.430549 328.011461,168.189407 329.168971,171.824653 C330.221253,175.219293 331.194613,179.236371 329.542531,182.610088 C327.890448,185.983806 323.907562,187.704663 320.503431,188.939078 C316.820444,190.267643 312.774421,191.078381 308.928331,189.985192 C301.309811,187.866811 299.205248,178.268715 301.399255,171.458513 C303.924732,163.612658 312.869126,161.305977 320.156178,160.573697 C321.155845,160.474316 321.166368,158.905145 320.156178,159.004526 L320.129871,159.004526 Z" id="Path" fill="#6C63FF"></path>
                <path d="M299.190844,112.061874 L304.179127,117.775938 C304.379981,117.970635 304.667746,118.04533 304.937364,117.972752 C305.206983,117.900174 305.418992,117.690946 305.495992,117.421455 C306.549484,114.638494 306.34932,111.755008 306.596891,108.829196 C306.86987,105.805174 307.625765,102.845015 308.835561,100.062341 C311.265795,94.4182911 315.386221,89.6748926 320.624134,86.4914393 C321.493265,85.9623594 320.697879,84.5867514 319.828748,85.1211222 C314.664055,88.2448831 310.520811,92.8165781 307.908488,98.2740503 C306.629712,100.929737 305.742506,103.758208 305.274759,106.670549 C304.748013,110.104279 305.227352,113.702022 303.963162,116.998191 L305.285294,116.643707 L300.323347,110.940225 C299.649113,110.173059 298.537679,111.299999 299.206646,112.061874 L299.190844,112.061874 Z" id="Path" fill="#6C63FF"></path>
                <path d="M214.773124,182.999409 C242.251271,181.952237 269.736522,181.730378 297.228875,182.333833 C298.257042,182.333833 298.257042,180.337107 297.228875,180.337107 C269.743625,179.724777 242.258374,179.946636 214.773124,181.002682 C213.744957,181.042617 213.73963,183.039343 214.773124,182.999409 Z" id="Path" fill="#6C63FF"></path>
                <path d="M303.49743,166.56915 C312.666767,170.187606 321.48687,174.64367 329.847005,179.881397 C330.699843,180.404266 331.485078,179.060493 330.63224,178.527166 C322.161978,173.224762 313.225081,168.716108 303.93425,165.058059 C303.003408,164.686822 302.59779,166.203142 303.523432,166.56915 L303.49743,166.56915 Z" id="Path" fill="#6C63FF"></path>
                <path d="M320.667143,159.265598 C311.142477,170.441044 305.625112,184.513589 305.000837,199.223941 C304.958222,200.258686 306.556281,200.258686 306.598896,199.223941 C307.204013,184.935935 312.555533,171.265615 321.796438,160.40221 C322.462296,159.619449 321.338328,158.477475 320.667143,159.265598 Z" id="Path" fill="#6C63FF"></path>
                <path d="M108.787443,177.429762 L167.955534,176.692929 L174.757985,176.607133 C175.980838,176.607133 177.203692,176.566759 178.426545,176.561712 C180.147009,176.561712 181.306337,177.924349 181.274575,179.589793 C181.195169,183.122555 178.865925,182.996385 175.816733,183.122555 L168.463733,183.440503 L138.52236,184.697157 C133.159805,184.924263 127.791957,185.201837 122.429402,185.378476 C117.590927,185.519786 108.390413,184.015839 110.53967,177.303592 C110.836119,176.369934 109.306229,175.971236 109.004486,176.899848 C107.945739,180.200456 109.819722,183.551533 112.837152,185.282586 C117.119784,187.735332 122.762907,186.90261 127.490214,186.700738 L164.249919,185.110995 L173.175158,184.732485 C175.462052,184.631549 178.643588,185.075667 180.745201,184.06126 C183.212082,182.875262 183.646169,178.166595 182.08981,176.183202 C181.290456,175.173841 180.168184,175.082999 178.913568,175.037578 C175.620864,174.916455 172.269929,175.123373 168.971932,175.163748 L150.645016,175.395901 L108.766268,175.900581 C107.744577,175.900581 107.744577,177.414622 108.766268,177.414622 L108.787443,177.429762 Z" id="Path" fill="#6C63FF"></path>
                <g id="b30eccf6-7cfe-48df-9caa-415a128bd568" transform="translate(340.000000, 119.000000)">
                    <path d="M7.95387755,252.60241 C6.61673469,253.44 5.08857143,253.911807 3.70897959,254.648675 C2.32938776,255.385542 0.986938776,256.493494 0.594285714,258.020241 C0.44777464,258.494151 0.472183133,259.004379 0.663265306,259.462169 C1.0065485,260.015047 1.53188873,260.431181 2.14897959,260.639036 C7.81320547,263.152282 14.2632034,263.225139 19.9828571,260.840482 C20.9787278,260.362248 22.0071316,259.95481 23.0604082,259.621205 C24.357965,259.356831 25.6785971,259.221871 27.0028571,259.218313 C28.3947798,259.137066 29.7794303,258.959938 31.1469388,258.688193 C31.8343825,258.611738 32.485866,258.341457 33.0253061,257.908916 C33.5174998,257.342297 33.8134043,256.63204 33.8689796,255.883855 C34.4969336,251.753791 33.5501188,247.538695 31.2159184,244.072771 C30.9218762,243.587052 30.5275263,243.169573 30.0591837,242.848193 C29.4881482,242.553282 28.8600792,242.385108 28.2179592,242.355181 C25.564898,242.031807 22.7844898,241.438072 20.104898,241.374458 C18.1840816,241.332048 17.2183673,242.243855 15.86,243.563855 C13.0530612,246.368193 11.4134694,250.444819 7.95387755,252.60241 Z" id="Path" fill="#323444"></path>
                    <path d="M47.0546939,252.21012 C47.0546939,254.807711 47.3677551,257.559036 48.9436735,259.631807 C49.6643619,260.528093 50.5372575,261.29072 51.522449,261.884819 C54.8546939,264.005301 59.2693878,264.784578 62.7820408,262.98747 C63.349472,262.733016 63.8345958,262.325449 64.1828571,261.810602 C64.7134694,260.888193 64.4322449,259.737831 64.135102,258.72 L59.0518367,241.12 C55.7673469,241.623614 50.9387755,241.978795 48.0204082,243.643373 C45.9032653,244.846747 47.0546939,249.888193 47.0546939,252.21012 Z" id="Path" fill="#323444"></path>
                    <path d="M4.97183673,143.83759 C4.66408163,144.807711 3.54979592,145.258313 2.93959184,146.074699 C2.22326531,147.034217 2.29755102,148.364819 2.55755102,149.531084 C2.87872434,151.250832 3.68719362,152.842353 4.88693878,154.116627 C6.12236541,155.397359 7.9016771,156.001764 9.66244898,155.738795 C11.3710204,155.415422 12.8461224,153.904578 12.9044898,152.171084 C12.8737078,151.382711 12.7048968,150.605823 12.4057143,149.875663 L8.78693878,139.421687 C8.75709393,139.272219 8.66430112,139.142816 8.5322449,139.066506 C8.39568534,139.036168 8.25265891,139.060936 8.13428571,139.135422 C7.28,139.538313 5.56612245,139.96241 5.06734694,140.847711 C4.56857143,141.733012 5.33265306,142.878072 4.97183673,143.83759 Z" id="Path" fill="#FBB3B2"></path>
                    <path d="M3.27918367,143.312771 C4.60040816,143.106024 5.75714286,142.332048 6.99346939,141.823133 C8.22979592,141.314217 9.77918367,141.118072 10.8191837,141.966265 C11.1163265,142.21012 11.4028571,142.544096 11.7902041,142.538795 C11.2633018,139.946602 10.4665905,137.416546 9.41306122,134.98988 C9.37600963,134.873605 9.3036929,134.771714 9.20612245,134.698313 C9.0615119,134.639669 8.89971259,134.639669 8.75510204,134.698313 L5.18408163,135.631325 C3.86285714,135.975904 3.70897959,135.86988 3.80979592,137.168675 C3.83632653,137.746506 4.13346939,143.312771 3.27918367,143.312771 Z" id="Path" fill="#323444"></path>
                    <path d="M2.88653061,67.8236145 C2.35591837,68.64 2.35591837,69.6578313 2.35591837,70.6173494 C2.35591837,75.3089157 2.40367347,80.026988 3.09877551,84.6708434 C3.26326531,85.7840964 3.47020408,86.8973494 3.57632653,88.0212048 C3.69659611,89.585635 3.72140392,91.1559304 3.65061224,92.7233735 L3.12,113.133012 C3.05632653,115.62988 2.92897959,118.312289 1.38489796,120.273735 C0.916697312,120.931261 0.696752299,121.733222 0.764081633,122.537349 C1.16734694,127.658313 2.01632653,132.736867 2.86,137.799518 C5.61544995,136.55779 8.79946629,136.709551 11.4240816,138.207711 C14.1012359,129.797738 15.5819778,121.053576 15.8228571,112.231807 C15.944898,107.89012 15.7591837,103.521928 16.4277551,99.233253 C17.5473469,92.013012 17.0910204,84.6072289 16.2685714,77.3445783 C16.0085714,75.0438554 15.4567347,72.6742169 13.9816327,70.893012 C12.5852409,69.3345082 10.7255279,68.2643063 8.6755102,67.8395181 C6.7122449,67.3253012 4.95591837,67.8554217 2.88653061,67.8236145 Z" id="Path" fill="#5B5583"></path>
                    <path d="M2.88653061,67.8236145 C2.35591837,68.64 2.35591837,69.6578313 2.35591837,70.6173494 C2.35591837,75.3089157 2.40367347,80.026988 3.09877551,84.6708434 C3.26326531,85.7840964 3.47020408,86.8973494 3.57632653,88.0212048 C3.69659611,89.585635 3.72140392,91.1559304 3.65061224,92.7233735 L3.12,113.133012 C3.05632653,115.62988 2.92897959,118.312289 1.38489796,120.273735 C0.916697312,120.931261 0.696752299,121.733222 0.764081633,122.537349 C1.16734694,127.658313 2.01632653,132.736867 2.86,137.799518 C5.61544995,136.55779 8.79946629,136.709551 11.4240816,138.207711 C14.1012359,129.797738 15.5819778,121.053576 15.8228571,112.231807 C15.944898,107.89012 15.7591837,103.521928 16.4277551,99.233253 C17.5473469,92.013012 17.0910204,84.6072289 16.2685714,77.3445783 C16.0085714,75.0438554 15.4567347,72.6742169 13.9816327,70.893012 C12.5852409,69.3345082 10.7255279,68.2643063 8.6755102,67.8395181 C6.7122449,67.3253012 4.95591837,67.8554217 2.88653061,67.8236145 Z" id="Path" fill="#000000" opacity="0.1"></path>
                    <path d="M9.37061224,127.011566 C5.81192527,145.231433 7.75489899,164.096977 14.9526531,181.211084 C15.5745039,182.477985 16.0105418,183.827736 16.2473469,185.218795 C16.5391837,187.816386 15.34,190.313253 14.6555102,192.826024 C13.0636735,198.540723 13.9816327,204.626506 15.0004082,210.473735 C15.424898,212.912289 15.8617687,215.349076 16.3110204,217.784096 C16.7514286,220.159036 17.1759184,222.740723 16.0722449,224.893012 C17.0220408,228.847711 17.5844898,232.765301 18.5342857,236.72 C18.6349859,237.032895 18.6657772,237.364047 18.6244898,237.69012 C18.4331071,238.20763 18.0958585,238.658719 17.6534694,238.988916 C16.213192,240.447822 15.6504166,242.557785 16.1730612,244.539277 C18.5979592,242.800482 21.9779592,243.41012 24.7477551,244.539277 C27.517551,245.668434 30.244898,247.18988 33.237551,247.18988 C32.802449,243.680482 32.3832653,239.996145 33.6779592,236.704096 C34.4314286,234.795663 35.7579592,232.993253 35.7208163,230.952289 C35.6836735,229.123373 34.5640816,227.490602 34.2934694,225.682892 C34.1928953,224.558182 34.2356866,223.425264 34.4208163,222.311325 C35.1318367,215.822651 34.3253061,209.270361 33.5187755,202.792289 C33.4275852,201.514832 33.1264113,200.261104 32.6273469,199.081446 C32.2506122,198.318072 31.6881633,197.586506 31.6987755,196.733012 C31.6987755,195.741687 32.5,194.935904 32.7971429,193.992289 C33.3277551,192.253494 32.3514286,189.889157 33.8212245,188.813012 C37.6946939,185.971566 36.2089796,179.186024 36.1240816,174.388434 C36.0568707,170.24996 35.88,166.11502 35.5934694,161.983614 C38.032263,168.834672 39.0293917,176.114906 38.522449,183.368675 C38.3526531,185.743614 38.0395918,188.240482 38.9681633,190.435181 C39.6791837,192.120964 41.0906122,193.50988 41.4726531,195.296386 C41.7114286,196.399036 41.5416327,197.538795 41.5946939,198.662651 C41.6477551,199.786506 42.0297959,201.011084 43.0008163,201.578313 C43.075102,206.688675 43.5314286,212.154217 43.6110204,217.264578 C43.5593959,219.876984 43.7727293,222.487896 44.2477551,225.057349 C44.48591,225.874661 44.6178766,226.719177 44.6404082,227.57012 C44.5207256,228.63708 44.2379838,229.679394 43.8020408,230.660723 C41.9244304,236.214982 42.917657,242.33751 46.455102,247.01494 C47.7073469,244.793735 50.3179592,243.616867 52.864898,243.431325 C55.4118367,243.245783 57.9269388,243.887229 60.3942857,244.533976 C60.0170462,241.436602 60.6338911,238.299549 62.1559184,235.57494 C62.5639638,234.960929 62.8770065,234.288958 63.0844898,233.581687 C63.3710204,232.235181 62.702449,230.893976 62.3416327,229.563373 C61.7526531,227.442892 61.9595918,225.158072 62.097551,222.942169 C62.5605723,215.520804 62.2315073,208.07128 61.1159184,200.719518 C60.9436564,199.271416 60.6035525,197.848218 60.102449,196.478554 C59.9114286,195.990843 59.6779592,195.524337 59.5187755,195.031325 C59.2683636,194.146972 59.1258338,193.235627 59.0942857,192.317108 L58.4840816,183.835181 C58.0542857,177.89253 60.0069388,172.024096 61.3706122,166.224578 C61.9808163,163.626988 62.6440816,161.034699 63.0526531,158.394699 C63.6097959,154.800482 63.7,151.126747 64.5171429,147.580241 C65.2493878,144.399518 66.5706122,141.298313 66.8465306,138.038072 C67.2710204,132.986024 65.1697959,128.103614 63.1322449,123.470361 C62.2832653,121.561928 59.0730612,121.752771 57.0089796,121.413494 C42.3693878,119.012048 26.9497959,118.996145 13.1432653,124.408675 C11.7154431,124.999666 10.4295261,125.886867 9.37061224,127.011566 Z" id="Path" fill="#3C354C"></path>
                    <path d="M19.9244898,32.9204819 L21.5481633,39.2289157 C21.989568,40.67571 22.2340754,42.1752729 22.275102,43.6872289 C22.2918709,44.2387378 22.1696225,44.7856115 21.9195918,45.2775904 C21.652378,45.6815941 21.310153,46.0307 20.9114286,46.3060241 C19.802449,47.1489157 19.0330612,49.1156627 17.764898,49.6987952 C18.417551,50.833253 19.3195918,50.0963855 20.497551,50.6636145 C22.5722449,51.6708434 24.4718367,53.1180723 26.7216327,53.6163855 C28.8440816,54.0828916 31.0726531,53.6428916 33.1791837,53.0862651 C36.1665306,52.2751807 39.1379592,51.1566265 41.5416327,49.2004819 C43.9453061,47.2443373 45.3142857,45.5161446 45.3036735,42.4255422 C42.6506122,42.7383133 40.2893878,40.0612048 39.1167347,37.6544578 C38.7101523,36.7395932 38.4110157,35.7807527 38.2253061,34.7971084 L36.8032653,28.546988 C35.2538776,28.8862651 33.9910204,29.9942169 32.5106122,30.5720482 C31.0302041,31.1498795 29.2791837,31.2028916 27.6342857,31.2771084 C24.714424,31.4097917 21.8107402,31.7857149 18.9534694,32.4009639 C18.5608163,32.4804819 18.0673469,32.7296386 18.1628571,33.1113253" id="Path" fill="#FBB3B2"></path>
                    <path d="M19.9244898,32.9204819 L21.5481633,39.2289157 C21.989568,40.67571 22.2340754,42.1752729 22.275102,43.6872289 C22.2918709,44.2387378 22.1696225,44.7856115 21.9195918,45.2775904 C21.652378,45.6815941 21.310153,46.0307 20.9114286,46.3060241 C19.802449,47.1489157 19.0330612,49.1156627 17.764898,49.6987952 C18.417551,50.833253 19.3195918,50.0963855 20.497551,50.6636145 C22.5722449,51.6708434 24.4718367,53.1180723 26.7216327,53.6163855 C28.8440816,54.0828916 31.0726531,53.6428916 33.1791837,53.0862651 C36.1665306,52.2751807 39.1379592,51.1566265 41.5416327,49.2004819 C43.9453061,47.2443373 45.3142857,45.5161446 45.3036735,42.4255422 C42.6506122,42.7383133 40.2893878,40.0612048 39.1167347,37.6544578 C38.7101523,36.7395932 38.4110157,35.7807527 38.2253061,34.7971084 L36.8032653,28.546988 C35.2538776,28.8862651 33.9910204,29.9942169 32.5106122,30.5720482 C31.0302041,31.1498795 29.2791837,31.2028916 27.6342857,31.2771084 C24.714424,31.4097917 21.8107402,31.7857149 18.9534694,32.4009639 C18.5608163,32.4804819 18.0673469,32.7296386 18.1628571,33.1113253" id="Path" fill="#000000" opacity="0.1"></path>
                    <ellipse id="Oval" fill="#FBB3B2" cx="26.8967347" cy="22.3604819" rx="14.0506122" ry="14.0375904"></ellipse>
                    <path d="M30.764898,45.500241 C31.516296,43.8789339 32.6010643,42.4339167 33.9485714,41.2592771 C35.9277551,39.5257831 38.6338776,38.1209639 39.1008163,35.5339759 L43.3881633,40.5224096 C43.6211619,40.7537183 43.8020622,41.0320466 43.9187755,41.3387952 C44.0281372,41.9207264 43.881184,42.5215169 43.5155102,42.9874699 C42.4542857,44.6785542 40.7828571,45.8872289 39.2016327,47.1118072 C35.5773748,49.9799172 32.1076223,53.0376893 28.8069388,56.2722892 C28.6614952,56.4410298 28.4665644,56.5597346 28.2497959,56.6115663 C28.0447203,56.6171796 27.8428548,56.5598215 27.6714286,56.4472289 C24.8236022,54.95333 22.3033561,52.905838 20.2587755,50.4250602 C20.104898,50.2395181 19.9138776,50.0274699 19.6644898,50.0433735 C19.5141211,50.0709608 19.3754935,50.1429804 19.2665306,50.2501205 C17.8391837,51.4163855 16.2791837,52.8106024 14.4485714,52.6303614 C16.8204082,50.9286747 18.1628571,48.0872289 18.6616327,45.2086747 C18.7602627,44.2234682 18.9630256,43.2514638 19.2665306,42.3089157 C19.5858504,41.3512883 20.3619347,40.6156856 21.3359184,40.3474699 C20.1791837,42.1127711 20.9697959,44.6149398 22.5244898,46.0409639 C24.0350146,47.3219134 25.8460231,48.1992196 27.7881633,48.5908434 C29.5922449,48.9301205 30.1228571,46.8891566 30.764898,45.500241 Z" id="Path" fill="#323444"></path>
                    <path d="M12.4853061,128.453494 C14.4857143,128.946506 16.38,129.784096 18.3220408,130.404337 C21.8615476,131.511771 25.5865751,131.902852 29.2791837,131.554699 C30.4157375,131.529788 31.5210423,131.178258 32.4628571,130.542169 C32.7122449,130.340723 32.9404082,130.102169 33.2057143,129.916627 C33.6494985,129.650537 34.1305943,129.452201 34.6330612,129.328193 C39.4987755,127.806747 43.5738776,124.525301 47.5269388,121.312771 C47.6542857,121.206747 47.797551,121.074217 47.7869388,120.904578 C47.7686878,120.789072 47.712722,120.682835 47.6277551,120.60241 L45.5477551,118.216867 C40.0930612,119.144578 34.5057143,118.794699 28.9714286,118.656867 C27.8352133,118.606458 26.6968507,118.636574 25.564898,118.746988 C24.4718367,118.874217 23.3946939,119.14988 22.317551,119.383133 C18.2265306,120.273735 14.0453061,120.613012 9.90122449,121.196145 C9.61129964,121.217512 9.33004605,121.304529 9.07877551,121.450602 C8.90403084,121.585627 8.75487788,121.7508 8.63836735,121.938313 L7.1844898,123.979277 C6.62016523,124.665799 6.20459901,125.461864 5.96408163,126.317108 C5.6244898,127.90747 6.3355102,128.43759 7.68857143,128.230843 C9.28698135,127.997085 10.9154761,128.072675 12.4853061,128.453494 Z" id="Path" fill="#323444"></path>
                    <path d="M28.7485714,53.8443373 C27.1253703,52.1825872 25.2852456,50.747158 23.2779592,49.5768675 C22.4670019,49.0622673 21.5673688,48.7027476 20.624898,48.5166265 C19.6650182,48.3273167 18.6704807,48.5718393 17.9081633,49.1845783 C17.4359184,49.6033735 17.1387755,50.186506 16.682449,50.626506 C16.1081755,51.1085226 15.4498065,51.4805338 14.7404082,51.7238554 C12.3250037,52.754964 10.0355678,54.0586974 7.91673469,55.6096386 C6.76175192,56.4168341 5.72118905,57.3761891 4.82326531,58.4616867 C2.41959184,61.5363855 2.05877551,65.7190361 2.12244898,69.6207229 C2.17020408,72.3349398 4.7755102,74.3493976 6.56897959,76.379759 C8.25109103,78.3777351 9.77333435,80.5047736 11.1216327,82.7412048 C12.0873469,84.2679518 13.0955102,85.9219277 12.9734694,87.740241 C12.8726531,89.2298795 12.002449,90.6293976 12.1404082,92.1137349 C12.1881633,92.6438554 12.3579592,93.1315663 12.4057143,93.6457831 C12.5012245,94.7060241 12.0820408,95.7662651 11.9759184,96.826506 C11.8326531,98.326747 12.3208163,99.8163855 12.3473469,101.327229 C12.3278699,102.361531 12.1962164,103.390677 11.9546939,104.396627 C10.9359184,109.241928 9.65714286,114.113735 9.91714286,119.059759 L6.97755102,119.58988 C7.5423034,120.142859 7.80968579,120.931499 7.69756227,121.713543 C7.58543874,122.495586 7.10721559,123.177526 6.40979592,123.54988 C10.9995918,125.081928 15.9608163,124.307952 20.8265306,124.302651 C24.8538776,124.302651 28.8653061,124.832771 32.8873469,124.758554 C36.9093878,124.684337 41.0587755,123.958072 44.375102,121.683855 C45.2771429,121.068916 46.104898,120.347952 47.0546939,119.81253 C48.3269071,119.153863 49.6978576,118.706255 51.1138776,118.487229 C53.7368123,117.987452 56.4029906,117.749494 59.0730612,117.776867 C60.3783673,117.776867 61.8004082,117.82988 62.8404082,117.045301 C63.9865306,116.175904 64.2783673,114.601446 64.4322449,113.175422 C64.5861224,111.66988 64.6816327,110.159036 64.7081633,108.648193 C64.7526449,107.471665 64.6904868,106.293529 64.522449,105.128193 C64.3631683,104.276074 64.1559003,103.433612 63.9016327,102.604819 L61.9012245,95.5648193 C61.0734694,92.659759 62.224898,89.4737349 62.4689796,86.4626506 C62.5273469,85.7522892 62.5379592,84.9253012 61.9914286,84.4693976 C61.795102,84.3050602 61.5244898,84.1937349 61.4608163,83.9392771 C61.4030299,83.6950865 61.4491379,83.4378891 61.5881633,83.2289157 C62.6493878,81.1084337 64.2412245,79.2371084 65.695102,77.3233735 C68.1369934,73.9665297 70.4039507,70.4860826 72.4869388,66.8959036 C71.8346327,59.3832675 68.6681702,52.309216 63.4983673,46.8149398 C62.4371429,45.6645783 61.2220408,44.5619277 59.7363265,44.0424096 C58.7654282,43.7461607 57.7585625,43.583856 56.7436735,43.56 C52.5836735,43.2790361 48.2538776,43.0298795 44.6297959,40.9412048 C44.3697085,40.7612125 44.075287,40.6366955 43.764898,40.5754217 C42.9636735,40.4853012 42.38,41.2751807 41.86,41.9007229 C40.5228571,43.4910843 38.5542857,44.4028916 36.8244898,45.5744578 C33.5983673,47.7638554 31.0779592,50.7749398 28.7485714,53.8443373 Z" id="Path" fill="#5B5583"></path>
                    <path d="M72.8477551,69.0640964 C73.6755102,71.6828916 73.5959184,74.4819277 73.8665306,77.2120482 C74.0268007,78.8595818 74.3159843,80.4920435 74.7314286,82.0944578 C74.9211079,82.975204 75.2622151,83.8164199 75.7395918,84.5807229 C76.2171429,85.2804819 76.9016327,85.8477108 77.2040816,86.6375904 C77.3694072,87.1727207 77.4429613,87.7319304 77.4216327,88.2915663 L77.4853061,91.9493976 C77.6215179,93.8877587 77.3261392,95.8321929 76.6204082,97.6428916 L74.3334694,104.592771 C73.0971429,108.356627 71.8289796,112.178795 69.6004082,115.45494 C69.2864325,116.009412 68.8107315,116.455084 68.2367347,116.73253 C67.7873579,116.851204 67.3267236,116.922278 66.862449,116.944578 C65.1937531,117.241935 63.9714091,118.68114 63.9493878,120.374458 C63.4184029,119.599281 62.7557591,118.922898 61.9914286,118.375904 L57.3379592,114.66506 C55.7461224,113.371566 54.0853061,112.056867 52.1538776,111.309398 C57.4612103,109.653466 61.2926896,105.027533 61.9277551,99.5089157 C61.9260603,98.7047497 62.1075099,97.9107372 62.4583673,97.186988 C62.8457143,96.5614458 63.5620408,96.0843373 63.615102,95.3474699 C63.6787755,94.419759 62.6281633,93.72 62.6281633,92.7922892 C62.6281633,92.1773494 63.0844898,91.6684337 63.2861224,91.0906024 C63.4745789,90.3765402 63.4745789,89.6258694 63.2861224,88.9118072 L62.6440816,85.3493976 C62.6062316,84.9924544 62.4980293,84.6465281 62.3257143,84.3315663 C62.0854777,84.0296162 61.8191472,83.7493414 61.5297959,83.4939759 C60.4261224,82.2587952 60.9142857,80.313253 61.5297959,78.7918072 C62.943233,75.4146438 64.7643418,72.2226457 66.9526531,69.286747 C67.7315826,68.3008667 68.452656,67.2707051 69.1122449,66.2014458 C69.6746939,65.2260241 69.8020408,63.8742169 70.3963265,63.0207229 C71.1604082,65.0245783 72.195102,67.0019277 72.8477551,69.0640964 Z" id="Path" fill="#5B5583"></path>
                    <path d="M51.9893878,111.526747 C51.7525487,111.702362 51.5478993,111.917583 51.3844898,112.162892 C50.7593201,112.947013 49.9265599,113.540241 48.9808163,113.875181 C49.5114286,114.256867 49.9942857,114.633253 50.4930612,115.020241 C54.1834654,117.867674 57.5627303,121.096323 60.5746939,124.65253 C60.9089796,123.459759 62.9093878,123.544578 63.397551,122.404819 C63.5125126,122.078593 63.5488703,121.729882 63.5036735,121.386988 C63.4022881,119.601231 63.1466434,117.827565 62.7395918,116.085783 C62.5789263,115.189039 62.2160136,114.34061 61.6783673,113.604819 C60.9355102,112.708916 59.7787755,112.279518 58.675102,111.908434 C57.0036735,111.325301 53.6873469,110.503614 51.9893878,111.526747 Z" id="Path" fill="#323444"></path>
                    <path d="M45.3567347,115.693494 C43.764898,116.870361 42.3693878,118.344096 40.5812245,119.14988 C39.3183673,119.72241 37.8804082,119.971566 36.7767347,120.82506 C37.3763265,122.14506 38.9363265,122.828916 40.384898,122.775904 C41.8347919,122.633611 43.2244901,122.124588 44.4228571,121.296867 C45.3726531,120.713735 46.4869388,120.035181 47.5216327,120.443373 C47.6808163,121.249157 46.9910204,122.007229 46.9910204,122.823614 C46.9910204,123.64 47.6702041,124.233735 48.3387755,124.663133 C51.522449,126.714699 55.6187755,126.54506 59.4126531,126.306506 C59.6302947,126.314587 59.8446034,126.251285 60.0228571,126.126265 C60.1889831,125.932582 60.2710837,125.680786 60.2510204,125.426506 C60.2987755,124.588916 60.32,123.756627 60.3253061,122.919036 C60.5442718,121.540242 59.9442915,120.159499 58.7865306,119.377831 C56.7277399,117.609709 54.507079,116.038938 52.1538776,114.686265 C49.8191837,113.334458 47.4526531,114.13494 45.3567347,115.693494 Z" id="Path" fill="#FBB3B2"></path>
                    <path d="M31.8314286,16.4920482 C29.4755102,16.773012 27.7616327,18.6125301 28.0004082,20.6110843 C28.2391837,22.6096386 30.3404082,23.9879518 32.6963265,23.7016867 C35.0522449,23.4154217 36.7661224,21.5812048 36.5273469,19.5879518 C36.2885714,17.5946988 34.1873469,16.2110843 31.8314286,16.4920482 Z M32.6326531,23.1503614 C30.637551,23.3889157 28.86,22.2173494 28.6530612,20.5315663 C28.4461224,18.8457831 29.9053061,17.2872289 31.895102,17.0486747 C33.884898,16.8101205 35.6677551,17.9816867 35.8746939,19.6674699 C36.0816327,21.353253 34.622449,22.9118072 32.6326531,23.1503614 Z" id="Shape" fill="#3C354C" fill-rule="nonzero"></path>
                    <path d="M20.3489796,17.8703614 C17.9930612,18.1513253 16.2791837,19.9908434 16.5179592,21.9840964 C16.7567347,23.9773494 18.8579592,25.3609639 21.2138776,25.08 C23.5697959,24.7990361 25.2836735,22.9595181 25.044898,20.9609639 C24.8061224,18.9624096 22.704898,17.5893976 20.3489796,17.8703614 Z M21.1502041,24.5233735 C19.155102,24.7619277 17.377551,23.5903614 17.1759184,21.9098795 C16.9742857,20.2293976 18.4228571,18.6655422 20.4179592,18.4216867 C22.4130612,18.1778313 24.1906122,19.3546988 24.3922449,21.0404819 C24.5938776,22.7262651 23.14,24.2848193 21.1502041,24.5233735 Z" id="Shape" fill="#3C354C" fill-rule="nonzero"></path>
                    <polygon id="Path" fill="#3C354C" points="11.8220408 18.893494 16.942449 19.9855422 16.4383673 21.3320482 11.6097959 19.9166265"></polygon>
                    <polygon id="Path" fill="#3C354C" points="40.3636735 15.4689157 35.6412245 17.7431325 36.4530612 18.9306024 40.8093878 16.4125301"></polygon>
                    <polygon id="Path" fill="#3C354C" points="24.5726531 19.6462651 28.164898 19.2168675 27.9791837 20.1074699 24.8963265 20.3142169"></polygon>
                    <path d="M17.6057143,18.4428916 C17.9437242,17.7165698 18.1245332,16.9271668 18.1363265,16.1262651 C18.1489097,15.6468963 18.2311288,15.1718961 18.3804082,14.7161446 C18.6412365,14.1373172 19.0380509,13.6299383 19.5371429,13.2371084 C21.1926531,11.8375904 23.5644898,11.1166265 25.9044898,11.0159036 C28.4559879,10.8986275 30.9941186,11.4467064 33.2693878,12.6062651 C33.9643994,12.9315948 34.5869175,13.3930931 35.1,13.9633735 C35.8428571,14.8698795 36.0020408,16.0414458 36.7502041,16.9373494 C37.7887219,18.0430066 39.3303543,18.525577 40.8146939,18.2096386 C41.0746939,17.2872289 40.735102,16.3118072 40.8677551,15.3681928 C41.0768323,14.5596396 41.3592245,13.7718036 41.7114286,13.0144578 C42.5338776,10.5918072 41.3346939,7.78216867 38.8620408,6.33493976 C37.9971429,5.80481928 36.9730612,5.46024096 36.3257143,4.74457831 C35.6783673,4.02891566 35.5244898,3.28674699 35.0787755,2.57108434 C33.8955102,0.678554217 30.8338776,-0.206746988 28.5044898,0.667951807 C27.7722449,0.943614458 27.124898,1.36240964 26.3820408,1.65927711 C25.002449,2.22650602 23.4318367,2.32722892 21.9142857,2.51807229 C20.418479,2.65623489 18.9556483,3.03951387 17.5844898,3.65253012 C16.2738776,4.29927711 15.1755102,5.33831325 14.8730612,6.57879518 C14.7297959,7.1513253 14.7616327,7.74506024 14.6183673,8.31228916 C13.8861224,11.1908434 9.15836735,12.5903614 8.89306122,15.5272289 C8.79755102,16.5874699 9.37591837,17.6053012 10.097551,18.4693976 C10.5963265,19.0578313 11.7902041,20.6322892 12.6338776,20.860241 C13.477551,21.0881928 14.1195918,20.2877108 14.9261224,20.0120482 C16.1995918,19.6144578 16.9689796,19.5296386 17.6057143,18.4428916 Z" id="Path" fill="#CBCEDA"></path>
                </g>
                <path d="M417,324 C417,350.529373 433.996736,372 455,372" id="Path" fill="#46455B"></path>
                <path d="M455,373 C455,345.9146 473.786523,324 497,324" id="Path" fill="#6C63FF"></path>
                <path d="M430,327 C430,352.42652 440.736702,373 454,373" id="Path" fill="#6C63FF"></path>
                <path d="M455,372 C455,337.732675 476.470627,310 503,310" id="Path" fill="#46455B"></path>
                <ellipse id="Oval" fill="#6C63FF" opacity="0.1" cx="452.5" cy="379.5" rx="9.5" ry="1.5"></ellipse>
                <path d="M446,372.859516 C446,372.859516 451.380519,372.695344 452.994674,371.562031 C454.60883,370.428718 461.264532,369.067684 461.668071,370.889458 C462.071609,372.711232 469.738849,379.950666 463.675004,379.998328 C457.611159,380.045991 449.567284,379.066258 447.953128,378.097117 C446.338973,377.127975 446,372.859516 446,372.859516 Z" id="Path" fill="#A8A8A8"></path>
                <path d="M463.782668,380.292061 C457.71526,380.345461 449.684552,379.247795 448.0655,378.161996 C446.833731,377.337263 446.34425,374.364666 446.177504,373 L446,373 C446,373 446.338871,377.782263 447.957922,378.868062 C449.576973,379.953861 457.607682,381.051527 463.67509,380.998127 C465.428613,380.998127 466.031051,380.292061 465.998778,379.277462 C465.756727,379.894528 465.116637,380.280194 463.782668,380.292061 Z" id="Path" fill="#000000" opacity="0.2"></path>
                <path d="M12,340 C12,361.570796 24.9687834,379 41,379" id="Path" fill="#46455B"></path>
                <path d="M42,378 C42,356.444141 56.7674604,339 75,339" id="Path" fill="#6C63FF"></path>
                <path d="M23,342 C23,362.465793 31.5034965,379 42,379" id="Path" fill="#6C63FF"></path>
                <path d="M41,378 C41,350.364901 58.4453816,328 80,328" id="Path" fill="#46455B"></path>
                <ellipse id="Oval" fill="#6C63FF" opacity="0.1" cx="40.5" cy="383.5" rx="7.5" ry="1.5"></ellipse>
                <path d="M35,378.317495 C35,378.317495 39.2982605,378.184507 40.5904419,377.253595 C41.8826233,376.322682 47.208141,375.258782 47.5271314,376.721645 C47.8461218,378.184507 53.9880386,383.961484 49.1491165,383.998721 C44.3101943,384.035957 37.8709136,383.253991 36.5787321,382.482663 C35.2865507,381.711336 35,378.317495 35,378.317495 Z" id="Path" fill="#A8A8A8"></path>
                <path d="M49.2248855,383.472645 C44.357054,383.511815 37.9423337,382.68924 36.649654,381.87226 C35.6652703,381.256727 35.2758438,379.024023 35.1406262,378 L35,378 C35,378 35.2704351,381.586877 36.5631148,382.403856 C37.8557945,383.220836 44.2867408,384.037816 49.1383463,383.998645 C50.5392,383.998645 51.0259832,383.472645 50.9989397,382.706027 C50.8042264,383.153687 50.2687649,383.43907 49.2248855,383.472645 Z" id="Path" fill="#000000" opacity="0.2"></path>
            </g>
        </g>
    </g>
</svg>