<?xml version="1.0" encoding="UTF-8"?>
<svg width="1280px" height="625px" viewBox="0 0 1280 625" version="1.1" xmlns="http://www.w3.org/2000/svg" xmlns:xlink="http://www.w3.org/1999/xlink">
    <!-- Generator: Sketch 52.2 (67145) - http://www.bohemiancoding.com/sketch -->
    <title>overlay</title>
    <desc>Created with Sketch.</desc>
    <defs>
        <linearGradient x1="0%" y1="50%" x2="100%" y2="50%" id="linearGradient-1">
            <stop stop-color="#A100F8" offset="0%"></stop>
            <stop stop-color="#FF00B3" offset="100%"></stop>
        </linearGradient>
        <path d="M281.519271,3.77532953 C281.519271,3.77532953 237.620155,-18.6137379 202.339159,51.7933788 C167.060739,122.203065 155.298691,102.64539 65.1392947,182.831344 C-25.0201014,263.017298 -17.1795942,358.85042 65.1392947,407.747177 C147.460758,456.641365 214.098633,397.96577 288.579589,484.020055 C363.060546,570.07434 486.541454,532.914243 512.022459,427.304853 C537.500889,321.690324 461.063024,245.414877 513.979367,143.715994 C566.90086,42.0145412 494.381961,24.414689 421.860488,20.5016124 C349.341589,16.5911051 308.699696,19.0730697 281.519271,3.77532953" id="path-2"></path>
        <linearGradient x1="50.2227628%" y1="12.2450547%" x2="49.0121129%" y2="143.767201%" id="linearGradient-4">
            <stop stop-color="#9500DD" offset="0%"></stop>
            <stop stop-color="#BB42C1" offset="100%"></stop>
        </linearGradient>
    </defs>
    <g id="Page-1" stroke="none" stroke-width="1" fill="none" fill-rule="evenodd">
        <g id="overlay">
            <rect id="Rectangle" fill="#FFFFFF" x="0" y="0" width="1280" height="625"></rect>
            <circle id="Oval" fill="url(#linearGradient-1)" cx="95.5" cy="544.5" r="45.5"></circle>
            <g id="banner" transform="translate(698.000000, 9.000000)">
                <g id="Group-18" transform="translate(0.000000, 41.000000)">
                    <mask id="mask-3" fill="white">
                        <use xlink:href="#path-2"></use>
                    </mask>
                    <g id="Clip-17"></g>
                    <path d="M202.339159,51.7933788 C167.060739,122.203065 155.298691,102.64539 65.1392947,182.831344 C-25.0201014,263.017298 -17.1795942,358.85042 65.1392947,407.747177 C147.460758,456.641365 214.098633,397.96577 288.579589,484.020055 C363.060546,570.07434 486.541454,532.914243 512.022459,427.304853 C537.500889,321.690324 461.063024,245.414877 513.979367,143.715994 C566.90086,42.0145412 494.381961,24.414689 421.860488,20.5016124 C349.341589,16.5911051 308.699696,19.0730697 281.519271,3.77532953 C281.519271,3.77532953 237.620155,-18.6137379 202.339159,51.7933788 Z" id="Fill-16" fill="url(#linearGradient-4)" mask="url(#mask-3)"></path>
                </g>
                <path d="M328,18.5 C328,28.7175099 319.718075,37 309.498739,37 C299.281925,37 291,28.7175099 291,18.5 C291,8.28249011 299.281925,0 309.498739,0 C319.718075,0 328,8.28249011 328,18.5" id="Fill-19" fill="#765291"></path>
                <path d="M283,540.498725 C283,545.19304 279.19304,549 274.498725,549 C269.80441,549 266,545.19304 266,540.498725 C266,535.80441 269.80441,532 274.498725,532 C279.19304,532 283,535.80441 283,540.498725" id="Fill-20" fill="#9500DD"></path>
                <path d="M328,18.5 C328,28.7175099 319.718075,37 309.498739,37 C299.281925,37 291,28.7175099 291,18.5 C291,8.28249011 299.281925,0 309.498739,0 C319.718075,0 328,8.28249011 328,18.5" id="Fill-21" fill="#9500DD"></path>
                <path d="M425.370231,388 L127.629769,388 C119.549449,388 113,381.488367 113,373.4547 L113,171.542733 C113,163.511633 119.549449,157 127.629769,157 L425.370231,157 C433.450551,157 440,163.511633 440,171.542733 L440,373.4547 C440,381.488367 433.450551,388 425.370231,388" id="Fill-22" fill="#E3E9F0"></path>
                <path d="M422.456885,386 L128.543115,386 C122.168827,386 117,380.816218 117,374.417729 L117,171.582271 C117,165.186361 122.168827,160 128.543115,160 L422.456885,160 C428.831173,160 434,165.186361 434,171.582271 L434,374.417729 C434,380.816218 428.831173,386 422.456885,386" id="Fill-23" fill="#60B5FF"></path>
                <path d="M412.875287,366 L137.124713,366 C133.189133,366 130,362.795196 130,358.840277 L130,177.157136 C130,173.204804 133.189133,170 137.124713,170 L412.875287,170 C416.810867,170 420,173.204804 420,177.157136 L420,358.840277 C420,362.795196 416.810867,366 412.875287,366" id="Fill-24" fill="#3F56FF"></path>
                <path d="M103.526015,376 C102.583552,377.634429 102,379.477714 102,381.464286 C102,387.834429 107.489522,393 114.264925,393 L435.735075,393 C442.507896,393 448,387.834429 448,381.464286 C448,379.477714 447.413866,377.634429 446.471403,376 L103.526015,376" id="Fill-25" fill="#E3E9F0"></path>
                <path d="M104,388 C106.070262,391.5568 110.061437,394 114.709226,394 L435.290774,394 C439.935988,394 443.927163,391.5568 446,388 L104,388" id="Fill-26" fill="#C7D2E2"></path>
                <path d="M165.0608,194 L144.9392,194 C143.8664,194 143,193.103406 143,191.998762 C143,190.894118 143.8664,190 144.9392,190 L165.0608,190 C166.1336,190 167,190.894118 167,191.998762 C167,193.103406 166.1336,194 165.0608,194" id="Fill-27" fill="#02CBFF"></path>
                <path d="M329.0608,194 L308.9392,194 C307.8664,194 307,193.103406 307,191.998762 C307,190.894118 307.8664,190 308.9392,190 L329.0608,190 C330.1336,190 331,190.894118 331,191.998762 C331,193.103406 330.1336,194 329.0608,194" id="Fill-28" fill="#E3E9FF"></path>
                <path d="M300.914166,194 L177.085834,194 C175.931914,194 175,193.103406 175,191.998762 C175,190.894118 175.931914,190 177.085834,190 L300.914166,190 C302.068086,190 303,190.894118 303,191.998762 C303,193.103406 302.068086,194 300.914166,194" id="Fill-29" fill="#02CBFF"></path>
                <path d="M214.946208,204 L176.053792,204 C174.917598,204 174,203.105328 174,202 C174,200.894672 174.917598,200 176.053792,200 L214.946208,200 C216.082402,200 217,200.894672 217,202 C217,203.105328 216.082402,204 214.946208,204" id="Fill-30" fill="#DF5392"></path>
                <path d="M280.951578,204 L225.048422,204 C223.915198,204 223,203.105328 223,202 C223,200.894672 223.915198,200 225.048422,200 L280.951578,200 C282.084802,200 283,200.894672 283,202 C283,203.105328 282.084802,204 280.951578,204" id="Fill-31" fill="#E3E9FF"></path>
                <path d="M300.946172,204 L288.053828,204 C286.917614,204 286,203.105328 286,202 C286,200.894672 286.917614,200 288.053828,200 L300.946172,200 C302.079844,200 303,200.894672 303,202 C303,203.105328 302.079844,204 300.946172,204" id="Fill-32" fill="#E3E9FF"></path>
                <path d="M300.914166,245 L177.085834,245 C175.931914,245 175,244.103406 175,243.001238 C175,241.896594 175.931914,241 177.085834,241 L300.914166,241 C302.068086,241 303,241.896594 303,243.001238 C303,244.103406 302.068086,245 300.914166,245" id="Fill-33" fill="#E3E9FF"></path>
                <path d="M165.0608,252 L144.9392,252 C143.8664,252 143,251.103406 143,250.001238 C143,248.896594 143.8664,248 144.9392,248 L165.0608,248 C166.1336,248 167,248.896594 167,250.001238 C167,251.103406 166.1336,252 165.0608,252" id="Fill-34" fill="#02CBFF"></path>
                <path d="M329.0608,252 L308.9392,252 C307.8664,252 307,251.103406 307,250.001238 C307,248.896594 307.8664,248 308.9392,248 L329.0608,248 C330.1336,248 331,248.896594 331,250.001238 C331,251.103406 330.1336,252 329.0608,252" id="Fill-35" fill="#02CBFF"></path>
                <path d="M214.946208,252 L176.053792,252 C174.917598,252 174,251.103406 174,250.001238 C174,248.896594 174.917598,248 176.053792,248 L214.946208,248 C216.082402,248 217,248.896594 217,250.001238 C217,251.103406 216.082402,252 214.946208,252" id="Fill-36" fill="#E3E9FF"></path>
                <path d="M280.951578,252 L225.048422,252 C223.915198,252 223,251.103406 223,250.001238 C223,248.896594 223.915198,248 225.048422,248 L280.951578,248 C282.084802,248 283,248.896594 283,250.001238 C283,251.103406 282.084802,252 280.951578,252" id="Fill-37" fill="#DF5392"></path>
                <path d="M300.946172,252 L288.053828,252 C286.917614,252 286,251.103406 286,250.001238 C286,248.896594 286.917614,248 288.053828,248 L300.946172,248 C302.079844,248 303,248.896594 303,250.001238 C303,251.103406 302.079844,252 300.946172,252" id="Fill-38" fill="#DF5392"></path>
                <path d="M330.910345,210 L176.089655,210 C174.933621,210 174,209.105328 174,208 C174,206.894672 174.933621,206 176.089655,206 L330.910345,206 C332.063793,206 333,206.894672 333,208 C333,209.105328 332.063793,210 330.910345,210" id="Fill-39" fill="#DF5392"></path>
                <path d="M298.419852,220 L260.580148,220 C259.707529,220 259,219.331269 259,218.506502 L259,217.493498 C259,216.668731 259.707529,216 260.580148,216 L298.419852,216 C299.292471,216 300,216.668731 300,217.493498 L300,218.506502 C300,219.331269 299.292471,220 298.419852,220" id="Fill-40" fill="#02CBFF"></path>
                <path d="M226.973116,220 L177.029395,220 C175.906698,220 175,219.105882 175,218.001238 C175,216.896594 175.906698,216 177.029395,216 L226.973116,216 C228.093302,216 229,216.896594 229,218.001238 C229,219.105882 228.093302,220 226.973116,220" id="Fill-41" fill="#E3E9FF"></path>
                <path d="M253.958737,220 L234.038737,220 C232.912,220 232,219.105882 232,218.001238 C232,216.896594 232.912,216 234.038737,216 L253.958737,216 C255.088,216 256,216.896594 256,218.001238 C256,219.105882 255.088,220 253.958737,220" id="Fill-42" fill="#02CBFF"></path>
                <path d="M165.0608,228 L144.9392,228 C143.8664,228 143,227.103406 143,225.998762 C143,224.896594 143.8664,224 144.9392,224 L165.0608,224 C166.1336,224 167,224.896594 167,225.998762 C167,227.103406 166.1336,228 165.0608,228" id="Fill-43" fill="#E3E9FF"></path>
                <path d="M330.910345,228 L176.089655,228 C174.933621,228 174,227.103406 174,225.998762 C174,224.896594 174.933621,224 176.089655,224 L330.910345,224 C332.063793,224 333,224.896594 333,225.998762 C333,227.103406 332.063793,228 330.910345,228" id="Fill-44" fill="#E3E9FF"></path>
                <path d="M165.0608,261 L144.9392,261 C143.8664,261 143,260.105882 143,259.001238 C143,257.896594 143.8664,257 144.9392,257 L165.0608,257 C166.1336,257 167,257.896594 167,259.001238 C167,260.105882 166.1336,261 165.0608,261" id="Fill-45" fill="#E3E9FF"></path>
                <path d="M314.231267,261 L263.766239,261 C262.790816,261 262,260.214861 262,259.243963 L262,258.756037 C262,257.787616 262.790816,257 263.766239,257 L314.231267,257 C315.206689,257 316,257.787616 316,258.756037 L316,259.243963 C316,260.214861 315.206689,261 314.231267,261" id="Fill-46" fill="#E3E9FF"></path>
                <path d="M226.973116,261 L177.029395,261 C175.906698,261 175,260.105882 175,259.001238 C175,257.896594 175.906698,257 177.029395,257 L226.973116,257 C228.093302,257 229,257.896594 229,259.001238 C229,260.105882 228.093302,261 226.973116,261" id="Fill-47" fill="#E3E9FF"></path>
                <path d="M253.958737,261 L234.038737,261 C232.912,261 232,260.105882 232,259.001238 C232,257.896594 232.912,257 234.038737,257 L253.958737,257 C255.088,257 256,257.896594 256,259.001238 C256,260.105882 255.088,261 253.958737,261" id="Fill-48" fill="#E3E9FF"></path>
                <path d="M165.0608,271 L144.9392,271 C143.8664,271 143,270.103406 143,268.998762 C143,267.896594 143.8664,267 144.9392,267 L165.0608,267 C166.1336,267 167,267.896594 167,268.998762 C167,270.103406 166.1336,271 165.0608,271" id="Fill-49" fill="#FFC34A"></path>
                <path d="M202.976628,271 L177.023372,271 C175.904007,271 175,270.103406 175,268.998762 C175,267.896594 175.904007,267 177.023372,267 L202.976628,267 C204.093489,267 205,267.896594 205,268.998762 C205,270.103406 204.093489,271 202.976628,271" id="Fill-50" fill="#02CBFF"></path>
                <path d="M144.9392,238 C143.8664,238 143,237.103406 143,235.998762 C143,234.896594 143.8664,234 144.9392,234 L165.0608,234 C166.1336,234 167,234.896594 167,235.998762 C167,237.103406 166.1336,238 165.0608,238" id="Fill-51" fill="#02CBFF"></path>
                <path d="M320.060389,238 L260.939611,238 C259.86806,238 259,237.162848 259,236.132508 L259,235.865015 C259,234.834675 259.86806,234 260.939611,234 L320.060389,234 C321.13194,234 322,234.834675 322,235.865015 L322,236.132508 C322,237.162848 321.13194,238 320.060389,238" id="Fill-52" fill="#E3E9FF"></path>
                <path d="M226.973116,238 L177.029395,238 C175.906698,238 175,237.103406 175,235.998762 C175,234.896594 175.906698,234 177.029395,234 L226.973116,234 C228.093302,234 229,234.896594 229,235.998762 C229,237.103406 228.093302,238 226.973116,238" id="Fill-53" fill="#FFC34A"></path>
                <path d="M253.958737,238 L234.038737,238 C232.912,238 232,237.103406 232,235.998762 C232,234.896594 232.912,234 234.038737,234 L253.958737,234 C255.088,234 256,234.896594 256,235.998762 C256,237.103406 255.088,238 253.958737,238" id="Fill-54" fill="#FFC34A"></path>
                <path d="M319.664906,279 L307.335094,279 C306.044377,279 305,277.882482 305,276.501373 C305,275.120264 306.044377,274 307.335094,274 L319.664906,274 C320.955623,274 322,275.120264 322,276.501373 C322,277.882482 320.955623,279 319.664906,279" id="Fill-55" fill="#E3E9FF"></path>
                <path d="M300.914166,279 L177.085834,279 C175.931914,279 175,278.105328 175,277 C175,275.894672 175.931914,275 177.085834,275 L300.914166,275 C302.068086,275 303,275.894672 303,277 C303,278.105328 302.068086,279 300.914166,279" id="Fill-56" fill="#E3E9FF"></path>
                <path d="M329.0608,286 L308.9392,286 C307.8664,286 307,285.105882 307,284.001238 C307,282.896594 307.8664,282 308.9392,282 L329.0608,282 C330.1336,282 331,282.896594 331,284.001238 C331,285.105882 330.1336,286 329.0608,286" id="Fill-57" fill="#E3E9FF"></path>
                <path d="M214.946208,286 L176.053792,286 C174.917598,286 174,285.105882 174,284.001238 C174,282.896594 174.917598,282 176.053792,282 L214.946208,282 C216.082402,282 217,282.896594 217,284.001238 C217,285.105882 216.082402,286 214.946208,286" id="Fill-58" fill="#E3E9FF"></path>
                <path d="M280.951578,286 L225.048422,286 C223.915198,286 223,285.105882 223,284.001238 C223,282.896594 223.915198,282 225.048422,282 L280.951578,282 C282.084802,282 283,282.896594 283,284.001238 C283,285.105882 282.084802,286 280.951578,286" id="Fill-59" fill="#E3E9FF"></path>
                <path d="M300.946172,286 L288.053828,286 C286.917614,286 286,285.105882 286,284.001238 C286,282.896594 286.917614,282 288.053828,282 L300.946172,282 C302.079844,282 303,282.896594 303,284.001238 C303,285.105882 302.079844,286 300.946172,286" id="Fill-60" fill="#E3E9FF"></path>
                <path d="M329.0608,328 L308.9392,328 C307.8664,328 307,327.105328 307,326.002478 C307,324.894672 307.8664,324 308.9392,324 L329.0608,324 C330.1336,324 331,324.894672 331,326.002478 C331,327.105328 330.1336,328 329.0608,328" id="Fill-61" fill="#E3E9F0"></path>
                <path d="M300.914166,328 L177.085834,328 C175.931914,328 175,327.105328 175,326.002478 C175,324.894672 175.931914,324 177.085834,324 L300.914166,324 C302.068086,324 303,324.894672 303,326.002478 C303,327.105328 302.068086,328 300.914166,328" id="Fill-62" fill="#E3E9FF"></path>
                <path d="M165.0608,338 L144.9392,338 C143.8664,338 143,337.105328 143,336.002478 C143,334.894672 143.8664,334 144.9392,334 L165.0608,334 C166.1336,334 167,334.894672 167,336.002478 C167,337.105328 166.1336,338 165.0608,338" id="Fill-63" fill="#DF5392"></path>
                <path d="M317.447293,338 L307.552707,338 C306.695157,338 306,337.395291 306,336.649318 L306,335.350682 C306,334.604709 306.695157,334 307.552707,334 L317.447293,334 C318.301994,334 319,334.604709 319,335.350682 L319,336.649318 C319,337.395291 318.301994,338 317.447293,338" id="Fill-64" fill="#02CBFF"></path>
                <path d="M214.946208,338 L176.053792,338 C174.917598,338 174,337.105328 174,336.002478 C174,334.894672 174.917598,334 176.053792,334 L214.946208,334 C216.082402,334 217,334.894672 217,336.002478 C217,337.105328 216.082402,338 214.946208,338" id="Fill-65" fill="#02CBFF"></path>
                <path d="M280.951578,338 L225.048422,338 C223.915198,338 223,337.105328 223,336.002478 C223,334.894672 223.915198,334 225.048422,334 L280.951578,334 C282.084802,334 283,334.894672 283,336.002478 C283,337.105328 282.084802,338 280.951578,338" id="Fill-66" fill="#E3E9FF"></path>
                <path d="M300.946172,338 L288.053828,338 C286.917614,338 286,337.105328 286,336.002478 C286,334.894672 286.917614,334 288.053828,334 L300.946172,334 C302.079844,334 303,334.894672 303,336.002478 C303,337.105328 302.079844,338 300.946172,338" id="Fill-67" fill="#02CBFF"></path>
                <path d="M165.0608,295 L144.9392,295 C143.8664,295 143,294.103406 143,292.998762 C143,291.896594 143.8664,291 144.9392,291 L165.0608,291 C166.1336,291 167,291.896594 167,292.998762 C167,294.103406 166.1336,295 165.0608,295" id="Fill-68" fill="#DF5392"></path>
                <path d="M287.241632,295 L176.758368,295 C175.789732,295 175,294.237152 175,293.295975 L175,292.704025 C175,291.762848 175.789732,291 176.758368,291 L287.241632,291 C288.212824,291 289,291.762848 289,292.704025 L289,293.295975 C289,294.237152 288.212824,295 287.241632,295" id="Fill-69" fill="#DF5392"></path>
                <path d="M165.0608,304 L144.9392,304 C143.8664,304 143,303.103406 143,301.998762 C143,300.896594 143.8664,300 144.9392,300 L165.0608,300 C166.1336,300 167,300.896594 167,301.998762 C167,303.103406 166.1336,304 165.0608,304" id="Fill-70" fill="#E3E9FF"></path>
                <path d="M331.956387,304 L267.043613,304 C265.913492,304 265,303.13065 265,302.058204 L265,301.939319 C265,300.86935 265.913492,300 267.043613,300 L331.956387,300 C333.083898,300 334,300.86935 334,301.939319 L334,302.058204 C334,303.13065 333.083898,304 331.956387,304" id="Fill-71" fill="#E3E9FF"></path>
                <path d="M226.973116,304 L177.029395,304 C175.906698,304 175,303.103406 175,301.998762 C175,300.896594 175.906698,300 177.029395,300 L226.973116,300 C228.093302,300 229,300.896594 229,301.998762 C229,303.103406 228.093302,304 226.973116,304" id="Fill-72" fill="#E3E9FF"></path>
                <path d="M253.958737,304 L234.038737,304 C232.912,304 232,303.103406 232,301.998762 C232,300.896594 232.912,300 234.038737,300 L253.958737,300 C255.088,300 256,300.896594 256,301.998762 C256,303.103406 255.088,304 253.958737,304" id="Fill-73" fill="#E3E9FF"></path>
                <path d="M165.0608,313 L144.9392,313 C143.8664,313 143,312.103406 143,310.998762 C143,309.894118 143.8664,309 144.9392,309 L165.0608,309 C166.1336,309 167,309.894118 167,310.998762 C167,312.103406 166.1336,313 165.0608,313" id="Fill-74" fill="#E3E9FF"></path>
                <path d="M317.995869,313 L176.004131,313 C174.899389,313 174,312.143034 174,311.087926 L174,310.909598 C174,309.854489 174.899389,309 176.004131,309 L317.995869,309 C319.100611,309 320,309.854489 320,310.909598 L320,311.087926 C320,312.143034 319.100611,313 317.995869,313" id="Fill-75" fill="#E3E9FF"></path>
                <path d="M165.0608,344 L144.9392,344 C143.8664,344 143,343.105882 143,341.998762 C143,340.894118 143.8664,340 144.9392,340 L165.0608,340 C166.1336,340 167,340.894118 167,341.998762 C167,343.105882 166.1336,344 165.0608,344" id="Fill-76" fill="#E3E9FF"></path>
                <path d="M330.928426,344 L263.06901,344 C261.925542,344 261,343.105882 261,341.998762 C261,340.894118 261.925542,340 263.06901,340 L330.928426,340 C332.074458,340 333,340.894118 333,341.998762 C333,343.105882 332.074458,344 330.928426,344" id="Fill-77" fill="#E3E9FF"></path>
                <path d="M226.973116,344 L177.029395,344 C175.906698,344 175,343.105882 175,341.998762 C175,340.894118 175.906698,340 177.029395,340 L226.973116,340 C228.093302,340 229,340.894118 229,341.998762 C229,343.105882 228.093302,344 226.973116,344" id="Fill-78" fill="#E3E9F0"></path>
                <path d="M253.958737,344 L234.038737,344 C232.912,344 232,343.105882 232,341.998762 C232,340.894118 232.912,340 234.038737,340 L253.958737,340 C255.088,340 256,340.894118 256,341.998762 C256,343.105882 255.088,344 253.958737,344" id="Fill-79" fill="#E3E9FF"></path>
                <path d="M268.394691,355 L176.60787,355 C175.719445,355 175,354.30198 175,353.44802 L175,352.554455 C175,351.69802 175.719445,351 176.60787,351 L268.394691,351 C269.277995,351 270,351.69802 270,352.554455 L270,353.44802 C270,354.30198 269.277995,355 268.394691,355" id="Fill-80" fill="#FFC34A"></path>
                <path d="M325.022243,322 L262.97266,322 C261.884384,322 261,321.140025 261,320.079306 L261,319.920694 C261,318.859975 261.884384,318 262.97266,318 L325.022243,318 C326.115616,318 327,318.859975 327,319.920694 L327,320.079306 C327,321.140025 326.115616,322 325.022243,322" id="Fill-81" fill="#DF5392"></path>
                <path d="M226.973116,322 L177.029395,322 C175.906698,322 175,321.105328 175,320 C175,318.894672 175.906698,318 177.029395,318 L226.973116,318 C228.093302,318 229,318.894672 229,320 C229,321.105328 228.093302,322 226.973116,322" id="Fill-82" fill="#FFC34A"></path>
                <path d="M253.958737,322 L234.038737,322 C232.912,322 232,321.105328 232,320 C232,318.894672 232.912,318 234.038737,318 L253.958737,318 C255.088,318 256,318.894672 256,320 C256,321.105328 255.088,322 253.958737,322" id="Fill-83" fill="#FFC34A"></path>
                <path d="M355.442308,273 C352.987615,273 351,270.981926 351,268.49537 L351,138.50463 C351,136.0155 352.987615,134 355.442308,134 L445.557692,134 C448.012385,134 450,136.0155 450,138.50463 L450,268.49537 C450,270.981926 448.012385,273 445.557692,273 L355.442308,273 Z" id="Fill-84" fill="#E3E9F0"></path>
                <path d="M445.557692,131 L355.442308,131 C352.987615,131 351,133.15325 351,135.8125 L351,153 L450,153 L450,135.8125 C450,133.15325 448.012385,131 445.557692,131" id="Fill-85" fill="#60B5FF"></path>
                <path d="M425.218202,145 L359.779232,145 C358.244624,145 357,143.880941 357,142.501154 C357,141.119059 358.244624,140 359.779232,140 L425.218202,140 C426.75281,140 428,141.119059 428,142.501154 C428,143.880941 426.75281,145 425.218202,145" id="Fill-86" fill="#E3E9F0"></path>
                <polygon id="Fill-87" fill="#60B5FF" points="370 206 381 206 381 188 370 188"></polygon>
                <polygon id="Fill-88" fill="#60B5FF" points="387 208 398 208 398 174 387 174"></polygon>
                <polygon id="Fill-89" fill="#60B5FF" points="405 208 416 208 416 169 405 169"></polygon>
                <polygon id="Fill-90" fill="#60B5FF" points="421 209 432 209 432 168 421 168"></polygon>
                <path d="M407.459016,224 L396.540984,224 C394.586361,224 393,222.658 393,221 C393,219.342 394.586361,218 396.540984,218 L407.459016,218 C409.413639,218 411,219.342 411,221 C411,222.658 409.413639,224 407.459016,224" id="Fill-91" fill="#60B5FF"></path>
                <path d="M380.459016,248 L369.540984,248 C367.586361,248 366,246.658 366,245 C366,243.342 367.586361,242 369.540984,242 L380.459016,242 C382.413639,242 384,243.342 384,245 C384,246.658 382.413639,248 380.459016,248" id="Fill-92" fill="#FF00CF"></path>
                <path d="M407.459016,248 L396.540984,248 C394.586361,248 393,246.658 393,245 C393,243.342 394.586361,242 396.540984,242 L407.459016,242 C409.413639,242 411,243.342 411,245 C411,246.658 409.413639,248 407.459016,248" id="Fill-93" fill="#FFC34A"></path>
                <path d="M434.459016,248 L423.540984,248 C421.586361,248 420,246.658 420,245 C420,243.342 421.586361,242 423.540984,242 L434.459016,242 C436.413639,242 438,243.342 438,245 C438,246.658 436.413639,248 434.459016,248" id="Fill-94" fill="#FF00CF"></path>
                <path d="M402.4995,240 C402.3265,240 402.1875,239.615 402.1875,239.142 L402.1875,229.86075 C402.1875,229.385 402.3265,229 402.4995,229 C402.6725,229 402.8125,229.385 402.8125,229.86075 L402.8125,239.142 C402.8125,239.615 402.6725,240 402.4995,240" id="Fill-95" fill="#79ABD0"></path>
                <path d="M391,243.4995 C391,243.6715 390.612618,243.8125 390.136691,243.8125 L386.863309,243.8125 C386.384615,243.8125 386,243.6715 386,243.4995 C386,243.3275 386.384615,243.1875 386.863309,243.1875 L390.136691,243.1875 C390.612618,243.1875 391,243.3275 391,243.4995" id="Fill-96" fill="#79ABD0"></path>
                <path d="M417,243.4995 C417,243.6715 416.612832,243.8125 416.134403,243.8125 L412.865597,243.8125 C412.387168,243.8125 412,243.6715 412,243.4995 C412,243.3275 412.387168,243.1875 412.865597,243.1875 L416.134403,243.1875 C416.612832,243.1875 417,243.3275 417,243.4995" id="Fill-97" fill="#79ABD0"></path>
                <path d="M392.608184,354 L356.389133,354 C353.411563,354 351,351.652232 351,348.756652 L351,289.243348 C351,286.347768 353.411563,284 356.389133,284 L392.608184,284 C395.585754,284 398,286.347768 398,289.243348 L398,348.756652 C398,351.652232 395.585754,354 392.608184,354" id="Fill-98" fill="#60B5FF"></path>
                <path d="M391.449378,344 L357.550622,344 C356.142598,344 355,342.859255 355,341.453513 L355,290.543963 C355,289.138222 356.142598,288 357.550622,288 L391.449378,288 C392.857402,288 394,289.138222 394,290.543963 L394,341.453513 C394,342.859255 392.857402,344 391.449378,344" id="Fill-99" fill="#3F56FF"></path>
                <path d="M376.148997,350.896 L371.851003,350.896 C371.380372,350.896 371,350.718 371,350.5 C371,350.281 371.380372,350.104 371.851003,350.104 L376.148997,350.104 C376.617479,350.104 377,350.281 377,350.5 C377,350.718 376.617479,350.896 376.148997,350.896" id="Fill-100" fill="#49629E"></path>
                <path d="M447.568597,520.28777 L430.910398,520.28777 C428.006723,509.406013 423.500753,499.182977 417.665111,489.873401 L429.032911,477.666484 C434.845406,471.426649 434.4982,461.656484 428.263913,455.843788 L408.506574,437.425341 C402.272287,431.612646 392.506781,431.960018 386.696858,438.197279 L375.336774,450.393904 C367.934845,446.449299 360.041682,443.31523 351.765307,441.104913 L351.765307,424.438766 C351.765307,415.913994 344.85461,409 336.333904,409 L309.32895,409 C300.808244,409 293.897547,415.913994 293.897547,424.438766 L293.897547,441.104913 C283.020981,444.009974 272.80282,448.518094 263.497685,454.356521 L251.296589,442.980723 C245.05973,437.168028 235.294225,437.5154 229.484301,443.752662 L211.074638,463.519428 C207.821184,467.013735 206.568669,471.604195 207.129343,475.996524 C230.51049,480.152125 253.778473,489.580065 277.748585,512.954356 C288.355102,499.777369 304.604369,491.340084 322.831427,491.340084 C354.792434,491.340084 380.699187,517.259198 380.699187,549.235455 C380.699187,557.479756 378.965726,565.317503 375.85887,572.416762 C406.968577,575.501942 437.980553,566.254121 463,546.88619 L463,535.726535 C463,527.201763 456.089304,520.28777 447.568597,520.28777" id="Fill-101" fill="#FFCD00"></path>
                <path d="M247.611914,62.7636755 C239.884203,62.7636755 232.512917,61.2500131 225.766667,58.523365 C217.89432,66.2278806 209.897999,77.0445272 202.30201,92.1605916 C200.119552,96.5062674 198.027491,100.507579 196,104.210783 C203.113007,107.880579 210.654757,110.835947 218.555514,112.935543 L218.555514,129.580689 C218.555514,138.094719 225.495474,145 234.052261,145 L261.171567,145 C269.728354,145 276.668313,138.094719 276.668313,129.580689 L276.668313,112.935543 C287.590937,110.034143 297.852366,105.531704 307.196904,99.7006346 L319.449665,111.059527 C325.712933,116.864897 335.519791,116.520533 341.354316,110.291131 L359.841934,90.5492736 C365.676459,84.319872 365.327782,74.5620181 359.067097,68.7566476 L346.987383,57.5570882 C321.526229,56.1230923 302.527218,53.7099701 287.469546,47 C277.060898,56.7655635 263.046673,62.7636755 247.611914,62.7636755" id="Fill-102" fill="#60B5FF"></path>
                <path d="M449.197337,531.073319 C449.197337,508.711324 467.202871,490.584053 489.41469,490.584053 C494.369829,490.584053 499.096504,491.529646 503.483021,493.183155 C506.772909,485.495741 509.504328,477.327862 511.570662,468.689743 C512.525135,464.68503 513.322222,460.731429 514,456.808496 C512.525135,456.315254 511.03504,455.857792 509.524636,455.451443 L509.524636,443.797649 C509.524636,437.835302 504.721806,433 498.796962,433 L480.032418,433 C474.107574,433 469.304744,437.835302 469.304744,443.797649 L469.304744,455.451443 C461.747649,457.485745 454.644944,460.63687 448.179401,464.720809 L439.698294,456.76505 C435.365085,452.701556 428.577154,452.941788 424.53841,457.304294 L411.744403,471.12784 C407.708198,475.490345 407.946816,482.324171 412.280025,486.39022 L420.753516,494.335756 C418.014482,499.513517 415.838993,505.038846 414.300666,510.827408 L402.725135,510.827408 C396.80283,510.827408 392,515.66271 392,521.627612 L392,540.519025 C392,546.483928 396.80283,551.31923 402.725135,551.31923 L414.300666,551.31923 C415.856762,557.184462 418.088098,562.76346 420.877903,568 C432.928132,564.562642 444.4732,559.223876 455.117104,552.139596 C451.388057,545.998353 449.197337,538.799069 449.197337,531.073319" id="Fill-103" fill="#FF00A5"></path>
                <path d="M155,412 C155,449.002038 125.002038,479 88,479 C50.9979615,479 21,449.002038 21,412 C21,374.997962 50.9979615,345 88,345 C125.002038,345 155,374.997962 155,412" id="Fill-104" fill="#FF00CF"></path>
                <polyline id="Fill-105" fill="#FCFCFC" points="83 405.827315 57.1160412 415.498722 83 425.088341 83 435 46 420.648797 46 410.346091 83 396 83 405.827315"></polyline>
                <polyline id="Fill-106" fill="#FCFCFC" points="92 396 129 410.346091 129 420.648797 92 435 92 425.088341 117.883959 415.498722 92 405.827315 92 396"></polyline>
                <path d="M139,485 C139,489.418667 135.418667,493 131,493 C126.581333,493 123,489.418667 123,485 C123,480.581333 126.581333,477 131,477 C135.418667,477 139,480.581333 139,485" id="Fill-107" fill="#FF00CF"></path>
            </g>
        </g>
    </g>
</svg>