<?xml version="1.0" encoding="UTF-8"?>
<svg width="1273px" height="820px" viewBox="0 0 1273 820" version="1.1" xmlns="http://www.w3.org/2000/svg" xmlns:xlink="http://www.w3.org/1999/xlink">
    <!-- Generator: Sketch 54.1 (76490) - https://sketchapp.com -->
    <title>php</title>
    <desc>Created with Sketch.</desc>
    <g id="php" stroke="none" stroke-width="1" fill="none" fill-rule="evenodd">
        <g transform="translate(256.000000, 46.000000)" fill-rule="nonzero">
            <path d="M652.607523,273.006293 C613.019611,117.153614 476.230917,4.64976686 315.670582,0.137338279 C230.787144,-2.24826833 141.466074,25.937082 76.433753,124.567842 C-39.8185415,300.88099 83.5777333,422.718794 169.606352,480.613683 C211.168604,508.640343 248.618511,542.339985 280.871359,580.736521 C338.980896,649.774335 450.770379,735.56352 583.90661,601.14506 C680.403918,503.718394 678.976981,376.819558 652.607523,273.006293 Z" id="Path" fill="#F2F2F2"></path>
            <path d="M760,619.967955 C760,658.08904 593.197519,729 383.085847,729 C172.974175,729 0,662.485493 0,624.364408 C0,586.243323 172.974175,590.951362 383.085847,590.951362 C593.197519,590.951362 760,581.846878 760,619.967955 Z" id="Path" fill="#3F3D56"></path>
            <path d="M760,619.967955 C760,658.08904 593.197519,729 383.085847,729 C172.974175,729 0,662.485493 0,624.364408 C0,586.243323 172.974175,590.951362 383.085847,590.951362 C593.197519,590.951362 760,581.846878 760,619.967955 Z" id="Path" fill="#000000" opacity="0.1"></path>
            <ellipse id="Oval" fill="#3F3D56" cx="380.5" cy="624" rx="380.5" ry="69"></ellipse>
            <polygon id="Path" fill="#2F2E41" points="524 388 524 572.793524 554.970829 623.168472 557.328235 627 679.53147 627 682 388"></polygon>
            <polygon id="Path" fill="#000000" opacity="0.1" points="524 388 524 573.446932 555.091999 624 557 388"></polygon>
            <polygon id="Path" fill="#2F2E41" points="230 383 230 567.793524 199.029344 618.168472 196.671951 622 74.4685157 622 72 383"></polygon>
            <polygon id="Path" fill="#000000" opacity="0.1" points="229 383 229 568.446932 197.908835 619 196 383"></polygon>
            <polygon id="Path" fill="#2F2E41" points="720 379.922671 720 391 56 391 56 375 117.709673 343 665.694853 343"></polygon>
            <polygon id="Path" fill="#000000" opacity="0.1" points="720 379.922671 720 391 56 391 56 375"></polygon>
            <polygon id="Path" fill="#000000" opacity="0.1" points="150.310973 435 120.444247 435 108 426 164 426"></polygon>
            <polygon id="Path" fill="#000000" opacity="0.1" points="150.310973 471 120.444247 471 108 462 164 462"></polygon>
            <polygon id="Path" fill="#000000" opacity="0.1" points="150.310973 521 120.444247 521 108 512 164 512"></polygon>
            <polygon id="Path" fill="#000000" opacity="0.1" points="150.310973 572 120.444247 572 108 563 164 563"></polygon>
            <polygon id="Path" fill="#000000" opacity="0.1" points="603.689027 440 633.555753 440 646 431 590 431"></polygon>
            <polygon id="Path" fill="#000000" opacity="0.1" points="603.689027 476 633.555753 476 646 467 590 467"></polygon>
            <polygon id="Path" fill="#000000" opacity="0.1" points="603.689027 526 633.555753 526 646 517 590 517"></polygon>
            <polygon id="Path" fill="#000000" opacity="0.1" points="603.689027 577 633.555753 577 646 568 590 568"></polygon>
            <path d="M469.127019,311.579612 L465.033113,337.801977 C465.033113,337.801977 444.878686,348.54365 459.049775,348.859585 C473.220863,349.175519 539.982389,348.859585 539.982389,348.859585 C539.982389,348.859585 552.893814,348.859585 532.424515,337.486042 L528.330645,310 L469.127019,311.579612 Z" id="Path" fill="#3F3D56"></path>
            <path d="M456.194807,348.938389 C458.947317,346.742813 461.905517,344.810877 465.029335,343.168751 L469.1234,317.379199 L528.329829,317.434148 L532.423894,342.858022 C535.787826,344.570997 538.958966,346.629744 541.884539,349 C544.513662,348.408158 547.386816,346.208753 532.423894,338.032389 L528.329829,311 L469.1234,312.553592 L465.029309,338.343118 C465.029309,338.343118 448.092898,347.221403 456.194807,348.938389 Z" id="Path" fill="#000000" opacity="0.1"></path>
            <rect id="Rectangle" fill="#3F3D56" x="365" y="128" width="268" height="187" rx="10.6948"></rect>
            <rect id="Rectangle" fill="#F2F2F2" x="374" y="138" width="250" height="140"></rect>
            <circle id="Oval" fill="#F2F2F2" cx="498.5" cy="133.5" r="1.5"></circle>
            <path d="M633,289 L633,305.499612 C633.000315,308.019367 632.007669,310.436012 630.240498,312.217749 C628.473326,313.999486 626.076437,315.000316 623.577278,315 L374.422722,315 C371.923563,315.000316 369.526674,313.999486 367.759502,312.217749 C365.992331,310.436012 364.999685,308.019367 365,305.499612 L365,289 L633,289 Z" id="Path" fill="#3F3D56"></path>
            <circle id="Oval" fill="#F2F2F2" cx="499" cy="302" r="6"></circle>
            <polygon id="Path" fill="#3F3D56" points="490 365.955932 490 369 319 369 319 366.565254 319.235423 365.955932 323.450018 355 486.504063 355"></polygon>
            <path d="M554.947064,363.046542 C554.635971,364.390744 553.46142,365.808807 550.80758,367.149793 C541.284194,371.962041 521.919999,365.866534 521.919999,365.866534 C521.919999,365.866534 507,363.300014 507,356.56285 C507.418928,356.272937 507.855778,356.010407 508.307875,355.776868 C512.311772,353.636106 525.587381,348.353613 549.126443,356.000538 C550.860584,356.550655 552.409561,357.576513 553.600825,358.963837 C554.671436,360.02782 555.172111,361.546206 554.947064,363.046542 L554.947064,363.046542 Z" id="Path" fill="#3F3D56"></path>
            <path d="M555.94671,362.837009 C544.213238,367.265301 533.754723,367.595748 523.021385,360.253075 C517.608395,356.551836 512.690676,355.635958 509,355.705227 C513.0303,353.605072 526.393453,348.422778 550.087742,355.924655 C551.833318,356.464337 553.39251,357.470736 554.59163,358.831745 C555.669287,359.875553 556.17325,361.365137 555.94671,362.837009 L555.94671,362.837009 Z" id="Path" fill="#000000" opacity="0.1"></path>
            <ellipse id="Oval" fill="#F2F2F2" cx="541.5" cy="358.5" rx="4.5" ry="1.5"></ellipse>
            <polygon id="Path" fill="#000000" opacity="0.1" points="490 366 490 369 319 369 319 366.600501 319.235423 366"></polygon>
            <circle id="Oval" fill="#FFB9B9" cx="347.5" cy="136.5" r="33.5"></circle>
            <path d="M323,155.384609 L323,208 L378,208 C378,208 370.903227,164.153845 374.451583,151 L323,155.384609 Z" id="Path" fill="#FFB9B9"></path>
            <g transform="translate(408.000000, 162.000000)">
                <ellipse id="Oval" fill="#6C63FF" cx="89" cy="46.5" rx="89" ry="46.5"></ellipse>
                <path d="M25.5544554,73.5142857 L35.3105508,24.2784206 L57.8696088,24.2784206 C67.6250087,24.8864677 72.5030563,29.7487642 72.5030563,38.259343 C72.5030563,52.847619 60.9185624,61.3575045 50.5525372,60.7494575 L39.5786687,60.7494575 L37.1396448,73.5142857 L25.5544554,73.5142857 Z M42.016997,51.6322183 L42.0176925,51.6322183 L49.3340685,51.6322183 C54.8213506,51.0241712 59.6993983,49.2007234 60.3086326,38.8666967 C60.3086326,35.219801 57.2603744,33.3963532 52.9922566,33.3963532 L45.0659507,33.3963532 L42.016997,51.6322183 Z M70.2365098,60.7494575 L79.9919097,11.5142857 L91.577099,11.5142857 L89.1380752,24.2784206 L100.112639,24.2784206 C109.868735,24.8864677 113.526923,29.7487642 112.307758,35.8278481 L108.039641,60.7494575 L95.8452169,60.7494575 L100.113335,38.259343 C100.722569,35.219801 100.722569,33.3963532 96.4551467,33.3963532 L87.3089812,33.3963532 L81.8216992,60.7494575 L70.2365098,60.7494575 L70.2365098,60.7494575 Z M107.258624,73.5142857 L117.014024,24.2784206 L139.573778,24.2784206 C149.329873,24.8864677 154.207921,29.7487642 154.207921,38.259343 C154.207921,52.847619 142.622731,61.3575045 132.257402,60.7494575 L121.282142,60.7494575 L118.843118,73.5142857 L107.258624,73.5142857 Z M123.720471,51.6322183 L123.721166,51.6322183 L131.038238,51.6322183 C136.52552,51.0241712 141.403567,49.2007234 142.012802,38.8666967 C142.012802,35.219801 138.964543,33.3963532 134.696426,33.3963532 L126.769424,33.3963532 L123.720471,51.6322183 Z" id="Shape" fill="#F2F2F2"></path>
            </g>
            <path d="M432.262443,226.081432 C432.262443,226.081432 379.936647,200.353132 379.936647,198.578769 C379.936647,196.804406 374.615387,185.271029 371.067872,185.271029 C367.520357,185.271029 337.36651,175.512014 320.515847,189.706936 L318.742076,201.240314 L254,243.825089 L271.737557,308.589438 C271.737557,308.589438 283.266961,321.009997 279.719455,329.88183 C276.171949,338.753663 282.380085,384 282.380085,384 L421.619906,379.564092 L421.619906,319.235634 C421.619906,319.235634 426.054298,305.040703 428.714936,300.604795 C431.375575,296.168887 428.714936,282.861138 428.714936,282.861138 L450,256.245648 C450,256.245648 447.33937,231.40453 432.262443,226.081432 Z" id="Path" fill="#D0CDE1"></path>
            <path d="M255.766649,265.742556 L259.792576,244 C259.792576,244 236.531654,344.282128 239.215603,355.819015 C241.899551,367.355901 261.581874,385.104956 264.265823,385.992408 C266.949771,386.879859 292,309.671469 292,309.671469 L255.766649,265.742556 Z" id="Path" fill="#000000" opacity="0.1"></path>
            <path d="M269.001634,241 L253.792576,243.668568 C253.792576,243.668568 230.531654,344.184768 233.215603,355.748579 C235.899551,367.31239 255.581874,385.102867 258.265823,385.99239 C260.949771,386.881913 286,309.493335 286,309.493335 L269.001634,241 Z" id="Path" fill="#D0CDE1"></path>
            <path d="M436.444423,270.707135 L443.999984,256 C443.999984,256 454.666657,356.721594 447.555571,366.526398 C440.444485,376.331202 412.31504,380 412.31504,380 L412,306.806516 L436.444423,270.707135 Z" id="Path" fill="#000000" opacity="0.1"></path>
            <path d="M438.444423,244 L449.999984,255.537237 C449.999984,255.537237 460.666657,355.822449 453.555571,365.584773 C446.444485,375.347097 418.31504,379 418.31504,379 L418,306.123631 L438.444423,244 Z" id="Path" fill="#D0CDE1"></path>
            <path d="M266.061058,397.551788 C266.061058,397.551788 240.266115,387.803328 235.818718,406.414018 C231.371322,425.024707 246.492479,508.329704 246.492479,508.329704 C246.492479,508.329704 256.276768,571.251557 262.503132,573.02401 C268.729496,574.796463 296.303398,575.682676 300.750795,567.706669 C305.198191,559.730662 287.408588,478.19811 287.408588,478.19811 L390.588327,476.425648 C390.588327,476.425648 384.361963,547.323509 380.804046,553.527072 C377.246129,559.730635 377.246093,581 380.804046,581 C384.361998,581 423.499114,579.227538 426.167551,573.910215 C428.835989,568.592891 443.957164,448.95272 443.957164,448.95272 C443.957164,448.95272 456.409891,407.300222 442.178187,409.958897 C427.946483,412.617572 266.061058,397.551788 266.061058,397.551788 Z" id="Path" fill="#3F3D56"></path>
            <path d="M417.739437,570.713994 C417.739437,570.713994 426.64698,564.607507 431.100756,570.713994 C435.554532,576.820481 437.336039,583.799321 417.739437,594.267586 C398.142835,604.735851 383,602.118789 383,600.374073 L383,575.075773 L417.739437,570.713994 Z" id="Path" fill="#2F2E41"></path>
            <path d="M264.260566,567.713997 C264.260566,567.713997 255.353024,561.607504 250.899248,567.713997 C246.445472,573.82049 244.663948,580.799339 264.260566,591.267589 C283.857184,601.73584 299,599.118792 299,597.374082 L299,572.07578 L264.260566,567.713997 Z" id="Path" fill="#2F2E41"></path>
            <path d="M347.294677,95.0170634 C343.940103,94.90127 340.591333,95.3755295 337.4029,96.4179569 C334.930455,97.4054952 332.568665,98.6471105 330.356024,100.122566 L315.487478,109.309665 C312.906227,110.419649 311.250471,112.963617 311.290532,115.758017 L309.432552,129.583756 C308.963672,133.072822 308.531468,136.80409 310.103362,139.958656 C311.415395,142.591622 313.917415,144.393372 315.974771,146.503602 C319.26713,149.894755 321.483111,154.173092 322.346918,158.806139 C323.410589,164.57863 322.729618,171.530041 327.327069,175.213887 C329.816409,177.208519 333.209467,177.585822 336.401898,177.771258 C345.131687,178.277689 353.890321,177.942727 362.555107,176.771064 C363.9327,176.668564 365.275972,176.294579 366.506598,175.670915 C368.06959,174.752327 369.053597,173.130807 369.973288,171.574969 C373.293532,165.95807 376.715728,159.98288 376.679678,153.468881 C376.661838,150.246297 375.831981,146.785256 377.389232,143.958393 C378.212168,142.756886 379.105292,141.604354 380.064009,140.506731 C381.992108,137.814723 382.367455,134.35586 382.681682,131.066326 C383.685326,120.559397 382.636096,112.563668 374.842735,105.162386 C367.567733,98.2534099 357.216304,95.0806545 347.294677,95.0170634 Z" id="Path" fill="#2F2E41"></path>
            <polygon id="Path" fill="#2F2E41" points="265.485639 502 236 652 250.742381 652 279 504.459664"></polygon>
            <polygon id="Path" fill="#2F2E41" points="360 514.917081 378.600354 687 391 687 379.839787 510"></polygon>
            <polygon id="Path" fill="#2F2E41" points="411 510.462926 436.742048 625 449 625 424.484097 508"></polygon>
            <polygon id="Path" fill="#2F2E41" points="312.642919 510 309 601 318.714162 601 326 510"></polygon>
            <path d="M245.40495,485.879302 C245.40495,485.879302 225.69012,354.327631 281.138163,350.639271 C336.586205,346.950911 415.445754,350.639271 415.445754,350.639271 C415.445754,350.639271 461.036408,346.950902 447.482431,485.879302 C447.482431,485.879302 459.804226,526.451309 348.908053,522.76294 C238.01188,519.074571 245.40495,485.879302 245.40495,485.879302 Z" id="Path" fill="#6C63FF"></path>
            <path d="M750,540.077443 C750,562.997262 736.344685,571 719.5,571 C702.655315,571 689,562.997262 689,540.077443 C689,517.157624 719.5,488 719.5,488 C719.5,488 750,517.157624 750,540.077443 Z" id="Path" fill="#6C63FF"></path>
            <polygon id="Path" fill="#3F3D56" points="718.782677 548.262472 732 524.551569 718.831866 545.255531 718.974959 536.638088 728.084618 519.483001 719.012521 534.357232 719.269194 518.85776 729.02456 505.200687 719.309439 516.420814 719.470418 488 718.505435 524.012266 708.626651 509.186265 718.385594 527.050777 717.46175 544.361078 717.434026 543.901574 706 528.237242 717.399147 545.524744 717.283778 547.689847 717.263209 547.722293 717.273046 547.900306 714.92811 571 718.060952 571 718.436571 569.133925 729.807994 551.887639 718.464296 567.428325"></polygon>
            <polygon id="Path" fill="#2F2E41" points="739.523201 622 702.554135 622 693 568 747 568"></polygon>
            <rect id="Rectangle" fill="#3F3D56" x="118" y="262" width="116" height="89"></rect>
            <rect id="Rectangle" fill="#F2F2F2" x="136" y="275" width="80" height="61"></rect>
            <path d="M213.69914,304.829456 C213.164267,304.298233 206.300041,295.71016 205.14115,294.293572 C203.893105,292.876991 203.358232,293.142591 202.555919,293.231129 C201.753606,293.319668 193.106471,294.824792 192.125866,294.913327 C191.145264,295.090401 190.521243,295.44455 191.145264,296.329908 C191.680137,297.126737 197.385463,305.095055 198.633504,306.954327 L175.901336,312.355072 L157.893891,282.341087 C157.180726,281.278644 157.002434,280.924506 155.397811,281.013021 C153.793188,281.101535 141.223636,282.163999 140.332178,282.163999 C139.440721,282.252537 138.460116,282.606683 139.351573,284.731568 C140.243031,286.856453 154.506353,317.313126 154.862934,318.198494 C155.219515,319.083862 156.289258,320.50045 158.696201,319.96923 C161.192284,319.349472 169.750296,317.136069 174.475002,315.896538 C176.971082,320.323379 181.963246,329.354136 182.943851,330.682188 C184.191893,332.452925 185.08335,332.098769 186.95541,331.567556 C188.470888,331.124872 210.311599,323.333632 211.292201,322.890948 C212.272803,322.448264 212.896827,322.182654 212.183658,321.208747 C211.648785,320.500453 205.943456,312.797745 202.912496,308.813578 C204.962854,308.282358 212.361947,306.334547 213.16426,306.068931 C214.055718,305.803321 214.234006,305.360637 213.699133,304.829414 L213.69914,304.829456 Z M173.124823,314.48027 C172.859133,314.570981 160.194549,317.65522 159.574604,317.836646 C158.866096,318.018072 158.866096,317.927358 158.866096,317.65522 C158.688969,317.383083 143.8103,285.815039 143.54461,285.452186 C143.367483,285.089334 143.367483,284.726485 143.54461,284.726485 C143.721738,284.726485 155.50068,283.637931 155.854932,283.637931 C156.29775,283.637931 156.209188,283.728642 156.386315,284.00078 C156.386315,284.00078 172.947702,313.301002 173.213382,313.754565 C173.567637,314.208129 173.390509,314.389555 173.124819,314.480267 L173.124823,314.48027 Z M207.623429,320.919388 C207.801295,321.28114 208.068099,321.462013 207.356624,321.642889 C206.734089,321.914202 185.92352,329.058785 185.478849,329.239658 C185.034179,329.42053 184.767378,329.51097 184.233772,328.697033 C183.700165,327.883095 176.941176,316.035734 176.941176,316.035734 L199.085753,310.15728 C199.619356,309.976404 199.797228,309.885968 200.152958,310.428593 C200.508696,311.061658 207.44555,320.648061 207.623422,320.919377 L207.623429,320.919388 Z M209.732472,305.047572 C209.18027,305.144726 200.805194,307.37931 200.805194,307.37931 L193.90266,297.469412 C193.718592,297.177945 193.534523,296.886474 193.994692,296.78932 C194.454861,296.692166 202.277733,295.234835 202.645862,295.13767 C203.013992,295.040504 203.290096,294.943357 203.750265,295.623449 C204.210434,296.206383 210.100601,304.173164 210.376698,304.464631 C210.652795,304.756098 210.284666,304.950414 209.732464,305.047568 L209.732472,305.047572 Z" id="Shape" fill="#FB503B"></path>
        </g>
    </g>
</svg>