<?xml version="1.0" encoding="UTF-8"?>
<svg width="1078px" height="814px" viewBox="0 0 1078 814" version="1.1" xmlns="http://www.w3.org/2000/svg" xmlns:xlink="http://www.w3.org/1999/xlink">
    <!-- Generator: Sketch 52.2 (67145) - http://www.bohemiancoding.com/sketch -->
    <title>team</title>
    <desc>Created with Sketch.</desc>
    <defs>
        <linearGradient x1="50.0013725%" y1="100.018923%" x2="50.0013725%" y2="-0.00323137178%" id="linearGradient-1">
            <stop stop-color="#808080" stop-opacity="0.25" offset="0%"></stop>
            <stop stop-color="#808080" stop-opacity="0.12" offset="54%"></stop>
            <stop stop-color="#808080" stop-opacity="0.1" offset="100%"></stop>
        </linearGradient>
        <linearGradient x1="49.979976%" y1="99.9832306%" x2="49.979976%" y2="0.00138950177%" id="linearGradient-2">
            <stop stop-color="#808080" stop-opacity="0.25" offset="0%"></stop>
            <stop stop-color="#808080" stop-opacity="0.12" offset="54%"></stop>
            <stop stop-color="#808080" stop-opacity="0.1" offset="100%"></stop>
        </linearGradient>
    </defs>
    <g id="Page-1" stroke="none" stroke-width="1" fill="none" fill-rule="evenodd">
        <g id="team">
            <path d="M663.83,111.35 C617.58,150.61 557.59,148.07 505.02,127.64 C452.45,107.21 404.16,70.85 352.94,45 C310,23.33 264.94,9.1 219.33,2.77 C154.05,-6.29 81.15,4.77 35.67,68.21 C-14.98,138.89 -11.09,266.37 43.67,331.21 C71.54,364.21 108.03,380.41 139.85,406.21 C171.67,432.01 201.14,474.77 198.43,524.51 C195.92,570.51 166.75,605.88 136.56,628.05 C113.23,645.18 84.5,663.89 81.69,699.38 C78.97,733.71 103.13,760.62 126.2,775.92 C201.46,825.83 294.2,825.35 369.2,774.66 C395.94,756.57 420.5,732.51 448.55,718.43 C522.2,681.43 603.36,718.67 681.35,732.3 C747.35,743.83 815.04,737.85 879.35,714.82 C917.97,700.99 956.74,679.82 983.87,640.46 C1003.44,612.06 1015.63,576.11 1027.07,540.61 C1039.27,502.763333 1051,464.643333 1062.26,426.25 C1069.01,403.2 1075.66,379.71 1077.41,355.06 C1080.57,310.38 1067.25,266.21 1049.11,228.51 C1006.04,138.98 933.5,76.03 854.94,60.04 C776.38,44.05 693.27,75.28 632.34,143.62" id="Path" fill="#6C63FF" opacity="0.1"></path>
            <ellipse id="Oval" fill="#6C63FF" opacity="0.1" cx="489.56" cy="532.53" rx="226.98" ry="10.36"></ellipse>
            <path d="M481.94,489.75 C368.47,489.75 276.16,397.44 276.16,283.97 C276.16,170.5 368.44,78.19 481.94,78.19 C595.44,78.19 687.69,170.51 687.69,283.97 C687.69,397.43 595.37,489.75 481.94,489.75 Z M481.94,80.19 C369.57,80.19 278.16,171.61 278.16,283.97 C278.16,396.33 369.54,487.75 481.94,487.75 C594.34,487.75 685.72,396.33 685.72,283.97 C685.72,171.61 594.27,80.19 481.94,80.19 Z" id="Shape" fill="#FFFFFF" fill-rule="nonzero"></path>
            <path d="M481.94,443.57 C393.94,443.57 322.33,371.97 322.33,283.97 C322.33,195.97 393.94,124.37 481.94,124.37 C569.94,124.37 641.54,195.97 641.54,283.97 C641.54,371.97 569.94,443.57 481.94,443.57 Z M481.94,126.37 C395.03,126.37 324.33,197.07 324.33,283.97 C324.33,370.87 395.03,441.57 481.94,441.57 C568.85,441.57 639.54,370.87 639.54,283.97 C639.54,197.07 568.81,126.37 481.94,126.37 Z" id="Shape" fill="#FFFFFF" fill-rule="nonzero"></path>
            <path d="M481.94,393.97 C421.188678,393.97 371.94,344.721322 371.94,283.97 C371.94,223.218678 421.188678,173.97 481.94,173.97 C542.691322,173.97 591.94,223.218678 591.94,283.97 C591.868365,344.691626 542.661626,393.898365 481.94,393.97 Z M481.94,175.97 C422.293247,175.97 373.94,224.323247 373.94,283.97 C373.94,343.616753 422.293247,391.97 481.94,391.97 C541.586753,391.97 589.94,343.616753 589.94,283.97 C589.868368,224.352943 541.557057,176.041632 481.94,175.97 Z" id="Shape" fill="#FFFFFF" fill-rule="nonzero"></path>
            <ellipse id="Oval" fill="#6C63FF" opacity="0.1" cx="979.99" cy="403.16" rx="14.27" ry="4.72"></ellipse>
            <ellipse id="Oval" fill="#6C63FF" opacity="0.1" cx="178.55" cy="651.82" rx="84.04" ry="13.79"></ellipse>
            <g id="Group" opacity="0.1" transform="translate(56.000000, 269.000000)" fill="#000000">
                <path d="M269.87,0.72 L13.48,0.72 C6.08850207,0.741965964 0.101965964,6.72850207 0.08,14.12 L0.08,176.12 C0.101965964,183.511498 6.08850207,189.498034 13.48,189.52 L214.61,189.52 C214.61,189.52 219.82,217.18 202.7,220.16 C202.7,220.16 241.04,222.91 234.34,189.52 L269.87,189.52 C277.261498,189.498034 283.248034,183.511498 283.27,176.12 L283.27,14.12 C283.248034,6.72850207 277.261498,0.741965964 269.87,0.72 Z" id="Path"></path>
                <g opacity="0.2" transform="translate(37.000000, 43.000000)" id="Rectangle">
                    <rect x="0.82" y="0.72" width="207.7" height="12.66" rx="5.67"></rect>
                    <rect x="0.82" y="57.3" width="207.7" height="12.66" rx="5.67"></rect>
                    <rect x="0.82" y="85.58" width="174.18" height="12.66" rx="5.67"></rect>
                    <rect x="0.82" y="29.01" width="90.06" height="12.66" rx="5.67"></rect>
                </g>
            </g>
            <path d="M328.11,268.6 L71.71,268.6 C64.3185021,268.621966 58.331966,274.608502 58.31,282 L58.31,444 C58.331966,451.391498 64.3185021,457.378034 71.71,457.4 L272.84,457.4 C272.84,457.4 278.06,485.06 260.93,488.03 C260.93,488.03 299.27,490.78 292.57,457.4 L328.11,457.4 C335.499866,457.378008 341.483525,451.38988 341.5,444 L341.5,282 C341.483525,274.61012 335.499866,268.621992 328.11,268.6 Z" id="Path" fill="#FFFFFF"></path>
            <g id="Group" opacity="0.2" transform="translate(96.000000, 311.000000)" fill="#6C63FF">
                <rect id="Rectangle" x="0.06" y="0.6" width="207.7" height="12.66" rx="5.67"></rect>
                <rect id="Rectangle" x="0.06" y="57.18" width="207.7" height="12.66" rx="5.67"></rect>
                <rect id="Rectangle" x="0.06" y="85.47" width="174.18" height="12.66" rx="5.67"></rect>
                <rect id="Rectangle" x="0.06" y="28.89" width="90.06" height="12.66" rx="5.67"></rect>
            </g>
            <path d="M232.94,266.03 L218.73,296.25 C218.73,296.25 216.63,301.92 215.28,302.97 C213.93,304.02 207.96,321.97 207.96,321.97 L192.73,345.51 L191.73,347.11 L185.73,345.46 L181.54,329.79 L181.8,325.24 L181.8,324.67 C181.8,324.67 191.23,314.81 193.32,314.06 C193.32,314.06 194.96,314.25 198.11,306.61 C201.26,298.97 204.11,297.31 204.11,297.31 L205.75,291.77 L223.41,263.66 C223.41,263.66 238.21,242.43 242.24,251.85 C246.27,261.27 232.94,266.03 232.94,266.03 Z" id="Path" fill="#FFD2C6"></path>
            <path d="M173.94,480.68 C173.89204,481.193482 173.727898,481.689325 173.46,482.13 C171.82,484.52 162.55,533.42 162.55,533.42 C163.29,536.72 161.21,543.3 159.85,546.29 C158.49,549.28 155.51,564.83 155.51,564.83 C155.51,564.83 154.77,598.33 152.83,603.56 C150.89,608.79 153.45,620.01 153.45,620.01 C153.26,625.17 156.36,630.62 158.2,633.4 C158.34,633.58 158.45,633.76 158.56,633.91 C159.16,634.77 159.56,635.26 159.56,635.26 C160.06196,636.263808 160.774895,637.147301 161.65,637.85 C161.78,637.96 161.92,638.06 162.07,638.17 C164.609858,639.877614 167.455113,641.079547 170.45,641.71 L170.74,641.77 C171.94,642.04 172.74,642.14 172.74,642.14 L173.48,646.14 L165.56,647.78 L150.46,648.78 C150.46,648.78 132.66,650.13 136.7,642.2 C136.983963,641.658545 137.227947,641.097047 137.43,640.52 C137.58,640.14 137.72,639.74 137.84,639.34 C140.27,631.72 138.63,622.46 138.63,622.46 L135.15,595.51 C129.48,570.39 139.63,542.42 139.63,542.42 C139.63,542.42 138.74,540.18 140.69,534.5 C142.64,528.82 140.69,516.41 140.69,516.41 C140.69,516.41 139.69,500.41 138.3,492.48 C137.769481,489.151333 137.588497,485.776313 137.76,482.41 C137.82392,480.434432 138.004232,478.464348 138.3,476.51 L172.4,471.99 C172.4,471.99 174.32,477.51 173.94,480.68 Z" id="Path" fill="#FFD2C6"></path>
            <path d="M173.44,646.19 L165.52,647.83 L150.42,648.83 C150.42,648.83 132.62,650.18 136.66,642.25 C136.943963,641.708545 137.187947,641.147047 137.39,640.57 C137.54,640.19 137.68,639.79 137.8,639.39 C140.88104,639.485904 143.923787,640.101215 146.8,641.21 C151.87,643.21 155.69,638.06 155.69,638.06 L158.15,633.36 L158.51,632.68 C159.11,633.54 159.51,634.03 159.51,634.03 C160.099141,635.185891 160.960562,636.181159 162.02,636.93 L161.6,637.81 L159.21,642.81 C159.21,642.81 162.27,643.12 166.46,643.81 C168.14036,644.265516 169.880311,643.311635 170.4,641.65 L170.69,641.71 C171.89,641.98 172.69,642.08 172.69,642.08 L173.44,646.19 Z" id="Path" fill="#000000" opacity="0.1"></path>
            <path d="M180.77,649.92 C180.17,652.61 163.5,653.44 163.5,653.44 C163.5,653.44 154.22,652.54 151.62,654.71 C149.02,656.88 141.36,656.36 141.06,656.36 C140.76,656.36 136.73,656.2 135.15,648.96 C133.62,641.9 137.21,640.67 137.39,640.61 C140.617162,640.654234 143.810541,641.273946 146.82,642.44 C151.89,644.44 155.71,639.3 155.71,639.3 L158.53,633.91 C159.13,634.77 159.53,635.26 159.53,635.26 C160.114389,636.421813 160.976563,637.421386 162.04,638.17 L159.23,644.08 C159.23,644.08 162.29,644.39 166.48,645.08 C169.83,645.62 170.56,642.89 170.71,641.79 C170.719937,641.640165 170.719937,641.489835 170.71,641.34 C170.71,641.34 173.32,642.09 176.53,642.99 C179.530142,643.84628 181.373396,646.858958 180.77,649.92 Z" id="Path" fill="#626696"></path>
            <path d="M212.18,516.32 C211.78,518.71 211.37,524.9 211.37,524.9 C212.77,530.08 209.18,542.39 209.18,542.39 L207.39,549.39 C208.19,558.39 202.46,580.3 202.46,580.3 C202.46,580.3 198.62,600.64 196.62,609.42 C195.42651,614.292258 195.775942,619.414942 197.62,624.08 C197.72,624.32 197.78,624.44 197.78,624.44 C197.78,624.61 197.85,624.77 197.9,624.93 C197.95,625.09 198.03,625.41 198.11,625.64 C198.568848,626.865289 199.246522,627.997005 200.11,628.98 C200.438312,629.373219 200.796007,629.740943 201.18,630.08 L201.24,630.14 C203.117468,631.801951 205.269488,633.124969 207.6,634.05 L208.6,634.45 C209.637421,634.841526 210.695704,635.175369 211.77,635.45 C211.88841,635.483376 212.008599,635.510085 212.13,635.53 L211.32,640.23 L200.76,637.53 L186.61,632.94 L179.61,628.94 C179.61,628.94 179.69,628.56 179.83,627.83 C179.83,627.83 179.83,627.75 179.83,627.71 C179.89,627.4 179.95,627.03 180.04,626.61 C181.23,620.51 183.94,603.21 182.58,590.51 C180.89,574.76 187.45,553.02 189.05,547.84 C189.997547,544.880224 190.404041,541.773932 190.25,538.67 C187.65,534.87 187.05,519.73 187.05,519.73 C187.05,519.73 182.27,509.95 178.31,499.58 C177.00364,496.193476 176.048627,492.681709 175.46,489.1 C174.998869,486.574034 174.804468,484.006601 174.88,481.44 C174.88,481.44 207,452.13 210.52,480.51 C210.64,481.51 210.75,482.39 210.86,483.29 C213.94,509.23 212.56,514.01 212.18,516.32 Z" id="Path" fill="#FFD2C6"></path>
            <path d="M212.18,635.56 L211.37,640.26 L200.81,637.56 L186.66,632.97 L179.66,628.97 C179.66,628.97 179.74,628.59 179.88,627.86 C179.88,627.86 179.88,627.78 179.88,627.74 C179.94,627.43 180,627.06 180.09,626.64 L181.09,626.54 L181.17,626.54 C183.181758,626.353483 185.209587,626.627051 187.1,627.34 C189.4,628.21 192.42,629.2 193.04,628.78 C194.108818,628.321947 195.268894,628.116624 196.43,628.18 L197.9,624.96 L198.11,624.47 C198.566409,625.696462 199.244337,626.8286 200.11,627.81 C200.458414,628.223217 200.836052,628.610881 201.24,628.97 L201.18,630.11 L201.1,631.72 C202.678411,632.731024 204.387548,633.521668 206.18,634.07 C206.646223,634.186025 207.133777,634.186025 207.6,634.07 L208.6,634.47 C209.637421,634.861526 210.695704,635.195369 211.77,635.47 C211.904612,635.508697 212.041557,635.538758 212.18,635.56 Z" id="Path" fill="#000000" opacity="0.1"></path>
            <path d="M206.94,645.59 C203.99,644.74 196.88,643.39 195.73,644.44 C194.58,645.49 184.73,644.44 184.73,644.44 C182.624426,644.40255 180.69262,643.263961 179.64,641.44 C177.64,638.25 179.25,627.93 179.25,627.93 L179.98,627.86 L181.2,627.74 L181.28,627.74 C183.291866,627.548142 185.320898,627.821874 187.21,628.54 C189.51,629.4 192.53,630.39 193.15,629.98 C194.217334,629.516995 195.378588,629.311464 196.54,629.38 L198.22,625.67 C198.678848,626.895289 199.356522,628.027005 200.22,629.01 C200.568414,629.423217 200.946052,629.810881 201.35,630.17 L201.21,632.92 C202.789734,633.926118 204.498647,634.713295 206.29,635.26 C207.182603,635.625203 208.2087,635.301394 208.73,634.49 C208.810043,634.363038 208.870709,634.224853 208.91,634.08 C209,634.25 209.97,634.58 213.08,635.47 C216.46,635.28 219.72,636.75 221.22,641.33 C222.72,645.91 209.83,646.43 206.94,645.59 Z" id="Path" fill="#626696"></path>
            <path d="M173.94,480.68 C173.28,480.87 172.68,481.05 172.12,481.23 C170.680688,481.67094 169.204801,481.982181 167.71,482.16 C158.28,483.49 142.71,482.69 137.78,482.38 C137.84392,480.404432 138.024232,478.434348 138.32,476.48 L172.42,471.96 C172.42,471.96 174.32,477.51 173.94,480.68 Z" id="Path" fill="#000000" opacity="0.1"></path>
            <path d="M203.66,472.4 C203.66,472.4 191.14,474.34 180.96,476.57 C177.56,477.31 174.42,478.08 172.1,478.84 C170.658247,479.27142 169.183189,479.582486 167.69,479.77 C156.35,481.36 136.21,479.89 136.21,479.89 C130.68,461.95 142.93,439.36 142.93,439.36 C142.64,437.56 145.48,432.04 145.48,432.04 L145.53,431.86 L147.27,425.46 L193.78,425.46 L194.35,428.21 L195.53,433.81 L202.83,468.48 L203.66,472.4 Z" id="Path" fill="#626696"></path>
            <path d="M210.86,483.28 L210.58,483.4 L205.14,485.81 C199.25,488.53 181.62,489.04 175.46,489.09 C174.998869,486.564034 174.804468,483.996601 174.88,481.43 C174.88,481.43 207,452.12 210.52,480.5 C210.64,481.51 210.75,482.38 210.86,483.28 Z" id="Path" fill="#000000" opacity="0.1"></path>
            <path d="M211.72,480.51 L210.58,481.01 L205.14,483.43 C199.14,486.19 180.95,486.68 175.14,486.71 L173.61,486.71 C170.92,486.62 168.23,484.1 168.23,483.44 C168.23,483.08 167.95,481.31 167.71,479.79 C167.51,478.57 167.33,477.52 167.33,477.52 C167.33,477.52 155.33,472.34 149.24,468.15 C144.67,465.04 145.82,442.94 146.71,431.83 C147.02,428 147.29,425.48 147.29,425.48 L194.37,428.23 L200.97,428.61 L204.75,429.45 L205.75,429.66 C205.75,429.66 208.45,449.4 209.75,451.04 C211.05,452.68 210.21,458.22 210.05,461.37 C210.043924,462.715069 209.896447,464.055772 209.61,465.37 C209.61,465.37 211.55,470.91 211.09,474.01 C210.883724,476.197017 211.097564,478.403304 211.72,480.51 Z" id="Path" fill="#626696"></path>
            <circle id="Oval" fill="#FFD2C6" cx="161.33" cy="297.29" r="19.29"></circle>
            <path d="M151.94,305.34 C151.94,305.34 153.28,323.61 149.55,327.8 C145.82,331.99 136.09,339.91 136.09,339.91 L139.09,352.32 L155.99,354.27 L175.73,333.18 L171.24,327.65 C171.24,327.65 167.8,315.98 170.64,310.15 C173.48,304.32 151.94,305.34 151.94,305.34 Z" id="Path" fill="#FFD2C6"></path>
            <path d="M192.73,345.51 L191.73,347.11 L185.73,345.46 L181.54,329.79 L181.8,325.24 L183.03,323.47 C183.03,323.47 189.61,323.63 189.32,329.61 C189.03,334.86 192.02,343.51 192.73,345.51 Z" id="Path" fill="#000000" opacity="0.1"></path>
            <path d="M205.74,432.04 C205.74,432.04 200.98,433.1 195.53,433.81 C190.08,434.52 183.79,434.88 181.21,433.38 C176.88,430.82 153.42,431.55 146.69,431.81 C146.21,431.81 145.83,431.81 145.53,431.86 L147.27,425.46 L193.78,425.46 L194.35,428.21 L200.95,428.59 L204.73,429.43 C205.36,430.98 205.74,432.04 205.74,432.04 Z" id="Path" fill="#000000" opacity="0.1"></path>
            <path d="M181.82,324.66 C181.82,324.66 188.4,324.81 188.1,330.79 C187.8,336.77 191.69,347.09 191.69,347.09 L190.19,350.53 C190.19,350.53 188.1,358.9 189.74,361 C191.38,363.1 197.37,363.09 193.93,380.29 C193.93,380.29 193.19,393.15 194.98,397.34 C196.77,401.53 196.77,411.54 199.46,415.73 C202.15,419.92 205.75,429.64 205.75,429.64 C205.75,429.64 186.3,433.97 181.22,430.98 C176.14,427.99 144.88,429.51 144.88,429.51 C144.88,429.51 145.03,424.27 144.88,423.68 C144.60368,422.357634 144.874211,420.979727 145.63,419.86 C146.63,418.44 148.32,416.05 147.42,413.96 C146.52,411.87 149.67,408.78 148.02,405.54 C146.37,402.3 144.37,401.65 144.77,399.88 C145.17,398.11 144.13,395.71 142.94,394.22 C141.75,392.73 133.66,376.92 133.66,376.92 L132.32,369.51 C132.32,369.51 121.91,361.88 122.1,358.29 C122.29,354.7 126.04,349.73 126.04,349.73 L136.04,339.9 C136.04,339.9 141.57,345.9 146.95,343.79 C152.33,341.68 163.94,331.68 163.94,331.68 C163.94,331.68 168.08,329.44 168.38,327.8 C168.68,326.16 171.22,327.65 171.22,327.65 C171.22,327.65 174.96,325.6 175.71,326.32 C176.46,327.04 179.71,327.65 179.71,327.65 L181.82,324.66 Z" id="Path" fill="#FFCDE5"></path>
            <path d="M125.29,355.81 L122.1,358.3 C122.1,358.3 118.86,364.14 118.1,374.6 C117.34,385.06 114.1,399.86 114.1,399.86 L107.82,411.09 C107.82,411.09 97.47,432.76 96.13,438.51 C94.79,444.26 88.65,453.99 88.65,453.99 C88.65,453.99 67.86,472.67 82.37,475.99 C96.88,479.31 97.32,461.12 97.32,461.12 C97.32,461.12 100.71,457.38 101.26,454.84 C101.81,452.3 120.2,419.77 120.2,419.77 C120.2,419.77 126.64,411.02 125.29,406.39 C125.29,406.39 133.66,386.7 133.66,381.76 C133.50185,377.650244 133.054073,373.556757 132.32,369.51 L133.66,359.19 L125.29,355.81 Z" id="Path" fill="#FFD2C6"></path>
            <path d="M168.36,397.04 C168.36,397.04 153.7,404.71 150.86,405.11 C148.02,405.51 163.27,403.51 163.27,403.51 L168.36,397.04 Z" id="Path" fill="#000000" opacity="0.1"></path>
            <path d="M180.32,403.02 C180.32,403.02 160.88,409.6 152.32,408.4 C152.36,408.4 173.59,412.44 180.32,403.02 Z" id="Path" fill="#000000" opacity="0.1"></path>
            <path d="M181.52,405.17 C181.52,405.17 164.02,416.17 153.7,414.38 C153.7,414.38 177.78,419.17 181.52,416.63 L170.75,413.63 C170.75,413.63 182.72,407.31 181.52,405.17 Z" id="Path" fill="#000000" opacity="0.1"></path>
            <path d="M161.36,263.35 C156.3,262.35 150.69,262.95 146.64,266.13 C143.64,268.49 141.64,272.13 138.27,273.85 C136.486176,274.600263 134.659675,275.244714 132.8,275.78 C126.046049,278.539113 122.064101,285.568513 123.17,292.78 C123.7,295.78 125.09,298.48 125.77,301.4 C126.99,306.62 125.92,312.09 124.59,317.28 C120.901483,331.703687 115.301921,345.569752 107.94,358.51 C107.353347,359.310573 107.060251,360.288736 107.11,361.28 C107.285339,361.946274 107.629797,362.555966 108.11,363.05 C115.02,371.05 126.27,373.78 136.83,374.14 C140.72,374.27 144.83,374.14 148.21,372.25 C150.413272,370.984126 152.308696,369.2458 153.76,367.16 C157.44553,362.129065 159.275832,355.977411 158.94,349.75 C158.65,344.75 156.94,339.66 158.23,334.81 C158.36685,334.132486 158.676927,333.501995 159.13,332.98 C160.27,331.82 162.13,332.12 163.77,331.93 C168.16,331.42 171,326.79 171.52,322.41 C172.04,318.03 170.94,313.6 170.92,309.19 C170.896323,303.349685 172.719906,297.651424 176.13,292.91 C177.59,290.91 179.46,288.91 179.95,286.4 C180.57,283.25 178.74,280.93 177.16,278.4 C174.71,274.52 173.51,269.99 169.78,267.03 C167.298484,265.163895 164.415107,263.903702 161.36,263.35 Z" id="Path" fill="#000000" opacity="0.1"></path>
            <path d="M160.16,262.15 C155.11,261.15 149.49,261.75 145.44,264.94 C142.44,267.29 140.44,270.94 137.07,272.66 C135.289999,273.408522 133.466729,274.049672 131.61,274.58 C124.854648,277.338544 120.869315,284.366622 121.97,291.58 C122.5,294.58 123.89,297.28 124.58,300.21 C125.8,305.43 124.72,310.89 123.4,316.08 C119.71982,330.501821 114.130432,344.367675 106.78,357.31 C106.192335,358.105808 105.902182,359.082418 105.96,360.07 C106.128727,360.73894 106.474102,361.350253 106.96,361.84 C113.88,369.84 125.12,372.57 135.68,372.93 C139.57,373.07 143.68,372.93 147.06,371.05 C149.263527,369.780174 151.158819,368.038555 152.61,365.95 C156.275995,360.925953 158.095133,354.790335 157.76,348.58 C157.47,343.58 155.76,338.49 157.06,333.63 C157.193947,332.953476 157.500535,332.323076 157.95,331.8 C159.09,330.64 160.95,330.94 162.6,330.8 C166.99,330.29 169.82,325.66 170.34,321.27 C170.86,316.88 169.77,312.47 169.74,308.05 C169.702838,302.193734 171.523397,296.476476 174.94,291.72 C176.4,289.72 178.26,287.72 178.75,285.2 C179.37,282.05 177.55,279.74 175.97,277.2 C173.52,273.32 172.32,268.79 168.58,265.84 C166.101319,263.967098 163.217074,262.7031 160.16,262.15 Z" id="Path" fill="#985C7E"></path>
            <path d="M153.7,449.13 C153.7,449.13 157.54,467.07 163.92,471.96 L153.7,449.13 Z" id="Path" fill="#000000" opacity="0.1"></path>
            <g id="Group" opacity="0.1" transform="translate(105.000000, 279.000000)" fill="#000000">
                <path d="M18.11,16.58 C17.91,15.88 17.68,15.18 17.44,14.49 C17.64,15.19 17.87,15.89 18.11,16.58 Z" id="Path"></path>
                <path d="M72.67,0.92 C72.7171904,1.4844108 72.6902953,2.05257077 72.59,2.61 C72.09,5.14 70.23,7.11 68.77,9.13 C65.3569552,13.8661549 63.5329439,19.5622516 63.56,25.4 C63.56,29.82 64.67,34.23 64.15,38.62 C63.63,43.01 60.8,47.62 56.41,48.15 C54.79,48.34 52.9,48.03 51.77,49.15 C51.3169275,49.6719948 51.0068499,50.3024859 50.87,50.98 C49.6,55.84 51.29,60.92 51.57,65.93 C51.9080173,72.1391419 50.0924453,78.274645 46.43,83.3 C44.9763293,85.3863813 43.0815712,87.1275104 40.88,88.4 C37.45,90.25 33.39,90.4 29.49,90.28 C19.11,89.93 8.07,87.28 1.13,79.57 C0.945049773,80.0260249 0.886326785,80.5234432 0.96,81.01 C1.12872744,81.6789397 1.47410199,82.2902527 1.96,82.78 C8.88,90.78 20.12,93.51 30.68,93.87 C34.57,94.01 38.68,93.87 42.06,91.99 C44.2615712,90.7175104 46.1563293,88.9763813 47.61,86.89 C51.275995,81.8659527 53.0951334,75.7303346 52.76,69.52 C52.47,64.52 50.76,59.43 52.06,54.57 C52.1939469,53.8934756 52.5005349,53.2630757 52.95,52.74 C54.09,51.58 55.95,51.88 57.6,51.74 C61.99,51.23 64.82,46.6 65.34,42.21 C65.86,37.82 64.77,33.41 64.74,28.99 C64.7155212,23.1542033 66.5354702,17.4598628 69.94,12.72 C71.4,10.72 73.26,8.72 73.75,6.2 C74.0654745,4.36682979 73.6799534,2.48205997 72.67,0.92 Z" id="Path"></path>
            </g>
            <path d="M521.27,763.98 C521.27,763.98 483.22,761.68 487.71,788.34 C487.71,788.34 486.82,793.05 491.09,795.19 C491.09,795.19 491.16,793.19 494.99,793.89 C496.353936,794.119547 497.740266,794.186682 499.12,794.09 C500.988795,793.960964 502.764864,793.22737 504.18,792 C504.18,792 514.87,787.58 519.03,770.1 C519.03,770.1 522.11,766.29 522.03,765.31 L515.61,768.05 C515.61,768.05 517.8,772.68 516.07,776.53 C516.07,776.53 515.87,768.22 514.63,768.42 C514.38,768.42 511.3,770.02 511.3,770.02 C511.3,770.02 515.07,778.09 512.22,783.95 C512.22,783.95 513.3,774.01 510.12,770.61 L505.6,773.24 C505.6,773.24 510.01,781.58 507.02,788.38 C507.02,788.38 507.79,777.95 504.65,773.89 L500.55,777.08 C500.55,777.08 504.7,785.29 502.17,790.93 C502.17,790.93 501.84,778.79 499.66,777.93 C499.66,777.93 496.08,781.08 495.54,782.38 C495.54,782.38 498.37,788.38 496.61,791.49 C496.61,791.49 495.53,783.4 494.61,783.37 C494.61,783.37 491.04,788.73 490.67,792.37 C490.842096,788.973248 491.900523,785.680746 493.74,782.82 C491.682474,783.209277 489.784202,784.19318 488.28,785.65 C488.28,785.65 488.83,781.86 494.62,781.53 C494.62,781.53 497.62,777.47 498.36,777.22 C498.36,777.22 492.6,776.74 489.11,778.29 C489.11,778.29 492.18,774.71 499.42,776.29 L503.42,772.99 C503.42,772.99 495.84,771.99 492.62,773.1 C492.62,773.1 496.32,769.93 504.51,772.24 L508.91,769.6 C508.91,769.6 502.45,768.21 498.6,768.71 C498.6,768.71 502.66,766.52 510.2,768.9 L513.35,767.48 C513.35,767.48 508.61,766.55 507.23,766.41 C505.85,766.27 505.77,765.88 505.77,765.88 C508.768688,765.380911 511.847127,765.727192 514.66,766.88 C514.66,766.88 521.38,764.4 521.27,763.98 Z" id="Path" fill="#6C63FF"></path>
            <ellipse id="Oval" fill="#6C63FF" opacity="0.1" cx="495.06" cy="797.52" rx="26.93" ry="4.55"></ellipse>
            <path d="M819.38,731.38 C819.38,731.38 781.38,729.09 785.82,755.75 C785.82,755.75 784.93,760.46 789.2,762.6 C789.2,762.6 789.27,760.6 793.1,761.29 C794.467326,761.519311 795.856938,761.586442 797.24,761.49 C799.106829,761.365333 800.881059,760.631047 802.29,759.4 C802.29,759.4 812.99,754.99 817.14,737.51 C817.14,737.51 820.22,733.69 820.14,732.71 L813.68,735.51 C813.68,735.51 815.87,740.14 814.15,743.99 C814.15,743.99 813.94,735.67 812.71,735.87 C812.46,735.87 809.37,737.47 809.37,737.47 C809.37,737.47 813.14,745.54 810.3,751.41 C810.3,751.41 811.38,741.47 808.19,738.06 L803.67,740.7 C803.67,740.7 808.08,749.03 805.09,755.83 C805.09,755.83 805.86,745.4 802.72,741.34 L798.63,744.51 C798.63,744.51 802.77,752.73 800.24,758.37 C800.24,758.37 799.91,746.22 797.74,745.31 C797.74,745.31 794.16,748.47 793.61,749.77 C793.61,749.77 796.45,755.77 794.69,758.87 C794.69,758.87 793.61,750.79 792.69,750.75 C792.69,750.75 789.12,756.11 788.75,759.75 C788.923709,756.352069 789.985719,753.059149 791.83,750.2 C789.769877,750.590226 787.868653,751.573858 786.36,753.03 C786.36,753.03 786.92,749.25 792.71,748.91 C792.71,748.91 795.71,744.85 796.45,744.6 C796.45,744.6 790.69,744.12 787.19,745.67 C787.19,745.67 790.27,742.09 797.5,743.72 L801.5,740.42 C801.5,740.42 793.91,739.42 790.7,740.53 C790.7,740.53 794.4,737.37 802.59,739.67 L806.99,737.04 C806.99,737.04 800.52,735.64 796.67,736.15 C796.67,736.15 800.73,733.96 808.28,736.33 L811.43,734.92 C811.43,734.92 806.69,733.99 805.3,733.84 C803.91,733.69 803.84,733.31 803.84,733.31 C806.841974,732.810612 809.923702,733.156873 812.74,734.31 C812.74,734.31 819.5,731.8 819.38,731.38 Z" id="Path" fill="#6C63FF"></path>
            <ellipse id="Oval" fill="#6C63FF" opacity="0.1" cx="793.17" cy="764.92" rx="26.93" ry="4.55"></ellipse>
            <ellipse id="Oval" fill="#6C63FF" opacity="0.1" cx="848.09" cy="436.83" rx="77.55" ry="12.72"></ellipse>
            <path d="M938.38,186 C941.55,175.37 938.38,164.74 938.38,164.74 L938.38,154.74 C938.38,154.74 942,135.13 925.88,122.55 L915.18,113.12 C915.18,113.12 909.18,107.98 907.45,107.65 C907.120237,107.578561 906.786211,107.528457 906.45,107.5 L906.13,107.32 C905.211944,105.74582 904.429135,104.096569 903.79,102.39 C905.192734,102.569504 906.599547,102.089489 907.6,101.09 C907.985813,100.646771 908.290475,100.139002 908.5,99.59 C909.12,98.2 909.22,96.52 909.75,95.04 C910.21281,93.8377148 910.890514,92.7296699 911.75,91.77 C911.64,91.95 911.53,92.12 911.43,92.3 C912.94,90.42 914.92,88.8 916.33,86.81 C916.614321,86.4194054 916.874796,86.0119972 917.11,85.59 L916.9,85.84 C918.9,82.68 919.47,78.84 920.04,75.16 C920.314647,73.9034209 920.335047,72.6045848 920.1,71.34 C919.828364,70.4983552 919.469761,69.6873085 919.03,68.92 C916.71,64.12 916.76,58.1 913.03,54.27 C910.24,51.4 906.03,50.52 902.03,50.03 C898.03,49.54 893.86,49.26 890.44,47.17 C889.481516,46.4460388 888.424063,45.8634293 887.3,45.44 C886.127505,45.033586 884.831501,45.5159175 884.21,46.59 C884.140126,46.8949241 883.999698,47.1792056 883.8,47.42 C883.436584,47.6297423 882.995501,47.6556884 882.61,47.49 L877.31,46.07 L877.37,46.34 L877.24,46.34 L877.43,47.18 C877.6,47.18 877.78,47.18 877.93,47.47 L877.08,48.78 C875.434777,48.7497618 873.809899,48.4105388 872.29,47.78 C872.285011,47.8665949 872.285011,47.9534051 872.29,48.04 L872.22,48.04 C872.12,49.54 873.82,50.51 874.34,51.92 C874.550289,52.5358775 874.550289,53.2041225 874.34,53.82 C874.118352,54.3919122 873.77746,54.9100694 873.34,55.34 C871.45,57.2 869.05,56.83 866.88,58.01 C866.500178,58.1677853 866.210529,58.4867649 866.09,58.88 C866.007533,59.0256408 865.982562,59.196873 866.02,59.36 C866.103703,59.5858806 866.258003,59.778755 866.46,59.91 C867.092193,60.4186629 867.783945,60.84849 868.52,61.19 L867.9,61.79 C862.32356,67.4671063 859.962442,75.5605734 861.611556,83.3456003 C863.260671,91.1306272 868.700637,97.5715785 876.1,100.5 C876.18,100.91 876.24,101.33 876.3,101.78 C876.3,101.78 876.3,101.86 876.3,101.9 L876.36,102.47 L869.21,105.47 C867.010963,105.454872 865.017507,104.173921 864.09,102.18 C862.43,98.74 856.56,102.18 856.56,102.18 C856.56,102.18 838.63,100.83 832,104.13 C832,104.13 821.3,99.64 819.8,99.34 C818.3,99.04 816.03,97.84 814.97,98.14 C813.91,98.44 812.56,96.14 811.81,96.34 C811.06,96.54 810.81,94.85 808.35,94.25 C805.89,93.65 805.03,94.4 802.35,91.7 C799.67,89 777.64,78.38 777.64,78.38 L767.7,70.29 L757.15,61.91 L756.96,62.26 C756.9,62.01 756.83,61.75 756.76,61.48 C755.722886,57.3000823 754.416833,53.1915273 752.85,49.18 C752.17,47.56 751.85,45.51 750.96,46.59 C750.4,47.24 749.44,45.82 747.96,44.86 C747.342889,44.4299247 746.564435,44.3018615 745.842072,44.51158 C745.119708,44.7212985 744.53086,45.2463201 744.24,45.94 C736.03,58.81 733.09,59.74 737.85,64.45 C742.08,68.65 744.9,72.36 748.36,73.45 L748.77,73.58 C748.694102,73.5953536 748.615898,73.5953536 748.54,73.58 L768.54,97.53 C768.54,97.53 783,110.11 792.95,114.15 C802.9,118.19 802.14,119.39 802.14,119.39 C802.14,119.39 832.27,134.66 836.94,134.39 C841.61,134.12 840.71,165.68 838.75,170.77 C836.79,175.86 833.63,212.69 833.63,212.69 C833.63,212.69 830.63,220.47 833.78,225.86 C833.78,225.86 834.48,236.18 833.85,238.65 C831.1,242.88 827.19,250.06 826.55,257.45 C826.55,257.84 826.47,258.21 826.43,258.59 C826.229706,258.824015 825.989273,259.020425 825.72,259.17 C825.72,259.17 825.98,259.11 826.39,258.97 C826.091082,262.040054 825.419474,265.062292 824.39,267.97 C822.788573,272.118337 821.955008,276.523356 821.93,280.97 L821.93,304.76 L819.94,319.51 C819.94,319.51 817.53,330.68 819.94,333.28 C820.962462,334.578946 821.436221,336.226335 821.26,337.87 C821.158206,339.775645 821.700649,341.660105 822.8,343.22 C823.648552,344.149661 824.017928,345.420316 823.8,346.66 C823,349.25 824.98,376.79 824.98,376.79 C824.98,376.79 824.4,384.38 823.6,384.79 C822.8,385.2 824.94,393.51 824.94,393.51 C824.94,393.51 816.8,400.3 818.87,403.9 L820.95,407.09 L820.4,407.63 L820.06,407.97 C819.434625,407.607851 818.704283,407.470251 817.99,407.58 C815.43528,410.200045 812.698452,412.636123 809.8,414.87 C806.13,417.52 796.14,421.36 796.14,421.36 L788.26,422 L788.11,422 C788.11,422 784.34,421.65 786.45,427.49 C788.56,433.33 807.45,431.49 807.45,431.49 L818.45,429.75 C818.45,429.75 838.13,429.84 843.76,428.6 C846.12,428.07 846.68,426.82 846.53,425.54 C846.53,425.54 846.53,425.54 846.53,425.54 L846.47,425.48 C846.202881,424.264788 845.651086,423.130352 844.86,422.17 C844.817396,422.110106 844.770613,422.053298 844.72,422 L845.08,418 C853.43,413.19 842.72,403.72 842.72,403.72 C842.72,403.72 846.38,395.72 848.27,393.15 C850.16,390.58 850.15,352.43 850.15,352.43 C850.15,352.43 851.15,338.65 848.54,335.43 C848.449658,333.314583 849.529209,331.320679 851.35,330.24 C853.21,328.97 858.83,311.48 863.24,296.96 L866.02,314.07 C866.02,314.07 865.42,322.25 867.23,324.65 C867.909657,325.560273 868.177943,326.713178 867.97,327.83 C867.529102,330.138208 867.670009,332.519882 868.38,334.76 C868.582066,335.71621 869.091277,336.580112 869.83,337.22 C871.44,338.02 871.54,340.87 872.14,341.47 C872.74,342.07 876.46,340.62 876.66,342.81 C876.774267,344.738309 876.774267,346.671691 876.66,348.6 L877.87,384.13 C877.87,384.13 875.87,387.13 875.46,394.91 C875.29,398.27 874.66,400.18 874.01,401.27 C873.268914,402.473149 873.390181,404.017288 874.31,405.09 L874.66,405.49 L873.17,406.64 C871.953688,407.58653 871.569436,409.257189 872.25,410.64 C871.269448,411.495241 870.90215,412.857798 871.32,414.09 C871.392109,414.283087 871.479035,414.470311 871.58,414.65 C870.453148,414.82799 869.406955,415.344112 868.58,416.13 C867.097592,418.171227 865.310024,419.972287 863.28,421.47 C860.327617,423.724205 857.503233,426.141291 854.82,428.71 C853.557813,430.45841 851.852697,431.83907 849.88,432.71 C849.398785,432.90466 848.899766,433.052022 848.39,433.15 C844.39,433.96 845.68,438.1 848.89,438.75 C852.1,439.4 862.75,442.69 871.04,440.75 C871.04,440.75 873.5,441.75 877.11,439.91 C880.72,438.07 888.94,435.91 888.94,435.91 C888.94,435.91 893.46,435.91 894.06,434.11 C894.221512,433.540264 894.308899,432.952083 894.32,432.36 L894.45,432.24 L894.33,432.13 C894.340587,430.790278 894.236877,429.452094 894.02,428.13 C893.91,427.45 893.78,426.83 893.66,426.34 C893.27,424.84 892.56,422.91 892.25,422.09 C892.30237,422.023975 892.349196,421.953736 892.39,421.88 C894.11,418.97 891.25,411.88 891.25,411.88 C892.196997,410.395964 893.344516,409.049901 894.66,407.88 C896.27,406.69 900.49,375.55 900.49,375.55 C900.49,375.55 900.29,367.55 902.49,363.97 C904.69,360.39 899.49,338.62 899.49,338.62 C899.49,338.62 897.28,333.62 898.09,331.83 C898.9,330.04 897.28,323.45 897.28,323.45 L897.28,315.59 C897.277646,314.651117 897.122276,313.718896 896.82,312.83 C896.2,310.98 895.28,307.43 896.28,304.83 C897.69,301.24 900.9,279.08 900.9,279.08 C900.9,279.08 898.39,269.31 902.06,261.53 C902.355828,260.906693 902.689794,260.302214 903.06,259.72 C905.78,255.44 904.97,247.84 903.63,241.72 C903.42,240.77 903.2,239.86 902.98,238.99 C902.88,238.62 902.78,238.27 902.69,237.92 L903.12,237.74 C903.12,237.74 903.12,237.15 903.25,236.16 C906.25752,235.575706 908.885094,233.763586 910.5,231.16 C910.5,231.16 919.69,220.83 927.83,216.49 C935.97,212.15 936.57,205.86 936.57,205.86 C935.36,203.76 938.72,195.23 938.72,195.23 L938.38,186 Z M911.91,199.77 L903.21,209.86 C903.207128,209.840103 903.207128,209.819897 903.21,209.8 C900.95,206.66 905.32,199.62 905.32,199.62 L912.51,183.51 C912.45,185.59 912.2,187.41 911.57,188.27 C909.57,190.97 915.18,195.46 915.18,195.46 C912.17,195.43 911.87,199.77 911.87,199.77 L911.91,199.77 Z" id="Shape" fill="url(#linearGradient-1)" fill-rule="nonzero"></path>
            <path d="M758.68,67.51 L753.94,76.72 C752.434414,76.5964387 750.949848,76.2874339 749.52,75.8 C744.933533,74.4199402 741.156021,71.1446406 739.14,66.8 C734.9,57.42 741.92,51.36 745.19,49.58 C748.46,47.8 751.49,45.75 753.94,51.58 C755.48296,55.5678983 756.772199,59.6493757 757.8,63.8 C758.34,66.02 758.68,67.51 758.68,67.51 Z" id="Path" fill="#CC818C"></path>
            <path d="M909.6,115.51 L902.02,126.82 C902.02,126.82 866.16,143.92 873.02,123.82 C876.02,114.97 876.39,108.49 875.85,104.01 C875.85,104.01 875.85,103.93 875.85,103.89 C875.15,98.29 873.04,95.89 873.04,95.89 C873.04,95.89 907.99,78.01 902.79,90.24 C901.730465,92.78321 901.304918,95.5458303 901.55,98.29 C901.981924,102.242636 903.268318,106.05405 905.32,109.46 C906.5406,111.614821 907.974457,113.641651 909.6,115.51 Z" id="Path" fill="#CC818C"></path>
            <path d="M898.74,339.3 C898.74,339.3 903.9,360.92 901.74,364.49 C899.58,368.06 899.74,375.99 899.74,375.99 C899.74,375.99 895.57,406.94 893.98,408.13 C892.677638,409.301601 891.543562,410.647685 890.61,412.13 C890.61,412.13 893.44,419.13 891.74,422.03 C891.483501,422.478488 891.086352,422.829947 890.61,423.03 C887.95,424.15 878.13,419.18 872.54,416.13 C871.835969,415.754042 871.305368,415.119472 871.06,414.36 C870.633757,413.141236 870.994423,411.785765 871.97,410.94 C871.291287,409.558999 871.67065,407.891467 872.88,406.94 L874.35,405.8 L874.01,405.4 C873.099704,404.3311 872.978709,402.798499 873.71,401.6 C874.35,400.52 874.97,398.6 875.14,395.29 C875.54,387.55 877.52,384.58 877.52,384.58 L876.33,349.27 C876.438796,347.354877 876.438796,345.435123 876.33,343.52 C876.13,341.34 872.46,342.78 871.87,342.18 C871.28,341.58 871.17,338.76 869.59,337.96 C868.856417,337.325748 868.350656,336.468766 868.15,335.52 C867.449564,333.291857 867.308749,330.925486 867.74,328.63 C867.946214,327.520993 867.681749,326.376186 867.01,325.47 C865.22,323.09 865.82,314.96 865.82,314.96 L863.08,297.96 C858.72,312.39 853.17,329.77 851.34,331.03 C849.535551,332.108479 848.468078,334.089833 848.56,336.19 C851.14,339.36 850.15,353.05 850.15,353.05 C850.15,353.05 850.15,390.93 848.29,393.51 C846.43,396.09 842.81,404.02 842.81,404.02 C842.81,404.02 853.44,413.48 845.08,418.25 L844.99,418.3 C836.46,423.06 818.81,409.78 818.81,409.78 L820.65,407.94 L821.19,407.4 L819.19,404.22 C817.14,400.65 825.19,393.91 825.19,393.91 C825.19,393.91 823.05,385.58 823.84,385.18 C824.63,384.78 825.19,377.24 825.19,377.24 C825.19,377.24 823.24,349.87 824.03,347.3 C824.266843,346.075801 823.919256,344.811178 823.09,343.88 C822.009143,342.327231 821.474502,340.459504 821.57,338.57 C821.744902,336.938887 821.278723,335.303676 820.27,334.01 C817.89,331.43 820.27,320.32 820.27,320.32 L822.27,305.64 L822.27,282.26 C822.268641,277.777392 823.081851,273.331844 824.67,269.14 C825.867925,265.734897 826.594655,262.181994 826.83,258.58 C827.48,251.06 831.52,243.75 834.24,239.58 C835.68,237.38 836.75,236.06 836.75,236.06 L900.22,233.57 C900.22,233.57 901.22,236.4 902.22,240.33 C902.44,241.19 902.66,242.09 902.86,243.04 C904.19,249.14 904.99,256.69 902.3,260.95 C901.923638,261.521589 901.58942,262.119839 901.3,262.74 C897.67,270.47 900.15,280.18 900.15,280.18 C900.15,280.18 896.98,302.18 895.59,305.77 C894.59,308.3 895.51,311.83 896.13,313.67 C896.424222,314.553723 896.576117,315.478593 896.58,316.41 L896.58,324.22 C896.58,324.22 898.17,330.76 897.38,332.55 C896.59,334.34 898.74,339.3 898.74,339.3 Z" id="Path" fill="#444053"></path>
            <path d="M901.66,261.51 C901.289725,262.085265 900.955741,262.683096 900.66,263.3 L897.09,263.1 C897.43,261.26 895,244.01 895,244.01 L902.2,243.6 C903.54,249.74 904.35,257.3 901.66,261.51 Z" id="Path" fill="#000000" opacity="0.1"></path>
            <path d="M902.25,260.96 C901.873638,261.531589 901.53942,262.129839 901.25,262.75 L897.67,262.55 C898.02,260.71 895.59,243.45 895.59,243.45 L902.78,243.05 C904.14,249.15 904.94,256.7 902.25,260.96 Z" id="Path" fill="#444053"></path>
            <path d="M902.25,260.96 C901.873638,261.531589 901.53942,262.129839 901.25,262.75 L897.67,262.55 C898.02,260.71 895.59,243.45 895.59,243.45 L902.78,243.05 C904.14,249.15 904.94,256.7 902.25,260.96 Z" id="Path" fill="#000000" opacity="0.05"></path>
            <path d="M891.74,422 C891.483501,422.448488 891.086352,422.799947 890.61,423 C887.95,424.12 878.13,419.15 872.54,416.1 C871.835969,415.724042 871.305368,415.089472 871.06,414.33 C874.24,413.75 876.33,417.33 876.33,417.33 C877.403159,416.654537 878.704096,416.442405 879.936243,416.741963 C881.16839,417.041522 882.22673,417.82724 882.87,418.92 C885.6,422.92 891.45,421.24 891.45,421.24 C891.45,421.24 891.57,421.51 891.74,422 Z" id="Path" fill="#000000" opacity="0.1"></path>
            <path d="M893.39,434.16 C892.79,435.94 888.33,435.94 888.33,435.94 C888.33,435.94 880.33,438.23 876.77,440.01 C873.21,441.79 870.77,440.85 870.77,440.85 C862.58,442.74 852.07,439.47 848.9,438.85 C845.73,438.23 844.48,434.09 848.4,433.3 C848.903559,433.19852 849.395925,433.047796 849.87,432.85 C851.825921,431.978383 853.511447,430.596805 854.75,428.85 C857.400404,426.300022 860.187875,423.896454 863.1,421.65 C865.110289,420.165001 866.877984,418.377065 868.34,416.35 C873,412.23 876.34,417.89 876.34,417.89 C877.413159,417.214537 878.714096,417.002405 879.946243,417.301963 C881.17839,417.601522 882.23673,418.38724 882.88,419.48 C885.61,423.48 891.46,421.8 891.46,421.8 C891.46,421.8 892.46,424.48 893,426.41 C893.12,426.9 893.25,427.52 893.36,428.2 C893.751697,430.166402 893.761882,432.189754 893.39,434.16 Z" id="Path" fill="#FF748F"></path>
            <circle id="Oval" fill="#575988" cx="879.75" cy="421.07" r="1"></circle>
            <circle id="Oval" fill="#575988" cx="875.09" cy="425.43" r="1"></circle>
            <circle id="Oval" fill="#575988" cx="870.35" cy="429.35" r="1"></circle>
            <circle id="Oval" fill="#575988" cx="872.8" cy="427.6" r="1"></circle>
            <circle id="Oval" fill="#575988" cx="877.52" cy="423.11" r="1"></circle>
            <path d="M893.39,434.16 C892.79,435.94 888.33,435.94 888.33,435.94 C888.33,435.94 880.33,438.23 876.77,440.01 C873.21,441.79 870.77,440.85 870.77,440.85 C862.58,442.74 852.07,439.47 848.9,438.85 C845.73,438.23 844.48,434.09 848.4,433.3 C848.903559,433.19852 849.395925,433.047796 849.87,432.85 C853.331789,434.029535 856.945726,434.703149 860.6,434.85 C868.68,435.19 875.08,434.85 875.08,434.85 L883.26,432.22 C884.808239,431.277768 886.528164,430.652341 888.32,430.38 C890.122077,430.015097 891.826251,429.272077 893.32,428.2 C893.724929,430.163838 893.748693,432.187194 893.39,434.16 Z" id="Path" fill="#DCE6F2"></path>
            <path d="M873.03,439.29 C872.573097,439.289482 872.117427,439.242575 871.67,439.15 L871.79,438.57 C873.454676,438.828729 875.158685,438.592254 876.69,437.89 C877.42,437.6 878.15,437.26 878.86,436.89 C879.57,436.52 880.56,436.09 881.44,435.76 L882.25,435.48 C882.7,435.33 883.15,435.18 883.58,434.99 C883.83,434.89 884.07,434.77 884.31,434.66 C884.892755,434.353086 885.510606,434.118034 886.15,433.96 C886.480485,433.89703 886.814399,433.853621 887.15,433.83 C887.451742,433.809352 887.752168,433.772634 888.05,433.72 C888.646466,433.574915 889.223773,433.360103 889.77,433.08 C890.357658,432.781091 890.97865,432.552835 891.62,432.4 L892.06,432.32 C892.526925,432.309315 892.977109,432.144013 893.34,431.85 L893.77,432.26 C893.318075,432.652048 892.747573,432.880953 892.15,432.91 L891.74,432.98 C891.143534,433.125085 890.566227,433.339897 890.02,433.62 C889.432342,433.918909 888.81135,434.147165 888.17,434.3 C887.840216,434.365451 887.505906,434.405568 887.17,434.42 C886.858074,434.44331 886.547626,434.483368 886.24,434.54 C885.648778,434.690598 885.077959,434.91221 884.54,435.2 L883.79,435.54 C883.33,435.73 882.87,435.89 882.41,436.04 L881.62,436.32 C880.76,436.64 879.91,437.04 879.08,437.42 C878.25,437.8 877.63,438.11 876.88,438.42 C875.662603,438.948938 874.356545,439.244073 873.03,439.29 Z" id="Path" fill="#575988" opacity="0.5"></path>
            <path d="M874.94,340.74 C874.94,340.74 879.06,334.74 886.1,334.84 C893.14,334.94 896.16,334.05 896.16,334.05 C896.16,334.05 891.65,336.72 888.53,337.05 C885.41,337.38 874.94,340.74 874.94,340.74 Z" id="Path" fill="#000000" opacity="0.1"></path>
            <path d="M877.32,342.13 C877.32,342.13 881.04,339.55 883.17,339.45 C885.3,339.35 887.17,339.15 887.17,339.15 C886.172976,339.853043 885.068683,340.389993 883.9,340.74 C882.08,341.24 877.32,342.13 877.32,342.13 Z" id="Path" fill="#000000" opacity="0.1"></path>
            <path d="M878.11,343.91 C878.11,343.91 883.72,344.36 883.77,345.85" id="Path" fill="#000000" opacity="0.1"></path>
            <path d="M825.94,260.29 C826.23,260.34 831.23,255.08 831.58,253 C831.857754,251.688233 832.640928,250.538619 833.76,249.8 C833.76,249.8 836.99,251.09 834.11,255.04 C831.23,258.99 825.94,260.29 825.94,260.29 Z" id="Path" fill="#000000" opacity="0.1"></path>
            <path d="M902.76,90.18 C901.62,92.88 900.61,93.08 900.83,95.7 C899.498515,97.1046533 897.969045,98.3073421 896.29,99.27 C892.74,101.38 888.88,105.5 884.46,105.5 C881.502989,105.506273 878.57147,104.953221 875.82,103.87 C875.12,98.27 873.01,95.87 873.01,95.87 C873.01,95.87 907.94,77.95 902.76,90.18 Z" id="Path" fill="#000000" opacity="0.1"></path>
            <path d="M908.11,80.66 C908.11,93.7215343 897.521534,104.31 884.46,104.31 C871.398466,104.31 860.81,93.7215343 860.81,80.66 C860.81,67.5984657 871.398466,57.01 884.46,57.01 C890.733183,57.0073458 896.750196,59.4981827 901.186006,63.9339936 C905.621817,68.3698044 908.112654,74.3868167 908.11,80.66 Z" id="Path" fill="#CC818C"></path>
            <path d="M909.6,115.51 L902.02,126.82 C902.02,126.82 866.16,143.92 873.02,123.82 C876.02,114.97 876.39,108.49 875.85,104.01 L875.91,104.01 C876.333437,105.494986 876.571907,107.026572 876.62,108.57 C876.73,111.65 876.81,115.57 884.47,116.85 C897.24,119 904.1,111.01 905.3,109.44 C906.525785,111.602646 907.966397,113.636254 909.6,115.51 Z" id="Path" fill="#000000" opacity="0.1"></path>
            <path d="M758.68,67.51 L753.94,76.72 C752.434414,76.5964387 750.949848,76.2874339 749.52,75.8 L749.11,75.31 C751.05,76.05 757.59,63.7 757.59,63.7 L757.8,63.87 C758.34,66.02 758.68,67.51 758.68,67.51 Z" id="Path" fill="#000000" opacity="0.1"></path>
            <path d="M902.17,240.34 C886.86,246.99 833.88,241.34 833.88,241.34 C834.045515,240.777677 834.136294,240.196015 834.15,239.61 C835.59,237.41 836.66,236.09 836.66,236.09 L900.13,233.6 C900.13,233.6 901.16,236.41 902.17,240.34 Z" id="Path" fill="#000000" opacity="0.1"></path>
            <path d="M875.94,104.56 L868.88,107.56 C866.701377,107.535794 864.731544,106.258907 863.82,104.28 C862.19,100.86 856.39,104.28 856.39,104.28 C856.39,104.28 838.68,102.94 832.14,106.22 C832.14,106.22 821.58,101.75 820.14,101.46 C818.7,101.17 816.42,99.97 815.38,100.27 C814.34,100.57 813,98.33 812.26,98.48 C811.52,98.63 811.21,96.99 808.83,96.4 C806.45,95.81 805.56,96.55 802.88,93.87 C800.2,91.19 778.49,80.63 778.49,80.63 L768.67,72.63 L758.26,64.3 C758.26,64.3 751.71,76.64 749.78,75.9 L769.56,99.7 C769.56,99.7 783.84,112.2 793.66,116.21 C803.48,120.22 802.73,121.42 802.73,121.42 C802.73,121.42 832.49,136.59 837.1,136.3 C841.71,136.01 840.82,167.39 838.88,172.45 C836.94,177.51 833.83,214.1 833.83,214.1 C833.83,214.1 830.83,221.83 833.97,227.19 C833.97,227.19 834.72,238.19 833.97,240.13 C833.97,240.13 887.28,245.83 902.4,239.13 C902.4,239.13 904.63,214.44 902.4,211.31 C900.17,208.18 904.49,201.2 904.49,201.2 L913.94,179.88 L937.12,156.51 C937.12,156.51 940.69,137.02 924.78,124.51 L914.21,115.14 C914.21,115.14 908.3,110.03 906.58,109.71 C904.86,109.39 905.49,109.71 905.49,109.71 C905.49,109.71 898.59,119.71 884.49,117.37 C876.83,116.08 876.75,112.18 876.64,109.09 C876.592712,107.557064 876.357624,106.03571 875.94,104.56 Z" id="Path" fill="#67647E"></path>
            <path d="M904.99,184.64 C904.99,184.64 872.26,185.98 865.72,196.25 C865.72,196.25 874.2,192.25 881.78,193.42 C889.36,194.59 904.99,184.64 904.99,184.64 Z" id="Path" fill="#000000" opacity="0.1"></path>
            <path d="M868.84,220.51 C868.84,220.51 884.31,221.51 887.59,218.28 C890.87,215.05 890.87,213.08 890.87,213.08 L868.84,220.51 Z" id="Path" fill="#000000" opacity="0.1"></path>
            <path d="M908.11,153.11 C908.11,153.11 895.02,168.58 910.94,175.27 L908.11,153.11 Z" id="Path" fill="#000000" opacity="0.1"></path>
            <path d="M830.61,123.21 C830.61,123.21 835.37,132.92 837.75,133.57 L830.61,123.21 Z" id="Path" fill="#000000" opacity="0.1"></path>
            <path d="M814.55,119.04 C814.55,119.04 826.45,129.75 828.68,130.79 C828.68,130.79 816.33,119.04 814.55,119.04 Z" id="Path" fill="#000000" opacity="0.1"></path>
            <path d="M862,108.78 C862,108.78 850.54,125.88 858,136.3 C857.94,136.3 853.82,123.95 862,108.78 Z" id="Path" fill="#000000" opacity="0.1"></path>
            <path d="M890.87,238.35 L887.37,241.64 L886.88,242.1 L882.83,245.93 C882.53,246.15 882.25,246.37 881.96,246.57 C865.46,258.4 862.15,240.43 862.15,240.43 C862.15,240.43 854.86,245.19 853.82,241.32 C852.78,237.45 870.82,231.95 873.45,232.25 C873.689354,232.274894 873.930646,232.274894 874.17,232.25 C875.470257,232.032316 876.722443,231.588975 877.87,230.94 C878.14,230.8 878.41,230.66 878.67,230.51 C879.5892,229.997808 880.480463,229.437013 881.34,228.83 L890.87,238.35 Z" id="Path" fill="#CC818C"></path>
            <path d="M908.71,80.66 C908.71134,89.0010453 904.318785,96.7260154 897.15,100.99 C896.823687,100.437362 896.536323,99.8626335 896.29,99.27 C895.44,97.27 894.92,95.18 894.07,93.2 C893.110078,91.0370654 891.753329,89.0731719 890.07,87.41 C889.80227,87.0876018 889.458648,86.8367577 889.07,86.68 C888.295137,86.5760941 887.511421,86.79279 886.9,87.28 C885.898888,87.9628045 884.780043,88.4544179 883.6,88.73 C882.397619,89.0009358 881.141233,88.6213632 880.29,87.73 C879.37,86.63 879.5,85.01 879.77,83.6 C880.34,80.52 881.31,77.5 881.31,74.37 C881.31,71.24 880.13,67.86 877.41,66.31 C875.01,64.95 872.03,65.31 869.36,64.56 C868.946852,64.4500595 868.542413,64.3096756 868.15,64.14 C874.870068,57.2564311 885.088917,55.1269597 893.999128,58.7533871 C902.909339,62.3798146 908.736798,71.0400816 908.74,80.66 L908.71,80.66 Z" id="Path" fill="#000000" opacity="0.1"></path>
            <path d="M866.52,60.38 C866.09,60.61 865.62,61.02 865.75,61.5 C865.829809,61.7251612 865.980747,61.9182219 866.18,62.05 C867.280459,62.9417766 868.55396,63.5955526 869.92,63.97 C872.59,64.69 875.58,64.35 877.98,65.72 C880.69,67.27 881.89,70.64 881.88,73.77 C881.87,76.9 880.88,79.93 880.33,83 C880.07,84.42 879.93,86 880.86,87.14 C881.713367,88.0278845 882.967768,88.4068578 884.17,88.14 C885.346371,87.8678575 886.461959,87.3795759 887.46,86.7 C888.070334,86.2106611 888.854976,85.9937093 889.63,86.1 C890.037101,86.2493061 890.401158,86.4965901 890.69,86.82 C892.377299,88.4836718 893.734512,90.4516311 894.69,92.62 C895.55,94.62 896.07,96.7 896.91,98.69 C897.656773,100.73573 899.064332,102.474064 900.91,103.63 C902.82567,104.786172 905.276258,104.52886 906.91,103 C908.29,101.48 908.25,99.18 908.91,97.23 C910.09,93.86 913.39,91.74 915.45,88.83 C917.77,85.56 918.45,81.43 919.04,77.47 C919.314654,76.2201768 919.335058,74.9278713 919.1,73.67 C918.827122,72.8384281 918.475529,72.0347871 918.05,71.27 C915.75,66.51 915.8,60.52 912.13,56.71 C909.37,53.86 905.19,52.99 901.25,52.51 C897.31,52.03 893.18,51.73 889.8,49.66 C888.852892,48.9434337 887.80923,48.3643699 886.7,47.94 C885.541472,47.536967 884.260152,48.0158868 883.65,49.08 C883.580126,49.3849241 883.439698,49.6692056 883.24,49.91 C882.885864,50.1144806 882.456155,50.1404114 882.08,49.98 L876.84,48.57 L877.44,51.21 C875.53595,51.2856487 873.638365,50.9443564 871.88,50.21 C871.78,51.7 873.46,52.67 873.98,54.06 C874.366174,55.3616923 873.978292,56.7697031 872.98,57.69 C871.04,59.58 868.66,59.21 866.52,60.38 Z" id="Path" fill="#585268"></path>
            <path d="M845.29,415.81 L845.08,418.19 L844.99,418.24 C836.46,423 818.81,409.72 818.81,409.72 L820.65,407.88 C821.256421,408.555739 821.547239,409.457275 821.45,410.36 L825.06,410.56 L829.37,415.22 C829.37,415.22 841.04,416.57 844.2,415.81 L845.29,415.81 Z" id="Path" fill="#000000" opacity="0.1"></path>
            <path d="M843.8,428.76 C838.25,429.99 818.8,429.9 818.8,429.9 L807.94,431.63 C807.94,431.63 789.25,433.42 787.17,427.63 C785.09,421.84 788.8,422.18 788.8,422.18 L788.94,422.18 L796.72,421.55 C796.72,421.55 806.59,417.73 810.21,415.1 C813.068484,412.877577 815.768377,410.458367 818.29,407.86 C818.29,407.86 821.54,407.23 821.48,410.99 L825.09,411.19 L829.4,415.84 C829.4,415.84 841.07,417.2 844.23,416.44 L845.32,416.44 L844.82,422.19 L844.96,422.37 C845.65,423.26 848.76,427.65 843.8,428.76 Z" id="Path" fill="#FF748F"></path>
            <circle id="Oval" fill="#575988" cx="823.66" cy="414.31" r="1"></circle>
            <circle id="Oval" fill="#575988" cx="809.68" cy="420.38" r="1"></circle>
            <circle id="Oval" fill="#575988" cx="802.48" cy="422.57" r="1"></circle>
            <circle id="Oval" fill="#575988" cx="813.35" cy="419.22" r="1"></circle>
            <circle id="Oval" fill="#575988" cx="806.07" cy="421.48" r="1"></circle>
            <circle id="Oval" fill="#575988" cx="817.06" cy="417.5" r="1"></circle>
            <circle id="Oval" fill="#575988" cx="820.73" cy="415.91" r="1"></circle>
            <path d="M843.8,428.76 C838.25,429.99 818.8,429.9 818.8,429.9 L807.94,431.63 C807.94,431.63 789.25,433.42 787.17,427.63 C785.09,421.84 788.8,422.18 788.8,422.18 L788.94,422.18 C790.13,423.72 792.52,425.48 797.22,425.56 L810.66,426.11 L824.59,425.11 C824.59,425.11 837.59,424.71 839.76,424.27 C841.54603,423.78718 843.286082,423.148046 844.96,422.36 C845.65,423.26 848.76,427.65 843.8,428.76 Z" id="Path" fill="#DCE6F2"></path>
            <path d="M808.94,430.32 C808.198199,430.323405 807.458963,430.232681 806.74,430.05 L806.94,429.51 C808.776909,429.910752 810.686652,429.824572 812.48,429.26 C813.14,429.09 813.79,428.9 814.48,428.7 C817.580236,427.644177 820.872363,427.27232 824.13,427.61 L824.56,427.61 C830.521847,427.927278 836.500438,427.659329 842.41,426.81 C843.813225,426.717384 845.150812,426.181649 846.23,425.28 L846.66,425.7 C845.491464,426.691624 844.038396,427.286857 842.51,427.4 C836.550205,428.250453 830.521743,428.518385 824.51,428.2 L824.09,428.2 C822.119322,428.056563 820.139174,428.113522 818.18,428.37 C816.980026,428.595828 815.794588,428.893023 814.63,429.26 C813.97,429.46 813.31,429.66 812.63,429.83 C811.42538,430.147249 810.185669,430.311871 808.94,430.32 Z" id="Path" fill="#575988" opacity="0.5"></path>
            <path d="M890.87,238.35 L887.37,241.64 L878.67,230.51 C879.5892,229.997808 880.480463,229.437013 881.34,228.83 L890.87,238.35 Z" id="Path" fill="#000000" opacity="0.1"></path>
            <path d="M930.28,147.01 L937.12,156.53 L937.12,166.53 C937.12,166.53 940.25,177.1 937.12,187.66 L937.47,196.88 C937.47,196.88 934.15,205.36 935.34,207.44 C935.34,207.44 934.74,213.69 926.71,218.01 C918.68,222.33 909.6,232.51 909.6,232.51 C909.6,232.51 906.18,239.06 896.96,237.57 L888.18,241.29 L878.07,228.35 L891.75,220.91 C891.75,220.91 896.51,214.51 899.34,214.81 L910.94,201.3 C910.94,201.3 911.24,196.99 914.21,196.99 C914.21,196.99 908.71,192.53 910.64,189.85 C912.57,187.17 910.94,175.27 910.94,175.27 L930.28,147.01 Z" id="Path" fill="#67647E"></path>
            <path d="M917.49,190.44 C917.49,190.44 933.11,190.15 935.04,194.16 C936.97,198.17 922.25,188.21 917.49,190.44 Z" id="Path" fill="#000000" opacity="0.1"></path>
            <path d="M886.94,241.32 C886.944907,241.581318 886.924816,241.842507 886.88,242.1 C886.508618,244.568785 884.452985,246.436403 881.96,246.57 L881.68,246.57 C878.780505,246.57 876.43,244.219495 876.43,241.32 C876.433547,240.738067 876.531486,240.160564 876.72,239.61 C874.24,237.61 874.11,234.03 874.17,232.24 C875.470257,232.022316 876.722443,231.578975 877.87,230.93 C878.518357,232.790697 879.387922,234.566758 880.46,236.22 C880.85895,236.120013 881.268712,236.069633 881.68,236.07 C883.074118,236.067345 884.412047,236.619295 885.398777,237.604149 C886.385507,238.589003 886.940003,239.925879 886.94,241.32 Z" id="Path" fill="#000000" opacity="0.1"></path>
            <path d="M878.34,229.77 C878.34,229.77 874.82,230.56 874.82,231.2 C874.82,231.84 874.03,237.65 877.89,240.03 C881.75,242.41 881.37,236.71 881.37,236.71 C881.37,236.71 878.04,231.6 878.34,229.77 Z" id="Path" fill="#575988"></path>
            <circle id="Oval" fill="#E4AAB4" cx="882.28" cy="241.32" r="5.26"></circle>
            <circle id="Oval" fill="#DCE6F2" cx="882.28" cy="241.32" r="4.51"></circle>
            <path d="M861.8,243.35 C861.8,243.35 872.91,252.57 887.19,246.73 L887.19,251.19 C887.19,251.19 877.67,257.73 869.04,253.77 C860.41,249.81 861.8,243.35 861.8,243.35 Z" id="Path" fill="#000000" opacity="0.1"></path>
            <path d="M861.8,242.16 C861.8,242.16 872.94,251.38 887.19,245.51 L887.19,249.97 C887.19,249.97 877.67,256.51 869.04,252.55 C860.41,248.59 861.8,242.16 861.8,242.16 Z" id="Path" fill="#000000" opacity="0.1"></path>
            <path d="M861.8,242.16 C861.8,242.16 872.94,251.38 887.19,245.51 L887.19,249.97 C887.19,249.97 877.67,256.51 869.04,252.55 C860.41,248.59 861.8,242.16 861.8,242.16 Z" id="Path" fill="#444053"></path>
            <path d="M862.1,242.16 C862.1,242.16 873.21,251.38 887.49,245.54 L887.49,250 C887.49,250 877.94,256.51 869.34,252.58 C860.74,248.65 862.1,242.16 862.1,242.16 Z" id="Path" fill="#000000" opacity="0.05"></path>
            <path d="M826.94,407.83 C826.94,407.83 841.82,410.56 844,411.15 C846.18,411.74 843.4,412.79 843.4,412.79 C843.4,412.79 829.77,410.36 826.94,407.83 Z" id="Path" fill="#000000" opacity="0.1"></path>
            <path d="M826.55,399.95 C826.79,399.95 836.66,397.17 838.79,392.41" id="Path" fill="#000000" opacity="0.1"></path>
            <path d="M840.94,343.02 C840.94,343.02 844.94,348.28 847.52,348.13 C850.1,347.98 843.29,342.82 840.94,343.02 Z" id="Path" fill="#000000" opacity="0.1"></path>
            <path d="M843.16,351.75 C843.16,351.75 844.84,355.47 847.32,354.28" id="Path" fill="#000000" opacity="0.1"></path>
            <path d="M852.53,270.08 L863.08,297.9 C863.08,297.9 864.57,280 861.42,274.64 C859.595864,271.520228 856.128032,269.741453 852.53,270.08 Z" id="Path" fill="#000000" opacity="0.05"></path>
            <g id="Group" opacity="0.1" transform="translate(865.000000, 48.000000)" fill="#000000">
                <path d="M13.5,1.64 L13.41,1.24 L11.71,0.79 L11.9,1.62 C12.4323184,1.66173017 12.9668048,1.66841125 13.5,1.64 Z" id="Path"></path>
                <path d="M8.84,8.33 L9.02,8.17 C10.0165717,7.25287776 10.4044855,5.84862973 10.02,4.55 C9.81520501,4.05735149 9.53148581,3.60137422 9.18,3.2 C8.34168348,3.04098535 7.52105879,2.79982218 6.73,2.48 C6.63,3.97 8.31,4.93 8.83,6.33 C9.06200207,6.97589748 9.06553166,7.68181485 8.84,8.33 Z" id="Path"></path>
                <path d="M36.94,54.06 C35.0963761,52.9017572 33.6894549,51.1642095 32.94,49.12 C32.09,47.12 31.58,45.02 30.72,43.05 C29.7661776,40.8836502 28.4086817,38.918675 26.72,37.26 C26.4382879,36.9307656 26.0767381,36.6794024 25.67,36.53 C24.8948958,36.4225021 24.1097824,36.6395842 23.5,37.13 C22.4969085,37.8092281 21.3787477,38.3005412 20.2,38.58 C18.9980804,38.8388756 17.7475268,38.4610648 16.89,37.58 C15.97,36.48 16.1,34.86 16.37,33.45 C16.95,30.37 17.91,27.34 17.92,24.21 C17.93,21.08 16.73,17.71 14.01,16.21 C11.61,14.84 8.63,15.21 6.01,14.46 C4.64310841,14.0877455 3.36917361,13.4337468 2.27,12.54 L2.06,12.35 C1.83767825,12.4410325 1.62066705,12.5445302 1.41,12.66 C0.98,12.89 0.52,13.3 0.64,13.77 C0.726060753,13.9972067 0.879605352,14.1926271 1.08,14.33 C2.18227074,15.2167514 3.45539479,15.8669297 4.82,16.24 C7.49,16.97 10.47,16.63 12.87,18 C15.59,19.54 16.78,22.92 16.78,26 C16.78,29.08 15.78,32.16 15.23,35.23 C14.96,36.64 14.83,38.23 15.75,39.36 C16.6023047,40.249618 17.8576931,40.6288894 19.06,40.36 C20.2380638,40.0836119 21.3561836,39.5957051 22.36,38.92 C22.9709513,38.4313319 23.7539178,38.2112353 24.53,38.31 C24.9166759,38.4702879 25.2595083,38.7205556 25.53,39.04 C27.214423,40.7022538 28.5713233,42.666367 29.53,44.83 C30.39,46.83 30.9,48.92 31.75,50.9 C32.4865652,52.9671453 33.894958,54.7276362 35.75,55.9 C37.64,56.9 40.26,56.9 41.75,55.27 C42.1362149,54.8326147 42.437982,54.327409 42.64,53.78 C40.974936,55.0271376 38.7192785,55.1379418 36.94,54.06 Z" id="Path"></path>
                <path d="M45.48,46.51 C46.97,44.63 48.92,43.03 50.32,41.05 C50.5975669,40.6569062 50.8545781,40.2496935 51.09,39.83 C49.29,42.12 46.82,43.97 45.48,46.51 Z" id="Path"></path>
            </g>
            <g id="Group" opacity="0.1" transform="translate(573.000000, 66.000000)" fill="#000000">
                <path d="M249.23,0.41 L12.63,0.41 C5.80897055,0.426467113 0.281983508,5.9489861 0.26,12.77 L0.26,162.26 C0.281983508,169.081014 5.80897055,174.603533 12.63,174.62 L198.23,174.62 C198.23,174.62 203.04,200.15 187.23,202.89 C187.23,202.89 222.61,205.43 216.43,174.62 L249.22,174.62 C256.039397,174.603508 261.563508,169.079397 261.58,162.26 L261.58,12.77 C261.563533,5.95449337 256.045491,0.431983421 249.23,0.41 Z" id="Path"></path>
                <g opacity="0.2" transform="translate(35.000000, 40.000000)" id="Rectangle">
                    <rect x="0.09" y="0.09" width="191.66" height="11.68" rx="5.67"></rect>
                    <rect x="0.09" y="52.29" width="158.15" height="11.68" rx="5.67"></rect>
                    <rect x="0.09" y="26.19" width="113.85" height="11.68" rx="5.67"></rect>
                </g>
            </g>
            <path d="M825.32,64.34 L588.72,64.34 C581.897353,64.3619556 576.371956,69.8873526 576.35,76.71 L576.35,226.2 C576.371984,233.021014 581.898971,238.543533 588.72,238.56 L774.32,238.56 C774.32,238.56 779.13,264.09 763.32,266.83 C763.32,266.83 798.7,269.37 792.52,238.56 L825.31,238.56 C832.129397,238.543508 837.653508,233.019397 837.67,226.2 L837.67,76.71 C837.653562,69.8928568 832.137108,64.3674687 825.32,64.34 Z" id="Path" fill="#FFFFFF"></path>
            <g id="Group" opacity="0.2" transform="translate(611.000000, 104.000000)" fill="#6C63FF">
                <rect id="Rectangle" x="0.18" y="0.02" width="191.66" height="11.68" rx="5.67"></rect>
                <rect id="Rectangle" x="0.18" y="52.23" width="158.15" height="11.68" rx="5.67"></rect>
                <rect id="Rectangle" x="0.18" y="26.13" width="113.85" height="11.68" rx="5.67"></rect>
            </g>
            <path d="M81.13,552.99 C81.13,552.99 84.69,557.65 79.48,564.69 C74.27,571.73 69.97,577.69 71.71,582.06 C71.71,582.06 79.57,568.99 85.97,568.81 C92.37,568.63 88.17,560.85 81.13,552.99 Z" id="Path" fill="#6C63FF"></path>
            <path d="M81.13,552.99 C81.436532,553.44093 81.6788537,553.932304 81.85,554.45 C88.1,561.79 91.42,568.63 85.42,568.81 C79.83,568.97 73.13,578.96 71.52,581.49 C71.52,581.68 71.64,581.87 71.71,582.06 C71.71,582.06 79.57,568.99 85.97,568.81 C92.37,568.63 88.17,560.85 81.13,552.99 Z" id="Path" fill="#000000" opacity="0.1"></path>
            <path d="M87.75,558.93 C87.75,560.57 87.57,561.93 87.34,561.93 C87.11,561.93 86.93,560.6 86.93,558.93 C86.93,557.26 87.16,558.06 87.39,558.06 C87.62,558.06 87.75,557.29 87.75,558.93 Z" id="Path" fill="#FFD037"></path>
            <path d="M90.03,560.89 C88.59,561.68 87.33,562.15 87.22,561.95 C87.11,561.75 88.22,560.95 89.63,560.17 C91.04,559.39 90.51,559.96 90.63,560.17 C90.75,560.38 91.47,560.11 90.03,560.89 Z" id="Path" fill="#FFD037"></path>
            <path d="M62.29,552.99 C62.29,552.99 58.73,557.65 63.94,564.69 C69.15,571.73 73.45,577.69 71.71,582.06 C71.71,582.06 63.85,568.99 57.45,568.81 C51.05,568.63 55.25,560.85 62.29,552.99 Z" id="Path" fill="#6C63FF"></path>
            <path d="M62.29,552.99 C61.983468,553.44093 61.7411463,553.932304 61.57,554.45 C55.32,561.79 52,568.63 58,568.81 C63.59,568.97 70.29,578.96 71.9,581.49 C71.85,581.68 71.78,581.87 71.71,582.06 C71.71,582.06 63.85,568.99 57.45,568.81 C51.05,568.63 55.25,560.85 62.29,552.99 Z" id="Path" fill="#000000" opacity="0.1"></path>
            <path d="M55.67,558.93 C55.67,560.57 55.85,561.93 56.08,561.93 C56.31,561.93 56.49,560.6 56.49,558.93 C56.49,557.26 56.26,558.06 56.03,558.06 C55.8,558.06 55.67,557.29 55.67,558.93 Z" id="Path" fill="#FFD037"></path>
            <path d="M53.39,560.89 C54.83,561.68 56.09,562.15 56.2,561.95 C56.31,561.75 55.2,560.95 53.79,560.17 C52.38,559.39 52.91,559.96 52.79,560.17 C52.67,560.38 51.94,560.11 53.39,560.89 Z" id="Path" fill="#FFD037"></path>
            <ellipse id="Oval" fill="#6C63FF" opacity="0.1" cx="71.71" cy="612.01" rx="37.28" ry="5.72"></ellipse>
            <path d="M90.94,575.78 L90.76,577.23 L90.51,579.29 L90.4,580.15 L90.15,582.2 L90.05,583.06 L89.8,585.12 L86.94,608.51 C86.69,610.6 83.28,612.23 79.16,612.23 L64.3,612.23 C60.18,612.23 56.78,610.6 56.52,608.51 L53.66,585.13 L53.41,583.07 L53.31,582.21 L53.06,580.16 L52.95,579.3 L52.7,577.24 L52.52,575.79 C52.38,574.61 54.23,573.61 56.52,573.61 L86.83,573.61 C89.19,573.6 91.04,574.6 90.94,575.78 Z" id="Path" fill="#65617D"></path>
            <polygon id="Path" fill="#9D9CB5" points="90.71 577.23 90.46 579.29 52.95 579.29 52.7 577.23"></polygon>
            <polygon id="Path" fill="#9D9CB5" points="90.36 580.15 90.11 582.2 53.31 582.2 53.05 580.15"></polygon>
            <polygon id="Path" fill="#9D9CB5" points="90 583.06 89.75 585.12 53.66 585.12 53.41 583.06"></polygon>
            <ellipse id="Oval" fill="#6C63FF" opacity="0.1" cx="645.79" cy="789.35" rx="84.04" ry="13.79"></ellipse>
            <g id="Group" opacity="0.1" transform="translate(473.000000, 365.000000)" fill="#000000">
                <path d="M270.13,0.87 L13.74,0.87 C6.34850207,0.891965964 0.361965964,6.87850207 0.34,14.27 L0.34,176.27 C0.361965964,183.661498 6.34850207,189.648034 13.74,189.67 L214.87,189.67 C214.87,189.67 220.08,217.33 202.96,220.3 C202.96,220.3 241.29,223.05 234.59,189.67 L270.13,189.67 C277.521498,189.648034 283.508034,183.661498 283.53,176.27 L283.53,14.27 C283.508034,6.87850207 277.521498,0.891965964 270.13,0.87 Z" id="Path"></path>
                <g opacity="0.2" transform="translate(38.000000, 72.000000)" id="Rectangle">
                    <rect x="0.08" y="28.45" width="207.7" height="12.66" rx="5.67"></rect>
                    <rect x="0.08" y="0.16" width="90.06" height="12.66" rx="5.67"></rect>
                </g>
            </g>
            <path d="M740.94,363.64 L484.5,363.64 C477.108502,363.661966 471.121966,369.648502 471.1,377.04 L471.1,539.04 C471.121966,546.431498 477.108502,552.418034 484.5,552.44 L685.63,552.44 C685.63,552.44 690.84,580.1 673.72,583.08 C673.72,583.08 712.06,585.83 705.36,552.44 L740.94,552.44 C748.331498,552.418034 754.318034,546.431498 754.34,539.04 L754.34,377.04 C754.318034,369.648502 748.331498,363.661966 740.94,363.64 Z" id="Path" fill="#FFFFFF"></path>
            <g id="Group" opacity="0.2" transform="translate(508.000000, 434.000000)" fill="#6C63FF">
                <rect id="Rectangle" x="0.85" y="29.22" width="207.7" height="12.66" rx="5.67"></rect>
                <rect id="Rectangle" x="0.85" y="0.93" width="90.06" height="12.66" rx="5.67"></rect>
            </g>
            <path d="M694.15,779.97 C692.94,774.84 692.15,770.33 692.15,770.33 C692.15,770.33 692.43,764.74 689.92,760.54 L689.92,759.14 L689.92,748.81 C690.631759,746.934516 691.505039,745.124383 692.53,743.4 C694.39,740.15 692.53,728.25 692.53,728.25 C692.53,728.25 685.63,711.47 687.31,700.83 C688.99,690.19 673.14,653.56 673.14,653.56 C673.237565,650.028041 673.73746,646.518717 674.63,643.1 C674.796037,642.382506 674.863325,641.6457 674.83,640.91 C674.835174,640.820074 674.835174,640.729926 674.83,640.64 C674.83,640.64 674.83,640.7 674.83,640.73 C674.59,633.73 669.04,620.55 669.04,620.55 L669.79,595.48 C669.79,595.48 673.33,580.69 667.55,560.84 C665.55,553.92 664.24,548.37 663.42,544.1 C663.33,543.61 663.24,543.1 663.16,542.7 C675.06,540.89 684.16,539.38 684.16,539.38 C684.16,539.38 677.28,510.51 672.62,505.51 C667.96,500.51 664.24,484.51 664.24,484.51 C664.24,484.51 661.81,464.12 665.73,458.17 C669.65,452.22 670.2,441.94 670.2,441.94 C670.2,441.94 679.2,435.44 680.27,432.56 C681.34,429.68 683.27,423.18 683.27,419.75 C683.27,416.32 682.15,413.25 682.52,411.45 C682.89,409.65 679.91,402.79 681.4,399.54 C681.789921,398.542194 681.993294,397.481266 682,396.41 C682,396.41 682,396.35 682,396.32 C682.008835,393.481179 681.74428,390.648104 681.21,387.86 C678.626251,385.677341 675.610338,384.065446 672.36,383.13 L672.16,382.35 L671.66,380.35 C671.36,380.15 671.07,379.98 670.78,379.82 L670.78,379.08 L670.69,376.15 L672.1,369.57 C674.85,358.11 659.56,356.4 659.56,356.4 C658.636711,354.643334 657.093458,353.292542 655.23,352.61 C652.15,351.53 654.72,369.84 656.16,371.01 C657.24,371.89 660.58,377.63 662.16,380.45 L662.42,380.92 C662.165163,381.141761 661.930878,381.386087 661.72,381.65 L662.3,385.65 L662.39,386.26 C661.379201,387.520981 660.557258,388.922327 659.95,390.42 C659.95,390.42 662.75,393.49 662.19,396.92 C661.63,400.35 663.04,404.62 663.11,404.85 C662.95,404.66 660.98,402.53 659.02,403.05 C657.06,403.57 651.56,405.22 651.56,405.22 C651.56,405.22 647.46,405.94 647.84,406.84 C648.22,407.74 645.04,411.71 645.04,411.71 L634.04,401.27 C633.94,400.96 633.82,400.65 633.72,400.32 C633.251011,398.829547 632.916343,397.300113 632.72,395.75 C633.918267,395.460108 635.094535,395.085841 636.24,394.63 C637.380597,394.227322 638.408944,393.558895 639.24,392.68 C640.35,391.36 640.56,389.57 641.01,387.93 C641.89,384.72 643.76,381.86 645.1,378.81 C647.371763,373.672622 648.134807,367.994877 647.3,362.44 C647.125107,360.731768 646.545782,359.089776 645.61,357.65 C643.81,355.17 640.55,354.17 638.17,352.19 C635.79,350.21 634.27,347.19 631.51,345.72 C629.01,344.38 625.96,344.54 623.14,345 C617.629805,345.910263 612.336667,347.836273 607.53,350.68 C605.92,351.63 604.16,352.73 602.31,352.4 C600.73,352.11 599.57,350.84 598.54,349.63 C598.54,349.58 598.54,349.53 598.59,349.48 L598.47,349.34 C597.340515,351.912871 596.784318,354.700676 596.84,357.51 C596.84,357.95 596.84,358.39 596.89,358.83 L596.89,359.29 C596.89,359.42 596.89,359.55 596.89,359.67 C596.89292,359.869557 596.865955,360.068426 596.81,360.26 C596.585163,360.821467 596.244411,361.329187 595.81,361.75 C595.471293,362.126638 595.169884,362.535214 594.91,362.97 C594.951054,362.817165 595.001142,362.666901 595.06,362.52 C594.356868,363.548022 593.961411,364.755207 593.92,366 C593.856645,366.902325 594.15124,367.793294 594.74,368.48 C595.291945,369.020127 595.894741,369.505712 596.54,369.93 C594.969734,378.585945 598.961155,387.303209 606.54,391.77 C606.67,392.08 606.8,392.4 606.92,392.72 C608.33,396.43 609.39,400.72 608.92,404.72 C608.92,405.02 608.84,405.31 608.78,405.6 C608.72,405.89 608.51,405.9 608.39,406.06 C608.39,406.06 590.2,406.24 585.91,402.36 C581.62,398.48 575.1,411.83 575.1,411.83 C575.1,411.83 568.58,413.09 567.28,411.83 C565.98,410.57 558.33,411.65 558.33,411.65 C555.216354,408.887509 551.171222,407.408105 547.01,407.51 C544.464641,405.574838 541.656387,404.012452 538.67,402.87 L538.47,402.8 C537.158991,402.324 535.75833,402.146355 534.37,402.28 C534.37,402.28 525.42,394.88 522.81,390.92 C520.2,386.96 507.81,372.23 507.72,372.16 L507.72,371.45 L507.58,369.3 C507.213186,369.362325 506.842047,369.395762 506.47,369.4 C506.4,369.19 506.32,368.94 506.22,368.66 C505.502823,366.569679 504.620023,364.539907 503.58,362.59 C503.58,362.59 503.58,359.89 504.37,359.21 C505.16,358.53 504.04,348.61 504.04,348.61 C504.04,348.61 495.98,329.76 488.76,343.83 C488.76,343.83 475.11,352.94 486.57,363.54 C486.57,363.54 491.14,365.75 491.78,367.54 C492.21,368.68 493.78,371.86 494.78,373.97 L495.25,374.92 L495.12,375.03 L495.29,376.8 L495.36,377.48 C493.2,378.71 491.74,379.92 492.09,380.84 C492.727,382.402705 493.167049,384.038609 493.4,385.71 C493.4,385.71 509.18,405.51 511.23,414.01 C511.23,414.01 553.72,439.26 567.7,441.06 L565.28,453.69 C564.918696,457.104919 564.731786,460.536042 564.72,463.97 C564.9,466.68 563.04,478.97 563.04,478.97 C563.04,478.97 560.62,496.97 558.57,499.53 C556.52,502.09 556.94,512.86 556.94,512.86 C556.446047,518.040568 555.509291,523.169311 554.14,528.19 C552.14,535.05 553.58,543.53 553.58,543.53 C553.58,543.53 546.5,559.76 563.46,548.76 C563.46,548.76 571.79,548.24 581.38,547.91 C581.38,548.23 581.38,548.54 581.38,548.91 C581.38,550.14 581.38,551.48 581.32,552.91 C581.19,562.21 581.14,575.02 581.56,584.72 C582.31,601.85 587.56,635.77 587.56,635.77 L587.56,652.77 C587.226872,654.371741 587.062641,656.004001 587.07,657.64 C586.955209,663.646389 588.546832,669.562094 591.66,674.7 L592.97,686.06 C592.97,686.06 596.03,693.55 596.09,698.06 C596.075556,698.426199 596.032087,698.790676 595.96,699.15 C595.844684,699.722508 595.794366,700.306203 595.81,700.89 C595.64,706.05 598.75,718.39 598.75,718.39 C598.75,718.39 598.93,730.84 600.75,731.56 C602.34,732.18 598.62,738.74 597.51,740.62 C597.51,740.5 597.51,740.38 597.44,740.26 L597.21,740.64 C596.825045,741.642045 596.628416,742.706556 596.63,743.78 C596.415792,745.517314 597.2217,747.222569 598.7,748.16 C602.24,750.32 604.14,752.16 601.13,752.85 C600.025455,753.023043 598.930647,753.253354 597.85,753.54 L597.69,753.12 C596.823701,753.472098 596.31702,754.37748 596.47,755.3 C596.491476,756.775981 596.872477,758.224472 597.58,759.52 C600.58,766.2 602.58,768.72 602.58,768.72 L604.02,768.56 C603.802657,769.103161 603.524198,769.619819 603.19,770.1 C602.646934,770.883636 601.923216,771.525036 601.08,771.97 C600.301886,772.438784 599.432378,772.73544 598.53,772.84 C596.485065,772.908668 594.565608,773.842949 593.25,775.41 C591.39,777.82 590.25,781.09 593.9,783.97 L607.23,788.57 C607.23,788.57 630.15,791.57 628.94,786.4 C627.73,781.23 626.94,776.75 626.94,776.75 C627.033977,773.607036 626.397275,770.485143 625.08,767.63 C624.8389,767.16649 624.568345,766.718907 624.27,766.29 L625.08,766.2 C625.08,766.2 626.76,754.83 628.99,752.67 C629.51,752.17 629.63,751.79 629.5,751.49 C629.73,750.87 629.15,750.49 628.4,750.3 L628.24,750.75 C627.507235,750.590241 626.75995,750.506464 626.01,750.5 C626.01,750.5 625.27,744.55 627.69,742.39 C628.084928,741.890498 628.255104,741.249623 628.16,740.62 C628.176894,739.802802 628.092927,738.98664 627.91,738.19 L627.82,738.33 C626.6,732.93 622.47,724.33 622.47,724.33 C622.47,724.33 622.28,718.92 623.78,716.75 C625.28,714.58 623.59,687.35 623.59,687.35 C623.59,687.35 624.15,674.18 622.47,668.05 C620.79,661.92 624.52,654.7 624.52,654.7 C624.52,654.7 624.52,654.55 624.52,654.3 L624.57,654.21 C624.57,654.21 624.48,653.4 624.35,652.14 C624.35,652.14 624.35,652.22 624.35,652.26 C623.97,648.78 623.26,642.46 622.74,639.54 C621.99,635.39 622.92,615.54 622.92,615.54 L626.28,607.06 L632.28,621.68 L638.62,641.16 C638.62,641.16 641.76,645.27 641.83,649.44 C641.845221,649.643048 641.845221,649.846952 641.83,650.05 C641.782289,650.485022 641.75892,650.92237 641.76,651.36 C641.648512,653.816634 642.324712,656.244647 643.69,658.29 C643.69,658.29 645.37,667.49 647.98,669.84 C650.59,672.19 650.59,676.69 650.59,676.69 C650.59,676.69 653.75,690.04 655.25,692.39 C656.5,694.39 656.57,699.8 656.56,701.46 C656.56,701.77 656.56,701.95 656.56,701.95 C656.56,701.95 657,706.72 656.98,710.73 C656.98,711.22 656.98,711.73 656.98,712.16 C656.975291,712.123485 656.975291,712.086515 656.98,712.05 C656.971815,713.144501 656.840999,714.234637 656.59,715.3 C656.59,715.3 656.59,715.42 656.53,715.49 L656.59,714.81 C655.91856,717.532164 655.582732,720.32626 655.59,723.13 C655.5,727.93 656.23,733.61 659.14,736.94 C664.14,742.72 667.34,742 667.34,742 C667.34,742 664.92,749.21 661.93,750.65 C661.819207,750.708301 661.715236,750.778734 661.62,750.86 C661.62,750.72 661.56,750.58 661.54,750.44 C660.884641,751.174437 660.568836,752.150889 660.67,753.13 C660.45,756.3 662.45,761.45 664.36,763.82 C665.061573,764.516003 665.928819,765.021896 666.88,765.29 L666.41,765.58 C666.085792,765.761333 665.751966,765.924908 665.41,766.07 C664.92798,766.281987 664.414538,766.413726 663.89,766.46 C661.842868,766.519775 659.919965,767.455734 658.61,769.03 C656.75,771.43 655.61,774.7 659.26,777.58 L672.59,782.18 C672.59,782.18 695.36,785.12 694.15,779.97 Z" id="Path" fill="url(#linearGradient-2)"></path>
            <path d="M606.59,788.51 L593.69,783.91 C590.13,781.03 591.27,777.76 593.06,775.35 C594.31133,773.794424 596.175081,772.857077 598.17,772.78 C599.047348,772.675404 599.890768,772.378329 600.64,771.91 C601.446583,771.455529 602.132425,770.814267 602.64,770.04 C603.589968,768.544517 604.099426,766.811665 604.11,765.04 C604.11,765.04 618.28,760.89 622.11,765.04 C622.800407,765.790115 623.379639,766.635391 623.83,767.55 C625.103763,770.417362 625.718831,773.533705 625.63,776.67 C625.63,776.67 626.36,781.18 627.52,786.32 C628.68,791.46 606.59,788.51 606.59,788.51 Z" id="Path" fill="#2D293D"></path>
            <path d="M669.73,782.14 L656.83,777.54 C653.27,774.66 654.4,771.39 656.2,768.99 C657.445316,767.427 659.312707,766.487824 661.31,766.42 C661.818477,766.37377 662.31548,766.241913 662.78,766.03 C663.124897,765.891406 663.459132,765.727631 663.78,765.54 C667.38,763.54 667.29,758.69 667.29,758.69 C667.29,758.69 681.45,754.54 685.29,758.69 C685.81105,759.247897 686.264205,759.86553 686.64,760.53 C689.08,764.73 688.81,770.33 688.81,770.33 C688.81,770.33 689.53,774.84 690.7,779.98 C691.87,785.12 669.73,782.14 669.73,782.14 Z" id="Path" fill="#2D293D"></path>
            <path d="M622.19,765.05 C622.880407,765.800115 623.459639,766.645391 623.91,767.56 L602.68,770.02 C603.629968,768.524517 604.139426,766.791665 604.15,765.02 C604.15,765.02 618.32,760.9 622.19,765.05 Z" id="Path" fill="#000000" opacity="0.1"></path>
            <path d="M686.68,760.51 L686.68,764.51 C683.39,769.95 667.42,768.76 662.78,766.03 C663.124897,765.891406 663.459132,765.727631 663.78,765.54 C667.38,763.54 667.29,758.69 667.29,758.69 C667.29,758.69 681.45,754.54 685.29,758.69 C685.823788,759.239467 686.290392,759.850417 686.68,760.51 Z" id="Path" fill="#000000" opacity="0.1"></path>
            <path d="M689.21,743.4 C688.221406,745.131768 687.375284,746.941065 686.68,748.81 L686.68,763.06 C683.08,769.06 664.32,767.06 661.79,763.78 C659.26,760.5 656.56,752.06 659.45,750.62 C662.34,749.18 664.68,741.96 664.68,741.96 C664.68,741.96 661.61,742.68 656.74,736.91 C651.87,731.14 653.31,718.33 654.22,715.26 C655.13,712.19 654.22,701.91 654.22,701.91 C654.22,701.91 654.4,694.7 652.95,692.35 C651.5,690 648.44,676.66 648.44,676.66 C648.44,676.66 648.44,672.15 645.92,669.8 C643.4,667.45 641.77,658.26 641.77,658.26 C640.284284,655.965103 639.637759,653.227086 639.94,650.51 C640.49,646 636.88,641.13 636.88,641.13 L630.75,621.65 L624.97,607.04 L621.75,615.51 C621.75,615.51 620.84,635.35 621.57,639.51 C622.3,643.67 623.37,654.66 623.37,654.66 C623.37,654.66 619.76,661.88 621.37,668.01 C622.98,674.14 622.45,687.31 622.45,687.31 C622.45,687.31 624.07,714.55 622.63,716.71 C621.19,718.87 621.37,724.29 621.37,724.29 C621.37,724.29 628.76,740.16 626.37,742.29 C623.98,744.42 624.74,750.41 624.74,750.41 C624.74,750.41 629.74,750.41 627.63,752.57 C625.52,754.73 623.94,766.13 623.94,766.13 L602.13,768.65 C602.13,768.65 600.13,766.13 597.24,759.45 C594.35,752.77 597.78,753.45 600.69,752.78 C603.6,752.11 601.75,750.25 598.33,748.09 C594.91,745.93 596.88,741.09 596.88,741.09 C596.88,741.09 602.11,732.25 600.31,731.52 C598.51,730.79 598.31,718.36 598.31,718.36 C598.31,718.36 594.7,703.56 595.6,699.6 C596.5,695.64 592.71,686.07 592.71,686.07 L591.45,674.7 C587.582015,668.25944 586.162097,660.641583 587.45,653.24 L587.45,635.71 C587.45,635.71 582.45,601.8 581.68,584.66 C581.22,573.66 581.35,558.71 581.5,549.36 C581.59,544.12 581.68,540.65 581.68,540.65 L659.63,532.51 C659.749093,536.401375 660.221027,540.273918 661.04,544.08 C661.83,548.36 663.04,553.9 665.04,560.83 C670.63,580.67 667.2,595.46 667.2,595.46 L666.48,620.54 C666.48,620.54 673.34,637.31 671.89,643.09 C671.026809,646.513104 670.543888,650.020988 670.45,653.55 C670.45,653.55 685.78,690.17 684.16,700.81 C682.54,711.45 689.16,728.23 689.16,728.23 C689.16,728.23 691.01,740.15 689.21,743.4 Z" id="Path" fill="#575988"></path>
            <path d="M644.65,649.42 L668.38,646.26 C668.38,646.26 654.94,659.97 644.65,649.42 Z" id="Path" fill="#000000" opacity="0.05"></path>
            <path d="M664.94,623.08 C664.94,623.08 665.75,631.47 660.61,634.63 C660.62,634.63 669.82,633.18 664.94,623.08 Z" id="Path" fill="#000000" opacity="0.1"></path>
            <path d="M663.49,596.39 C663.49,596.39 643.66,612.71 636.49,611.39 C629.32,610.07 663.49,596.39 663.49,596.39 Z" id="Path" fill="#000000" opacity="0.1"></path>
            <path d="M615.25,657.09 C615.25,657.09 600.19,660.51 599.74,666.56 C599.29,672.61 615.25,657.09 615.25,657.09 Z" id="Path" fill="#000000" opacity="0.1"></path>
            <path d="M618.56,732.31 C618.56,732.31 597.28,736.31 603.32,738.98 C609.36,741.65 619.32,743.85 619.32,743.85 C619.32,743.85 626.14,744.21 618.56,732.31 Z" id="Path" fill="#000000" opacity="0.05"></path>
            <g id="Group" opacity="0.05" transform="translate(581.000000, 540.000000)" fill="#000000">
                <path d="M18.02,203.28 C16.9405817,202.595121 16.2277837,201.459788 16.08,200.19 L15.86,200.57 C15.86,200.57 13.86,205.44 17.3,207.57 C17.7,207.82 18.07,208.07 18.41,208.31 C19.05,208.19 19.73,208.1 20.41,207.94 C23.29,207.24 21.45,205.44 18.02,203.28 Z" id="Path"></path>
                <path d="M45.44,201.83 C46.03,201.29 46.01,199.9 45.65,198.12 C44.7803932,199.721554 44.3621692,201.529249 44.44,203.35 C44.663264,202.778922 45.0039466,202.261085 45.44,201.83 Z" id="Path"></path>
                <path d="M42.17,112.09 C41.3818185,114.22164 40.8970794,116.45346 40.73,118.72 C41.137406,117.152123 41.689786,115.625545 42.38,114.16 C42.38,114.16 42.3,113.35 42.17,112.09 Z" id="Path"></path>
                <path d="M90.94,102.62 C91.0874405,101.963897 91.1545994,101.292307 91.14,100.62 C90.87,101.96 90.68,103.21 90.55,104.31 C90.62,103.78 90.75,103.21 90.94,102.62 Z" id="Path"></path>
                <path d="M41.65,176.22 C42.0644098,174.928929 42.247225,173.574742 42.19,172.22 C41.5367145,173.827366 41.1972687,175.544962 41.19,177.28 C41.3008127,176.909696 41.4552282,176.553869 41.65,176.22 Z" id="Path"></path>
                <path d="M46.12,210.23 C44.9988707,213.851206 44.169553,217.556384 43.64,221.31 L21.83,223.84 C21.83,223.84 19.83,221.31 16.94,214.64 C16.69,214.05 16.49,213.53 16.33,213.05 C15.02,213.65 14.51,215.05 16.22,218.97 C19.11,225.64 21.1,228.17 21.1,228.17 L42.94,225.64 C42.94,225.64 44.56,214.28 46.72,212.11 C47.77,211.05 47.09,210.51 46.12,210.23 Z" id="Path"></path>
                <path d="M17.3,177.84 C17.3,177.84 17.48,190.29 19.3,191.01 C20.21,188.95 20.82,187.01 20.01,186.67 C18.2,185.95 18.01,173.5 18.01,173.5 C18.01,173.5 14.41,158.71 15.31,154.74 C16.21,150.77 12.42,141.21 12.42,141.21 L11.16,129.85 C7.28620656,123.407963 5.86596863,115.784836 7.16,108.38 L7.16,90.88 C7.16,90.88 2.16,56.97 1.39,39.88 C0.93,28.88 1.06,13.88 1.21,4.58 C1.21,2.89 1.26,1.39 1.29,0.13 L0.67,0.19 C0.67,0.19 0.57,3.66 0.49,8.91 C0.33,18.25 0.2,33.23 0.67,44.2 C1.39,61.34 6.44,95.25 6.44,95.25 L6.44,112.75 C5.14596863,120.154836 6.56620656,127.777963 10.44,134.22 L11.71,145.51 C11.71,145.51 15.5,155.07 14.6,159.04 C13.7,163.01 17.3,177.84 17.3,177.84 Z" id="Path"></path>
                <path d="M81.52,218.97 C79.7481116,216.40484 78.5695973,213.477342 78.07,210.4 C75.84,212.4 78.4,220.21 80.8,223.3 C83.32,226.54 102.08,228.53 105.69,222.58 L105.69,219.14 C100.81,223.98 83.94,222.04 81.52,218.97 Z" id="Path"></path>
                <path d="M108.94,198.59 C107.944067,200.317955 107.097653,202.127876 106.41,204 L106.41,206.51 C106.82,205.58 107.41,204.35 108.22,202.89 C108.795918,201.475971 109.065183,199.955816 109.01,198.43 C108.979113,198.4797 108.955538,198.533585 108.94,198.59 Z" id="Path"></path>
                <path d="M82.63,201.43 C83.3181518,200.04121 83.9128077,198.608023 84.41,197.14 C84.41,197.14 81.34,197.86 76.47,192.14 C72.92,187.94 72.72,180.01 73.23,174.83 C72.32,177.89 70.88,190.7 75.75,196.47 C78.94,200.2 81.34,201.19 82.63,201.43 Z" id="Path"></path>
                <path d="M73.22,161.43 C73.5377447,164.983925 73.6579296,168.55275 73.58,172.12 C73.6723195,171.553617 73.7958408,170.992763 73.95,170.44 C74.86,167.38 73.95,157.1 73.95,157.1 C73.95,157.1 74.13,149.88 72.69,147.54 C71.25,145.2 68.18,131.84 68.18,131.84 C68.18,131.84 68.18,127.33 65.66,124.99 C63.14,122.65 61.51,113.44 61.51,113.44 C60.0281904,111.143881 59.388515,108.40494 59.7,105.69 C60.24,101.18 56.64,96.31 56.64,96.31 L50.5,76.82 L44.73,62.21 L41.48,70.69 C41.48,70.69 41.48,71.76 41.37,73.43 L44.01,66.54 L49.78,81.15 L55.94,100.64 C55.94,100.64 59.55,105.51 59.01,110.02 C58.698515,112.73494 59.3381904,115.473881 60.82,117.77 C60.82,117.77 62.44,126.97 64.96,129.32 C67.48,131.67 67.49,136.17 67.49,136.17 C67.49,136.17 70.56,149.52 72,151.87 C73.44,154.22 73.22,161.43 73.22,161.43 Z" id="Path"></path>
            </g>
            <path d="M669.37,369.51 L668.01,376.09 L668.09,379.02 L668.15,381.19 L660.62,381.96 L659.78,380.4 C658.22,377.58 654.99,371.84 653.94,370.96 C652.55,369.79 650.07,351.48 653.05,352.56 C654.868827,353.264452 656.361761,354.618425 657.24,356.36 C657.24,356.36 672.03,358.1 669.37,369.51 Z" id="Path" fill="#FFCDD3"></path>
            <path d="M668.15,381.23 L660.62,382 L659.78,380.44 C661.870995,378.063914 665.346941,377.490864 668.09,379.07 L668.15,381.23 Z" id="Path" fill="#000000" opacity="0.1"></path>
            <path d="M670.05,384.79 L660.12,387.09 L659.92,385.61 L659.35,381.61 C659.35,381.61 663.28,376.37 668.96,380.3 L669.45,382.3 L670.05,384.79 Z" id="Path" fill="#DCE6F2"></path>
            <path d="M509.27,370.27 L498.68,375.95 L497.68,373.95 C496.68,371.84 495.17,368.66 494.76,367.52 C494.13,365.77 489.71,363.52 489.71,363.52 C478.62,352.92 491.83,343.81 491.83,343.81 C498.83,329.74 506.62,348.59 506.62,348.59 C506.62,348.59 507.7,358.52 506.94,359.19 C506.18,359.86 506.17,362.57 506.17,362.57 C507.184532,364.521502 508.04062,366.551367 508.73,368.64 C509.1,369.65 509.27,370.27 509.27,370.27 Z" id="Path" fill="#FFCDD3"></path>
            <path d="M509.27,370.27 L498.68,375.95 L497.68,373.95 C499.17,372.71 504.48,368.41 506.22,368.6 C507.052596,368.702318 507.892996,368.725755 508.73,368.67 C509.1,369.65 509.27,370.27 509.27,370.27 Z" id="Path" fill="#000000" opacity="0.1"></path>
            <path d="M510.35,373.51 L498.45,379.38 L498.21,376.82 L498.04,375.05 C498.04,375.05 504.94,369.14 506.98,369.36 C508.011197,369.510606 509.058803,369.510606 510.09,369.36 L510.22,371.5 L510.35,373.51 Z" id="Path" fill="#DCE6F2"></path>
            <path d="M640.51,413.29 C640.51,413.29 588.59,419.15 598.3,416 C605.05,413.8 607.73,409.51 608.3,404.74 C608.75,400.74 607.73,396.44 606.36,392.74 C605.134952,389.464279 603.580305,386.321479 601.72,383.36 C601.72,383.36 641.41,361.53 633.47,381.36 C632.245415,384.360383 631.486653,387.530324 631.22,390.76 C630.968946,393.96448 631.307889,397.18783 632.22,400.27 C633.722096,405.29496 636.592426,409.803005 640.51,413.29 Z" id="Path" fill="#FFCDD3"></path>
            <path d="M633.47,381.37 C632.245415,384.370383 631.486653,387.540324 631.22,390.77 C627.48,393.91 623.38,393.7 618.12,393.7 C614.12,393.7 609.6,394.7 606.36,392.7 C605.134952,389.424279 603.580305,386.281479 601.72,383.32 C601.72,383.32 641.41,361.51 633.47,381.37 Z" id="Path" fill="#000000" opacity="0.1"></path>
            <circle id="Oval" fill="#FFCDD3" cx="617.41" cy="373.61" r="21.47"></circle>
            <path d="M640.51,413.29 C640.51,413.29 588.59,419.15 598.3,416 C605.05,413.8 607.73,409.51 608.3,404.74 C610.88,401.94 616.07,399.92 619.41,398.85 C622.455425,397.826601 625.743503,397.774188 628.82,398.7 C630.03032,399.058743 631.182284,399.590936 632.24,400.28 C633.738182,405.299062 636.601312,409.803212 640.51,413.29 Z" id="Path" fill="#000000" opacity="0.1"></path>
            <path d="M670.05,384.79 L660.12,387.09 L659.92,385.61 C662.093754,382.62564 665.903812,381.322305 669.45,382.35 L670.05,384.79 Z" id="Path" fill="#000000" opacity="0.1"></path>
            <path d="M510.35,373.51 L498.45,379.38 L498.21,376.82 C502.071123,374.748645 506.082412,372.970307 510.21,371.5 L510.35,373.51 Z" id="Path" fill="#000000" opacity="0.1"></path>
            <path d="M661.04,544.1 C640.94,547.28 612.32,551.41 607.78,550.03 C604.02,548.88 591.99,549.03 581.52,549.36 C581.61,544.12 581.7,540.65 581.7,540.65 L659.63,532.51 C659.747885,536.408073 660.219826,540.287365 661.04,544.1 Z" id="Path" fill="#000000" opacity="0.1"></path>
            <path d="M681.09,539.38 C681.09,539.38 614.89,550.75 607.78,548.58 C600.67,546.41 564.2,548.76 564.2,548.76 C547.79,559.76 554.64,543.53 554.64,543.53 C554.64,543.53 553.2,535.05 555.18,528.2 C556.525377,523.175793 557.448588,518.047954 557.94,512.87 C557.94,512.87 557.58,502.04 559.56,499.52 C561.54,497 563.89,478.95 563.89,478.95 C563.89,478.95 565.7,466.69 565.52,463.95 C565.527841,460.516455 565.708068,457.08547 566.06,453.67 L568.4,441.04 C554.87,439.24 513.74,413.98 513.74,413.98 C511.74,405.51 496.43,385.66 496.43,385.66 C496.207305,383.990861 495.780789,382.355324 495.16,380.79 C494.08,377.91 510.32,372.14 510.32,372.14 C510.32,372.14 522.4,386.93 524.93,390.9 C527.46,394.87 536.11,402.26 536.11,402.26 C537.46561,402.121294 538.834912,402.299303 540.11,402.78 L540.32,402.84 C543.223187,403.988535 545.94476,405.551418 548.4,407.48 C552.46649,407.382216 556.411468,408.870548 559.4,411.63 C559.4,411.63 566.8,410.55 568.06,411.81 C569.32,413.07 575.64,411.81 575.64,411.81 C575.64,411.81 581.95,398.46 586.1,402.34 C590.25,406.22 607.85,406.04 607.85,406.04 C610.2,402.92 615.91,400.68 619.48,399.53 C622.52621,398.511184 625.812865,398.458793 628.89,399.38 C630.219675,399.760786 631.47443,400.36618 632.6,401.17 L643.28,411.63 C643.28,411.63 646.35,407.63 645.99,406.76 C645.63,405.89 649.6,405.14 649.6,405.14 C649.6,405.14 654.83,403.51 656.81,402.97 C658.79,402.43 660.61,404.58 660.81,404.77 C660.75,404.54 659.39,400.17 659.92,396.84 C660.45,393.51 657.75,390.34 657.75,390.34 C664.07,374.83 678.32,387.82 678.32,387.82 C678.32,387.82 679.94,396.3 678.5,399.54 C677.06,402.78 679.94,409.65 679.58,411.45 C679.22,413.25 680.3,416.32 680.3,419.75 C680.3,423.18 678.5,429.67 677.41,432.55 C676.32,435.43 667.67,441.93 667.67,441.93 C667.67,441.93 667.13,452.22 663.34,458.17 C659.55,464.12 661.79,484.51 661.79,484.51 C661.79,484.51 665.4,500.42 669.94,505.51 C674.48,510.6 681.09,539.38 681.09,539.38 Z" id="Path" fill="#656691"></path>
            <path d="M584.59,420.69 C584.59,420.69 582.59,414.74 580.8,414.2 C579.006245,413.534091 577.259016,412.749007 575.57,411.85 L576.73,409.63 C576.73,409.63 583.5,411.49 584.59,413.47 C585.68,415.45 584.59,420.69 584.59,420.69 Z" id="Path" fill="#000000" opacity="0.1"></path>
            <path d="M548.33,407.51 C547.97,409.31 531.91,410.94 531.91,410.94 L540.03,402.8 L540.23,402.87 C543.140187,404.016803 545.868604,405.579748 548.33,407.51 Z" id="Path" fill="#000000" opacity="0.1"></path>
            <circle id="Oval" fill="#575988" cx="501.87" cy="382.76" r="1.44"></circle>
            <circle id="Oval" fill="#575988" cx="503.72" cy="385.65" r="1.44"></circle>
            <circle id="Oval" fill="#575988" cx="505.53" cy="388.31" r="1.44"></circle>
            <circle id="Oval" fill="#575988" cx="507.42" cy="391.2" r="1.44"></circle>
            <circle id="Oval" fill="#575988" cx="677.46" cy="391.04" r="1.17"></circle>
            <circle id="Oval" fill="#575988" cx="677.64" cy="393.7" r="1.17"></circle>
            <circle id="Oval" fill="#575988" cx="677.8" cy="396.36" r="1.17"></circle>
            <path d="M584.68,469.57 C584.51,469.36 625.17,520.71 656.74,491.04 C656.74,491.04 606.86,497.8 584.68,469.57 Z" id="Path" fill="#000000" opacity="0.1"></path>
            <path d="M561.32,496.27 C561.32,496.27 585.65,496.93 588.19,503.93 L588.19,511.22 C586.784681,512.00153 585.075319,512.00153 583.67,511.22 C581.22,509.89 566.5,502.42 561.32,506.01 L561.32,496.27 Z" id="Path" fill="#000000" opacity="0.1"></path>
            <path d="M561.77,496.27 C561.77,496.27 585.04,496.9 587.47,503.58 L587.47,510.51 C586.123482,511.257628 584.486518,511.257628 583.14,510.51 C580.8,509.25 566.73,502.12 561.77,505.51 L561.77,496.27 Z" id="Path" fill="#656691"></path>
            <path d="M574.6,443.43 C577.086666,449.183303 580.25248,454.618565 584.03,459.62 C588.149158,465.147633 593.141187,469.967407 598.81,473.89 C598.81,473.89 575,446.78 574.6,443.43 Z" id="Path" fill="#000000" opacity="0.1"></path>
            <path d="M566.64,415.16 C566.64,415.16 570.7,432.68 581.16,438.64 L566.64,415.16 Z" id="Path" fill="#000000" opacity="0.1"></path>
            <path d="M560.41,416.93 C560.31,416.61 556.81,430.79 573.9,438.64 C573.94,438.64 566.64,436.17 560.41,416.93 Z" id="Path" fill="#000000" opacity="0.1"></path>
            <path d="M666.66,405.18 C666.39,405.18 675.1,410.72 677.46,413.29 C677.46,413.29 671.8,404.82 666.66,405.18 Z" id="Path" fill="#000000" opacity="0.1"></path>
            <path d="M611.61,393.07 C611.782543,394.214537 612.382957,395.250966 613.29,395.97 C613.914667,396.267558 614.598084,396.421327 615.29,396.42 C621.84,396.82 628.65,397.11 634.7,394.59 C635.845544,394.19742 636.876165,393.527517 637.7,392.64 C638.78,391.32 638.98,389.53 639.42,387.89 C640.26,384.68 642.07,381.82 643.42,378.77 C645.61337,373.61069 646.346738,367.947839 645.54,362.4 C645.381753,360.697187 644.823235,359.055896 643.91,357.61 C642.17,355.13 639.01,354.13 636.71,352.16 C634.41,350.19 632.94,347.16 630.26,345.68 C627.84,344.34 624.89,344.5 622.16,344.96 C616.770189,345.862876 611.603543,347.791033 606.94,350.64 C605.39,351.59 603.68,352.69 601.94,352.36 C600.37,352.06 599.23,350.74 598.22,349.51 C596.944579,352.453261 596.395811,355.660121 596.62,358.86 C596.700232,359.326576 596.700232,359.803424 596.62,360.27 C596.393845,360.830769 596.053267,361.338232 595.62,361.76 C594,363.63 592.99,366.6 594.62,368.49 C595.31,369.32 596.38,369.77 597.06,370.61 C598.27,372.12 597.86,374.28 597.83,376.22 C597.761254,376.890098 597.931239,377.562956 598.31,378.12 C599.021937,378.779803 600.027298,379.018813 600.96,378.75 C601.873598,378.477986 602.831385,378.386283 603.78,378.48 C604.788863,378.811115 605.653642,379.47823 606.23,380.37 C609.17,384.21 610.34,388.44 611.61,393.07 Z" id="Path" fill="#2D293D"></path>
            <g id="Group" opacity="0.1" transform="translate(593.000000, 349.000000)" fill="#000000">
                <path d="M45.39,41.98 C44.5740875,42.8883271 43.5422682,43.5762066 42.39,43.98 C36.39,46.5 29.53,46.21 22.98,45.8 C22.2870434,45.8110872 21.6014267,45.6568234 20.98,45.35 C20.0706348,44.6329757 19.4696446,43.5955521 19.3,42.45 C18.03,37.83 16.86,33.6 13.83,29.76 C13.2536418,28.8682304 12.3888629,28.2011153 11.38,27.87 C10.4313992,27.7712876 9.47263637,27.8630841 8.56,28.14 C7.63642307,28.3936253 6.64730666,28.1557844 5.94,27.51 C5.56052636,26.9495192 5.39058411,26.2732907 5.46,25.6 C5.46,23.67 5.9,21.5 4.69,20 C4.01,19.15 2.95,18.71 2.25,17.88 C1.33159014,16.628534 1.17047948,14.9752318 1.83,13.57 C0.69,15.39 0.19,17.73 1.53,19.32 C2.22,20.15 3.29,20.6 3.97,21.44 C5.18,22.95 4.77,25.11 4.74,27.05 C4.67125413,27.7200978 4.84123949,28.3929565 5.22,28.95 C5.93193686,29.609803 6.93729776,29.8488133 7.87,29.58 C8.78359812,29.3079864 9.74138516,29.2162834 10.69,29.31 C11.6988629,29.6411153 12.5636418,30.3082304 13.14,31.2 C16.14,35.04 17.34,39.27 18.61,43.9 C18.6172153,44.8484967 19.0214772,45.7505882 19.7246167,46.3872144 C20.4277561,47.0238407 21.3654526,47.3367656 22.31,47.25 C28.86,47.65 35.67,47.94 41.72,45.42 C42.8655444,45.0274202 43.8961648,44.357517 44.72,43.47 C45.1282716,42.9481332 45.4429349,42.3594082 45.65,41.73 C45.5683244,41.8183731 45.481507,41.9018515 45.39,41.98 Z" id="Path"></path>
                <path d="M3.62,10.7 C3.91430276,10.3910338 4.1393098,10.0228405 4.28,9.62 C4.3600365,9.15340736 4.3600365,8.67659264 4.28,8.21 C4.09519834,5.57932493 4.43511731,2.93815457 5.28,0.44 L5.16,0.3 C3.8792485,3.24167248 3.33025607,6.44984702 3.56,9.65 C3.609945,9.99764469 3.63001838,10.3489288 3.62,10.7 Z" id="Path"></path>
            </g>
            <path d="M607.78,406.08 C607.78,406.08 634.6,409.63 637.01,405.6" id="Path" fill="#000000" opacity="0.1"></path>
            <path d="M659.94,394.98 C659.94,394.98 674.83,394.98 678.11,400.59" id="Path" fill="#000000" opacity="0.1"></path>
            <path d="M980.68,381.51 C980.68,381.51 982.54,383.94 979.82,387.62 C977.1,391.3 974.82,394.41 975.76,396.7 C975.76,396.7 979.87,389.87 983.21,389.77 C986.55,389.67 984.36,385.57 980.68,381.51 Z" id="Path" fill="#6C63FF"></path>
            <path d="M980.68,381.51 C980.838986,381.745842 980.966717,382.001306 981.06,382.27 C984.32,386.11 986.06,389.68 982.92,389.77 C980,389.86 976.5,395.08 975.66,396.4 C975.66,396.5 975.72,396.6 975.76,396.7 C975.8,396.8 979.87,389.87 983.21,389.77 C986.55,389.67 984.36,385.57 980.68,381.51 Z" id="Path" fill="#000000" opacity="0.1"></path>
            <path d="M984.14,384.56 C984.14,385.42 984.05,386.12 983.93,386.12 C983.81,386.12 983.71,385.42 983.71,384.56 C983.71,383.7 983.83,384.11 983.95,384.11 C984.07,384.11 984.14,383.71 984.14,384.56 Z" id="Path" fill="#FFD037"></path>
            <path d="M985.33,385.59 C984.58,386 983.92,386.25 983.87,386.14 C983.82,386.03 984.37,385.62 985.13,385.21 C985.89,384.8 985.58,385.1 985.64,385.21 C985.7,385.32 986.09,385.18 985.33,385.59 Z" id="Path" fill="#FFD037"></path>
            <path d="M970.84,381.51 C970.84,381.51 968.97,383.94 971.7,387.62 C974.43,391.3 976.7,394.41 975.76,396.7 C975.76,396.7 971.65,389.87 968.3,389.77 C964.95,389.67 967.16,385.57 970.84,381.51 Z" id="Path" fill="#6C63FF"></path>
            <path d="M970.84,381.51 C970.674992,381.743784 970.543705,381.999626 970.45,382.27 C967.19,386.11 965.45,389.68 968.59,389.77 C971.51,389.86 975.02,395.08 975.86,396.4 C975.86,396.5 975.8,396.6 975.76,396.7 C975.72,396.8 971.65,389.87 968.3,389.77 C964.95,389.67 967.16,385.57 970.84,381.51 Z" id="Path" fill="#000000" opacity="0.1"></path>
            <path d="M967.37,384.56 C967.37,385.42 967.47,386.12 967.59,386.12 C967.790465,385.626038 967.862706,385.089389 967.8,384.56 C967.8,383.71 967.68,384.11 967.56,384.11 C967.44,384.11 967.37,383.71 967.37,384.56 Z" id="Path" fill="#FFD037"></path>
            <path d="M966.18,385.59 C966.94,386 967.59,386.25 967.65,386.14 C967.71,386.03 967.14,385.62 966.39,385.21 C965.64,384.8 965.93,385.1 965.87,385.21 C965.81,385.32 965.43,385.18 966.18,385.59 Z" id="Path" fill="#FFD037"></path>
            <path d="M967.94,396.33 C967.94,396.33 973.15,396.17 974.72,395.05 C976.29,393.93 982.72,392.6 983.13,394.39 C983.54,396.18 990.96,403.31 985.13,403.39 C979.3,403.47 971.46,402.48 969.89,401.52 C968.32,400.56 967.94,396.33 967.94,396.33 Z" id="Path" fill="#A8A8A8"></path>
            <path d="M985.2,402.74 C979.32,402.74 971.53,401.82 969.97,400.87 C968.77,400.14 968.3,397.53 968.14,396.33 L967.94,396.33 C967.94,396.33 968.27,400.54 969.84,401.49 C971.41,402.44 979.19,403.41 985.08,403.36 C986.78,403.36 987.36,402.74 987.33,401.85 C987.11,402.39 986.47,402.73 985.2,402.74 Z" id="Path" fill="#000000" opacity="0.2"></path>
        </g>
    </g>
</svg>