<?xml version="1.0" encoding="UTF-8"?>
<svg width="1130px" height="800px" viewBox="0 0 1130 800" version="1.1" xmlns="http://www.w3.org/2000/svg" xmlns:xlink="http://www.w3.org/1999/xlink">
    <!-- Generator: Sketch 54.1 (76490) - https://sketchapp.com -->
    <title>uiux</title>
    <desc>Created with Sketch.</desc>
    <defs>
        <linearGradient x1="50.0178111%" y1="100.038419%" x2="50.0178111%" y2="0.0267071872%" id="linearGradient-1">
            <stop stop-color="#808080" stop-opacity="0.25" offset="0%"></stop>
            <stop stop-color="#808080" stop-opacity="0.12" offset="54%"></stop>
            <stop stop-color="#808080" stop-opacity="0.1" offset="100%"></stop>
        </linearGradient>
    </defs>
    <g id="Page-1" stroke="none" stroke-width="1" fill="none" fill-rule="evenodd">
        <g id="uiux">
            <path d="M1108.14,197.65 C1096.58946,175.213223 1081.44614,154.817199 1063.31,137.27 L441.45,132.09 L953.45,71.3 C919.948858,60.0907244 884.895116,54.21244 849.57,53.88 C800.28,20.23 736.93,0 667.83,0 C605.83,0 548.5,16.29 501.76,43.93 C462,26.6 416.74,16.81 368.65,16.81 C230.48,16.81 115.35,97.71 89.52,205 L1108.14,197.65 Z" id="Path" fill="#6C63FF" fill-rule="nonzero" opacity="0.1"></path>
            <path d="M1130,287.6 C1129.95719,258.201886 1123.33535,229.186052 1110.62,202.68 L32.86,298.35 C21.9223733,315.027745 13.4200465,333.180634 7.61,352.26 L341.36,394.32 L0,424.99 C10.27,546.44 133.43,642.35 283.88,642.35 C359.61,642.35 428.42,618.04 479.41,578.41 C530.56,618.79 600,643.6 676.58,643.6 C790.15,643.6 888.18,588.93 933.83,509.88 C1025.41,485.31 1096.55,423.6 1120.9,346.42 L698.83,291.1 L1130,291.1 C1130,289.95 1130,288.79 1130,287.6 Z" id="Path" fill="#6C63FF" fill-rule="nonzero" opacity="0.1"></path>
            <path d="M283.42,553.07 C283.42,553.07 237.2,486.38 245.05,423.44 C248.506278,397.062281 243.313063,370.275122 230.25,347.1 C223.963862,336.144107 216.686754,325.787451 208.51,316.16" id="Path" stroke="#535461" stroke-width="2"></path>
            <path d="M213.22,276.47 C216.22,285.52 208.51,317.21 208.51,317.21 C208.51,317.21 183.42,296.38 180.42,287.32 C177.423855,278.26253 182.33753,268.491145 191.395,265.495 C200.45247,262.498855 210.223855,267.41253 213.22,276.47 L213.22,276.47 Z" id="Path" fill="#6C63FF" fill-rule="nonzero"></path>
            <path d="M256.92,317.66 C254.52,326.89 230.83,349.3 230.83,349.3 C230.83,349.3 221.09,318.18 223.5,308.95 C224.983493,302.899519 229.610605,298.116938 235.608777,296.434376 C241.606948,294.751813 248.04641,296.430081 252.460323,300.826266 C256.874237,305.22245 258.578408,311.655106 256.92,317.66 L256.92,317.66 Z" id="Path" fill="#6C63FF" fill-rule="nonzero"></path>
            <path d="M284.11,403.77 C277.37,410.53 245.61,417.91 245.61,417.91 C245.61,417.91 252.92,386.13 259.61,379.38 C266.345113,372.625558 277.280557,372.609888 284.035,379.345 C290.789442,386.080113 290.805112,397.015557 284.07,403.77 L284.11,403.77 Z" id="Path" fill="#6C63FF" fill-rule="nonzero"></path>
            <path d="M290,473.6 C284.5,481.39 254.44,494.04 254.44,494.04 C254.44,494.04 256.27,461.48 261.77,453.69 C267.267995,445.894501 278.044501,444.032006 285.84,449.53 C293.635499,455.027995 295.497994,465.804501 290,473.6 L290,473.6 Z" id="Path" fill="#6C63FF" fill-rule="nonzero"></path>
            <path d="M197,362.45 C205.58,366.61 238,363.13 238,363.13 C238,363.13 220.64,335.53 212,331.36 C203.48405,327.608211 193.526718,331.278476 189.483005,339.659747 C185.439291,348.041017 188.763412,358.119188 197,362.45 L197,362.45 Z" id="Path" fill="#6C63FF" fill-rule="nonzero"></path>
            <path d="M204.91,443.98 C214.35,445.38 244.25,432.36 244.25,432.36 C244.25,432.36 219.42,411.21 210,409.81 C200.564215,408.407197 191.777803,414.919215 190.375,424.355 C188.972197,433.790785 195.484215,442.577197 204.92,443.98 L204.91,443.98 Z" id="Path" fill="#6C63FF" fill-rule="nonzero"></path>
            <path d="M223.49,522.16 C232.56,525.16 264.23,517.36 264.23,517.36 C264.23,517.36 243.33,492.36 234.23,489.36 C228.367272,487.434338 221.922559,488.782682 217.323523,492.897123 C212.724486,497.011564 210.66983,503.26702 211.933522,509.307123 C213.197215,515.347226 217.587271,520.254339 223.45,522.18 L223.49,522.16 Z" id="Path" fill="#6C63FF" fill-rule="nonzero"></path>
            <path d="M213.22,276.47 C216.22,285.52 208.51,317.21 208.51,317.21 C208.51,317.21 183.42,296.38 180.42,287.32 C177.423855,278.26253 182.33753,268.491145 191.395,265.495 C200.45247,262.498855 210.223855,267.41253 213.22,276.47 L213.22,276.47 Z" id="Path" fill="#000000" fill-rule="nonzero" opacity="0.25"></path>
            <path d="M256.92,317.66 C254.52,326.89 230.83,349.3 230.83,349.3 C230.83,349.3 221.09,318.18 223.5,308.95 C224.983493,302.899519 229.610605,298.116938 235.608777,296.434376 C241.606948,294.751813 248.04641,296.430081 252.460323,300.826266 C256.874237,305.22245 258.578408,311.655106 256.92,317.66 L256.92,317.66 Z" id="Path" fill="#000000" fill-rule="nonzero" opacity="0.25"></path>
            <path d="M284.11,403.77 C277.37,410.53 245.61,417.91 245.61,417.91 C245.61,417.91 252.92,386.13 259.61,379.38 C266.345113,372.625558 277.280557,372.609888 284.035,379.345 C290.789442,386.080113 290.805112,397.015557 284.07,403.77 L284.11,403.77 Z" id="Path" fill="#000000" fill-rule="nonzero" opacity="0.25"></path>
            <path d="M290,473.6 C284.5,481.39 254.44,494.04 254.44,494.04 C254.44,494.04 256.27,461.48 261.77,453.69 C267.267995,445.894501 278.044501,444.032006 285.84,449.53 C293.635499,455.027995 295.497994,465.804501 290,473.6 L290,473.6 Z" id="Path" fill="#000000" fill-rule="nonzero" opacity="0.25"></path>
            <path d="M197,362.45 C205.58,366.61 238,363.13 238,363.13 C238,363.13 220.64,335.53 212,331.36 C203.48405,327.608211 193.526718,331.278476 189.483005,339.659747 C185.439291,348.041017 188.763412,358.119188 197,362.45 L197,362.45 Z" id="Path" fill="#000000" fill-rule="nonzero" opacity="0.25"></path>
            <path d="M204.91,443.98 C214.35,445.38 244.25,432.36 244.25,432.36 C244.25,432.36 219.42,411.21 210,409.81 C200.564215,408.407197 191.777803,414.919215 190.375,424.355 C188.972197,433.790785 195.484215,442.577197 204.92,443.98 L204.91,443.98 Z" id="Path" fill="#000000" fill-rule="nonzero" opacity="0.25"></path>
            <path d="M223.49,522.16 C232.56,525.16 264.23,517.36 264.23,517.36 C264.23,517.36 243.33,492.36 234.23,489.36 C228.367272,487.434338 221.922559,488.782682 217.323523,492.897123 C212.724486,497.011564 210.66983,503.26702 211.933522,509.307123 C213.197215,515.347226 217.587271,520.254339 223.45,522.18 L223.49,522.16 Z" id="Path" fill="#000000" fill-rule="nonzero" opacity="0.25"></path>
            <path d="M283.16,550.39 C283.16,550.39 213.88,508.15 195.54,447.39 C188.007555,421.878553 172.407795,399.496441 151.08,383.6 C140.89419,376.13346 130.04548,369.6162 118.67,364.13" id="Path" stroke="#535461" stroke-width="2"></path>
            <path d="M106.89,325.97 C113.3,333.03 119.09,365.12 119.09,365.12 C119.09,365.12 87.72,356.24 81.31,349.18 C74.9007355,342.116278 75.431278,331.194265 82.495,324.785 C89.558722,318.375735 100.480735,318.906278 106.89,325.97 L106.89,325.97 Z" id="Path" fill="#6C63FF" fill-rule="nonzero"></path>
            <path d="M163.54,345.91 C165.08,355.33 152.54,385.42 152.54,385.42 C152.54,385.42 131,360.91 129.45,351.49 C127.909126,342.076307 134.291307,333.195875 143.705,331.655 C153.118694,330.114126 161.999125,336.496307 163.54,345.91 Z" id="Path" fill="#6C63FF" fill-rule="nonzero"></path>
            <path d="M223.29,413.6 C219.86,422.51 193.82,442.13 193.82,442.13 C193.82,442.13 187.62,410.13 191.04,401.21 C194.461404,392.304408 204.454408,387.858596 213.36,391.28 C222.265592,394.701404 226.711404,404.694408 223.29,413.6 Z" id="Path" fill="#6C63FF" fill-rule="nonzero"></path>
            <path d="M257,475.03 C255.13,484.39 232.77,508.13 232.77,508.13 C232.77,508.13 221.25,477.62 223.12,468.27 C224.327558,462.217921 228.672133,457.269793 234.517166,455.289529 C240.362199,453.309265 246.819691,454.597714 251.457166,458.669529 C256.094642,462.741345 258.207558,468.977921 257,475.03 Z" id="Path" fill="#6C63FF" fill-rule="nonzero"></path>
            <path d="M126.88,411.15 C136.42,411.48 164.65,395.15 164.65,395.15 C164.65,395.15 137.6,376.95 128.06,376.6 C121.893596,376.389213 116.08315,379.484176 112.817402,384.719045 C109.551653,389.953914 109.326746,396.533389 112.227402,401.979045 C115.128057,407.424701 120.713596,410.909213 126.88,411.12 L126.88,411.15 Z" id="Path" fill="#6C63FF" fill-rule="nonzero"></path>
            <path d="M167.17,482.47 C176.37,479.93 198.43,455.91 198.43,455.91 C198.43,455.91 167.16,446.6 158,449.18 C151.9908,450.768993 147.29906,455.464649 145.715081,461.475172 C144.131101,467.485696 145.899264,473.883758 150.344866,478.227951 C154.790468,482.572145 161.22762,484.192227 167.2,482.47 L167.17,482.47 Z" id="Path" fill="#6C63FF" fill-rule="nonzero"></path>
            <path d="M215.84,546.42 C225.34,545.42 251.14,525.52 251.14,525.52 C251.14,525.52 221.89,511.1 212.4,512.05 C206.260391,512.664497 200.914988,516.507758 198.377353,522.132064 C195.839719,527.75637 196.495379,534.307255 200.097353,539.317064 C203.699328,544.326873 209.700391,547.034497 215.84,546.42 L215.84,546.42 Z" id="Path" fill="#6C63FF" fill-rule="nonzero"></path>
            <ellipse id="Oval" fill="#6C63FF" fill-rule="nonzero" opacity="0.1" cx="565.71" cy="734.08" rx="179" ry="10.62"></ellipse>
            <ellipse id="Oval" fill="#6C63FF" fill-rule="nonzero" opacity="0.1" cx="746.87" cy="781.25" rx="46.86" ry="8.53"></ellipse>
            <path d="M648,715.41 L648,721.82 L458.38,721.82 L458.38,716.6 C482.032568,707.836156 498.071435,685.680669 499.010766,660.47419 C499.950097,635.267711 485.604694,611.97994 462.67,601.48 L646.75,601.48 C624.369223,611.750273 610.126338,634.22746 610.396496,658.850715 C610.666654,683.47397 625.399275,705.633248 648,715.41 L648,715.41 Z" id="Path" fill="#C8CAD7" fill-rule="nonzero"></path>
            <path d="M646.75,601.49 C629.610763,609.355084 616.945032,624.545875 612.29,642.82 L497.13,642.82 C492.474968,624.545875 479.809237,609.355084 462.67,601.49 L646.75,601.49 Z" id="Path" fill="#000000" fill-rule="nonzero" opacity="0.1"></path>
            <path d="M241.21,568.82 L241.21,604.82 C241.21,624.7 255.76,640.82 273.71,640.82 L831.71,640.82 C849.66,640.82 864.21,624.7 864.21,604.82 L864.21,568.82 L241.21,568.82 Z" id="Path" fill="#C8CAD7" fill-rule="nonzero"></path>
            <path d="M648,715.41 L648,721.82 L458.38,721.82 L458.38,716.6 C463.578337,714.66994 468.495243,712.05342 473,708.82 L636.4,708.82 C640.020347,711.424439 643.909184,713.633701 648,715.41 Z" id="Path" fill="#000000" fill-rule="nonzero" opacity="0.1"></path>
            <rect id="Rectangle" fill="#C8CAD7" fill-rule="nonzero" x="395.71" y="710.82" width="315" height="19" rx="9.5"></rect>
            <path d="M864.21,174.32 C864.21,156.370746 849.659254,141.82 831.71,141.82 L273.71,141.82 C255.760746,141.82 241.21,156.370746 241.21,174.32 L241.21,575.82 L864.21,575.82 L864.21,174.32 Z" id="Path" fill="#474157" fill-rule="nonzero"></path>
            <rect id="Rectangle" fill="#EDEDF4" fill-rule="nonzero" x="258.21" y="172.82" width="589" height="377" rx="16"></rect>
            <circle id="Oval" fill="#FFFFFF" fill-rule="nonzero" cx="552.71" cy="157.32" r="7.5"></circle>
            <circle id="Oval" fill="#FFFFFF" fill-rule="nonzero" cx="552.71" cy="606.32" r="18.5"></circle>
            <path d="M847.21,188.82 L258.21,188.82 C258.21,179.983444 265.373444,172.82 274.21,172.82 L831.21,172.82 C840.046556,172.82 847.21,179.983444 847.21,188.82 Z" id="Path" fill="#C8CAD7" fill-rule="nonzero"></path>
            <circle id="Oval" fill="#EDEDF4" fill-rule="nonzero" cx="274.21" cy="180.82" r="4"></circle>
            <circle id="Oval" fill="#EDEDF4" fill-rule="nonzero" cx="286.21" cy="180.82" r="4"></circle>
            <circle id="Oval" fill="#EDEDF4" fill-rule="nonzero" cx="298.21" cy="180.82" r="4"></circle>
            <rect id="Rectangle" fill="#6C63FF" fill-rule="nonzero" x="280.21" y="202.32" width="151" height="9"></rect>
            <rect id="Rectangle" fill="#6C63FF" fill-rule="nonzero" x="280.21" y="465.32" width="151" height="9"></rect>
            <rect id="Rectangle" fill="#6C63FF" fill-rule="nonzero" opacity="0.2" x="280.21" y="485.32" width="280" height="9"></rect>
            <rect id="Rectangle" fill="#6C63FF" fill-rule="nonzero" opacity="0.2" x="280.21" y="498.33" width="280" height="9"></rect>
            <rect id="Rectangle" fill="#6C63FF" fill-rule="nonzero" opacity="0.2" x="280.21" y="511.33" width="280" height="9"></rect>
            <rect id="Rectangle" fill="#6C63FF" fill-rule="nonzero" opacity="0.2" x="280.21" y="226.32" width="278" height="151"></rect>
            <rect id="Rectangle" fill="#6C63FF" fill-rule="nonzero" opacity="0.2" x="283.21" y="391.32" width="65" height="60"></rect>
            <rect id="Rectangle" fill="#6C63FF" fill-rule="nonzero" opacity="0.2" x="493.21" y="391.32" width="65" height="60"></rect>
            <rect id="Rectangle" fill="#6C63FF" fill-rule="nonzero" opacity="0.2" x="386.71" y="391.32" width="65" height="60"></rect>
            <rect id="Rectangle" fill="#6C63FF" fill-rule="nonzero" opacity="0.2" x="617.55" y="270.24" width="191.33" height="140.83"></rect>
            <rect id="Rectangle" fill="#EDEDF4" fill-rule="nonzero" x="637.71" y="298.82" width="151" height="9"></rect>
            <rect id="Rectangle" fill="#EDEDF4" fill-rule="nonzero" x="637.71" y="317.49" width="151" height="9"></rect>
            <rect id="Rectangle" fill="#EDEDF4" fill-rule="nonzero" x="637.71" y="336.16" width="151" height="9"></rect>
            <rect id="Rectangle" fill="#EDEDF4" fill-rule="nonzero" x="637.71" y="354.82" width="151" height="9"></rect>
            <rect id="Rectangle" fill="#EDEDF4" fill-rule="nonzero" x="637.71" y="373.49" width="151" height="9"></rect>
            <rect id="Rectangle" fill="#6C63FF" fill-rule="nonzero" x="640.88" y="427.07" width="144.67" height="25.33"></rect>
            <rect id="Rectangle" fill="#6C63FF" fill-rule="nonzero" x="633.15" y="511.47" width="97.01" height="16.99"></rect>
            <ellipse id="Oval" fill="#6C63FF" fill-rule="nonzero" opacity="0.1" cx="258.43" cy="775.37" rx="28.6" ry="2.9"></ellipse>
            <ellipse id="Oval" fill="#6C63FF" fill-rule="nonzero" opacity="0.1" cx="843.87" cy="733.9" rx="17.14" ry="1.74"></ellipse>
            <path d="M268.42,727.6 C268.42,727.6 231.12,746.87 250.42,769.6 C250.42,769.6 252.23,774.6 257.48,774.18 C257.48,774.18 256.43,772.27 260.48,770.75 C261.891783,770.194139 263.234132,769.475982 264.48,768.61 C266.174706,767.437861 267.441862,765.745979 268.09,763.79 L268.09,763.79 C268.09,763.79 275.72,753.58 269.81,734.69 C269.81,734.69 270.57,729.35 269.9,728.49 L265.32,734.6 C265.32,734.6 270.01,737.74 270.54,742.36 C270.54,742.36 265.66,734.61 264.6,735.49 C264.39,735.67 262.35,738.89 262.35,738.89 C262.35,738.89 270.47,744.4 271.08,751.55 C271.08,751.55 266.5,741.55 261.56,740.1 L258.77,745.15 C258.77,745.15 267.65,750.55 268.65,758.67 C268.65,758.67 263.5,748.37 258.24,746.29 L256.16,751.62 C256.16,751.62 264.71,757.06 265.5,763.82 C265.5,763.82 258.35,752.52 255.77,752.82 C255.77,752.82 254.16,757.82 254.37,759.37 C254.37,759.37 260.42,763.37 260.53,767.37 C260.53,767.37 254.95,760.32 254.09,760.79 C254.09,760.79 253.73,767.87 255.45,771.56 C255.45,771.56 252.51,766.3 252.98,760.79 C251.2423,762.333328 249.997239,764.353944 249.4,766.6 C249.4,766.6 247.79,762.7 253.09,759.12 C253.09,759.12 253.59,753.61 254.2,752.93 C254.2,752.93 248.47,755.72 246.04,759.16 C246.04,759.16 246.93,754.04 254.7,751.5 L256.7,746.1 C256.7,746.1 248.94,749.39 246.55,752.29 C246.55,752.29 248.27,747.21 257.31,744.78 L259.99,739.78 C259.99,739.78 253.09,742.1 249.73,744.78 C249.73,744.78 252.34,740.42 260.82,738.41 L263,735.3 C263,735.3 258,737.09 256.6,737.73 C255.2,738.37 254.92,738.05 254.92,738.05 C257.484075,735.884264 260.600381,734.475001 263.92,733.98 C263.92,733.98 268.77,727.89 268.42,727.6 Z" id="Path" fill="#6C63FF" fill-rule="nonzero"></path>
            <ellipse id="Oval" fill="#6C63FF" fill-rule="nonzero" opacity="0.1" cx="169.3" cy="731.19" rx="21.92" ry="2.22"></ellipse>
            <path d="M177,694.6 C177,694.6 148.42,709.36 163.18,726.76 C164.033728,728.977473 166.2171,730.394041 168.59,730.27 C168.59,730.27 167.79,728.81 170.86,727.64 C171.945052,727.210853 172.978247,726.66071 173.94,726 C175.239203,725.098714 176.211139,723.800461 176.71,722.3 L176.71,722.3 C176.71,722.3 182.55,714.48 178.02,700.01 C178.02,700.01 178.61,695.91 178.09,695.25 L174.62,700.02 C174.62,700.02 178.21,702.43 178.62,705.96 C178.62,705.96 174.88,700.03 174.07,700.7 C173.91,700.84 172.35,703.31 172.35,703.31 C172.35,703.31 178.57,707.53 179.04,713.01 C179.04,713.01 175.53,705.33 171.74,704.24 L169.61,708.1 C169.61,708.1 176.4,712.24 177.17,718.46 C177.17,718.46 173.22,710.57 169.17,708.98 L167.58,713.06 C167.58,713.06 174.14,717.23 174.74,722.41 C174.74,722.41 169.26,713.75 167.28,714.02 C167.28,714.02 166.05,717.86 166.21,719.02 C166.21,719.02 170.85,722.12 170.93,725.16 C170.93,725.16 166.65,719.76 165.99,720.16 C165.99,720.16 165.72,725.58 167.04,728.41 C165.699505,725.872207 165.044588,723.028487 165.14,720.16 C163.818694,721.333489 162.866781,722.865582 162.4,724.57 C162.4,724.57 161.17,721.57 165.23,718.84 C165.23,718.84 165.61,714.62 166.08,714.1 C166.08,714.1 161.69,716.24 159.83,718.87 C159.83,718.87 160.51,714.95 166.46,713 L167.97,708.86 C167.97,708.86 162.02,711.38 160.18,713.61 C160.18,713.61 161.5,709.71 168.43,707.85 L170.49,704.04 C170.49,704.04 165.2,705.82 162.62,707.85 C162.62,707.85 164.62,704.5 171.12,702.97 L172.79,700.58 C172.79,700.58 168.96,701.95 167.89,702.45 C166.82,702.95 166.6,702.69 166.6,702.69 C168.560765,701.033909 170.942314,699.953905 173.48,699.57 C173.48,699.57 177.22,694.8 177,694.6 Z" id="Path" fill="#6C63FF" fill-rule="nonzero"></path>
            <path d="M851.74,705.01 C851.74,705.01 829.39,716.6 840.93,730.16 C841.598344,731.892598 843.305577,732.998465 845.16,732.9 C845.16,732.9 844.53,731.76 846.94,730.84 C847.791052,730.509979 848.60002,730.080319 849.35,729.56 C850.362923,728.854916 851.120631,727.841131 851.51,726.67 L851.51,726.67 C851.51,726.67 856.08,720.55 852.51,709.24 C852.51,709.24 852.96,706.04 852.56,705.52 L849.85,709.24 C849.85,709.24 852.66,711.13 852.98,713.9 C852.98,713.9 850.05,709.25 849.42,709.78 C849.29,709.89 848.07,711.78 848.07,711.78 C848.07,711.78 852.94,715.08 853.3,719.36 C853.3,719.36 850.56,713.36 847.6,712.51 L846,715.6 C846,715.6 851.31,718.83 851.91,723.7 C851.91,723.7 848.83,717.53 845.67,716.28 L844.43,719.48 C844.43,719.48 849.55,722.73 850.03,726.79 C850.03,726.79 845.74,720.01 844.2,720.23 C843.760453,721.497316 843.478338,722.813853 843.36,724.15 C843.36,724.15 846.98,726.57 847.05,728.95 C847.05,728.95 843.7,724.73 843.19,725.01 C843.19,725.01 842.97,729.25 844,731.46 C842.958538,729.473664 842.448686,727.251671 842.52,725.01 C841.486971,725.92795 840.743405,727.126689 840.38,728.46 C840.38,728.46 839.38,726.12 842.59,723.98 C842.59,723.98 842.89,720.68 843.25,720.27 C843.25,720.27 839.82,721.94 838.37,724 C838.37,724 838.9,720.93 843.55,719.41 L844.73,716.18 C844.73,716.18 840.08,718.18 838.64,719.88 C838.64,719.88 839.64,716.88 845.1,715.38 L846.7,712.38 C844.529856,713.112189 842.462899,714.12046 840.55,715.38 C840.55,715.38 842.12,712.77 847.2,711.57 L848.5,709.7 C848.5,709.7 845.5,710.78 844.67,711.16 C843.84,711.54 843.67,711.35 843.67,711.35 C845.202288,710.053377 847.065055,709.208553 849.05,708.91 C849.05,708.91 851.94,705.21 851.74,705.01 Z" id="Path" fill="#6C63FF" fill-rule="nonzero"></path>
            <ellipse id="Oval" fill="#6C63FF" fill-rule="nonzero" opacity="0.1" cx="936.04" cy="795.71" rx="41.75" ry="3.49"></ellipse>
            <path d="M969.47,685.6 C968.512749,686.919718 967.745277,688.367143 967.19,689.9 C967.05,690.27 966.92,690.7 966.78,691.11 C966.522827,690.991482 966.254951,690.897725 965.98,690.83 C964.817609,690.536676 963.615086,690.43534 962.42,690.53 C962.42,690.06 962.47,689.58 962.49,689.06 C962.63,683.79 962.01,676.44 956.98,679.56 C952.16,682.56 955.6,687.56 958.71,690.76 C958.98,691.04 959.25,691.3 959.51,691.55 C956.68,693.55 956.13,698.28 955.66,703.19 C955.19,708.1 951.02,713.47 948.26,716.52 L947.47,717.37 C945.219356,715.573105 942.309729,714.820239 939.47,715.3 C939.35,714.87 939.23,714.42 939.09,713.95 C936.86,705.86 932.21,691.85 926.27,688.78 C926.53,688.47 926.79,688.14 927.06,687.78 C929.58,684.48 932.41,679.59 928.22,678.34 C924.03,677.09 923.66,682.58 923.89,686.7 C923.89,687.22 923.93,687.71 924.01,688.17 C922.314017,688.246821 920.725231,689.021309 919.62,690.31 L918.98,689.54 C915.58,685.54 909.34,679.17 907.46,683.98 C905.7,688.46 911.18,694.28 915.04,697.65 L915.29,697.86 C912.69,708.37 924,716.94 930.09,720.69 L930.88,721.17 C922.48,731.07 917.3,749.63 917.3,749.63 L940.82,753.83 C940.82,753.83 956.41,740.37 954.42,727.73 L954.58,727.73 C970.16,724.61 973.71,707.99 971.28,698.12 L971.55,698.01 C974.390388,696.848587 976.878897,694.966695 978.77,692.55 C983.09,686.47 974,679.6 969.47,685.6 Z" id="Path" fill="#6C63FF" fill-rule="nonzero"></path>
            <path d="M969.47,685.6 C968.512749,686.919718 967.745277,688.367143 967.19,689.9 C967.05,690.27 966.92,690.7 966.78,691.11 C966.522827,690.991482 966.254951,690.897725 965.98,690.83 C964.817609,690.536676 963.615086,690.43534 962.42,690.53 C962.42,690.06 962.47,689.58 962.49,689.06 C962.63,683.79 962.01,676.44 956.98,679.56 C952.16,682.56 955.6,687.56 958.71,690.76 C958.98,691.04 959.25,691.3 959.51,691.55 C956.68,693.55 956.13,698.28 955.66,703.19 C955.19,708.1 951.02,713.47 948.26,716.52 L947.47,717.37 C945.219356,715.573105 942.309729,714.820239 939.47,715.3 C939.35,714.87 939.23,714.42 939.09,713.95 C936.86,705.86 932.21,691.85 926.27,688.78 C926.53,688.47 926.79,688.14 927.06,687.78 C929.58,684.48 932.41,679.59 928.22,678.34 C924.03,677.09 923.66,682.58 923.89,686.7 C923.89,687.22 923.93,687.71 924.01,688.17 C922.314017,688.246821 920.725231,689.021309 919.62,690.31 L918.98,689.54 C915.58,685.54 909.34,679.17 907.46,683.98 C905.7,688.46 911.18,694.28 915.04,697.65 L915.29,697.86 C912.69,708.37 924,716.94 930.09,720.69 L930.88,721.17 C922.48,731.07 917.3,749.63 917.3,749.63 L940.82,753.83 C940.82,753.83 956.41,740.37 954.42,727.73 L954.58,727.73 C970.16,724.61 973.71,707.99 971.28,698.12 L971.55,698.01 C974.390388,696.848587 976.878897,694.966695 978.77,692.55 C983.09,686.47 974,679.6 969.47,685.6 Z" id="Path" fill="#000000" fill-rule="nonzero" opacity="0.1"></path>
            <path d="M922.65,692.36 L919.9,700.36 C919.9,700.36 918.37,699.28 916.44,697.58 C912.59,694.21 907.1,688.39 908.86,683.91 C910.74,679.1 916.98,685.45 920.38,689.47 C921.74,691.12 922.65,692.36 922.65,692.36 Z" id="Path" fill="#6C63FF" fill-rule="nonzero"></path>
            <path d="M928.46,687.76 C927.621128,688.858338 926.726626,689.913049 925.78,690.92 C925.539392,689.516671 925.375814,688.101218 925.29,686.68 C925.06,682.56 925.49,677.09 929.62,678.32 C933.75,679.55 931,684.46 928.46,687.76 Z" id="Path" fill="#6C63FF" fill-rule="nonzero"></path>
            <path d="M963.93,689.03 C963.84,691.68 963.58,693.8 963.58,693.8 C962.370389,692.853221 961.224566,691.82766 960.15,690.73 C957.04,687.5 953.6,682.52 958.42,679.53 C963.45,676.41 964.07,683.76 963.93,689.03 Z" id="Path" fill="#6C63FF" fill-rule="nonzero"></path>
            <path d="M980.17,692.5 C978.280367,694.913991 975.795835,696.795481 972.96,697.96 C972.170802,698.299311 971.362811,698.593126 970.54,698.84 L967.3,694.29 C967.637194,692.786791 968.081665,691.309676 968.63,689.87 C969.185277,688.337143 969.952749,686.889718 970.91,685.57 C975.39,679.6 984.53,686.47 980.17,692.5 Z" id="Path" fill="#6C63FF" fill-rule="nonzero"></path>
            <path d="M920.38,689.52 C921.74,691.12 922.65,692.36 922.65,692.36 L919.9,700.36 C919.9,700.36 918.37,699.28 916.44,697.58 C916.873258,695.003382 917.938341,692.574306 919.54,690.51 C919.803465,690.166319 920.083809,689.835913 920.38,689.52 Z" id="Path" fill="#000000" fill-rule="nonzero" opacity="0.1"></path>
            <path d="M928.46,687.76 C927.621128,688.858338 926.726626,689.913049 925.78,690.92 C925.539392,689.516671 925.375814,688.101218 925.29,686.68 C926.432665,686.705006 927.539745,687.082181 928.46,687.76 Z" id="Path" fill="#000000" fill-rule="nonzero" opacity="0.1"></path>
            <path d="M942,719.72 L935.16,722.72 C935.16,722.72 933.66,722 931.51,720.66 C924.33,716.24 909.87,705.11 919.51,691.99 C929.15,678.87 937.28,702.4 940.51,713.91 C941.46,717.36 942,719.72 942,719.72 Z" id="Path" fill="#6C63FF" fill-rule="nonzero"></path>
            <path d="M960.15,690.73 C961.14621,689.700751 962.498953,689.092375 963.93,689.03 C963.84,691.68 963.58,693.8 963.58,693.8 C962.370389,692.853221 961.224566,691.82766 960.15,690.73 Z" id="Path" fill="#000000" fill-rule="nonzero" opacity="0.1"></path>
            <path d="M973,697.96 C972.210802,698.299311 971.402811,698.593126 970.58,698.84 L967.34,694.29 C967.677194,692.786791 968.121665,691.309676 968.67,689.87 C970.72,691.09 972.26,694.13 973,697.96 Z" id="Path" fill="#000000" fill-rule="nonzero" opacity="0.1"></path>
            <path d="M956,727.68 C955.62,727.76 955.23,727.83 954.84,727.88 C931.92,731.37 947.28,719 947.28,719 C947.28,719 948.28,718.05 949.72,716.49 C952.48,713.49 956.64,708.1 957.12,703.16 C957.84,695.73 958.67,688.76 967.44,690.8 C976.21,692.84 977.68,723.33 956,727.68 Z" id="Path" fill="#6C63FF" fill-rule="nonzero"></path>
            <rect id="Rectangle" fill="#D4DFEC" fill-rule="nonzero" x="911.74" y="784.77" width="43.81" height="11.52"></rect>
            <rect id="Rectangle" fill="#D4DFEC" fill-rule="nonzero" x="904.77" y="747.33" width="57.24" height="40.2"></rect>
            <rect id="Rectangle" fill="#000000" fill-rule="nonzero" opacity="0.1" x="911.74" y="784.77" width="43.81" height="11.52"></rect>
            <rect id="Rectangle" fill="#000000" fill-rule="nonzero" opacity="0.1" x="904.77" y="747.33" width="57.24" height="40.2"></rect>
            <rect id="Rectangle" fill="#D4DFEC" fill-rule="nonzero" x="914.62" y="784.77" width="43.81" height="11.52"></rect>
            <path d="M940.49,713.92 C941.49,717.36 941.98,719.72 941.98,719.72 L935.14,722.72 C935.14,722.72 933.64,722 931.49,720.66 C934.17,717.27 937.2,714.71 940.49,713.92 Z" id="Path" fill="#000000" fill-rule="nonzero" opacity="0.1"></path>
            <path d="M956,727.68 C955.62,727.76 955.23,727.83 954.84,727.88 C931.92,731.37 947.28,719 947.28,719 C947.28,719 948.28,718.05 949.72,716.49 C954,719.92 955.75,723.78 956,727.68 Z" id="Path" fill="#000000" fill-rule="nonzero" opacity="0.1"></path>
            <path d="M918.7,749.6 C918.7,749.6 931.54,703.6 949.54,717.79 C967.54,731.98 942.22,753.79 942.22,753.79 L918.7,749.6 Z" id="Path" fill="#6C63FF" fill-rule="nonzero"></path>
            <circle id="Oval" fill="#000000" fill-rule="nonzero" opacity="0.1" cx="925.18" cy="699.21" r="1.44"></circle>
            <circle id="Oval" fill="#000000" fill-rule="nonzero" opacity="0.1" cx="925.06" cy="705.93" r="1.44"></circle>
            <circle id="Oval" fill="#000000" fill-rule="nonzero" opacity="0.1" cx="966.82" cy="700.53" r="1.44"></circle>
            <circle id="Oval" fill="#000000" fill-rule="nonzero" opacity="0.1" cx="933.22" cy="734.97" r="1.44"></circle>
            <circle id="Oval" fill="#000000" fill-rule="nonzero" opacity="0.1" cx="963.82" cy="711.69" r="1.44"></circle>
            <circle id="Oval" fill="#000000" fill-rule="nonzero" opacity="0.1" cx="948.94" cy="726.57" r="1.44"></circle>
            <circle id="Oval" fill="#000000" fill-rule="nonzero" opacity="0.1" cx="930.1" cy="702.09" r="1.44"></circle>
            <circle id="Oval" fill="#000000" fill-rule="nonzero" opacity="0.1" cx="962.86" cy="704.85" r="1.44"></circle>
            <circle id="Oval" fill="#000000" fill-rule="nonzero" opacity="0.1" cx="957.94" cy="716.01" r="1.44"></circle>
            <circle id="Oval" fill="#000000" fill-rule="nonzero" opacity="0.1" cx="942.82" cy="733.89" r="1.44"></circle>
            <circle id="Oval" fill="#000000" fill-rule="nonzero" opacity="0.1" cx="939.7" cy="726.81" r="1.44"></circle>
            <circle id="Oval" fill="#000000" fill-rule="nonzero" opacity="0.1" cx="932.26" cy="710.85" r="1.44"></circle>
            <rect id="Rectangle" fill="#000000" fill-rule="nonzero" opacity="0.1" x="914.62" y="784.77" width="43.81" height="4.21"></rect>
            <rect id="Rectangle" fill="#D4DFEC" fill-rule="nonzero" x="907.66" y="747.33" width="57.24" height="40.2"></rect>
            <circle id="Oval" fill="#000000" fill-rule="nonzero" opacity="0.1" cx="944.74" cy="740.37" r="1.44"></circle>
            <circle id="Oval" fill="#000000" fill-rule="nonzero" opacity="0.1" cx="936.1" cy="742.17" r="1.44"></circle>
            <path d="M837.28,573.73 C836.08,572.87 835.58,570.8 835.4,568.73 C835.4,568.26 835.33,567.8 835.31,567.36 C835.848684,567.031466 836.320318,566.603942 836.7,566.1 C839.07,562.74 833.41,550.55 833.41,550.55 C833.41,550.55 835.6,544.19 833.41,538.71 C831.22,533.23 830.22,532.17 830.22,532.17 C830.22,532.17 822.82,516.97 823.92,515.17 C825.02,513.37 822.09,499.17 819.92,496.32 C819.012637,495.087099 818.037817,493.905296 817,492.78 C817,492.78 817.37,486.6 814.26,481.78 C811.15,476.96 807.69,463.58 807.69,463.58 C807.69,463.58 803.86,451.03 801.12,446.58 C800.002306,445.015499 798.653612,443.629715 797.12,442.47 C797.55,440.47 798.54,437.82 795.7,422.14 C794.54,415.7 796.35,411.86 797.84,405.49 C799.33,399.12 799.01,391.75 794.44,386.94 C789.87,382.13 782.78,381.23 777.11,377.94 C772.11,375.05 767.66,370.16 761.82,370.25 C757.53,370.32 757.54,370.99 753.59,372.6 C746.76,375.38 739.08,374.54 732.14,376.84 C725.9,378.91 717.97,385.71 719.86,392.92 C720.158004,394.552862 720.962745,396.05038 722.16,397.2 C723.51,398.43 725.16,398.44 727.01,398.07 C727.01,398.19 727.01,398.3 726.94,398.42 C726.778525,399.411806 726.698259,400.415136 726.7,401.42 C726.7,412.11 735.61,420.79 746.63,420.86 C746.69,421.09 746.74,421.33 746.8,421.57 C746.95,422.21 747.09,422.85 747.23,423.51 C746.71,424.2 746.17,424.89 745.66,425.58 C744.393697,427.193052 743.381963,428.990565 742.66,430.91 C736.88,432.09 727.19,434 725.66,436.5 C723.66,439.86 715.44,456.5 716.35,464.07 C716.4,464.49 716.44,465.07 716.48,465.67 C716.48,465.67 711.42,474.67 710.69,477.5 C709.96,480.33 708.32,490.93 705.21,493.4 C702.1,495.87 695.72,503.83 696.63,505.4 C697.54,506.97 688.05,508.93 688.05,508.93 C688.05,508.93 681.67,511.4 682.05,513.35 C682.16,513.94 681.71,514.5 681.05,515.04 C673.79,512.65 664.54,511.04 657.37,514.68 C647.37,519.75 664.91,523.24 675.37,524.77 C677.09,525.03 678.61,525.23 679.79,525.37 C679.87,525.71 680.2,526.01 681.04,526.3 C681.7,526.53 682.68,526.89 683.82,527.3 L684.24,526 C687.71,527.23 697.18,531.06 697.18,531.06 C697.18,531.06 705.4,532.4 707.77,527.63 C708.77,525.7 711.5,522.63 714.47,519.63 L714.14,520.7 L707.22,543.53 C707.22,543.53 696.27,560.53 696.82,564.2 C697.37,567.87 693.35,577.28 692.44,578.2 C691.53,579.12 682.44,605.94 677.65,607.71 C672.86,609.48 666.51,615.66 668.65,617.61 C670.79,619.56 679.65,625.91 683.65,623.79 C687.65,621.67 694.65,625.56 694.65,625.56 C694.65,625.56 702.31,624.3 708.55,627.3 C708.62,627.99 708.7,628.74 708.78,629.53 C709.43,635.53 710.49,643.82 711.62,646.23 C713.45,650.12 715.09,657.01 713.62,659.66 C712.15,662.31 714.9,712.85 717.62,721.51 C719.76,728.29 722.69,739.2 722.19,746.32 C721.89,750.65 721.71,754.98 721.68,759.32 C721.68,759.56 721.68,759.8 721.68,760.04 C721.68,760.28 721.51,760.42 721.43,760.62 L721.43,761.01 C720.796154,762.508864 720.264929,764.049081 719.84,765.62 C719.84,765.62 715.13,777.46 716.72,780.55 C716.906465,780.889218 717.161958,781.185589 717.47,781.42 C719.74,783.24 725.47,783.63 727.47,783.71 L727.38,786.71 L730.07,786.71 C730.07,786.71 730.14,783.71 730.32,779.97 C731.104989,777.865839 731.498136,775.635746 731.48,773.39 C731.442369,769.470439 732.261464,765.589974 733.88,762.02 C733.88,762.02 733.94,761.71 734,761.21 L734,761.21 C734.137102,760.179298 734.19394,759.139505 734.17,758.1 C734.279984,756.281057 733.93636,754.463283 733.17,752.81 C733.089399,751.729248 733.156687,750.642552 733.37,749.58 C734.1,746.93 732.27,728.38 732.27,728.38 L735.37,694.27 C735.37,694.27 737.2,667.94 736.47,661.05 C736.278578,659.205278 736.322261,657.343712 736.6,655.51 C737.745227,648.019987 738.41324,640.464758 738.6,632.89 C738.6,632.18 738.6,631.48 738.6,630.77 C745.24,633.05 756.5,631.18 756.5,631.18 C756.5,631.18 759.12,631.12 762.6,631.18 C762.69,631.9 762.79,632.61 762.89,633.3 C763.42,637.01 764.05,640.3 764.7,641.71 C766.52,645.6 768.17,652.49 766.7,655.14 C765.23,657.79 767.97,708.33 770.7,716.99 C772.85,723.77 775.78,734.67 775.28,741.8 C774.98,746.12 774.8,750.45 774.77,754.8 L774.77,755.6 C774.68,755.79 774.59,755.98 774.51,756.18 C774.43,756.38 774.51,756.45 774.51,756.57 C773.904013,758.077945 773.399554,759.62473 773,761.2 C773,761.2 768.28,773.05 769.88,776.14 C770.064049,776.4781 770.320074,776.771676 770.63,777 C772.9,778.83 778.63,779.21 780.63,779.29 L780.54,782.29 L783.23,782.29 C783.23,782.29 783.3,779.29 783.48,775.55 C784.264989,773.445839 784.658136,771.215746 784.64,768.97 C784.592694,765.053689 785.397983,761.173971 787,757.6 C787.21923,756.312029 787.316328,755.006231 787.29,753.7 C787.392004,751.86665 787.030912,750.037116 786.24,748.38 C786.164887,747.302541 786.232132,746.219882 786.44,745.16 C787.17,742.51 785.35,723.95 785.35,723.95 L788.45,689.85 C788.45,689.85 790.28,663.52 789.54,656.63 C789.356448,654.784684 789.403476,652.92369 789.68,651.09 C790.780079,643.973634 791.44797,636.797152 791.68,629.6 C791.68,628.88 791.68,628.17 791.68,627.45 C792.34,626.64 793.68,626 797.38,624.76 C803.77,622.64 816.55,612.03 821.66,611.33 C826.77,610.63 831.33,607.26 829.87,604.61 C828.41,601.96 820.38,600.19 821.11,596.13 C821.84,592.07 816.18,589.59 813.63,582.88 C811.08,576.17 799.93,570.88 799.75,565.88 C799.57,560.88 789.23,545.6 789.23,545.6 C789.23,545.6 778.84,528.32 776.54,517.76 C776.54,517.52 776.45,517.3 776.41,517.08 L776.54,517.08 C776.362575,516.288866 776.235652,515.487248 776.16,514.68 C776.16,514.45 776.21,514.21 776.25,514 L776.11,514 L776.11,513.62 C776.11,513.62 776.11,513.62 776.11,513.55 C776.179501,513.497568 776.253067,513.450753 776.33,513.41 L776.93,513.06 L776.73,513.14 C777.92747,512.361995 779.03726,511.456729 780.04,510.44 C781.693575,508.975445 782.995836,507.157065 783.85,505.12 C784.655082,502.863121 785.156149,500.509113 785.34,498.12 L786.64,496.12 C787.9,501.39 789.74,508.95 790.32,510.64 C793.080366,517.777989 795.280358,525.12021 796.9,532.6 C798.521456,539.853409 801.217909,546.823741 804.9,553.28 C804.9,553.28 814.21,565.47 821.33,566 C828.45,566.53 824.44,568.47 825.53,568.83 L825.84,568.9 L825.95,570.33 L826.26,574.48 C826.26,574.48 833.56,604.17 841.78,599.93 C850,595.69 840,575.67 837.28,573.73 Z" id="Path" fill="url(#linearGradient-1)" fill-rule="nonzero"></path>
            <path d="M838.24,600.06 C830.34,604.28 823.32,574.8 823.32,574.8 L823.02,570.67 L822.45,562.86 L832.1,564.09 C831.954307,565.77686 831.954307,567.47314 832.1,569.16 C832.27,571.16 832.76,573.25 833.91,574.09 C836.48,576.03 846.13,595.85 838.24,600.06 Z" id="Path" fill="#A1616A" fill-rule="nonzero"></path>
            <path d="M719.21,772.2 L719.88,771.69 C719.677385,771.885623 719.452514,772.056793 719.21,772.2 L719.21,772.2 Z" id="Path" fill="#A1616A" fill-rule="nonzero"></path>
            <path d="M739.1,610.24 L739.1,630.38 C739.1,631.253333 739.1,632.123333 739.1,632.99 C738.893539,640.513856 738.225617,648.017956 737.1,655.46 C736.832167,657.277785 736.788507,659.121575 736.97,660.95 C737.67,667.8 735.97,693.95 735.97,693.95 L732.97,727.82 C732.97,727.82 734.72,746.24 733.97,748.82 C733.771343,749.87768 733.707501,750.95627 733.78,752.03 C733.88,755.03 734.4,758.88 734.57,760.03 L734.57,760.38 L734.46,760.46 L719.79,771.65 C722.13,769.52 722.73,764.56 722.72,759.96 C722.72,759.46 722.72,758.96 722.72,758.46 C722.72,754.16 722.886667,749.86 723.22,745.56 C723.7,738.49 720.88,727.66 718.82,720.92 C716.19,712.33 713.55,662.14 714.96,659.51 C716.37,656.88 714.78,650.03 713.03,646.17 C712,643.82 711,635.6 710.4,629.6 C710.02,625.96 709.79,623.2 709.79,623.2 L739.1,610.24 Z" id="Path" fill="#A1616A" fill-rule="nonzero"></path>
            <path d="M770.26,767.7 L770.98,767.16 C770.759886,767.365092 770.518521,767.546117 770.26,767.7 L770.26,767.7 Z" id="Path" fill="#A1616A" fill-rule="nonzero"></path>
            <path d="M790.15,605.74 L790.15,625.88 C790.15,627.12 790.15,628.37 790.15,629.61 C789.921996,636.758119 789.27757,643.886873 788.22,650.96 C787.952066,652.777776 787.908406,654.621579 788.09,656.45 C788.79,663.3 787.09,689.45 787.09,689.45 L784.09,723.32 C784.09,723.32 785.85,741.74 785.15,744.32 C784.946657,745.373725 784.882776,746.449616 784.96,747.52 C785.06,750.52 785.59,754.43 785.75,755.52 C785.75,755.74 785.8,755.85 785.8,755.85 L785.69,755.93 L785.69,755.93 L771,767.12 C773.27,764.94 773.86,760.04 773.85,755.5 C773.85,755 773.85,754.5 773.85,753.99 C773.85,749.69 774.05,745.39 774.34,741.09 C774.81,734.02 772,723.2 769.94,716.46 C767.3,707.87 764.67,657.68 766.08,655.05 C767.49,652.42 765.9,645.57 764.15,641.71 C763.52,640.35 762.92,637.04 762.4,633.36 C761.47,626.68 760.81,618.73 760.81,618.73 L790.15,605.74 Z" id="Path" fill="#A1616A" fill-rule="nonzero"></path>
            <path d="M762.75,414.77 L762.6,415 C759.47355,419.42595 754.627262,422.330093 749.25,423 C748.471457,423.109046 747.686138,423.162514 746.9,423.16 C746.84,422.92 746.79,422.68 746.73,422.45 C745.58,417.45 744.36,413.45 744.36,413.45 C744.36,413.45 745.67,411.56 747.58,409.15 C752.77,402.59 762.33,392.22 761.58,406.08 C761.419181,408.887344 761.757762,411.700954 762.58,414.39 C762.65,414.46 762.69,414.6 762.75,414.77 Z" id="Path" fill="#000000" fill-rule="nonzero" opacity="0.1"></path>
            <path d="M766.18,403.1 C766.182479,412.842797 758.919608,421.058035 749.25,422.25 C748.460676,422.350694 747.66572,422.400796 746.87,422.4 L746.73,422.4 C736.090823,422.31731 727.525238,413.640133 727.580258,403.000777 C727.635278,392.36142 736.290148,383.773297 746.929612,383.800647 C757.569075,383.827996 766.179679,392.460501 766.18,403.1 L766.18,403.1 Z" id="Path" fill="#A1616A" fill-rule="nonzero"></path>
            <path d="M784.9,459.34 L766.18,475.34 C766.18,475.34 745.77,446.22 748.18,440.25 C748.95,438.38 748.86,435.06 748.37,431.36 C748.1,429.36 747.71,427.15 747.27,425.07 C747.14,424.42 747,423.78 746.86,423.15 C746.8,422.91 746.75,422.67 746.69,422.44 C745.54,417.44 744.32,413.44 744.32,413.44 C744.32,413.44 745.63,411.55 747.54,409.14 C752.73,402.58 762.29,392.21 761.54,406.07 C761.379181,408.877344 761.717762,411.690954 762.54,414.38 C762.54,414.54 762.63,414.7 762.69,414.85 C765.35,423.03 771.83,429.56 776.81,433.61 C778.849021,435.28723 781.004429,436.817737 783.26,438.19 L784.9,459.34 Z" id="Path" fill="#A1616A" fill-rule="nonzero"></path>
            <path d="M709.79,623.23 L739.1,610.23 L739.1,630.37 C739.1,631.243333 739.1,632.113333 739.1,632.98 C738.437459,632.750166 737.800684,632.451887 737.2,632.09 C731.41,628.51 724.2,631.29 723.69,631.29 C723.18,631.29 717.37,633.75 711.23,630.06 C710.96,629.9 710.69,629.75 710.43,629.62 C710,625.99 709.79,623.23 709.79,623.23 Z" id="Path" fill="#000000" fill-rule="nonzero" opacity="0.1"></path>
            <path d="M790.15,605.74 L790.15,625.88 C790.15,627.12 790.15,628.37 790.15,629.61 C789.733972,630.306379 789.398484,631.047809 789.15,631.82 C788.09,634.28 780.9,635.16 774.58,634.12 C770.564965,633.595167 766.519149,633.34126 762.47,633.36 C761.54,626.68 760.88,618.73 760.88,618.73 L790.15,605.74 Z" id="Path" fill="#000000" fill-rule="nonzero" opacity="0.1"></path>
            <path d="M818.94,611.47 C814.02,612.17 801.74,622.7 795.6,624.81 C789.46,626.92 790.16,627.26 789.11,629.72 C788.06,632.18 780.86,633.05 774.54,632.01 C768.22,630.97 756.29,631.3 756.29,631.3 C756.29,631.3 743,633.6 737.17,629.99 C731.34,626.38 724.17,629.19 723.66,629.19 C723.15,629.19 717.34,631.65 711.2,627.96 C705.06,624.27 696.81,625.68 696.81,625.68 C696.81,625.68 690.14,621.82 686.28,623.93 C682.42,626.04 674,619.72 671.89,617.79 C669.78,615.86 675.89,609.72 680.49,607.96 C685.09,606.2 693.83,579.53 694.7,578.66 C695.57,577.79 699.44,568.48 698.91,564.8 C698.38,561.12 708.91,544.26 708.91,544.26 L715.57,521.6 L717.57,514.6 L717.65,510.43 C717.65,508.55 717.74,506.14 717.79,503.43 C717.97,492.23 718.16,475.62 717.79,468.11 C717.73,466.95 717.67,466.01 717.59,465.33 C716.71,457.79 724.59,441.33 726.54,437.96 C727.98,435.47 737.3,433.58 742.85,432.41 C744.173333,432.170769 745.482086,431.856935 746.77,431.47 C747.272837,431.3431 747.793575,431.302523 748.31,431.35 C753.55,431.56 769,434.8 769,434.8 C767.6,477.09 770.41,469.72 770.41,469.72 C774.97,466.21 772.16,435.15 772.16,435.15 C774.44,436.2 776.77,433.56 776.77,433.56 L785.67,437.25 C788.380085,438.877808 791.000546,440.650375 793.52,442.56 C795.632611,444.048118 797.487169,445.872273 799.01,447.96 C801.64,452.35 805.33,464.81 805.33,464.81 L802.17,469.81 C799.41,474.24 795.17,481.05 790.82,487.95 L783.1,500.24 C779.65,505.72 776.84,510.17 775.67,511.98 C775.406054,512.414434 775.21993,512.891588 775.12,513.39 C775.053824,513.719964 775.010389,514.054084 774.99,514.39 C774.940988,515.788732 775.078872,517.187748 775.4,518.55 C777.61,529.03 787.6,546.2 787.6,546.2 C787.6,546.2 797.6,561.46 797.78,566.37 C797.96,571.28 808.66,576.55 811.12,583.22 C813.58,589.89 819.01,592.34 818.31,596.38 C817.61,600.42 825.31,602.17 826.73,604.8 C828.15,607.43 823.85,610.77 818.94,611.47 Z" id="Path" fill="#FA595F" fill-rule="nonzero"></path>
            <path d="M832.08,569.16 C829.37,570.99 824.6,570.92 823.02,570.67 L822.45,562.86 L832.1,564.09 C831.947652,565.776285 831.94096,567.472565 832.08,569.16 L832.08,569.16 Z" id="Path" fill="#000000" fill-rule="nonzero" opacity="0.1"></path>
            <path d="M798.23,459.69 L805.43,464.78 C805.43,464.78 808.76,478.11 811.74,482.85 C814.72,487.59 814.37,493.73 814.37,493.73 C815.375125,494.843512 816.313434,496.015563 817.18,497.24 C819.29,500.05 822.09,514.14 821.04,515.96 C819.99,517.78 827.1,532.86 827.1,532.86 C827.1,532.86 828.1,533.86 830.17,539.35 C832.24,544.84 830.17,551.11 830.17,551.11 C830.17,551.11 835.61,563.22 833.33,566.55 C831.05,569.88 823.67,569.55 822.62,569.18 C821.57,568.81 825.43,566.9 818.62,566.37 C811.81,565.84 802.82,553.74 802.82,553.74 C799.260276,547.309293 796.659461,540.392876 795.1,533.21 C793.544118,525.808993 791.434858,518.535223 788.79,511.45 C787.91,508.82 784.05,491.8 784.05,491.8 L798.23,459.69 Z" id="Path" fill="#FA595F" fill-rule="nonzero"></path>
            <path d="M744.36,459.69 C744.36,459.69 743.83,500.4 738.92,508.47 L744.36,459.69 Z" id="Path" fill="#000000" fill-rule="nonzero" opacity="0.1"></path>
            <path d="M772.79,474.08 C772.79,474.08 768.23,514.79 764.63,516.89 C761.03,518.99 772.79,474.08 772.79,474.08 Z" id="Path" fill="#000000" fill-rule="nonzero" opacity="0.1"></path>
            <path d="M766.18,468.29 C766.18,468.29 765.07,506.68 759.28,510.47 C753.49,514.26 766.18,468.29 766.18,468.29 Z" id="Path" fill="#000000" fill-rule="nonzero" opacity="0.1"></path>
            <path d="M715.76,540.93 C715.76,540.93 708.5,562.16 709.32,570.93 C710.14,579.7 715.76,540.93 715.76,540.93 Z" id="Path" fill="#000000" fill-rule="nonzero" opacity="0.1"></path>
            <path d="M775.5,519.95 C766,522.08 740.3,525.9 717.7,511.84 C717.7,509.96 717.79,507.55 717.84,504.84 C726.42,509.56 750.52,521.84 762.79,518.4 C768.91,516.65 772.79,515.54 775.22,514.82 C774.976963,516.531857 775.072092,518.274764 775.5,519.95 L775.5,519.95 Z" id="Path" fill="#000000" fill-rule="nonzero" opacity="0.1"></path>
            <path d="M775.5,517.85 C766,519.97 740.3,523.79 717.7,509.74 C717.7,507.86 717.79,505.44 717.84,502.74 C726.42,507.46 750.52,519.74 762.79,516.3 C768.91,514.56 772.79,513.44 775.22,512.73 C774.978543,514.438595 775.073662,516.177925 775.5,517.85 Z" id="Path" fill="#000000" fill-rule="nonzero" opacity="0.1"></path>
            <path d="M775.5,518.6 C766,520.72 740.3,524.54 717.7,510.49 C717.7,508.61 717.79,506.2 717.84,503.49 C726.42,508.21 750.52,520.49 762.79,517.05 C768.91,515.31 772.79,514.19 775.22,513.48 C774.978543,515.188595 775.073662,516.927925 775.5,518.6 Z" id="Path" fill="#605D82" fill-rule="nonzero"></path>
            <path d="M775.5,518.6 C766,520.72 740.3,524.54 717.7,510.49 C717.7,508.61 717.79,506.2 717.84,503.49 C726.42,508.21 750.52,520.49 762.79,517.05 C768.91,515.31 772.79,514.19 775.22,513.48 C774.978543,515.188595 775.073662,516.927925 775.5,518.6 Z" id="Path" fill="#000000" fill-rule="nonzero" opacity="0.1"></path>
            <path d="M734.61,760.07 C734.61,760.3 734.56,760.45 734.55,760.5 L719.88,771.69 C722.22,769.56 722.82,764.6 722.81,760 C722.81,759.5 722.81,759 722.81,758.5 C724.10127,755.321108 725.935228,752.390835 728.23,749.84 C730.73,749.19 732.3,749.84 733.23,750.97 C733.23,751.08 733.23,751.19 733.23,751.29 C733.429443,751.531614 733.603681,751.79297 733.75,752.07 C735.22,754.6 734.8,758.73 734.61,760.07 Z" id="Path" fill="#000000" fill-rule="nonzero" opacity="0.1"></path>
            <path d="M733.47,754.39 L722.4,761.99 C722.4,761.99 722.47,761.1 722.57,759.79 C723.888088,756.390648 725.808874,753.25709 728.24,750.54 C730.74,749.9 732.31,750.54 733.24,751.67 C733.33,753.31 733.47,754.39 733.47,754.39 Z" id="Path" fill="#000000" fill-rule="nonzero" opacity="0.1"></path>
            <path d="M734.54,761.22 C732.986223,764.782699 732.202451,768.633403 732.24,772.52 C732.306007,775.714607 731.493092,778.865951 729.89,781.63 C729.665833,782.021519 729.408205,782.392904 729.12,782.74 C729.12,782.74 721.43,782.68 718.74,780.45 C718.434812,780.223466 718.18235,779.933476 718,779.6 C716.46,776.53 721,764.77 721,764.77 C723.38,755.7 728.22,750.86 728.22,750.86 C736.85,748.6 734.54,761.22 734.54,761.22 Z" id="Path" fill="#5A5773" fill-rule="nonzero"></path>
            <path d="M729.89,781.6 C729.665833,781.991519 729.408205,782.362904 729.12,782.71 C729.12,782.71 721.43,782.65 718.74,780.42 C720.06,776.04 724.29,762.79 726.26,765.04 C728.23,767.29 729.42,777.37 729.89,781.6 Z" id="Path" fill="#000000" fill-rule="nonzero" opacity="0.1"></path>
            <path d="M728.83,765.89 L728.3,785.75 L730.88,785.75 C730.88,785.75 731.29,768.33 732.45,765.89 C733.61,763.45 728.83,765.89 728.83,765.89 Z" id="Path" fill="#5A5773" fill-rule="nonzero"></path>
            <path d="M785.66,755.6 L785.6,756.01 L785.6,756.01 L771,767.12 C773.27,764.94 773.86,760.04 773.85,755.5 C773.85,755 773.85,754.5 773.85,753.99 C775.13854,750.814995 776.969115,747.888105 779.26,745.34 C781.76,744.69 783.34,745.34 784.31,746.46 C784.31,746.58 784.31,746.68 784.31,746.79 C784.511543,747.026444 784.685964,747.284721 784.83,747.56 C786.28,750.13 785.85,754.27 785.66,755.6 Z" id="Path" fill="#000000" fill-rule="nonzero" opacity="0.1"></path>
            <path d="M784.52,749.88 L773.45,757.49 C773.45,757.49 773.52,756.6 773.63,755.29 C774.939101,751.888444 776.857096,748.75391 779.29,746.04 C781.79,745.4 783.36,745.99 784.34,747.17 C784.38,748.81 784.52,749.88 784.52,749.88 Z" id="Path" fill="#000000" fill-rule="nonzero" opacity="0.1"></path>
            <path d="M785.6,756.72 C784.038146,760.280478 783.250755,764.132217 783.29,768.02 C783.356007,771.214607 782.543092,774.365951 780.94,777.13 C780.71256,777.519442 780.455113,777.890566 780.17,778.24 C780.17,778.24 772.48,778.18 769.79,775.95 C769.493668,775.715634 769.248609,775.422925 769.07,775.09 C767.54,772.02 772.07,760.26 772.07,760.26 C774.45,751.19 779.29,746.35 779.29,746.35 C787.9,744.12 785.6,756.72 785.6,756.72 Z" id="Path" fill="#5A5773" fill-rule="nonzero"></path>
            <path d="M780.94,777.13 C780.71256,777.519442 780.455113,777.890566 780.17,778.24 C780.17,778.24 772.48,778.18 769.79,775.95 C771.11,771.57 775.34,758.31 777.31,760.56 C779.28,762.81 780.47,772.87 780.94,777.13 Z" id="Path" fill="#000000" fill-rule="nonzero" opacity="0.1"></path>
            <path d="M779.89,761.39 L779.35,781.24 L781.93,781.24 C781.93,781.24 782.34,763.83 783.5,761.39 C784.66,758.95 779.89,761.39 779.89,761.39 Z" id="Path" fill="#5A5773" fill-rule="nonzero"></path>
            <path d="M802.88,475.31 C802.76,480.31 800.03,485.64 795.24,487.13 C793.84,487.56 792.35,487.66 790.92,487.95 C790.232421,488.077088 789.561468,488.281728 788.92,488.56 C785.85,489.97 784.32,493.47 783.7,496.79 C783.48,497.93 783.34,499.08 783.2,500.24 C783.034351,502.448175 782.573585,504.624201 781.83,506.71 C780.45972,509.923191 778.098105,512.614171 775.09,514.39 C771.597454,516.466101 767.830677,518.041482 763.9,519.07 C767.917545,512.88075 769.014385,505.239432 766.9,498.17 C766.26,496.12 764.9,493.83 762.73,493.89 C761.04,493.94 759.83,495.44 758.57,496.58 C752.37,502.16 742.67,499.67 734.82,496.86 C748.82,482.63 752.71,459.52 744.27,441.47 C743.503107,440.061882 742.924812,438.558986 742.55,437 C742.301567,435.448375 742.449484,433.859125 742.98,432.38 C743.661643,430.486721 744.618591,428.704237 745.82,427.09 C746.31,426.4 746.82,425.72 747.34,425.03 C748.01,424.12 748.68,423.2 749.28,422.25 C750.169066,420.920174 750.843941,419.459068 751.28,417.92 C752.17,414.52 750.92,410.22 747.63,409.06 L747.45,408.99 C743.81,407.85 742.68,407.51 740.2,404.59 C738.54,402.65 737.6,399.59 734.76,399.02 C732.58,398.57 730.14,399.54 727.85,400.13 C729.070229,392.240467 735.01967,385.915233 742.819782,384.214661 C750.619893,382.514088 758.662312,385.788832 763.055841,392.454459 C767.449371,399.120086 767.288078,407.80216 762.65,414.3 C765.21,422.7 771.84,429.4 776.92,433.53 L785.82,437.22 C788.530085,438.847808 791.150546,440.620375 793.67,442.53 C795.044194,448.773606 796.93744,454.891536 799.33,460.82 C800.549737,463.742228 801.552453,466.750375 802.33,469.82 C802.741431,471.619925 802.926197,473.464229 802.88,475.31 L802.88,475.31 Z" id="Path" fill="#000000" fill-rule="nonzero" opacity="0.1"></path>
            <path d="M748.1,408.29 C751.52,409.36 752.84,413.76 751.93,417.22 C751.02,420.68 748.57,423.48 746.5,426.39 C744.43,429.3 742.59,432.78 743.22,436.3 C743.594812,437.858986 744.173107,439.361882 744.94,440.77 C753.38,458.82 749.44,481.92 735.49,496.16 C743.34,498.97 753.05,501.46 759.24,495.88 C760.5,494.74 761.71,493.24 763.4,493.19 C765.55,493.12 766.94,495.42 767.57,497.47 C769.684056,504.536175 768.587147,512.174323 764.57,518.36 C771.8,516.26 779.74,513.01 782.51,506.01 C783.75,502.88 783.75,499.4 784.37,496.08 C784.99,492.76 786.52,489.27 789.59,487.86 C791.59,486.96 793.84,487.07 795.91,486.43 C800.7,484.94 803.43,479.62 803.55,474.61 C803.67,469.6 801.75,464.79 799.95,460.12 C789.95,434.12 799.35,454.95 793.87,423.66 C792.75,417.27 794.5,413.45 795.93,407.13 C797.36,400.81 797.05,393.49 792.66,388.71 C788.27,383.93 781.45,383.04 776,379.8 C771.17,376.92 766.92,372.07 761.3,372.16 C757.18,372.22 757.19,372.89 753.39,374.49 C746.82,377.25 739.45,376.42 732.77,378.7 C726.77,380.76 719.15,387.5 720.97,394.7 C723.42,404.39 730.14,397.26 735.38,398.35 C738.22,398.95 739.16,401.97 740.82,403.92 C743.34,406.8 744.46,407.15 748.1,408.29 Z" id="Path" fill="#4A4347" fill-rule="nonzero"></path>
            <path d="M685,526.49 C685,526.49 682.16,526.19 678.34,525.6 C668.34,524.08 651.43,520.6 661.05,515.6 C669.88,510.98 682.05,514.9 689.17,518.04 C691.19525,518.934072 693.171389,519.935494 695.09,521.04 L685,526.49 Z" id="Path" fill="#A1616A" fill-rule="nonzero"></path>
            <path d="M738.22,465.48 C738.22,465.48 733.66,488.48 731.38,493.55 C729.1,498.62 725.38,511.98 725.38,511.98 C725.38,511.98 719.99,516.86 715.54,521.6 L717.54,514.6 L717.62,510.43 C717.62,508.55 717.71,506.14 717.76,503.43 C717.94,492.23 718.13,475.62 717.76,468.11 C718.15,467.38 718.4,466.93 718.4,466.93 L721.95,461.3 C721.95,461.3 727.74,445.86 731.07,441.47 C734.4,437.08 738.22,465.48 738.22,465.48 Z" id="Path" fill="#000000" fill-rule="nonzero" opacity="0.1"></path>
            <path d="M687.79,523.44 C687.79,523.44 687.28,525.44 686.42,528.14 C685.33,527.7 684.42,527.35 683.75,527.14 C680.75,526.14 684.28,524.86 683.4,522.23 C682.65,519.97 681.26,520.68 679.66,520.05 C680.706683,518.62605 681.838761,517.266888 683.05,515.98 L687.79,523.44 Z" id="Path" fill="#000000" fill-rule="nonzero" opacity="0.1"></path>
            <path d="M721.37,461.27 L717.82,466.9 C717.82,466.9 713,475.83 712.25,478.6 C711.5,481.37 710,491.97 707,494.43 C704,496.89 697.87,504.78 698.75,506.36 C699.63,507.94 690.5,509.87 690.5,509.87 C690.5,509.87 684.36,512.33 684.71,514.26 C685.06,516.19 679.62,517.77 681.55,519.17 C683.48,520.57 685.24,519.17 686.12,521.8 C687,524.43 683.48,525.67 686.47,526.72 C689.46,527.77 699.28,531.88 699.28,531.88 C699.28,531.88 707.17,533.21 709.45,528.47 C711.73,523.73 724.72,511.98 724.72,511.98 C724.72,511.98 728.4,498.64 730.72,493.55 C733.04,488.46 737.57,465.48 737.57,465.48 C737.57,465.48 733.88,437.05 730.57,441.48 C727.26,445.91 721.37,461.27 721.37,461.27 Z" id="Path" fill="#FA595F" fill-rule="nonzero"></path>
            <path d="M711.37,506.54 C711.37,506.54 694,508.82 703.3,512.68 C712.6,516.54 715.76,512.68 715.76,512.68 L711.37,506.54 Z" id="Path" fill="#000000" fill-rule="nonzero" opacity="0.1"></path>
            <path d="M689.79,516.89 C689.79,516.89 699.97,514.79 702.6,516.89 C705.23,518.99 689.79,516.89 689.79,516.89 Z" id="Path" fill="#000000" fill-rule="nonzero" opacity="0.1"></path>
            <path d="M688.74,522.16 C688.74,522.16 689.44,520.4 692.95,522.16 C696.46,523.92 688.74,522.16 688.74,522.16 Z" id="Path" fill="#000000" fill-rule="nonzero" opacity="0.1"></path>
            <path d="M803.58,538.92 C803.58,538.92 804.64,554.92 808.95,555.44 C813.26,555.96 803.58,538.92 803.58,538.92 Z" id="Path" fill="#000000" fill-rule="nonzero" opacity="0.1"></path>
            <path d="M812.8,502.7 C812.8,502.7 813.53,507.59 808.95,508.47 C804.37,509.35 812.8,502.7 812.8,502.7 Z" id="Path" fill="#000000" fill-rule="nonzero" opacity="0.1"></path>
            <path d="M760.85,550.29 C760.85,550.29 760.62,599.66 770.68,605.74 L760.85,550.29 Z" id="Path" fill="#000000" fill-rule="nonzero" opacity="0.1"></path>
            <path d="M774.18,552.4 C774.18,552.4 774,601.76 784,607.85 L774.18,552.4 Z" id="Path" fill="#000000" fill-rule="nonzero" opacity="0.1"></path>
            <path d="M720.72,659.29 C722.998421,659.078183 725.291579,659.078183 727.57,659.29 C731.38,659.6 720.72,659.29 720.72,659.29 Z" id="Path" fill="#000000" fill-rule="nonzero" opacity="0.1"></path>
            <path d="M720.72,662.74 C722.998421,662.528183 725.291579,662.528183 727.57,662.74 C731.38,663.09 720.72,662.74 720.72,662.74 Z" id="Path" fill="#000000" fill-rule="nonzero" opacity="0.1"></path>
            <path d="M772.77,655.24 C775.048421,655.028183 777.341579,655.028183 779.62,655.24 C783.43,655.6 772.77,655.24 772.77,655.24 Z" id="Path" fill="#000000" fill-rule="nonzero" opacity="0.1"></path>
            <path d="M773.94,658 C776.218421,657.788183 778.511579,657.788183 780.79,658 C784.59,658.35 773.94,658 773.94,658 Z" id="Path" fill="#000000" fill-rule="nonzero" opacity="0.1"></path>
            <g id="Group" opacity="0.1" transform="translate(720.000000, 379.000000)" fill="#000000" fill-rule="nonzero">
                <path d="M19.18,115.43 C33.18,101.2 37.07,78.1 28.63,60.04 C27.8631075,58.6318822 27.2848117,57.1289856 26.91,55.57 C26.28,52.05 28.11,48.57 30.19,45.66 C32.27,42.75 34.72,39.95 35.62,36.49 C36.52,33.03 35.21,28.63 31.79,27.57 C28.15,26.43 27.02,26.08 24.54,23.16 C22.88,21.22 21.94,18.16 19.1,17.6 C13.86,16.51 7.1,23.6 4.69,13.94 C3.31,8.52 7.34,3.34 11.99,0.25 C6.18,2.66 -0.54,9.06 1.18,15.83 C3.63,25.52 10.35,18.4 15.59,19.49 C18.43,20.08 19.37,23.11 21.03,25.05 C23.52,27.97 24.64,28.32 28.28,29.46 C31.7,30.52 33.02,34.92 32.11,38.38 C31.2,41.84 28.75,44.64 26.68,47.55 C24.61,50.46 22.77,53.94 23.4,57.47 C23.7766334,59.0252349 24.354861,60.5245924 25.12,61.93 C33.56,79.99 29.62,103.09 15.67,117.32 C23.23,120.03 32.5,122.43 38.67,117.63 C32.82,119.69 25.42,117.66 19.18,115.43 Z" id="Path"></path>
                <path d="M73.31,107.14 C72.5668432,107.477882 71.8896475,107.945147 71.31,108.52 C72.89,108.13 74.56,108.08 76.11,107.59 C77.3119405,107.217882 78.4225008,106.597876 79.37,105.77 C77.38,106.33 75.2,106.27 73.31,107.14 Z" id="Path"></path>
                <path d="M55.89,134.89 C53.4270805,135.990681 50.8869747,136.909799 48.29,137.64 C52.3071465,131.454323 53.4040562,123.816175 51.29,116.75 C50.66,114.75 49.29,112.4 47.12,112.46 C45.8163614,112.660721 44.6334508,113.337688 43.8,114.36 C45.8,114.43 47.17,116.65 47.8,118.64 C49.9140562,125.706175 48.8171465,133.344323 44.8,139.53 C48.6918663,138.498952 52.4234802,136.937663 55.89,134.89 L55.89,134.89 Z" id="Path"></path>
            </g>
        </g>
    </g>
</svg>